<svg xmlns="http://www.w3.org/2000/svg" viewBox="0 0 780.4 673.72"><defs><style>.cls-1{fill:#a0a0a0;}.cls-2{fill:#862828;}.cls-3{fill:#0098af;}.cls-4{fill:#e78335;}.cls-5{fill:#ebebeb;}</style></defs><g id="Layer_2" data-name="Layer 2"><g id="color"><path class="cls-1" d="M1.87,0H9.12a5.14,5.14,0,0,1,4,1.46,5.49,5.49,0,0,1,1.34,3.87,5.63,5.63,0,0,1-.66,2.76A4.55,4.55,0,0,1,11.88,10,6,6,0,0,1,9,10.61H5.11v4.85H1.87ZM8.35,8a2.84,2.84,0,0,0,2.09-.72,2.68,2.68,0,0,0,.72-2,2.85,2.85,0,0,0-.67-2.05,2.63,2.63,0,0,0-2-.71H5.11V8Z"/><path class="cls-1" d="M18.62,0H26a5.09,5.09,0,0,1,3.88,1.37A5.37,5.37,0,0,1,31.2,5.18a4.55,4.55,0,0,1-.8,2.69A4.51,4.51,0,0,1,28.13,9.5a3.59,3.59,0,0,1,.59.66,7.36,7.36,0,0,1,.49,1l1.87,4.32H27.72L25.9,11.3a1.71,1.71,0,0,0-.54-.75,1.69,1.69,0,0,0-.95-.21H21.86v5.12H18.62ZM25.2,7.66a3.08,3.08,0,0,0,2-.59,2.35,2.35,0,0,0,.69-1.89,2.54,2.54,0,0,0-.62-1.89,2.66,2.66,0,0,0-1.9-.6H21.86v5Z"/><path class="cls-1" d="M35.86,0H39.1V15.46H35.86Z"/><path class="cls-1" d="M44.23,0H47.5L52,9.29,56.57,0h3.24V15.46H56.57V5.4L53,12.79H51.1L47.47,5.4V15.46H44.23Z"/><path class="cls-1" d="M69.77,0h3.55L79.2,15.46H75.84l-1.46-3.72H68.69l-1.44,3.72H63.86ZM73.9,9.24,71.52,3,69.17,9.24Z"/><path class="cls-1" d="M83.86,0h7.41a5.09,5.09,0,0,1,3.88,1.37,5.37,5.37,0,0,1,1.28,3.81,4.55,4.55,0,0,1-.8,2.69A4.51,4.51,0,0,1,93.36,9.5a3.59,3.59,0,0,1,.59.66,7.36,7.36,0,0,1,.49,1l1.87,4.32H93L91.13,11.3a1.71,1.71,0,0,0-.54-.75,1.69,1.69,0,0,0-1-.21H87.1v5.12H83.86Zm6.57,7.66a3.08,3.08,0,0,0,2-.59,2.35,2.35,0,0,0,.69-1.89,2.5,2.5,0,0,0-.62-1.89,2.66,2.66,0,0,0-1.9-.6H87.1v5Z"/><path class="cls-1" d="M104.59,9.74,99.05,0h3.38l3.79,7L110,0h3.36l-5.55,9.74v5.72h-3.24Z"/><path class="cls-1" d="M619.18,15.29V12.44a13.67,13.67,0,0,0,2.3.69,11.07,11.07,0,0,0,2.38.27,6.54,6.54,0,0,0,2.53-.34,1.36,1.36,0,0,0,.73-1.39,1.7,1.7,0,0,0-.33-1.1,2.6,2.6,0,0,0-1.11-.71c-.51-.2-1.31-.45-2.4-.76a7.65,7.65,0,0,1-3.4-1.68,3.8,3.8,0,0,1-1-2.78,3.84,3.84,0,0,1,1.56-3.29A7.55,7.55,0,0,1,625,.2a17.3,17.3,0,0,1,2.55.18,9.32,9.32,0,0,1,2,.47V3.7a11.63,11.63,0,0,0-4.1-.74,6.29,6.29,0,0,0-2.44.36,1.32,1.32,0,0,0-.8,1.32,1.45,1.45,0,0,0,.3,1,2.44,2.44,0,0,0,1,.63,18.31,18.31,0,0,0,2.19.66,7.63,7.63,0,0,1,3.72,1.86,4.19,4.19,0,0,1,1,2.92A3.88,3.88,0,0,1,628.85,15a7.73,7.73,0,0,1-4.68,1.18A12.46,12.46,0,0,1,619.18,15.29Z"/><path class="cls-1" d="M635.09.44h11.09V3h-7.85v4h7V9.41h-7v4h7.85v2.49H635.09Z"/><path class="cls-1" d="M651.12,14.06A7.76,7.76,0,0,1,649,8.31a8.33,8.33,0,0,1,2-6A7.9,7.9,0,0,1,657,.2a13.24,13.24,0,0,1,4.61.77V3.8A11.38,11.38,0,0,0,657.27,3a4.79,4.79,0,0,0-3.78,1.31,5.92,5.92,0,0,0-1.17,4,5.3,5.3,0,0,0,1.24,3.83,5.05,5.05,0,0,0,3.76,1.26,11.26,11.26,0,0,0,4.34-.82v2.86a14.89,14.89,0,0,1-4.61.69A8.08,8.08,0,0,1,651.12,14.06Z"/><path class="cls-1" d="M664.76,8.24c0-2.79.62-4.82,1.86-6.11S669.74.2,672.27.2s4.41.64,5.65,1.93,1.86,3.32,1.86,6.11q0,7.89-7.51,7.89T664.76,8.24Zm10.7,3.87a6,6,0,0,0,1-3.87,6.35,6.35,0,0,0-1-4.07,4.88,4.88,0,0,0-6.43,0,6.42,6.42,0,0,0-1,4.07,6,6,0,0,0,1,3.87,4.67,4.67,0,0,0,6.38,0Z"/><path class="cls-1" d="M684.44.44h2.8l7.32,10.29V.44h3.24V15.89H695L687.68,5.6V15.89h-3.24Z"/><path class="cls-1" d="M702.94.44h6.48q3.55,0,5.28,1.83t1.73,6q0,3.93-1.73,5.79t-5.28,1.86h-6.48Zm6,13a5.59,5.59,0,0,0,2.36-.43,2.85,2.85,0,0,0,1.35-1.56,8.61,8.61,0,0,0,.47-3.17,9.31,9.31,0,0,0-.42-3.17,2.6,2.6,0,0,0-1.31-1.52A5.84,5.84,0,0,0,709,3.13h-2.78V13.4Z"/><path class="cls-1" d="M725.43.44H729l5.88,15.45H731.5L730,12.17h-5.69l-1.44,3.72h-3.39Zm4.12,9.24-2.37-6.22-2.35,6.22Z"/><path class="cls-1" d="M739.52.44h7.41a5.06,5.06,0,0,1,3.88,1.37,5.37,5.37,0,0,1,1.28,3.81,4.55,4.55,0,0,1-.8,2.69A4.51,4.51,0,0,1,749,9.94a3.26,3.26,0,0,1,.59.66,7.14,7.14,0,0,1,.49,1L752,15.89h-3.36l-1.82-4.15a1.65,1.65,0,0,0-.54-.75,1.69,1.69,0,0,0-1-.21h-2.55v5.11h-3.23Zm6.57,7.65a3.08,3.08,0,0,0,2-.58,2.36,2.36,0,0,0,.69-1.89,2.54,2.54,0,0,0-.62-1.89,2.66,2.66,0,0,0-1.9-.6h-3.53v5Z"/><path class="cls-1" d="M760.25,10.18,754.71.44h3.38l3.79,7,3.8-7H769l-5.55,9.74v5.71h-3.24Z"/><rect class="cls-2" x="0.5" y="46.46" width="81" height="81" rx="17.98"/><rect class="cls-3" x="120.5" y="46.46" width="81" height="81" rx="17.98"/><rect class="cls-4" x="239.5" y="45.46" width="81" height="81" rx="17.98"/><rect x="616.5" y="45.46" width="81" height="81" rx="17.98"/></g><g id="type"><path class="cls-5" d="M299.38,292.7l-.72-6.84h-4l-.72,6.84h-2.28v-.08l3.92-30.52h2.24l3.92,30.52v.08Zm-2.56-23.88-.16-2.32-.16,2.32-1.6,14.84h3.56Z"/><path class="cls-5" d="M315.34,292.7h-7.12V262.14h7a1.67,1.67,0,0,1,1.88,1.88v9.44a2.07,2.07,0,0,1-1,2l-1.64,1.24,1.72,1.28a2.26,2.26,0,0,1,1,2v10.8A1.67,1.67,0,0,1,315.34,292.7Zm-.52-28.44h-4.28v11.4h2.28l2-1.56Zm.08,15.08-2-1.56h-2.32v12.8h4.36Z"/><path class="cls-5" d="M331.54,292.7H326.3a1.67,1.67,0,0,1-1.88-1.88V264a1.67,1.67,0,0,1,1.88-1.88h5.24a1.67,1.67,0,0,1,1.88,1.88v7.56H331.1v-7.32h-4.36v26.32h4.36v-8h2.32v8.2A1.67,1.67,0,0,1,331.54,292.7Z"/><path class="cls-5" d="M345.94,292.7h-5.32V262.14h5.32a3.6,3.6,0,0,1,3.92,3.88v22.8A3.62,3.62,0,0,1,345.94,292.7Zm1.6-26.36a1.91,1.91,0,0,0-2.08-2.08h-2.52v26.32h2.44a2,2,0,0,0,2.16-2.12Z"/><path class="cls-5" d="M357.06,292.7V262.14h7v2.12h-4.68V275.9h4.4V278h-4.4v12.56h4.8v2.12Z"/><path class="cls-5" d="M373.26,264.26V276h4.32v2.12h-4.32V292.7h-2.32V262.14h7v2.12Z"/><path class="cls-5" d="M391.7,292.7h-5.32a1.67,1.67,0,0,1-1.88-1.88V264a1.67,1.67,0,0,1,1.88-1.88h5.32a1.67,1.67,0,0,1,1.88,1.88v7.4h-2.32v-7.16h-4.44v26.32h4.44V279.66H389v-2.12h4.56v13.28A1.67,1.67,0,0,1,391.7,292.7Z"/><path class="cls-5" d="M407.94,292.7V277.82h-4.8V292.7h-2.32V262.14h2.32v13.52h4.8V262.14h2.32V292.7Z"/><path class="cls-5" d="M417.58,292.7V262.14h2.32V292.7Z"/><path class="cls-5" d="M433.66,292.7h-4.88a1.67,1.67,0,0,1-1.88-1.88v-8.2h2.32v8h4V262.14h2.32v28.68A1.67,1.67,0,0,1,433.66,292.7Z"/><path class="cls-5" d="M449.94,292.7l-4.84-14.88V292.7h-2.32V262.14h2.32v14l4.44-14H452v.12l-4.84,14.64,5.24,15.68v.12Z"/><path class="cls-5" d="M458.26,292.7V262.14h2.32v28.44h4.52v2.12Z"/><path class="cls-5" d="M480.94,292.7V274.42c0-.92.24-3.52.24-3.52l-3.24,18.76h-1.12l-3.24-18.76s.24,2.6.24,3.52V292.7h-2.2V262.14h2.2l3.08,17.16a25.69,25.69,0,0,1,.48,4,25.69,25.69,0,0,1,.48-4l3.08-17.16h2.2V292.7Z"/><path class="cls-5" d="M299.9,332.7l-5.48-22.64s.2,1.84.2,2.64v20h-2.2V302.14h2.12L300,324.58s-.2-1.84-.2-2.64v-19.8H302V332.7Z"/><path class="cls-5" d="M316.86,332.7h-5.72a1.67,1.67,0,0,1-1.88-1.88V304a1.67,1.67,0,0,1,1.88-1.88h5.72a1.67,1.67,0,0,1,1.88,1.88v26.8A1.67,1.67,0,0,1,316.86,332.7Zm-.44-28.44h-4.84v26.32h4.84Z"/><path class="cls-5" d="M333.14,320.46h-4.8V332.7H326V302.14h7.12A1.67,1.67,0,0,1,335,304v14.52A1.7,1.7,0,0,1,333.14,320.46Zm-.44-16.2h-4.36v14h4.36Z"/><path class="cls-5" d="M352.78,332.74l-1.4-1.4,0,.2a1.62,1.62,0,0,1-1.76,1.16h-5.72a1.67,1.67,0,0,1-1.88-1.88V304a1.67,1.67,0,0,1,1.88-1.88h5.72a1.67,1.67,0,0,1,1.88,1.88v24.76L353,330.3v2.44ZM349.14,329,347,326.9v-2.4h.2l2,1.88V304.26H344.3v26.32h4.84Z"/><path class="cls-5" d="M366.18,332.7l-3.88-15.56.16-1.2h3.32V304.26h-4.6V332.7h-2.32V302.14h7.32a1.73,1.73,0,0,1,1.92,1.92v12a1.71,1.71,0,0,1-1.84,1.92h-1.44l3.76,14.64v0Z"/><path class="cls-5" d="M382.26,332.7h-5.2a1.7,1.7,0,0,1-1.92-1.88v-8.2h2.32v8h4.36v-7.32l-6.08-10.92a3.52,3.52,0,0,1-.6-2.16V304a1.7,1.7,0,0,1,1.92-1.88h5.2a1.67,1.67,0,0,1,1.88,1.88v7.56h-2.32v-7.32h-4.36v6.64l6.08,10.88a3.6,3.6,0,0,1,.6,2.2v6.84A1.67,1.67,0,0,1,382.26,332.7Z"/><path class="cls-5" d="M395.78,304.26V332.7h-2.32V304.26h-3.32v-2.12h8.92v2.12Z"/><path class="cls-5" d="M412.62,332.7H407a1.67,1.67,0,0,1-1.88-1.88V302.14h2.32v28.44h4.72V302.14h2.32v28.68A1.67,1.67,0,0,1,412.62,332.7Z"/><path class="cls-5" d="M427.1,332.74h-2.24l-3.8-30.52v-.08h2.28l2.56,23.48c0,.24.08,2.16.08,2.16s0-1.92.08-2.16l2.56-23.48h2.28v.08Z"/><path class="cls-5" d="M448.54,332.74h-2.16l-2.12-21.4c0-.32-.08-2.72-.08-2.72s0,2.4-.08,2.72L442,332.74h-2.16l-2.8-30.6h2.32l1.56,22.16c0,.32.08,2.56.08,2.56s0-2.24.08-2.56l2.12-22.16h2l2.12,22.16c0,.32.08,2.56.08,2.56s0-2.24.08-2.56L449,302.14h2.32Z"/><path class="cls-5" d="M464.46,332.7,461.7,321l-2.76,11.72h-2.32v-.12l3.92-15.48-3.72-14.84v-.12h2.36l2.52,11,2.6-11h2.32v.12L462.9,317l3.92,15.56v.12Z"/><path class="cls-5" d="M478.1,320.78V332.7h-2.32V320.78l-3.92-18.52v-.12h2.32l2.76,14.72,2.76-14.72H482v.12Z"/><path class="cls-5" d="M486.9,332.7v-1.52l6-26.92H487.5v-2.12h7.64v1.56l-5.92,26.88h6v2.12Z"/><path class="cls-5" d="M616.36,292.7H611a1.67,1.67,0,0,1-1.88-1.88V264a1.67,1.67,0,0,1,1.88-1.88h5.32a1.67,1.67,0,0,1,1.88,1.88v26.8A1.67,1.67,0,0,1,616.36,292.7Zm-.44-28.44h-4.44v26.32h4.44Z"/><path class="cls-5" d="M626.28,292.7V268.26h-1.2V268l1.44-5.84h2.08V292.7Z"/><path class="cls-5" d="M635.44,292.7v-1.48l6.6-19.48v-7.48h-4v7.28h-2.32V264a1.67,1.67,0,0,1,1.88-1.88h4.84a1.67,1.67,0,0,1,1.88,1.88v6.76a5.5,5.5,0,0,1-.48,2.24l-5.76,17.56h6.24v2.12Z"/><path class="cls-5" d="M658.32,292.7h-5.2a1.67,1.67,0,0,1-1.88-1.88V282.7h2.32v7.88h4.32V280.3L654,276.94v-.48l3.8-3.28v-8.92h-4.2v7.28h-2.32V264a1.67,1.67,0,0,1,1.88-1.88h5.08a1.67,1.67,0,0,1,1.88,1.88v8.6a2.17,2.17,0,0,1-.92,2.08l-2.48,2,2.52,2.08a2.24,2.24,0,0,1,1,2.08v10A1.67,1.67,0,0,1,658.32,292.7Z"/><path class="cls-5" d="M674.76,284.78v7.92h-2.24v-7.92h-6.16V283.5l5.16-21.36h2.16v.12L668.8,282.7h3.72V271.94h2.24V282.7h1.56v2.08Z"/><path class="cls-5" d="M689.4,292.7h-4.92a1.67,1.67,0,0,1-1.88-1.88V282.7h2.32v7.88h4V276h-6.44l.4-13.84h8.32v2.12h-6.12l-.32,9.6h4.6a1.67,1.67,0,0,1,1.88,1.88v15.08A1.67,1.67,0,0,1,689.4,292.7Z"/><path class="cls-5" d="M705.48,292.7h-5.16a1.67,1.67,0,0,1-1.88-1.88V264a1.67,1.67,0,0,1,1.88-1.88h5.12a1.67,1.67,0,0,1,1.88,1.88v7.36H705v-7.12h-4.24V276h4.68a1.73,1.73,0,0,1,1.92,1.92v12.92A1.67,1.67,0,0,1,705.48,292.7ZM705,278.1h-4.28v12.48H705Z"/><path class="cls-5" d="M718.2,292.7H716l4.56-28.44h-4.2v4.16H714v-6.28h8.84v1.56Z"/><path class="cls-5" d="M736.48,292.7H731.2a1.67,1.67,0,0,1-1.88-1.88V280.5a2.2,2.2,0,0,1,.76-1.88l2.16-1.92-2.12-1.84a2,2,0,0,1-.76-1.8v-9a1.67,1.67,0,0,1,1.88-1.88h5.2a1.67,1.67,0,0,1,1.88,1.88v9a2.12,2.12,0,0,1-.72,1.8l-2.12,1.84,2.12,1.92a2.18,2.18,0,0,1,.8,1.88v10.32A1.7,1.7,0,0,1,736.48,292.7Zm-.4-12.76L733.84,278l-2.2,1.92v10.64h4.44ZM736,264.26h-4.32v9.28l2.16,1.88,2.16-1.88Z"/><path class="cls-5" d="M752.64,292.7h-5.08a1.67,1.67,0,0,1-1.88-1.88v-7.64H748v7.4h4.2V278.86h-4.68a1.73,1.73,0,0,1-1.92-1.92V264a1.67,1.67,0,0,1,1.88-1.88h5.16a1.67,1.67,0,0,1,1.88,1.88v26.8A1.67,1.67,0,0,1,752.64,292.7Zm-.44-28.44h-4.28v12.48h4.28Z"/><path class="cls-5" d="M769,292.7h-5.32a1.67,1.67,0,0,1-1.88-1.88V264a1.67,1.67,0,0,1,1.88-1.88H769a1.67,1.67,0,0,1,1.88,1.88v26.8A1.67,1.67,0,0,1,769,292.7Zm-.44-28.44h-4.44v26.32h4.44Z"/><path class="cls-5" d="M297.68,583.47h1.83l7,17h-2.31l-2-5H295l-2,5h-2.3Zm4,10.36L298.59,586l-3.16,7.87Z"/><path class="cls-5" d="M324.23,596.12a4.11,4.11,0,0,1-1.48,3.19,5.09,5.09,0,0,1-1.58.89,6.11,6.11,0,0,1-1.94.31h-8.08v-17h8.47a3.33,3.33,0,0,1,1.61.38,4.09,4.09,0,0,1,1.22,1,4.31,4.31,0,0,1,.78,1.39,4.77,4.77,0,0,1,.28,1.57,4.58,4.58,0,0,1-.64,2.35,3.89,3.89,0,0,1-1.81,1.61,4.26,4.26,0,0,1,2.31,1.6A4.5,4.5,0,0,1,324.23,596.12Zm-10.92-10.78V591h5.42a2.49,2.49,0,0,0,1.06-.23,2.62,2.62,0,0,0,.82-.61,3,3,0,0,0,.56-.9,3.1,3.1,0,0,0,.2-1.09,3.19,3.19,0,0,0-.19-1.13,2.78,2.78,0,0,0-.52-.91,2.27,2.27,0,0,0-.79-.61,2.39,2.39,0,0,0-1-.21ZM322,595.73a3.21,3.21,0,0,0-.2-1.11,3.16,3.16,0,0,0-.55-1,2.6,2.6,0,0,0-.83-.65,2.33,2.33,0,0,0-1.06-.24h-6.09v5.85h5.92a2.57,2.57,0,0,0,1.11-.24,3.07,3.07,0,0,0,.89-.63,3,3,0,0,0,.6-.93A2.91,2.91,0,0,0,322,595.73Z"/><path class="cls-5" d="M328.55,591.87a9.06,9.06,0,0,1,.54-3.06,8.42,8.42,0,0,1,1.58-2.74,7.88,7.88,0,0,1,2.56-2,7.59,7.59,0,0,1,3.43-.75,7.15,7.15,0,0,1,3.91,1,6.38,6.38,0,0,1,2.42,2.69l-1.7,1.11a5,5,0,0,0-.92-1.37,4.7,4.7,0,0,0-1.18-.89,4.6,4.6,0,0,0-1.31-.48,6.07,6.07,0,0,0-1.32-.15,5.26,5.26,0,0,0-2.51.59,5.81,5.81,0,0,0-1.83,1.54,6.53,6.53,0,0,0-1.12,2.14,7.83,7.83,0,0,0-.37,2.38,7.53,7.53,0,0,0,.44,2.56,7.15,7.15,0,0,0,1.24,2.15,6.13,6.13,0,0,0,1.87,1.49,5.21,5.21,0,0,0,2.35.55,6.06,6.06,0,0,0,1.38-.17,4.83,4.83,0,0,0,1.36-.54,5.64,5.64,0,0,0,1.21-.94,4.51,4.51,0,0,0,.93-1.35l1.8,1a5.59,5.59,0,0,1-1.14,1.69,7.49,7.49,0,0,1-1.66,1.24,8.5,8.5,0,0,1-2,.77,8.34,8.34,0,0,1-2,.26,6.75,6.75,0,0,1-3.22-.77,8.65,8.65,0,0,1-2.53-2,9.44,9.44,0,0,1-1.66-2.81A9.09,9.09,0,0,1,328.55,591.87Z"/><path class="cls-5" d="M348.42,600.51v-17h5.9a8.91,8.91,0,0,1,3.59.67,7.48,7.48,0,0,1,2.58,1.82,7.69,7.69,0,0,1,1.55,2.7,10.51,10.51,0,0,1,.51,3.3,10.27,10.27,0,0,1-.57,3.52,7.68,7.68,0,0,1-1.66,2.69,7.39,7.39,0,0,1-2.6,1.72,9,9,0,0,1-3.4.62ZM360.37,592a8.32,8.32,0,0,0-.4-2.65,5.38,5.38,0,0,0-3.08-3.43,6.33,6.33,0,0,0-2.57-.49h-3.74v13.2h3.74a6.33,6.33,0,0,0,2.61-.51,5.11,5.11,0,0,0,1.89-1.39,5.94,5.94,0,0,0,1.15-2.1A8.24,8.24,0,0,0,360.37,592Z"/><path class="cls-5" d="M379.57,598.59v1.92H368v-17h11.35v1.92h-9.19v5.52h8v1.8h-8v5.88Z"/><path class="cls-5" d="M384.92,600.51v-17h11.26v1.92h-9.1v5.69h7.66v1.8h-7.66v7.63Z"/><path class="cls-5" d="M413,598.2a6.89,6.89,0,0,1-5.18,2.43,6.72,6.72,0,0,1-3.15-.75,8.13,8.13,0,0,1-2.51-2,9.35,9.35,0,0,1-1.67-2.77,8.73,8.73,0,0,1-.61-3.22,9,9,0,0,1,2.25-6,8,8,0,0,1,2.52-1.89,8.13,8.13,0,0,1,7.24.34,6.83,6.83,0,0,1,2.43,2.69l-1.65,1.15a5.17,5.17,0,0,0-2-2.21,5.71,5.71,0,0,0-2.86-.72,5,5,0,0,0-2.35.56,6,6,0,0,0-1.8,1.49,7,7,0,0,0-1.15,2.14,7.86,7.86,0,0,0-.41,2.51,7.15,7.15,0,0,0,.46,2.58,6.84,6.84,0,0,0,1.25,2.13,5.78,5.78,0,0,0,1.87,1.46,5.29,5.29,0,0,0,2.35.52,6.44,6.44,0,0,0,5-2.68v-2.36h-3.67V592h5.5v8.5H413Z"/><path class="cls-5" d="M434.24,583.47v17h-2.16v-7.76H422.7v7.76h-2.16v-17h2.16v7.36h9.38v-7.36Z"/><path class="cls-5" d="M440.72,600.51v-17h2.16v17Z"/><path class="cls-5" d="M448.16,598a4.52,4.52,0,0,0,1.3.6,5.84,5.84,0,0,0,1.84.27,3.75,3.75,0,0,0,1.95-.44,2.66,2.66,0,0,0,1.09-1.28,6.9,6.9,0,0,0,.49-2.1q.12-1.25.12-2.88v-8.66h2.16v8.66a31.67,31.67,0,0,1-.18,3.54,7.32,7.32,0,0,1-.79,2.72,4.3,4.3,0,0,1-1.75,1.76,6.54,6.54,0,0,1-3.09.62,6.32,6.32,0,0,1-3.69-1.06Z"/><path class="cls-5" d="M463.4,600.51v-17h2.16v9.41l8.78-9.43h2.33L469.83,591l7.23,9.53h-2.35l-6.2-8.28-2.95,3.07v5.21Z"/><path class="cls-5" d="M481.45,600.51v-17h2.16v15.12h9.5v1.92Z"/><path class="cls-5" d="M512.6,600.51V587.33l-5.66,10.1h-1.23L500,587.33v13.18h-2.16v-17h2.28l6.17,11.06,6.19-11.06h2.26v17Z"/><path class="cls-5" d="M294.66,611.5v13H292.5v-17h1.68l10.56,13.27V607.49h2.16v17h-1.83Z"/><path class="cls-5" d="M320.29,624.63a7.28,7.28,0,0,1-3.28-.74,8,8,0,0,1-2.53-1.94,8.85,8.85,0,0,1-1.63-2.77,9.23,9.23,0,0,1-.58-3.19,9.12,9.12,0,0,1,2.31-6,8.29,8.29,0,0,1,2.55-1.91,7.39,7.39,0,0,1,3.21-.7,7,7,0,0,1,3.26.75,8.45,8.45,0,0,1,2.52,2,9.22,9.22,0,0,1,2.21,5.93,8.74,8.74,0,0,1-.61,3.26A8.91,8.91,0,0,1,326,622a8,8,0,0,1-2.55,1.9A7.32,7.32,0,0,1,320.29,624.63ZM314.46,616a7.64,7.64,0,0,0,.42,2.51,6.78,6.78,0,0,0,1.19,2.14,5.65,5.65,0,0,0,1.84,1.49,5.17,5.17,0,0,0,2.4.55,4.94,4.94,0,0,0,2.45-.59,6,6,0,0,0,1.84-1.53,6.84,6.84,0,0,0,1.15-2.15,7.82,7.82,0,0,0,.4-2.42,7.6,7.6,0,0,0-.42-2.51,6.69,6.69,0,0,0-1.2-2.14,6.14,6.14,0,0,0-1.85-1.47,5.05,5.05,0,0,0-2.37-.56,5.14,5.14,0,0,0-2.44.58A5.87,5.87,0,0,0,316,611.4a7,7,0,0,0-1.16,2.14A7.37,7.37,0,0,0,314.46,616Z"/><path class="cls-5" d="M333.73,624.51v-17h7.1a4.63,4.63,0,0,1,2.08.46,5.29,5.29,0,0,1,1.63,1.25,6.06,6.06,0,0,1,1.07,1.75,5.29,5.29,0,0,1,.38,2,5.92,5.92,0,0,1-.36,2,5.67,5.67,0,0,1-1,1.75,4.86,4.86,0,0,1-1.58,1.22,4.51,4.51,0,0,1-2,.46h-5.09v6.12Zm2.16-8h5a2.54,2.54,0,0,0,1.21-.28,2.62,2.62,0,0,0,.92-.77,3.65,3.65,0,0,0,.6-1.14,4.12,4.12,0,0,0,.22-1.36,3.84,3.84,0,0,0-.92-2.53,3.14,3.14,0,0,0-1-.74,2.69,2.69,0,0,0-1.19-.26h-4.82Z"/><path class="cls-5" d="M362.55,623.12a8.3,8.3,0,0,1-2.11,1.1,7.32,7.32,0,0,1-2.45.41,7.09,7.09,0,0,1-3.27-.75,8.1,8.1,0,0,1-2.53-1.94,8.71,8.71,0,0,1-1.64-2.76A9.21,9.21,0,0,1,350,616a8.83,8.83,0,0,1,.61-3.27,9,9,0,0,1,1.69-2.76,8.21,8.21,0,0,1,2.56-1.91,7.31,7.31,0,0,1,3.2-.7,7.09,7.09,0,0,1,3.27.75,8.71,8.71,0,0,1,2.52,2,9.28,9.28,0,0,1,1.63,2.77A9.13,9.13,0,0,1,366,616a8.85,8.85,0,0,1-.61,3.28,9.1,9.1,0,0,1-1.69,2.75l2.14,2.47h-2.12Zm-4.53-.44a5,5,0,0,0,1.75-.29,5.46,5.46,0,0,0,1.49-.79L359,618.94h2.11l1.3,1.51a7.25,7.25,0,0,0,1.07-2.09,7.36,7.36,0,0,0,.39-2.37,7.6,7.6,0,0,0-.42-2.51,6.85,6.85,0,0,0-1.2-2.15,6.05,6.05,0,0,0-1.85-1.49,5.4,5.4,0,0,0-4.81,0,5.88,5.88,0,0,0-1.84,1.52,7.08,7.08,0,0,0-1.16,2.15,7.62,7.62,0,0,0,0,5,7,7,0,0,0,1.19,2.14,5.69,5.69,0,0,0,1.85,1.49A5.17,5.17,0,0,0,358,622.68Z"/><path class="cls-5" d="M371.38,624.51v-17h7.3a4.69,4.69,0,0,1,2.08.46,5.41,5.41,0,0,1,1.63,1.25,6.28,6.28,0,0,1,1.07,1.75,5.49,5.49,0,0,1,.38,2,5.75,5.75,0,0,1-.25,1.71,5.48,5.48,0,0,1-.72,1.5,4.75,4.75,0,0,1-1.13,1.15,4.49,4.49,0,0,1-1.48.7l4.13,6.53h-2.45l-3.88-6.12h-4.52v6.12Zm2.16-8h5.16a2.59,2.59,0,0,0,1.22-.29,2.86,2.86,0,0,0,.92-.78,3.65,3.65,0,0,0,.6-1.14,4.32,4.32,0,0,0,.22-1.34,3.58,3.58,0,0,0-.26-1.36,3.76,3.76,0,0,0-.67-1.13,3.16,3.16,0,0,0-1-.77,2.73,2.73,0,0,0-1.19-.27h-5Z"/><path class="cls-5" d="M399.56,611a3.7,3.7,0,0,0-.77-.65,7.41,7.41,0,0,0-2.39-1,7,7,0,0,0-1.47-.15A4.63,4.63,0,0,0,392,610a2.5,2.5,0,0,0-.92,2,2.33,2.33,0,0,0,.26,1.15,2.1,2.1,0,0,0,.83.78,6.16,6.16,0,0,0,1.4.57c.56.16,1.23.33,2,.5a19.67,19.67,0,0,1,2.38.66,7.28,7.28,0,0,1,1.83.92,3.71,3.71,0,0,1,1.15,1.35,4.38,4.38,0,0,1,.4,1.94,4.46,4.46,0,0,1-.48,2.13,4.36,4.36,0,0,1-1.31,1.49,5.84,5.84,0,0,1-2,.86,10.51,10.51,0,0,1-2.45.27,11.27,11.27,0,0,1-3.73-.61,10.2,10.2,0,0,1-3.2-1.79l1-1.82a5.85,5.85,0,0,0,1,.82,8.22,8.22,0,0,0,1.39.73,11.4,11.4,0,0,0,1.68.53,8.88,8.88,0,0,0,1.88.2,5.22,5.22,0,0,0,2.83-.65,2.14,2.14,0,0,0,1-1.94,2.18,2.18,0,0,0-.32-1.21,2.64,2.64,0,0,0-.95-.85,6.64,6.64,0,0,0-1.55-.64c-.61-.19-1.31-.37-2.1-.56a21.91,21.91,0,0,1-2.28-.68,6.46,6.46,0,0,1-1.64-.86,3.43,3.43,0,0,1-1-1.22,4.17,4.17,0,0,1-.33-1.73,4.9,4.9,0,0,1,.45-2.16,4.68,4.68,0,0,1,1.27-1.59,5.75,5.75,0,0,1,1.95-1,9.08,9.08,0,0,1,2.45-.32,8.58,8.58,0,0,1,3.12.53,8.82,8.82,0,0,1,2.47,1.41Z"/><path class="cls-5" d="M418.86,609.39H413v15.12h-2.16V609.39h-5.88v-1.92h13.92Z"/><path class="cls-5" d="M430.71,622.68a4.83,4.83,0,0,0,2.47-.57,4.74,4.74,0,0,0,1.58-1.5,6.24,6.24,0,0,0,.82-2.11,12.27,12.27,0,0,0,.25-2.42v-8.61H438v8.61a13.4,13.4,0,0,1-.39,3.28,7.64,7.64,0,0,1-1.26,2.72,6,6,0,0,1-2.25,1.86,8.5,8.5,0,0,1-6.78,0,6.32,6.32,0,0,1-2.24-1.91,7.59,7.59,0,0,1-1.22-2.74,13.44,13.44,0,0,1-.38-3.18v-8.61h2.16v8.61a11.66,11.66,0,0,0,.26,2.46,5.86,5.86,0,0,0,.84,2.1,4.52,4.52,0,0,0,1.56,1.48A4.72,4.72,0,0,0,430.71,622.68Z"/><path class="cls-5" d="M444.7,607.47l5.64,14.32L456,607.47h2.28l-7,17h-1.87l-7-17Z"/><path class="cls-5" d="M469.18,607.56h2l2.26,5.93,2.28-5.93h2L474.85,615l2.93,7,5.76-14.54h2.35l-7.13,17h-1.87l-3.39-8-3.4,8h-1.88l-7.1-17h2.33L469.23,622l2.91-7Z"/><path class="cls-5" d="M491,607.47l5.19,7.1,5.18-7.1h2.38l-6.41,8.64,6.21,8.4h-2.37l-5-6.87-5,6.87h-2.4l6.22-8.4-6.41-8.64Z"/><path class="cls-5" d="M508.86,607.47l5.16,8.88,5.2-8.88h2.36l-6.48,10.82v6.22h-2.16v-6.27l-6.46-10.77Z"/><path class="cls-5" d="M525.06,622.83l11-13.44H525.27v-1.92h13.3v1.68l-10.8,13.44h10.8v1.92H525.06Z"/><path class="cls-5" d="M620.74,588.58a9.08,9.08,0,0,1-.45,2.92,7.24,7.24,0,0,1-1.28,2.3,5.66,5.66,0,0,1-1.93,1.51,5.46,5.46,0,0,1-2.41.54,5.55,5.55,0,0,1-2.44-.54,5.72,5.72,0,0,1-1.92-1.51,7.61,7.61,0,0,1-1.26-2.3,9.7,9.7,0,0,1,0-5.84,7.61,7.61,0,0,1,1.26-2.3,5.75,5.75,0,0,1,1.92-1.52,5.43,5.43,0,0,1,2.44-.56,5.34,5.34,0,0,1,2.41.56,5.69,5.69,0,0,1,1.93,1.52,7.24,7.24,0,0,1,1.28,2.3A9.08,9.08,0,0,1,620.74,588.58Zm-2.13,0a7.78,7.78,0,0,0-.29-2.16,5.22,5.22,0,0,0-.82-1.69,3.69,3.69,0,0,0-1.25-1.09,3.25,3.25,0,0,0-1.58-.39,3.4,3.4,0,0,0-1.62.39,3.6,3.6,0,0,0-1.25,1.09,5.4,5.4,0,0,0-.8,1.69,7.78,7.78,0,0,0-.29,2.16,7.7,7.7,0,0,0,.29,2.17,5.29,5.29,0,0,0,.8,1.67,3.79,3.79,0,0,0,1.25,1.08,3.4,3.4,0,0,0,1.62.38,3.24,3.24,0,0,0,1.58-.38,3.89,3.89,0,0,0,1.25-1.08,5.11,5.11,0,0,0,.82-1.67A7.7,7.7,0,0,0,618.61,588.58Z"/><path class="cls-5" d="M634.66,593.69v1.92H626v-1.92h3.41v-9.36a2.93,2.93,0,0,1-.67.61,6.23,6.23,0,0,1-1,.6,8.28,8.28,0,0,1-1.16.47,3.5,3.5,0,0,1-1.06.19v-2a2.85,2.85,0,0,0,1.18-.3,8.3,8.3,0,0,0,1.23-.7,9.14,9.14,0,0,0,1-.77,2.22,2.22,0,0,0,.49-.51h2.16v11.78Z"/><path class="cls-5" d="M638.67,595.61a9.35,9.35,0,0,1,.16-1.8,5.11,5.11,0,0,1,.58-1.61,6.11,6.11,0,0,1,1.19-1.46,11.28,11.28,0,0,1,2-1.39c.48-.26,1-.51,1.47-.76a12.31,12.31,0,0,0,1.35-.79,4.72,4.72,0,0,0,1-.9,1.75,1.75,0,0,0,.4-1.13,1.86,1.86,0,0,0-.2-.81,1.93,1.93,0,0,0-.55-.72,2.79,2.79,0,0,0-.9-.51,3.61,3.61,0,0,0-1.23-.19,4.14,4.14,0,0,0-1.31.2,5.12,5.12,0,0,0-1,.51,5.2,5.2,0,0,0-.79.63c-.22.23-.41.43-.55.6L638.86,584a6.22,6.22,0,0,1,.65-.59,7.9,7.9,0,0,1,1.15-.76,9,9,0,0,1,1.61-.66,7.2,7.2,0,0,1,2-.27,6.21,6.21,0,0,1,2,.3,4.35,4.35,0,0,1,1.5.83,3.64,3.64,0,0,1,1,1.23,3.5,3.5,0,0,1,.34,1.5,3.16,3.16,0,0,1-.41,1.63,5,5,0,0,1-1,1.23,6.9,6.9,0,0,1-1.26.9q-.67.38-1.2.63c-.35.18-.75.39-1.19.64a10.61,10.61,0,0,0-1.26.84,6,6,0,0,0-1,1,2.82,2.82,0,0,0-.56,1.25h8.18v1.92Z"/><path class="cls-5" d="M661.47,590a3.81,3.81,0,0,1,2.44,1.41,4.57,4.57,0,0,1,.9,2.86,4.93,4.93,0,0,1-.41,2,4.58,4.58,0,0,1-1.17,1.56,5.27,5.27,0,0,1-1.81,1,7.53,7.53,0,0,1-2.35.35,7.18,7.18,0,0,1-3.2-.68,5.12,5.12,0,0,1-2.15-1.94l1.41-1.41a4.26,4.26,0,0,0,1.49,1.55,4.78,4.78,0,0,0,2.45.56,4.14,4.14,0,0,0,2.6-.74,2.71,2.71,0,0,0,1-2.26,3,3,0,0,0-1-2.41,4.35,4.35,0,0,0-3-.9H658v-1.78h.68a3.81,3.81,0,0,0,2.65-.83,2.71,2.71,0,0,0,.92-2.1,2.16,2.16,0,0,0-.89-1.89,3.74,3.74,0,0,0-2.23-.63,4.55,4.55,0,0,0-2.31.57,3.9,3.9,0,0,0-1.55,1.57l-1.3-1.34a4,4,0,0,1,.85-1.1,6,6,0,0,1,1.25-.85,6.85,6.85,0,0,1,1.54-.55,7.55,7.55,0,0,1,1.74-.19,6.51,6.51,0,0,1,2.07.31,5.32,5.32,0,0,1,1.64.86,3.86,3.86,0,0,1,1,1.35,4,4,0,0,1,.37,1.75,4.73,4.73,0,0,1-.2,1.37,4,4,0,0,1-.6,1.17,3.49,3.49,0,0,1-1,.88A3.61,3.61,0,0,1,661.47,590Z"/><path class="cls-5" d="M676.52,598.66V594.6h-7.71v-1.87l8.38-10.82h1.44v10.77h2.11v1.92h-2.11v4.06Zm-5.52-6h5.73v-7.51Z"/><path class="cls-5" d="M690.77,588.08a6.1,6.1,0,0,1,2.2.39,5.25,5.25,0,0,1,1.76,1.12,5.16,5.16,0,0,1,1.18,1.73,5.47,5.47,0,0,1,.43,2.2,5.66,5.66,0,0,1-.47,2.32,5.38,5.38,0,0,1-1.28,1.79,5.88,5.88,0,0,1-1.92,1.15,6.79,6.79,0,0,1-2.35.41,6.29,6.29,0,0,1-3.29-.87,5.62,5.62,0,0,1-2.21-2.3l1.32-1.15a5.14,5.14,0,0,0,1.79,1.77,4.58,4.58,0,0,0,2.41.68,4.33,4.33,0,0,0,1.53-.28,3.57,3.57,0,0,0,1.22-.77,3.42,3.42,0,0,0,.8-1.19,4,4,0,0,0,.29-1.53,3.74,3.74,0,0,0-.29-1.47,3.55,3.55,0,0,0-.78-1.15,3.25,3.25,0,0,0-1.16-.74,3.84,3.84,0,0,0-1.44-.27,4.25,4.25,0,0,0-1.93.46,3.94,3.94,0,0,0-1.48,1.3h-1.89c0-.08,0-.29.12-.62s.14-.72.24-1.2.19-1,.31-1.57.22-1.16.33-1.75c.28-1.38.58-2.92.91-4.63h8.29v1.94h-6.73l-1,5.43a3.87,3.87,0,0,1,1.32-.88A4.66,4.66,0,0,1,690.77,588.08Z"/><path class="cls-5" d="M713.07,590a5.65,5.65,0,0,1-.47,2.29,5.71,5.71,0,0,1-1.3,1.88,6.41,6.41,0,0,1-6.84,1.21,5.56,5.56,0,0,1-2-1.45,6.52,6.52,0,0,1-1.26-2.31,9.74,9.74,0,0,1-.45-3.08,19.15,19.15,0,0,1,.46-4.41,9.73,9.73,0,0,1,1.3-3.14,5.34,5.34,0,0,1,4.63-2.51,5.93,5.93,0,0,1,3,.79,5.68,5.68,0,0,1,2.13,2.24l-1.3,1.27a4.21,4.21,0,0,0-3.86-2.45,3.64,3.64,0,0,0-1.78.44,4.15,4.15,0,0,0-1.37,1.31,7,7,0,0,0-.89,2.1,12,12,0,0,0-.33,2.82,4.32,4.32,0,0,1,1.7-2,4.88,4.88,0,0,1,2.69-.74,6,6,0,0,1,4.18,1.66,5.81,5.81,0,0,1,1.24,1.83A5.41,5.41,0,0,1,713.07,590ZM707,594a3.83,3.83,0,0,0,1.56-.33,4.08,4.08,0,0,0,1.29-.87,4.28,4.28,0,0,0,.88-1.29,3.9,3.9,0,0,0,.32-1.57,4,4,0,0,0-.32-1.56,4.11,4.11,0,0,0-.88-1.28,4.44,4.44,0,0,0-1.29-.87,4,4,0,0,0-3.14,0,4.53,4.53,0,0,0-1.28.87,4.11,4.11,0,0,0-.88,1.28,4,4,0,0,0-.32,1.56,3.9,3.9,0,0,0,.32,1.57,4.28,4.28,0,0,0,.88,1.29,4.15,4.15,0,0,0,1.28.87A3.82,3.82,0,0,0,707,594Z"/><path class="cls-5" d="M725.93,583.56h-8.76v-1.94h12.1l-8.57,17h-2.4Z"/><path class="cls-5" d="M744.94,590.79a4.28,4.28,0,0,1-.49,2.07,5,5,0,0,1-1.32,1.58,6.25,6.25,0,0,1-1.92,1,7.37,7.37,0,0,1-2.32.36,7,7,0,0,1-2.36-.39,6.22,6.22,0,0,1-1.89-1.08,5.15,5.15,0,0,1-1.24-1.62,4.5,4.5,0,0,1-.46-2,3.69,3.69,0,0,1,.29-1.46A4.53,4.53,0,0,1,734,588a5.64,5.64,0,0,1,1-.93,5.83,5.83,0,0,1,1.15-.61,4.78,4.78,0,0,1-1-.56,4.52,4.52,0,0,1-.84-.79,3.66,3.66,0,0,1-.56-1,3,3,0,0,1-.2-1.12,3.65,3.65,0,0,1,.49-1.91,4.88,4.88,0,0,1,1.27-1.41,5.66,5.66,0,0,1,1.74-.86,6.72,6.72,0,0,1,1.92-.29,6.84,6.84,0,0,1,1.93.29,5.81,5.81,0,0,1,1.75.85,4.72,4.72,0,0,1,1.28,1.39,3.77,3.77,0,0,1,.49,1.91,3.14,3.14,0,0,1-.79,2.11,5,5,0,0,1-1.88,1.37,6.45,6.45,0,0,1,1.24.67,5.13,5.13,0,0,1,1,1,4.84,4.84,0,0,1,.7,1.21A4.13,4.13,0,0,1,744.94,590.79Zm-2.14-.15a2.77,2.77,0,0,0-.34-1.38,3.71,3.71,0,0,0-.9-1,4,4,0,0,0-1.25-.63,4.47,4.47,0,0,0-2.8,0,3.9,3.9,0,0,0-1.22.66,3.36,3.36,0,0,0-.87,1,2.93,2.93,0,0,0-.32,1.36,2.71,2.71,0,0,0,.35,1.37,3.19,3.19,0,0,0,.9,1,4.24,4.24,0,0,0,1.23.64,4.44,4.44,0,0,0,1.38.23,4.26,4.26,0,0,0,1.41-.24,4.38,4.38,0,0,0,1.22-.67,3.66,3.66,0,0,0,.88-1A2.69,2.69,0,0,0,742.8,590.64Zm-7.15-7.53a2.16,2.16,0,0,0,.3,1.14,2.8,2.8,0,0,0,.78.83,3.56,3.56,0,0,0,1.06.5,4.16,4.16,0,0,0,1.15.17,3.83,3.83,0,0,0,1.15-.18,3.61,3.61,0,0,0,1.06-.52,2.61,2.61,0,0,0,.78-.84,2.19,2.19,0,0,0,.3-1.15A2.07,2.07,0,0,0,742,582a2.72,2.72,0,0,0-.73-.82,3.48,3.48,0,0,0-1.06-.51,4.28,4.28,0,0,0-1.24-.18,4.18,4.18,0,0,0-1.24.18,3,3,0,0,0-1,.53,2.64,2.64,0,0,0-.72.84A2.11,2.11,0,0,0,735.65,583.11Z"/><path class="cls-5" d="M749.38,587.79a5.65,5.65,0,0,1,.47-2.29,5.84,5.84,0,0,1,1.29-1.88,6.37,6.37,0,0,1,1.94-1.26,6.56,6.56,0,0,1,4.9,0,5.51,5.51,0,0,1,2,1.45,6.84,6.84,0,0,1,1.26,2.31,9.75,9.75,0,0,1,.44,3.08,19.19,19.19,0,0,1-.45,4.41,10,10,0,0,1-1.3,3.14,5.34,5.34,0,0,1-4.63,2.51,5.93,5.93,0,0,1-3-.79,5.61,5.61,0,0,1-2.13-2.24l1.3-1.27a4.21,4.21,0,0,0,3.86,2.45,3.62,3.62,0,0,0,3.15-1.75,9.05,9.05,0,0,0,1.22-4.92,4.32,4.32,0,0,1-1.7,2,4.9,4.9,0,0,1-2.69.74,5.89,5.89,0,0,1-2.3-.44,6,6,0,0,1-1.88-1.21,5.59,5.59,0,0,1-1.24-1.83A5.49,5.49,0,0,1,749.38,587.79Zm6.07-4.06a3.78,3.78,0,0,0-1.57.33,3.93,3.93,0,0,0-1.28.87,4.28,4.28,0,0,0-.88,1.29,4,4,0,0,0,0,3.14,4.07,4.07,0,0,0,.88,1.27,4.26,4.26,0,0,0,1.28.87,4,4,0,0,0,3.14,0,4.44,4.44,0,0,0,1.29-.87,3.88,3.88,0,0,0,.87-1.27,3.88,3.88,0,0,0,0-3.13,4,4,0,0,0-2.17-2.17A3.77,3.77,0,0,0,755.45,583.73Z"/><path class="cls-5" d="M778.49,588.58a9.08,9.08,0,0,1-.45,2.92,7.24,7.24,0,0,1-1.28,2.3,5.66,5.66,0,0,1-1.93,1.51,5.46,5.46,0,0,1-2.41.54,5.55,5.55,0,0,1-2.44-.54,5.72,5.72,0,0,1-1.92-1.51,7.61,7.61,0,0,1-1.26-2.3,9.7,9.7,0,0,1,0-5.84,7.61,7.61,0,0,1,1.26-2.3,5.75,5.75,0,0,1,1.92-1.52,5.43,5.43,0,0,1,2.44-.56,5.34,5.34,0,0,1,2.41.56,5.69,5.69,0,0,1,1.93,1.52,7.24,7.24,0,0,1,1.28,2.3A9.08,9.08,0,0,1,778.49,588.58Zm-2.13,0a7.78,7.78,0,0,0-.29-2.16,5.22,5.22,0,0,0-.82-1.69,3.69,3.69,0,0,0-1.25-1.09,3.25,3.25,0,0,0-1.58-.39,3.4,3.4,0,0,0-1.62.39,3.6,3.6,0,0,0-1.25,1.09,5.4,5.4,0,0,0-.8,1.69,7.78,7.78,0,0,0-.29,2.16,7.7,7.7,0,0,0,.29,2.17,5.29,5.29,0,0,0,.8,1.67,3.79,3.79,0,0,0,1.25,1.08,3.4,3.4,0,0,0,1.62.38,3.24,3.24,0,0,0,1.58-.38,3.89,3.89,0,0,0,1.25-1.08,5.11,5.11,0,0,0,.82-1.67A7.7,7.7,0,0,0,776.36,588.58Z"/><path class="cls-5" d="M15.26,403.71l-1.26-12H7l-1.26,12h-4v-.14l6.86-53.41h3.92l6.86,53.41v.14Zm-4.48-41.79-.28-4.06-.28,4.06-2.8,26h6.23Z"/><path class="cls-5" d="M45,403.71V374l-6.65.21v29.47H34.51V374l-6.65.21v29.47H24V370.46h3.85v.77l6.09-.77a14.55,14.55,0,0,1,1.61-.21,2.53,2.53,0,0,1,2.17.84l.21.28,6.58-.91a6.24,6.24,0,0,1,1.54-.21c2,0,2.87,1.05,2.87,3v30.45Z"/><path class="cls-5" d="M65,403.71v-.77l-6.23.77a5.83,5.83,0,0,1-1.54.21c-2,0-2.8-1.05-2.8-3V387.54c0-2.1,1-3.15,3.08-3.15H65v-10.5H58.38V380H54.53v-6.37q0-3.15,3.15-3.15h8.05c2.1,0,3.08,1.05,3.08,3.15v30.1Zm.07-16H58.17v12.6L65,400Z"/><path class="cls-5" d="M73.56,403.71v-2.24l8.27-27.37H74.26v-3.64H86.17v2.17l-8.26,27.44h8.26v3.64Z"/><path class="cls-5" d="M91.27,364.16v-6H95.2v6Zm.07,39.55V370.46H95.2v33.25Z"/><path class="cls-5" d="M111.5,403.71V374l-6.79.21v29.47h-3.85V370.46h3.85v.77l6.23-.77a13.74,13.74,0,0,1,1.54-.21c2,0,2.88,1.05,2.88,3v30.45Z"/><path class="cls-5" d="M132.15,416.31h-7.77q-3.15,0-3.15-3.15V408h3.85v4.83h6.37v-9.1h-5.18c-3.5,0-5.46-2.17-5.46-5.53V374.87c0-2.8,1.68-4.62,4.2-4.62a14.43,14.43,0,0,1,1.82.21l4.62.77v-.77h3.85v42.7Q135.3,416.31,132.15,416.31Zm-.7-42.07-3.22-.28a9.38,9.38,0,0,0-1.4-.07,2,2,0,0,0-2.17,2.24v21.56c0,1.61.7,2.45,2.38,2.45h4.41Z"/><path class="cls-5" d="M141,403.71V350.23h3.85v53.48Z"/><path class="cls-5" d="M156.93,416.31H153l2.38-12.74-6-33.11h4l3.92,25.13,3.92-25.13h3.92Z"/><path class="cls-5" d="M185.63,353.8v16.66h3.64V374h-3.64v29.68h-3.85V374h-2.73v-3.57h2.73V353.38c0-2.1,1-3.15,3.08-3.15H190v3.57Z"/><path class="cls-5" d="M204.46,403.71h-8.05c-2.1,0-3.08-1-3.08-3.15V373.61c0-2.1,1-3.15,3.08-3.15h8.05q3.15,0,3.15,3.15v12.53L206,387.82h-8.89v12.46h6.65v-7.7h3.85v8Q207.61,403.71,204.46,403.71Zm-.7-29.82h-6.65v10.57h6.65Z"/><path class="cls-5" d="M230.92,403.78h-3.71L224,380.12l-3.22,23.66h-3.71l-4.76-33.32H216l3,24.85,3.29-24.85h3.43L229,395.31l3-24.85h3.78Z"/><path class="cls-5" d="M261.65,403.71v-.77l-4.62.77a14.43,14.43,0,0,1-1.82.21c-2.52,0-4.2-1.82-4.2-4.62V376c0-3.36,2-5.53,5.46-5.53h5.18V350.23h3.85v53.48Zm0-29.68h-4.41c-1.68,0-2.38.84-2.38,2.45V398a2,2,0,0,0,2.17,2.24,9.86,9.86,0,0,0,1.4-.07l3.22-.28Z"/><path class="cls-5" d="M271.17,364.16v-6h3.92v6Zm.07,39.55V370.46h3.85v33.25Z"/><path class="cls-5" d="M291.4,403.71h-7.63q-3.15,0-3.15-3.15v-8.47h3.85v8.12h6.23v-6.86l-8.82-11a4.78,4.78,0,0,1-1.19-3.43v-5.32c0-2.1,1-3.15,3.08-3.15h7.63c2.1,0,3.08,1.05,3.08,3.15v7.49H290.7V374h-6.23v5.74l8.82,11a4.64,4.64,0,0,1,1.26,3.43v6.44Q294.55,403.71,291.4,403.71Z"/><path class="cls-5" d="M311.07,403.71h-8c-2.1,0-3.08-1-3.08-3.15V373.61c0-2.1,1-3.15,3.08-3.15h8q3.15,0,3.15,3.15v7.84h-3.85V374h-6.51v26.11h6.51v-8.47h3.85v8.89Q314.22,403.71,311.07,403.71Z"/><path class="cls-5" d="M331.16,403.71h-8.33c-2.1,0-3.08-1-3.08-3.15V373.61c0-2.1,1-3.15,3.08-3.15h8.33c2.1,0,3.08,1.05,3.08,3.15v26.95C334.24,402.66,333.26,403.71,331.16,403.71ZM330.39,374H323.6v26.11h6.79Z"/><path class="cls-5" d="M344.17,403.71c-2.1,0-3.08-1-3.08-3.15V374h-2.94v-3.57h2.94V360.1H345v10.36h4V374h-4v26.11h4.13v3.57Z"/><path class="cls-5" d="M363.92,403.71V374l-6.8.21v29.47h-3.85V350.23h3.85v21l6.3-.77a5.86,5.86,0,0,1,1.48-.21c2,0,2.87,1.05,2.87,3v30.45Z"/><path class="cls-5" d="M384.42,403.71h-8.05c-2.1,0-3.08-1-3.08-3.15V373.61c0-2.1,1-3.15,3.08-3.15h8.05q3.15,0,3.15,3.15v12.53L386,387.82h-8.89v12.46h6.65v-7.7h3.85v8Q387.57,403.71,384.42,403.71Zm-.7-29.82h-6.65v10.57h6.65Z"/><path class="cls-5" d="M403.74,416.31v-12.6h-5.18c-3.5,0-5.46-2.17-5.46-5.53V374.87c0-2.8,1.68-4.62,4.2-4.62a14.43,14.43,0,0,1,1.82.21l4.62.77v-.77h3.85v45.85Zm0-42.07-3.22-.28a9.38,9.38,0,0,0-1.4-.07,2,2,0,0,0-2.17,2.24v21.56c0,1.61.7,2.45,2.38,2.45h4.41Z"/><path class="cls-5" d="M423.83,403.71v-.77l-6.23.77a12.67,12.67,0,0,1-1.61.21c-2,0-2.8-1.05-2.8-3V370.46H417v29.68l6.79-.21V370.46h3.85v33.25Z"/><path class="cls-5" d="M444.34,403.71h-8c-2.1,0-3.08-1-3.08-3.15V373.61c0-2.1,1-3.15,3.08-3.15h8q3.15,0,3.15,3.15v12.53l-1.61,1.68H437v12.46h6.65v-7.7h3.85v8Q447.49,403.71,444.34,403.71Zm-.7-29.82H437v10.57h6.65Z"/><path class="cls-5" d="M463.87,403.71h-7.63q-3.15,0-3.15-3.15v-8.47h3.85v8.12h6.23v-6.86l-8.82-11a4.78,4.78,0,0,1-1.19-3.43v-5.32c0-2.1,1-3.15,3.08-3.15h7.63c2.1,0,3.08,1.05,3.08,3.15v7.49h-3.78V374h-6.23v5.74l8.82,11a4.64,4.64,0,0,1,1.26,3.43v6.44Q467,403.71,463.87,403.71Z"/><path class="cls-5" d="M492.57,403.71h-5.18v12.6h-3.85V370.46h3.85v.77l6.3-.77a5.72,5.72,0,0,1,1.47-.21c2,0,2.87,1.05,2.87,3v24.92C498,401.54,496.07,403.71,492.57,403.71ZM494.18,374l-6.79.21v25.9h4.41c1.68,0,2.38-.84,2.38-2.45Z"/><path class="cls-5" d="M512.94,381.66V374l-5.6.21v29.47h-3.85V370.46h3.85v.77l5.11-.77a5.72,5.72,0,0,1,1.47-.21c2,0,2.87,1.05,2.87,3v8.4Z"/><path class="cls-5" d="M532.82,403.71h-8.33c-2.1,0-3.08-1-3.08-3.15V373.61c0-2.1,1-3.15,3.08-3.15h8.33c2.1,0,3.08,1.05,3.08,3.15v26.95C535.9,402.66,534.92,403.71,532.82,403.71ZM532.05,374h-6.79v26.11h6.79Z"/><path class="cls-5" d="M550,403.78h-3.85l-6-33.32h4L548.15,396l3.92-25.55H556Z"/><path class="cls-5" d="M560.4,364.16v-6h3.92v6Zm.07,39.55V370.46h3.85v33.25Z"/><path class="cls-5" d="M580.56,403.71v-.77l-4.62.77a14.43,14.43,0,0,1-1.82.21c-2.52,0-4.2-1.82-4.2-4.62V376c0-3.36,2-5.53,5.46-5.53h5.18V350.23h3.85v53.48Zm0-29.68h-4.41c-1.68,0-2.38.84-2.38,2.45V398a2,2,0,0,0,2.17,2.24,9.86,9.86,0,0,0,1.4-.07l3.22-.28Z"/><path class="cls-5" d="M601.13,403.71h-8c-2.1,0-3.08-1-3.08-3.15V373.61c0-2.1,1-3.15,3.08-3.15h8q3.17,0,3.16,3.15v12.53l-1.62,1.68h-8.89v12.46h6.65v-7.7h3.86v8Q604.29,403.71,601.13,403.71Zm-.7-29.82h-6.65v10.57h6.65Z"/><path class="cls-5" d="M621.92,416.31h-4.83v-3.64h4.06V370.46H625v42.7C625,415.26,624,416.31,621.92,416.31Zm-.77-52.15v-6h3.92v6Z"/><path class="cls-5" d="M641.38,403.71v-.77l-6.23.77a12.67,12.67,0,0,1-1.61.21c-2,0-2.8-1.05-2.8-3V370.46h3.85v29.68l6.79-.21V370.46h3.85v33.25Z"/><path class="cls-5" d="M661.12,403.71l-6.51-17v17h-3.85V350.23h3.85v33.95l5.95-13.72h4.06v.14l-6.79,14.63,7.42,18.34v.14Z"/><path class="cls-5" d="M680,403.71H671.9c-2.1,0-3.08-1-3.08-3.15V373.61c0-2.1,1-3.15,3.08-3.15H680q3.15,0,3.15,3.15v12.53l-1.61,1.68H672.6v12.46h6.65v-7.7h3.85v8Q683.1,403.71,680,403.71Zm-.7-29.82H672.6v10.57h6.65Z"/><path class="cls-5" d="M697.73,403.71h-9V350.23h3.85v21l6.3-.77a5.72,5.72,0,0,1,1.47-.21c2,0,2.87,1.05,2.87,3v24.92C703.19,401.54,701.23,403.71,697.73,403.71ZM699.34,374l-6.79.21v25.9H697c1.68,0,2.38-.84,2.38-2.45Z"/><path class="cls-5" d="M720.2,403.71h-8.33c-2.1,0-3.08-1-3.08-3.15V373.61c0-2.1,1-3.15,3.08-3.15h8.33c2.1,0,3.08,1.05,3.08,3.15v26.95C723.28,402.66,722.3,403.71,720.2,403.71ZM719.43,374h-6.79v26.11h6.79Z"/><path class="cls-5" d="M738.54,403.71,734.9,391l-3.78,12.67H727.2v-.14l5.6-17-5.18-16v-.14h3.92L734.9,382l3.43-11.55h3.85v.14l-5.25,15.89,5.67,17.08v.14Z"/><path class="cls-5" d="M757.72,403.71h-8.05c-2.1,0-3.08-1-3.08-3.15V373.61c0-2.1,1-3.15,3.08-3.15h8.05q3.15,0,3.15,3.15v12.53l-1.61,1.68h-8.89v12.46H757v-7.7h3.85v8Q760.87,403.71,757.72,403.71Zm-.7-29.82h-6.65v10.57H757Z"/><path class="cls-5" d="M777.25,403.71h-7.63q-3.15,0-3.15-3.15v-8.47h3.85v8.12h6.23v-6.86l-8.82-11a4.78,4.78,0,0,1-1.19-3.43v-5.32c0-2.1,1-3.15,3.08-3.15h7.63c2.1,0,3.08,1.05,3.08,3.15v7.49h-3.78V374h-6.23v5.74l8.82,11a4.64,4.64,0,0,1,1.26,3.43v6.44Q780.4,403.71,777.25,403.71Z"/><path class="cls-5" d="M8.06,651.37h2l2.26,5.93,2.28-5.93h2l-2.95,7.42,2.93,7,5.76-14.54h2.35l-7.13,17H15.77l-3.39-8-3.4,8H7.1l-7.1-17H2.33l5.78,14.54,2.91-7Z"/><path class="cls-5" d="M28.82,668.56a4.48,4.48,0,0,1-1.65-.3,4.1,4.1,0,0,1-1.33-.83,3.67,3.67,0,0,1-.89-1.24,3.58,3.58,0,0,1-.33-1.54,3.25,3.25,0,0,1,.39-1.58,3.57,3.57,0,0,1,1.09-1.21,5.68,5.68,0,0,1,1.68-.79,7.54,7.54,0,0,1,2.12-.29,10.61,10.61,0,0,1,1.85.17,7.8,7.8,0,0,1,1.66.46v-1a3,3,0,0,0-3.31-3.29,7,7,0,0,0-4,1.46l-.69-1.36a8.64,8.64,0,0,1,4.87-1.64,5.34,5.34,0,0,1,3.85,1.32,4.9,4.9,0,0,1,1.38,3.72v5.12c0,.49.22.75.67.76v1.83l-.55.07a3.39,3.39,0,0,1-.46,0,1.34,1.34,0,0,1-1-.37,1.55,1.55,0,0,1-.45-.9l0-.89A5.33,5.33,0,0,1,31.57,668,6.53,6.53,0,0,1,28.82,668.56Zm.56-1.59a5.25,5.25,0,0,0,2.1-.42A3.47,3.47,0,0,0,33,665.44a1.33,1.33,0,0,0,.46-.94v-1.85a8.73,8.73,0,0,0-3.19-.6,4.49,4.49,0,0,0-2.58.68,2,2,0,0,0-1,1.75,2.45,2.45,0,0,0,.2,1,2.28,2.28,0,0,0,.58.79,2.69,2.69,0,0,0,.88.53A2.92,2.92,0,0,0,29.38,667Z"/><path class="cls-5" d="M45.53,667.69c-.13.07-.3.14-.51.23s-.44.18-.7.27a6.93,6.93,0,0,1-.87.21,5.07,5.07,0,0,1-1,.09,3.22,3.22,0,0,1-2-.64,2.31,2.31,0,0,1-.84-2v-8.42H37.94v-1.66h1.71v-4.18h2.11v4.18h2.81v1.66H41.76v7.77a1.28,1.28,0,0,0,.46,1,1.51,1.51,0,0,0,1,.31,3.25,3.25,0,0,0,1.14-.2A4.82,4.82,0,0,0,45,666Z"/><path class="cls-5" d="M46.73,662a7,7,0,0,1,.45-2.5,6.15,6.15,0,0,1,3.3-3.44,6.47,6.47,0,0,1,2.61-.52,6.11,6.11,0,0,1,3.23.83,5.41,5.41,0,0,1,2,2.22l-2.07.65A3.42,3.42,0,0,0,55,657.89,3.81,3.81,0,0,0,53,657.4a3.76,3.76,0,0,0-1.63.35,3.83,3.83,0,0,0-1.32,1,4.74,4.74,0,0,0-.88,1.46,5.24,5.24,0,0,0-.32,1.85,5.15,5.15,0,0,0,.33,1.85,5.21,5.21,0,0,0,.9,1.5,4.24,4.24,0,0,0,1.32,1,3.76,3.76,0,0,0,1.62.36,4.11,4.11,0,0,0,1.1-.15,4.82,4.82,0,0,0,1-.42,3.7,3.7,0,0,0,.78-.61,2.31,2.31,0,0,0,.48-.76l2.06.62a4.51,4.51,0,0,1-.8,1.28,5,5,0,0,1-1.21,1,6.74,6.74,0,0,1-1.55.65,6.56,6.56,0,0,1-1.79.24,6.28,6.28,0,0,1-2.59-.53,6.2,6.2,0,0,1-2-1.42,6.32,6.32,0,0,1-1.3-2.07A6.63,6.63,0,0,1,46.73,662Z"/><path class="cls-5" d="M72,668.32H69.86v-7a5,5,0,0,0-.67-2.89,2.26,2.26,0,0,0-2-.95,3.23,3.23,0,0,0-1.24.25,4.62,4.62,0,0,0-1.17.69,4.73,4.73,0,0,0-1,1,4.46,4.46,0,0,0-.63,1.32v7.56H61.1V650.8h2.12v7.68a5.46,5.46,0,0,1,2-2.14,5.33,5.33,0,0,1,2.79-.77,4,4,0,0,1,1.87.41,3.19,3.19,0,0,1,1.22,1.11,4.59,4.59,0,0,1,.66,1.66,9.84,9.84,0,0,1,.21,2.08Z"/><path class="cls-5" d="M80.3,665.77a4.65,4.65,0,0,0,1.3.6,5.86,5.86,0,0,0,1.85.27,3.85,3.85,0,0,0,1.94-.43,2.68,2.68,0,0,0,1.09-1.29,6.89,6.89,0,0,0,.5-2.1q.12-1.25.12-2.88v-8.66h2.16v8.66a31.67,31.67,0,0,1-.18,3.54,7.43,7.43,0,0,1-.8,2.73A4.28,4.28,0,0,1,86.53,668a6.52,6.52,0,0,1-3.08.62,6.42,6.42,0,0,1-3.7-1.05Z"/><path class="cls-5" d="M98.38,668.56a6.32,6.32,0,0,1-2.6-.52,6.11,6.11,0,0,1-2-1.4,6.39,6.39,0,0,1-1.31-2.08,6.83,6.83,0,0,1-.47-2.51,6.68,6.68,0,0,1,.47-2.49,6.31,6.31,0,0,1,1.32-2.07,6.19,6.19,0,0,1,2-1.4,6.44,6.44,0,0,1,2.59-.52,6.23,6.23,0,0,1,2.58.53,6,6,0,0,1,2,1.41,6.25,6.25,0,0,1,1.26,2,6.6,6.6,0,0,1,.44,2.41c0,.17,0,.33,0,.48s0,.25,0,.33H94.22a4.89,4.89,0,0,0,.44,1.71,4.49,4.49,0,0,0,.93,1.32,4.19,4.19,0,0,0,1.31.86,3.87,3.87,0,0,0,1.55.31,4.33,4.33,0,0,0,1.13-.15,5.85,5.85,0,0,0,1-.42,3.62,3.62,0,0,0,.85-.65,2.5,2.5,0,0,0,.56-.86l1.83.5a4.63,4.63,0,0,1-.85,1.27,5.55,5.55,0,0,1-1.25,1,6.5,6.5,0,0,1-1.57.66A6.74,6.74,0,0,1,98.38,668.56Zm4.29-7.35a4.48,4.48,0,0,0-.44-1.64,4.38,4.38,0,0,0-.94-1.28,4,4,0,0,0-1.31-.83,4.31,4.31,0,0,0-3.16,0,4,4,0,0,0-1.31.84,4.2,4.2,0,0,0-.91,1.28,4.41,4.41,0,0,0-.42,1.63Z"/><path class="cls-5" d="M112.73,668.56a6.17,6.17,0,0,1-2.58-.53,6,6,0,0,1-2-1.42,6.19,6.19,0,0,1-1.29-2.06,6.85,6.85,0,0,1-.45-2.47,6.57,6.57,0,0,1,1.76-4.56,6.13,6.13,0,0,1,4.55-1.95,6.29,6.29,0,0,1,2.57.53,6.16,6.16,0,0,1,2,1.42,6.57,6.57,0,0,1,1.76,4.56,6.85,6.85,0,0,1-.45,2.47,6.38,6.38,0,0,1-1.3,2.06,6.18,6.18,0,0,1-4.58,1.95Zm-4.15-6.46a5,5,0,0,0,.32,1.83,4.69,4.69,0,0,0,.89,1.46,4,4,0,0,0,1.32,1,3.69,3.69,0,0,0,1.62.36,3.76,3.76,0,0,0,1.62-.36,4.28,4.28,0,0,0,1.33-1,4.75,4.75,0,0,0,.9-1.49,5.36,5.36,0,0,0,0-3.65,4.86,4.86,0,0,0-.9-1.49,4.28,4.28,0,0,0-1.33-1,3.76,3.76,0,0,0-1.62-.36,3.57,3.57,0,0,0-1.62.37,4.08,4.08,0,0,0-1.32,1,4.72,4.72,0,0,0-.89,1.49A5,5,0,0,0,108.58,662.1Z"/><path class="cls-5" d="M128.62,668.56a5,5,0,0,1-2.75-.77,5.93,5.93,0,0,1-1.89-1.94v7.58h-2.11V655.79h1.87v2.35a5.76,5.76,0,0,1,1.94-1.86,5,5,0,0,1,2.62-.71,5.36,5.36,0,0,1,2.38.53,5.94,5.94,0,0,1,1.87,1.43,6.68,6.68,0,0,1,1.24,2.08,7,7,0,0,1,.44,2.44,7.6,7.6,0,0,1-.41,2.54,6.17,6.17,0,0,1-1.15,2.06A5.57,5.57,0,0,1,130.9,668,5,5,0,0,1,128.62,668.56Zm-.65-1.83a3.63,3.63,0,0,0,1.69-.39,4.3,4.3,0,0,0,1.3-1.06,4.75,4.75,0,0,0,.82-1.5,5.07,5.07,0,0,0,.29-1.73,4.85,4.85,0,0,0-.33-1.78,4.79,4.79,0,0,0-.92-1.49,4.2,4.2,0,0,0-1.35-1,3.87,3.87,0,0,0-1.69-.37,3.22,3.22,0,0,0-1.19.23,5,5,0,0,0-1.15.6,3.94,3.94,0,0,0-.94.88,2.78,2.78,0,0,0-.52,1.1v3.57a5.26,5.26,0,0,0,.68,1.17,4.55,4.55,0,0,0,.93.93,4.66,4.66,0,0,0,1.13.63A3.54,3.54,0,0,0,128,666.73Z"/><path class="cls-5" d="M140.28,668.56a4.53,4.53,0,0,1-1.66-.3,4.21,4.21,0,0,1-1.33-.83,3.81,3.81,0,0,1-.89-1.24,3.72,3.72,0,0,1-.32-1.54,3.35,3.35,0,0,1,.38-1.58,3.68,3.68,0,0,1,1.09-1.21,5.93,5.93,0,0,1,1.68-.79,7.56,7.56,0,0,1,2.13-.29,10.7,10.7,0,0,1,1.85.17,7.87,7.87,0,0,1,1.65.46v-1A3.3,3.3,0,0,0,144,658a3.27,3.27,0,0,0-2.45-.88,7,7,0,0,0-4,1.46l-.7-1.36a8.67,8.67,0,0,1,4.87-1.64,5.34,5.34,0,0,1,3.85,1.32,4.91,4.91,0,0,1,1.39,3.72v5.12c0,.49.22.75.67.76v1.83l-.56.07a3.24,3.24,0,0,1-.45,0,1.34,1.34,0,0,1-1-.37,1.54,1.54,0,0,1-.44-.9l0-.89A5.37,5.37,0,0,1,143,668,6.6,6.6,0,0,1,140.28,668.56Zm.55-1.59a5.25,5.25,0,0,0,2.1-.42,3.51,3.51,0,0,0,1.48-1.11,1.36,1.36,0,0,0,.45-.94v-1.85a8.69,8.69,0,0,0-3.19-.6,4.49,4.49,0,0,0-2.58.68,2,2,0,0,0-1,1.75,2.3,2.3,0,0,0,.21,1,2.16,2.16,0,0,0,.58.79,2.64,2.64,0,0,0,.87.53A3,3,0,0,0,140.83,667Z"/><path class="cls-5" d="M157.22,657.64a5.4,5.4,0,0,0-2.79.81,4.23,4.23,0,0,0-1.72,2.14v7.73H150.6V655.79h2v2.9a6,6,0,0,1,1.7-2.1,4.33,4.33,0,0,1,2.26-.9h.4a1.17,1.17,0,0,1,.29,0Z"/><path class="cls-5" d="M164.49,668.56a5.55,5.55,0,0,1-2.4-.53,5.88,5.88,0,0,1-1.89-1.42,6.59,6.59,0,0,1-1.24-2.06,7.06,7.06,0,0,1-.44-2.47,7.47,7.47,0,0,1,.42-2.51,6.71,6.71,0,0,1,1.17-2.08,5.62,5.62,0,0,1,1.81-1.4,5.11,5.11,0,0,1,2.29-.52,4.78,4.78,0,0,1,2.7.8,6,6,0,0,1,1.88,1.92V650.8h2.11v14.93c0,.49.23.75.67.76v1.83l-.54.07a2.55,2.55,0,0,1-.39,0,1.57,1.57,0,0,1-1.09-.42,1.24,1.24,0,0,1-.47-1v-1a5.43,5.43,0,0,1-4.59,2.59Zm.51-1.83a3.69,3.69,0,0,0,1.19-.21,5.25,5.25,0,0,0,1.15-.6,4.42,4.42,0,0,0,.93-.9,2.67,2.67,0,0,0,.52-1.09v-3.6a3.85,3.85,0,0,0-.65-1.14,5.07,5.07,0,0,0-1-.94,4.74,4.74,0,0,0-1.15-.62,3.28,3.28,0,0,0-1.21-.23,3.67,3.67,0,0,0-1.7.39,4.26,4.26,0,0,0-1.29,1.06,4.72,4.72,0,0,0-.83,1.51,5.47,5.47,0,0,0-.29,1.74,4.92,4.92,0,0,0,1.25,3.27,4.49,4.49,0,0,0,1.36,1A3.84,3.84,0,0,0,165,666.73Z"/><path class="cls-5" d="M175.25,671.73l.62.07.48,0a1,1,0,0,0,.52-.13,1.41,1.41,0,0,0,.45-.52,8.78,8.78,0,0,0,.52-1.06c.19-.46.43-1.06.72-1.79l-5.31-12.53h2.19l4.27,10.63,3.89-10.63h2l-6.09,15.82a3.66,3.66,0,0,1-1.12,1.47,3.26,3.26,0,0,1-2.15.64l-.44,0a3.75,3.75,0,0,1-.56-.09Z"/><path class="cls-5" d="M188.37,662.56V651.11h2.12v11.45Zm0,5.76v-3h2.12v3Z"/><path class="cls-5" d="M194.59,670.26l.48-2.13h-.72v-2.5h2v2.5l-.72,2.13Z"/><path class="cls-5" d="M210.91,651.28h1.82l7,17h-2.3l-2-5h-7.15l-2,5h-2.3Zm4,10.37-3.07-7.88-3.17,7.88Z"/><path class="cls-5" d="M221.93,650.8H224v14.28a1.52,1.52,0,0,0,.37,1.09,1.39,1.39,0,0,0,1,.4,2.64,2.64,0,0,0,.63-.09,4.37,4.37,0,0,0,.67-.2l.34,1.7a6.2,6.2,0,0,1-1.25.36,6.37,6.37,0,0,1-1.27.15,2.68,2.68,0,0,1-1.94-.7,2.59,2.59,0,0,1-.7-1.94Z"/><path class="cls-5" d="M234.53,668.56a6.32,6.32,0,0,1-2.6-.52,6.11,6.11,0,0,1-2-1.4,6.39,6.39,0,0,1-1.31-2.08,6.83,6.83,0,0,1-.47-2.51,6.68,6.68,0,0,1,.47-2.49,6.31,6.31,0,0,1,1.32-2.07,6.19,6.19,0,0,1,2-1.4,6.44,6.44,0,0,1,2.59-.52,6.23,6.23,0,0,1,2.58.53,6,6,0,0,1,2,1.41,6.25,6.25,0,0,1,1.26,2,6.6,6.6,0,0,1,.44,2.41c0,.17,0,.33,0,.48s0,.25,0,.33h-10.4a4.89,4.89,0,0,0,.44,1.71,4.49,4.49,0,0,0,.93,1.32,4.19,4.19,0,0,0,1.31.86,3.87,3.87,0,0,0,1.55.31,4.33,4.33,0,0,0,1.13-.15,5.85,5.85,0,0,0,1-.42,3.62,3.62,0,0,0,.85-.65,2.5,2.5,0,0,0,.56-.86l1.83.5a4.63,4.63,0,0,1-.85,1.27,5.55,5.55,0,0,1-1.25,1,6.5,6.5,0,0,1-1.57.66A6.74,6.74,0,0,1,234.53,668.56Zm4.29-7.35a4.48,4.48,0,0,0-.44-1.64,4.38,4.38,0,0,0-.94-1.28,4,4,0,0,0-1.31-.83,4.31,4.31,0,0,0-3.16,0,4,4,0,0,0-1.31.84,4.2,4.2,0,0,0-.91,1.28,4.41,4.41,0,0,0-.42,1.63Z"/><path class="cls-5" d="M243.74,655.79l3.43,4.61.2.38.21-.38,3.41-4.61h2.23l-4.68,6.29,4.71,6.24H251l-3.43-4.59-.21-.36-.2.36-3.43,4.59h-2.23l4.7-6.24-4.68-6.29Z"/><path class="cls-5" d="M273.69,653.2h-5.88v15.12h-2.16V653.2h-5.88v-1.92h13.92Z"/><path class="cls-5" d="M280.73,657.64a5.43,5.43,0,0,0-2.8.81,4.23,4.23,0,0,0-1.72,2.14v7.73H274.1V655.79h2v2.9a6,6,0,0,1,1.7-2.1,4.37,4.37,0,0,1,2.26-.9h.41a1.23,1.23,0,0,1,.29,0Z"/><path class="cls-5" d="M288.31,668.56a6.28,6.28,0,0,1-2.59-.52,6,6,0,0,1-2-1.4,6.56,6.56,0,0,1-1.31-2.08,6.82,6.82,0,0,1-.46-2.51,6.52,6.52,0,0,1,1.78-4.56,6.3,6.3,0,0,1,2-1.4,6.48,6.48,0,0,1,2.59-.52,6.17,6.17,0,0,1,2.58.53,6.1,6.1,0,0,1,3.24,3.45,6.61,6.61,0,0,1,.45,2.41c0,.17,0,.33,0,.48a2.11,2.11,0,0,1,0,.33H284.16a4.89,4.89,0,0,0,.43,1.71,4.34,4.34,0,0,0,.94,1.32,4.15,4.15,0,0,0,1.3.86,3.9,3.9,0,0,0,1.55.31,4.28,4.28,0,0,0,1.13-.15,5.55,5.55,0,0,0,1-.42,3.42,3.42,0,0,0,.85-.65,2.69,2.69,0,0,0,.57-.86l1.82.5a4.63,4.63,0,0,1-.85,1.27,5.55,5.55,0,0,1-1.25,1,6.33,6.33,0,0,1-1.57.66A6.74,6.74,0,0,1,288.31,668.56Zm4.3-7.35a4.49,4.49,0,0,0-.45-1.64,4.54,4.54,0,0,0-.93-1.28,4.17,4.17,0,0,0-1.31-.83,4.24,4.24,0,0,0-1.59-.3,4.19,4.19,0,0,0-1.58.3,4.08,4.08,0,0,0-1.31.84,4.38,4.38,0,0,0-.91,1.28,4.84,4.84,0,0,0-.42,1.63Z"/><path class="cls-5" d="M303.62,668.56a5.08,5.08,0,0,1-2.66-.72,5.58,5.58,0,0,1-1.9-1.87v2.35h-1.87V650.8h2.11v7.49a6.43,6.43,0,0,1,1.95-2,4.78,4.78,0,0,1,2.68-.75,4.84,4.84,0,0,1,2.33.56,5.64,5.64,0,0,1,1.77,1.45,6.55,6.55,0,0,1,1.12,2.09,7.46,7.46,0,0,1,.4,2.43,6.77,6.77,0,0,1-.46,2.5,6.61,6.61,0,0,1-1.24,2A5.94,5.94,0,0,1,306,668,5.34,5.34,0,0,1,303.62,668.56Zm-.53-1.83a3.85,3.85,0,0,0,1.73-.38,4.37,4.37,0,0,0,1.37-1,4.81,4.81,0,0,0,1.2-3.22,5.25,5.25,0,0,0-.3-1.76,4.77,4.77,0,0,0-.84-1.5,4.3,4.3,0,0,0-1.3-1.05,3.56,3.56,0,0,0-1.66-.39,3.43,3.43,0,0,0-1.28.24,4.62,4.62,0,0,0-2,1.56,6.21,6.21,0,0,0-.69,1.13V664a2.48,2.48,0,0,0,.52,1.1,4.1,4.1,0,0,0,.93.88,5.07,5.07,0,0,0,1.16.59A3.59,3.59,0,0,0,303.09,666.73Z"/><path class="cls-5" d="M317.92,668.56a6.31,6.31,0,0,1-2.59-.52,6.11,6.11,0,0,1-2-1.4,6.39,6.39,0,0,1-1.31-2.08,6.83,6.83,0,0,1-.47-2.51,6.68,6.68,0,0,1,.47-2.49,6.31,6.31,0,0,1,1.32-2.07,6.19,6.19,0,0,1,2-1.4,6.41,6.41,0,0,1,2.59-.52,6.23,6.23,0,0,1,2.58.53,6.16,6.16,0,0,1,2,1.41,6.25,6.25,0,0,1,1.26,2,6.81,6.81,0,0,1,.44,2.41c0,.17,0,.33,0,.48a2.11,2.11,0,0,1,0,.33H313.77a4.89,4.89,0,0,0,.43,1.71,4.52,4.52,0,0,0,.94,1.32,4.08,4.08,0,0,0,1.31.86A3.87,3.87,0,0,0,318,667a4.2,4.2,0,0,0,1.12-.15,5.65,5.65,0,0,0,1-.42,3.62,3.62,0,0,0,.85-.65,2.66,2.66,0,0,0,.56-.86l1.83.5a4.67,4.67,0,0,1-.86,1.27,5.5,5.5,0,0,1-1.24,1,6.72,6.72,0,0,1-3.38.9Zm4.3-7.35a4.68,4.68,0,0,0-.44-1.64,4.38,4.38,0,0,0-.94-1.28,4.06,4.06,0,0,0-1.31-.83,4.15,4.15,0,0,0-1.58-.3,4.24,4.24,0,0,0-1.59.3,4,4,0,0,0-1.3.84,4.4,4.4,0,0,0-.92,1.28,4.84,4.84,0,0,0-.42,1.63Z"/><path class="cls-5" d="M335.64,668.32l-4.32-6.12-2.4,2.25v3.87H326.8V650.8h2.12v11.52l6.43-6.51h2.33l-5,5.19,5.24,7.32Z"/><path class="cls-5" d="M340,656.29l.48-2.76h-.72V650.8h2v2.73l-.72,2.76Z"/><path class="cls-5" d="M349.12,668.56a9.75,9.75,0,0,1-3-.47,7.11,7.11,0,0,1-2.52-1.36l.91-1.41a8.9,8.9,0,0,0,2.21,1.26,6.46,6.46,0,0,0,2.33.42,3.85,3.85,0,0,0,2.17-.54,1.75,1.75,0,0,0,.8-1.53,1.42,1.42,0,0,0-.21-.78,1.91,1.91,0,0,0-.65-.56,5.48,5.48,0,0,0-1.11-.43c-.44-.13-1-.27-1.56-.41s-1.4-.37-1.94-.55a5.4,5.4,0,0,1-1.34-.63,2.1,2.1,0,0,1-.77-.86,2.9,2.9,0,0,1-.24-1.25,3.48,3.48,0,0,1,1.39-2.89,4.4,4.4,0,0,1,1.52-.74,6.8,6.8,0,0,1,1.89-.26,7.63,7.63,0,0,1,2.64.46,6.39,6.39,0,0,1,2.06,1.2l-1,1.27a5.47,5.47,0,0,0-1.77-1,6.09,6.09,0,0,0-2-.35,3.68,3.68,0,0,0-2,.49,1.71,1.71,0,0,0-.8,1.57,1.42,1.42,0,0,0,.16.72,1.31,1.31,0,0,0,.51.51,4.15,4.15,0,0,0,.93.38q.56.16,1.35.36c.83.19,1.56.39,2.17.59a6.32,6.32,0,0,1,1.54.71,2.67,2.67,0,0,1,.91,1,2.76,2.76,0,0,1,.3,1.34,3.35,3.35,0,0,1-1.34,2.79A5.88,5.88,0,0,1,349.12,668.56Z"/><path class="cls-5" d="M363.81,668.32V657.45h-1.7v-1.66h1.7v-.26a5.82,5.82,0,0,1,1-3.65,3.38,3.38,0,0,1,2.81-1.32,5.6,5.6,0,0,1,1.47.2,5,5,0,0,1,1.29.57l-.53,1.56a2.84,2.84,0,0,0-.82-.39,3.74,3.74,0,0,0-1-.14,1.81,1.81,0,0,0-1.6.79,4,4,0,0,0-.56,2.3v.34h3.34v1.66h-3.34v10.87Z"/><path class="cls-5" d="M375.48,668.56a3.51,3.51,0,0,1-3-1.32,6.44,6.44,0,0,1-1-3.94v-7.51h2.11v7.1q0,3.84,2.67,3.84a4.07,4.07,0,0,0,2.43-.82,5,5,0,0,0,1.7-2.27v-7.85h2.11v9.94c0,.49.22.75.67.76v1.83l-.56.06h-.4a1.49,1.49,0,0,1-1-.37,1.3,1.3,0,0,1-.45-.93l-.05-1.46a5.8,5.8,0,0,1-2.2,2.17A6.08,6.08,0,0,1,375.48,668.56Z"/><path class="cls-5" d="M397.15,668.32H395v-7a5.39,5.39,0,0,0-.62-2.93,2.06,2.06,0,0,0-1.86-.91,3.48,3.48,0,0,0-1.29.25,5.36,5.36,0,0,0-1.23.69,4.45,4.45,0,0,0-1,1,4.28,4.28,0,0,0-.65,1.32v7.56h-2.11V655.79h1.92v2.69a5.43,5.43,0,0,1,2.14-2.11,6.13,6.13,0,0,1,3.06-.8,3.74,3.74,0,0,1,1.8.4,3.06,3.06,0,0,1,1.16,1.1,5.17,5.17,0,0,1,.61,1.67,11.38,11.38,0,0,1,.18,2.09Z"/><path class="cls-5" d="M418.89,653.2H413v15.12h-2.16V653.2H405v-1.92h13.92Z"/><path class="cls-5" d="M422.06,651.28l5.64,14.33,5.62-14.33h2.27l-6.95,17h-1.88l-7-17Z"/><path class="cls-5" d="M448.1,668.56a5,5,0,0,1-2.28-.53A5.59,5.59,0,0,1,444,666.6a6.73,6.73,0,0,1-1.15-2.07,7.59,7.59,0,0,1-.41-2.48,6.68,6.68,0,0,1,.46-2.49,6.5,6.5,0,0,1,1.26-2.07,5.89,5.89,0,0,1,1.88-1.4,5.41,5.41,0,0,1,2.33-.52,5.12,5.12,0,0,1,2.67.72,5.4,5.4,0,0,1,1.89,1.88v-2.38h1.87v15c0,.5.23.75.67.77v1.82a8.68,8.68,0,0,1-1.12.08,1.6,1.6,0,0,1-1.17-.5,1.59,1.59,0,0,1-.49-1.18v-5.88A5.29,5.29,0,0,1,448.1,668.56Zm.72-1.83a3.57,3.57,0,0,0,2.31-.78,6.41,6.41,0,0,0,1.6-1.9v-3.6a3.31,3.31,0,0,0-.5-1.17,4.28,4.28,0,0,0-.93-1,5.18,5.18,0,0,0-1.17-.66,3.4,3.4,0,0,0-1.26-.25,3.71,3.71,0,0,0-1.71.39,4.55,4.55,0,0,0-1.33,1.06,4.81,4.81,0,0,0-.87,1.51,5,5,0,0,0-.32,1.74,5.11,5.11,0,0,0,.32,1.79,4.43,4.43,0,0,0,.86,1.48,4.32,4.32,0,0,0,1.32,1A3.76,3.76,0,0,0,448.82,666.73Z"/><path class="cls-5" d="M462.35,668.56a3.5,3.5,0,0,1-3-1.32,6.44,6.44,0,0,1-1-3.94v-7.51h2.11v7.1q0,3.84,2.67,3.84a4.07,4.07,0,0,0,2.43-.82,4.87,4.87,0,0,0,1.69-2.27v-7.85h2.12v9.94c0,.49.22.75.67.76v1.83l-.57.06h-.39a1.51,1.51,0,0,1-1.05-.37,1.29,1.29,0,0,1-.44-.93l-.05-1.46a5.75,5.75,0,0,1-2.21,2.17A6,6,0,0,1,462.35,668.56Z"/><path class="cls-5" d="M473.15,653.44V650.8h2.12v2.64Zm0,14.88V655.79h2.12v12.53Z"/><path class="cls-5" d="M477.93,667l8-9.62h-7.8v-1.54H488.2v1.37l-8,9.62h8v1.54h-10.3Z"/><path class="cls-5" d="M502.29,668.46a5.09,5.09,0,0,1-2.34-.53,5.91,5.91,0,0,1-1.84-1.41,6.45,6.45,0,0,1-1.18-2,7,7,0,0,1-.42-2.4,7.47,7.47,0,0,1,.42-2.51,6.54,6.54,0,0,1,1.18-2.08,5.73,5.73,0,0,1,1.84-1.4,5.41,5.41,0,0,1,2.36-.52,4.84,4.84,0,0,1,2.74.77,6.8,6.8,0,0,1,1.94,1.95v-2.5h1.88v12.38a5.23,5.23,0,0,1-.51,2.37,4.87,4.87,0,0,1-1.37,1.71,5.9,5.9,0,0,1-2,1.06,8.42,8.42,0,0,1-2.49.36,7.18,7.18,0,0,1-3.47-.73,6.61,6.61,0,0,1-2.22-2l1.23-1.08a4.6,4.6,0,0,0,1.92,1.66,6,6,0,0,0,2.54.55,5.58,5.58,0,0,0,1.65-.24,3.81,3.81,0,0,0,1.35-.72,3.59,3.59,0,0,0,.93-1.2,3.92,3.92,0,0,0,.34-1.71V666a5.3,5.3,0,0,1-.85,1,5.1,5.1,0,0,1-1.07.79,4.8,4.8,0,0,1-1.22.49A4.88,4.88,0,0,1,502.29,668.46Zm.65-1.73a3.52,3.52,0,0,0,1.29-.24,5,5,0,0,0,1.16-.63,4.4,4.4,0,0,0,.88-.9,2.91,2.91,0,0,0,.48-1v-3.6a4.43,4.43,0,0,0-.68-1.18,5.16,5.16,0,0,0-.95-.92,4.21,4.21,0,0,0-1.14-.62,3.79,3.79,0,0,0-1.23-.21,3.47,3.47,0,0,0-1.72.41,4,4,0,0,0-1.28,1.08,4.74,4.74,0,0,0-.82,1.52,5.4,5.4,0,0,0-.29,1.72,4.61,4.61,0,0,0,.34,1.77,4.79,4.79,0,0,0,.91,1.47,4.49,4.49,0,0,0,1.36,1A3.84,3.84,0,0,0,502.94,666.73Z"/><path class="cls-5" d="M515.73,668.56a4.53,4.53,0,0,1-1.66-.3,4.21,4.21,0,0,1-1.33-.83,4,4,0,0,1-.89-1.24,3.72,3.72,0,0,1-.32-1.54,3.35,3.35,0,0,1,.38-1.58,3.61,3.61,0,0,1,1.1-1.21,5.68,5.68,0,0,1,1.68-.79,7.44,7.44,0,0,1,2.12-.29,10.7,10.7,0,0,1,1.85.17,7.87,7.87,0,0,1,1.65.46v-1a3,3,0,0,0-3.31-3.29,7,7,0,0,0-4,1.46l-.7-1.36a8.67,8.67,0,0,1,4.87-1.64,5.38,5.38,0,0,1,3.86,1.32,4.9,4.9,0,0,1,1.38,3.72v5.12c0,.49.22.75.67.76v1.83l-.55.07a3.46,3.46,0,0,1-.46,0,1.34,1.34,0,0,1-1-.37,1.6,1.6,0,0,1-.44-.9l0-.89a5.37,5.37,0,0,1-2.12,1.72A6.56,6.56,0,0,1,515.73,668.56Zm.55-1.59a5.25,5.25,0,0,0,2.1-.42,3.51,3.51,0,0,0,1.48-1.11,1.36,1.36,0,0,0,.45-.94v-1.85a8.65,8.65,0,0,0-3.19-.6,4.54,4.54,0,0,0-2.58.68,2,2,0,0,0-1,1.75,2.31,2.31,0,0,0,.78,1.77,2.64,2.64,0,0,0,.87.53A3,3,0,0,0,516.28,667Z"/><path class="cls-5" d="M544.94,668.32h-2.11v-7a5.26,5.26,0,0,0-.64-2.9,2.11,2.11,0,0,0-1.88-.94,3.38,3.38,0,0,0-2.32.92,5.15,5.15,0,0,0-1.45,2.39v7.54h-2.11v-7a5.29,5.29,0,0,0-.63-2.93,2.1,2.1,0,0,0-1.87-.91,3.39,3.39,0,0,0-2.3.9,4.91,4.91,0,0,0-1.47,2.39v7.56h-2.11V655.79H528v2.69a5.68,5.68,0,0,1,2-2.15,5.2,5.2,0,0,1,2.76-.76,3.56,3.56,0,0,1,2.51.86,3.62,3.62,0,0,1,1.14,2.19,5.23,5.23,0,0,1,4.78-3,3.81,3.81,0,0,1,1.81.4,3,3,0,0,1,1.16,1.1,5.18,5.18,0,0,1,.63,1.67,11.35,11.35,0,0,1,.19,2.09Z"/><path class="cls-5" d="M554,668.56a6.28,6.28,0,0,1-2.59-.52,6,6,0,0,1-2-1.4,6.56,6.56,0,0,1-1.31-2.08,6.82,6.82,0,0,1-.46-2.51,6.52,6.52,0,0,1,1.78-4.56,6.3,6.3,0,0,1,2-1.4,6.48,6.48,0,0,1,2.59-.52,6.17,6.17,0,0,1,2.58.53,6.1,6.1,0,0,1,3.24,3.45,6.61,6.61,0,0,1,.45,2.41c0,.17,0,.33,0,.48a2.11,2.11,0,0,1,0,.33H549.86a4.89,4.89,0,0,0,.43,1.71,4.34,4.34,0,0,0,.94,1.32,4.15,4.15,0,0,0,1.3.86,3.9,3.9,0,0,0,1.55.31,4.28,4.28,0,0,0,1.13-.15,5.55,5.55,0,0,0,1-.42,3.42,3.42,0,0,0,.85-.65,2.69,2.69,0,0,0,.57-.86l1.82.5a4.63,4.63,0,0,1-.85,1.27,5.55,5.55,0,0,1-1.25,1,6.33,6.33,0,0,1-1.57.66A6.74,6.74,0,0,1,554,668.56Zm4.3-7.35a4.49,4.49,0,0,0-.45-1.64,4.54,4.54,0,0,0-.93-1.28,4.17,4.17,0,0,0-1.31-.83,4.24,4.24,0,0,0-1.59-.3,4.19,4.19,0,0,0-1.58.3,4.08,4.08,0,0,0-1.31.84,4.38,4.38,0,0,0-.91,1.28,4.84,4.84,0,0,0-.42,1.63Z"/><path class="cls-5" d="M562.72,668.32v-2.69h1.78v2.69Z"/><path class="cls-1" d="M1.87,218H5.11v6.48h6.75V218H15.1v15.46H11.86V227H5.11v6.48H1.87Z"/><path class="cls-1" d="M20.23,218H31.32v2.52H23.47v4h7V227h-7v4h7.85v2.5H20.23Z"/><path class="cls-1" d="M41.4,218H45l5.88,15.46H47.47L46,229.74H40.32l-1.44,3.72H35.5Zm4.13,9.24L43.15,221l-2.35,6.22Z"/><path class="cls-1" d="M55.49,218H62q3.56,0,5.28,1.84t1.73,6c0,2.62-.58,4.56-1.73,5.8s-2.91,1.86-5.28,1.86H55.49Zm6,13a5.36,5.36,0,0,0,2.35-.43A2.83,2.83,0,0,0,65.22,229a8.57,8.57,0,0,0,.47-3.17,9.31,9.31,0,0,0-.42-3.17A2.63,2.63,0,0,0,64,221.11a5.84,5.84,0,0,0-2.45-.42H58.73V231Z"/><path class="cls-1" d="M73.63,218h3.24v15.46H73.63Z"/><path class="cls-1" d="M82,218h2.8l7.33,10.3V218h3.24v15.46H92.57l-7.32-10.3v10.3H82Z"/><path class="cls-1" d="M102.07,231.67a7.66,7.66,0,0,1-2-5.68,8.4,8.4,0,0,1,2.08-6.06,7.93,7.93,0,0,1,6-2.17,15.29,15.29,0,0,1,4.66.65v2.78a13,13,0,0,0-4.42-.67,4.92,4.92,0,0,0-3.88,1.33,6.11,6.11,0,0,0-1.18,4.14q0,5,4.68,5a9,9,0,0,0,3-.48v-3.6h-3.6v-2.06h6.33v7.56a8.21,8.21,0,0,1-2.35.94,13.65,13.65,0,0,1-3.41.38A8,8,0,0,1,102.07,231.67Z"/><path class="cls-1" d="M128.93,225.68h9.26v2.52h-9.26Z"/><path class="cls-1" d="M159.31,218h3.55l5.88,15.46h-3.36l-1.46-3.72h-5.69l-1.44,3.72h-3.38Zm4.13,9.24L161.06,221l-2.35,6.22Z"/><path class="cls-1" d="M175,231.67a7.66,7.66,0,0,1-2-5.68,8.44,8.44,0,0,1,2.07-6.06,8,8,0,0,1,6-2.17,15.34,15.34,0,0,1,4.66.65v2.78a13,13,0,0,0-4.42-.67,5,5,0,0,0-3.89,1.33,6.16,6.16,0,0,0-1.17,4.14q0,5,4.68,5a8.89,8.89,0,0,0,3-.48v-3.6h-3.6v-2.06h6.34v7.56a8.21,8.21,0,0,1-2.35.94,13.65,13.65,0,0,1-3.41.38A8,8,0,0,1,175,231.67Z"/><path class="cls-1" d="M191.25,218h11.09v2.52h-7.85v4h7V227h-7v4h7.85v2.5H191.25Z"/><path class="cls-1" d="M207,218h2.81l7.32,10.3V218h3.24v15.46h-2.81l-7.32-10.3v10.3H207Z"/><path class="cls-1" d="M227.11,231.62a7.75,7.75,0,0,1-2.09-5.75,8.33,8.33,0,0,1,2-6q2-2.12,6-2.11a13.43,13.43,0,0,1,4.61.77v2.83a11.34,11.34,0,0,0-4.37-.84,4.85,4.85,0,0,0-3.78,1.31,6,6,0,0,0-1.16,4,5.25,5.25,0,0,0,1.24,3.83A5,5,0,0,0,233.3,231a11.27,11.27,0,0,0,4.35-.82V233a14.94,14.94,0,0,1-4.61.7A8.07,8.07,0,0,1,227.11,231.62Z"/><path class="cls-1" d="M246.29,227.74,240.74,218h3.39l3.79,7,3.79-7h3.36l-5.54,9.74v5.72h-3.24Z"/><path class="cls-1" d="M270.77,218h10.87v2.52H274v4h6.75V227H274v6.48h-3.23Z"/><path class="cls-1" d="M285.81,218h7.83a4.89,4.89,0,0,1,3.45,1.08,4,4,0,0,1,1.15,3.1,4.22,4.22,0,0,1-.46,2,3.3,3.3,0,0,1-1.31,1.31,3.31,3.31,0,0,1,1.75,1.16,3.68,3.68,0,0,1,.6,2.24,4.33,4.33,0,0,1-1.26,3.38,5.24,5.24,0,0,1-3.64,1.14h-8.11Zm7.23,6.41c1.45,0,2.18-.66,2.18-2a2,2,0,0,0-.54-1.55,2.79,2.79,0,0,0-1.88-.49h-3.75v4Zm.12,6.67a2.61,2.61,0,0,0,1.81-.52,2.32,2.32,0,0,0,.56-1.76,1.89,1.89,0,0,0-.59-1.55,3.13,3.13,0,0,0-2-.49h-3.89v4.32Z"/><path class="cls-5" d="M7.9,287.46V287l-3.56.44a3.33,3.33,0,0,1-.88.12c-1.12,0-1.6-.6-1.6-1.72v-7.64c0-1.2.56-1.8,1.76-1.8H7.94v-6H4.14v3.48H1.94v-3.64a1.59,1.59,0,0,1,1.8-1.8h4.6c1.2,0,1.76.6,1.76,1.8v17.2Zm0-9.16H4v7.2l3.92-.16Z"/><path class="cls-5" d="M22.06,287.46H16.9V256.9h2.2v12l3.6-.44a3.27,3.27,0,0,1,.84-.12c1.12,0,1.64.6,1.64,1.72V284.3A2.89,2.89,0,0,1,22.06,287.46Zm.92-17-3.88.12v14.8h2.52c1,0,1.36-.48,1.36-1.4Z"/><path class="cls-5" d="M38.3,287.46H33.74c-1.2,0-1.76-.6-1.76-1.8v-15.4c0-1.2.56-1.8,1.76-1.8H38.3a1.59,1.59,0,0,1,1.8,1.8v4.48H37.9V270.5H34.18v14.92H37.9v-4.84h2.2v5.08A1.59,1.59,0,0,1,38.3,287.46Z"/><path class="cls-5" d="M52.9,287.46V287l-2.64.44a8.25,8.25,0,0,1-1,.12,2.38,2.38,0,0,1-2.4-2.64V271.62a2.89,2.89,0,0,1,3.12-3.16h3V256.9h2.2v30.56Zm0-17H50.38c-1,0-1.36.48-1.36,1.4v12.32a1.13,1.13,0,0,0,1.24,1.28,5.63,5.63,0,0,0,.8,0l1.84-.16Z"/><path class="cls-5" d="M68.26,287.46h-4.6c-1.2,0-1.76-.6-1.76-1.8v-15.4c0-1.2.56-1.8,1.76-1.8h4.6a1.59,1.59,0,0,1,1.8,1.8v7.16l-.92,1H64.06v7.12h3.8v-4.4h2.2v4.56A1.59,1.59,0,0,1,68.26,287.46Zm-.4-17h-3.8v6h3.8Z"/><path class="cls-5" d="M79.78,258.94v9.52h2.08v2H79.78v17h-2.2v-17H76v-2h1.56V258.7c0-1.2.56-1.8,1.76-1.8h3v2Z"/><path class="cls-5" d="M94.22,294.66H89.78a1.59,1.59,0,0,1-1.8-1.81v-3h2.2v2.76h3.64v-5.2h-3a2.89,2.89,0,0,1-3.12-3.16V271a2.38,2.38,0,0,1,2.4-2.64,8.25,8.25,0,0,1,1,.12l2.64.44v-.44H96v24.39A1.59,1.59,0,0,1,94.22,294.66Zm-.4-24L92,270.46a5.36,5.36,0,0,0-.8,0,1.13,1.13,0,0,0-1.24,1.28V284c0,.92.4,1.4,1.36,1.4h2.52Z"/><path class="cls-5" d="M108.9,287.46v-17l-3.88.12v16.84h-2.2V256.9H105v12l3.6-.44a3.27,3.27,0,0,1,.84-.12c1.12,0,1.64.6,1.64,1.72v17.4Z"/><path class="cls-5" d="M117.9,264.86v-3.4h2.24v3.4Zm0,22.6v-19h2.2v19Z"/><path class="cls-5" d="M127.54,294.66h-2.76v-2.08h2.32V268.46h2.2v24.39C129.3,294.06,128.74,294.66,127.54,294.66Zm-.44-29.8v-3.4h2.24v3.4Z"/><path class="cls-5" d="M142.1,287.46l-3.72-9.72v9.72h-2.2V256.9h2.2v19.4l3.4-7.84h2.32v.08l-3.88,8.36,4.24,10.48v.08Z"/><path class="cls-5" d="M150.26,287.46V256.9h2.2v30.56Z"/><path class="cls-5" d="M171.34,287.46v-17l-3.8.12v16.84h-2.2v-17l-3.8.12v16.84h-2.2v-19h2.2v.44l3.48-.44a8.31,8.31,0,0,1,.92-.12,1.44,1.44,0,0,1,1.24.48l.12.16,3.76-.52a3.57,3.57,0,0,1,.88-.12c1.12,0,1.64.6,1.64,1.72v17.4Z"/><path class="cls-5" d="M8,317.46v-17l-3.88.12v16.84H1.9v-19H4.1v.44l3.56-.44a7.68,7.68,0,0,1,.88-.12c1.12,0,1.64.6,1.64,1.72v17.4Z"/><path class="cls-5" d="M23.46,317.46H18.7c-1.2,0-1.76-.6-1.76-1.8v-15.4c0-1.2.56-1.8,1.76-1.8h4.76c1.2,0,1.76.6,1.76,1.8v15.4C25.22,316.86,24.66,317.46,23.46,317.46Zm-.44-17H19.14v14.92H23Z"/><path class="cls-5" d="M37.18,317.46h-3v7.2H32v-26.2h2.2v.44l3.6-.44a3.27,3.27,0,0,1,.84-.12c1.12,0,1.64.6,1.64,1.72V314.3A2.89,2.89,0,0,1,37.18,317.46Zm.92-17-3.88.12v14.8h2.52c1,0,1.36-.48,1.36-1.4Z"/><path class="cls-5" d="M53,324.66v-7.2H50a2.89,2.89,0,0,1-3.12-3.16V301a2.38,2.38,0,0,1,2.4-2.64,8.25,8.25,0,0,1,1,.12l2.64.44v-.44h2.2v26.2Zm0-24-1.84-.16a5.36,5.36,0,0,0-.8,0,1.13,1.13,0,0,0-1.24,1.28V314c0,.92.4,1.4,1.36,1.4H53Z"/><path class="cls-5" d="M67.38,304.86V300.5l-3.2.12v16.84H62v-19h2.2v.44l2.92-.44a3.27,3.27,0,0,1,.84-.12c1.12,0,1.64.6,1.64,1.72v4.8Z"/><path class="cls-5" d="M82.1,317.46H77.74a1.59,1.59,0,0,1-1.8-1.8v-4.84h2.2v4.64H81.7v-3.92l-5-6.28a2.73,2.73,0,0,1-.68-2v-3c0-1.2.56-1.8,1.76-1.8H82.1c1.2,0,1.76.6,1.76,1.8v4.28H81.7v-4.08H78.14v3.28l5,6.28a2.65,2.65,0,0,1,.72,2v3.68A1.59,1.59,0,0,1,82.1,317.46Z"/><path class="cls-5" d="M93.14,317.46c-1.2,0-1.76-.6-1.76-1.8V300.5H89.7v-2h1.68v-5.92h2.2v5.92h2.28v2H93.58v14.92h2.36v2Z"/><path class="cls-5" d="M108,317.46V317l-3.56.44a7.24,7.24,0,0,1-.92.12c-1.12,0-1.6-.6-1.6-1.72v-17.4h2.2v17l3.88-.12V298.46h2.2v19Z"/><path class="cls-5" d="M121.86,317.5h-2.2l-3.4-19h2.28l2.24,14.6,2.24-14.6h2.24Z"/><path class="cls-5" d="M141.66,317.5h-2.12L137.7,304l-1.84,13.52h-2.12l-2.72-19h2.12l1.72,14.2,1.88-14.2h2l1.84,14.2,1.72-14.2h2.16Z"/><path class="cls-5" d="M156.46,317.46l-2.08-7.24-2.16,7.24H150v-.08l3.2-9.72-3-9.12v-.08h2.24l1.92,6.6,2-6.6h2.2v.08l-3,9.08,3.24,9.76v.08Z"/><path class="cls-5" d="M168.46,324.66h-2.24l1.36-7.28-3.44-18.92h2.28l2.24,14.36,2.24-14.36h2.24Z"/><path class="cls-5" d="M178.58,317.46v-1.28l4.72-15.64H179v-2.08h6.8v1.24l-4.72,15.68h4.72v2.08Z"/><path class="cls-1" d="M1.87,541H9.7a4.89,4.89,0,0,1,3.45,1.08,4,4,0,0,1,1.15,3.1,4.22,4.22,0,0,1-.46,2.05,3.3,3.3,0,0,1-1.31,1.31,3.31,3.31,0,0,1,1.75,1.16,3.68,3.68,0,0,1,.6,2.24,4.33,4.33,0,0,1-1.26,3.38A5.24,5.24,0,0,1,10,556.46H1.87Zm7.23,6.41c1.45,0,2.18-.66,2.18-2a2,2,0,0,0-.54-1.55,2.79,2.79,0,0,0-1.88-.49H5.11v4Zm.12,6.67a2.61,2.61,0,0,0,1.81-.52,2.32,2.32,0,0,0,.56-1.76,1.89,1.89,0,0,0-.59-1.55,3.13,3.13,0,0,0-2-.49H5.11v4.32Z"/><path class="cls-1" d="M18.46,548.8q0-4.17,1.86-6.11T26,540.76q3.8,0,5.65,1.93t1.86,6.11q0,7.89-7.51,7.9T18.46,548.8Zm10.7,3.88a6.06,6.06,0,0,0,1-3.88,6.37,6.37,0,0,0-1-4.07A3.93,3.93,0,0,0,26,543.52a4,4,0,0,0-3.22,1.21,6.44,6.44,0,0,0-1,4.07,6.05,6.05,0,0,0,1,3.88A3.87,3.87,0,0,0,26,553.94,3.88,3.88,0,0,0,29.16,552.68Z"/><path class="cls-1" d="M38.14,541h6.48a6.93,6.93,0,0,1,5.28,1.84q1.73,1.83,1.72,6c0,2.62-.57,4.56-1.72,5.8a6.9,6.9,0,0,1-5.28,1.86H38.14Zm6,13a5.36,5.36,0,0,0,2.35-.43A2.87,2.87,0,0,0,47.87,552a8.57,8.57,0,0,0,.47-3.17,9.31,9.31,0,0,0-.42-3.17,2.63,2.63,0,0,0-1.31-1.52,5.84,5.84,0,0,0-2.45-.42H41.38V554Z"/><path class="cls-1" d="M59.54,550.74,54,541h3.38l3.8,7L65,541h3.36l-5.55,9.74v5.72H59.54Z"/><path class="cls-1" d="M83.54,548.68h9.27v2.52H83.54Z"/><path class="cls-1" d="M108.5,541h7.42a5.05,5.05,0,0,1,3.87,1.37,5.33,5.33,0,0,1,1.29,3.81,4.49,4.49,0,0,1-.81,2.69A4.44,4.44,0,0,1,118,550.5a3.2,3.2,0,0,1,.58.66,6.23,6.23,0,0,1,.5,1l1.87,4.32H117.6l-1.83-4.16a1.71,1.71,0,0,0-.54-.75,1.65,1.65,0,0,0-.94-.21h-2.55v5.12H108.5Zm6.58,7.66a3,3,0,0,0,2-.59,2.32,2.32,0,0,0,.7-1.89,2.54,2.54,0,0,0-.62-1.89,2.66,2.66,0,0,0-1.9-.6h-3.53v5Z"/><path class="cls-1" d="M130.08,541h3.55l5.88,15.46h-3.36l-1.46-3.72H129l-1.44,3.72h-3.39Zm4.13,9.24L131.83,544l-2.35,6.22Z"/><path class="cls-1" d="M144.17,541h3.24v13H155v2.5H144.17Z"/><path class="cls-1" d="M158.83,541h11.09v2.52h-7.85v4h7V550h-7v4h7.85v2.5H158.83Z"/><path class="cls-1" d="M173.73,541h3.2l2.32,10.44,2.52-8.42v-2h2.64l3,10.46,2.4-10.46H193l-3.58,15.46h-3.07l-2.83-9.89-3,9.89h-3.1Z"/><path class="cls-1" d="M200.52,541h3.55L210,556.46h-3.36l-1.46-3.72h-5.69L198,556.46h-3.39Zm4.13,9.24L202.27,544l-2.35,6.22Z"/><path class="cls-1" d="M216.91,550.74,211.37,541h3.38l3.79,7,3.79-7h3.36l-5.54,9.74v5.72h-3.24Z"/><path class="cls-5" d="M5.42,595.7a4.48,4.48,0,0,1-1.65-.3,4.1,4.1,0,0,1-1.33-.83,3.77,3.77,0,0,1-.89-1.24,3.62,3.62,0,0,1-.33-1.55,3.21,3.21,0,0,1,.39-1.57A3.57,3.57,0,0,1,2.7,589a5.44,5.44,0,0,1,1.68-.79,7.54,7.54,0,0,1,2.12-.29,10.61,10.61,0,0,1,1.85.17,8.46,8.46,0,0,1,1.66.45v-1a3.29,3.29,0,0,0-.87-2.42,3.28,3.28,0,0,0-2.44-.87,7,7,0,0,0-4,1.46L2,584.34a8.71,8.71,0,0,1,4.87-1.63A5.34,5.34,0,0,1,10.74,584a4.9,4.9,0,0,1,1.38,3.72v5.11c0,.5.22.76.67.77v1.83l-.55.07-.46,0a1.34,1.34,0,0,1-1-.37,1.55,1.55,0,0,1-.45-.9l0-.89a5.42,5.42,0,0,1-2.13,1.72A6.53,6.53,0,0,1,5.42,595.7ZM6,594.11a5.25,5.25,0,0,0,2.1-.42,3.47,3.47,0,0,0,1.47-1.11,1.33,1.33,0,0,0,.46-.94v-1.85a8.73,8.73,0,0,0-3.19-.6,4.57,4.57,0,0,0-2.58.67,2,2,0,0,0-1,1.76,2.45,2.45,0,0,0,.2,1,2.38,2.38,0,0,0,.58.79,2.69,2.69,0,0,0,.88.53A2.92,2.92,0,0,0,6,594.11Z"/><path class="cls-5" d="M24.34,595.7a5.09,5.09,0,0,1-2.67-.72,5.4,5.4,0,0,1-1.89-1.88v2.36H17.9V577.94H20v7.48a6.37,6.37,0,0,1,1.94-2,4.81,4.81,0,0,1,2.69-.75,5,5,0,0,1,2.33.55,5.9,5.9,0,0,1,1.76,1.46,6.63,6.63,0,0,1,1.13,2.08,7.83,7.83,0,0,1,.39,2.44,7,7,0,0,1-.45,2.5,6.75,6.75,0,0,1-1.25,2,6,6,0,0,1-1.88,1.39A5.48,5.48,0,0,1,24.34,595.7Zm-.53-1.83a4,4,0,0,0,1.73-.38,4.45,4.45,0,0,0,1.36-1,4.75,4.75,0,0,0,.89-1.48,4.83,4.83,0,0,0,.31-1.74,5.21,5.21,0,0,0-.3-1.76A4.77,4.77,0,0,0,27,586a4.23,4.23,0,0,0-1.29-1.05,3.6,3.6,0,0,0-1.67-.39,3.38,3.38,0,0,0-1.27.24,5,5,0,0,0-1.12.63,4.72,4.72,0,0,0-.91.93,6.69,6.69,0,0,0-.68,1.12v3.63a2.58,2.58,0,0,0,.51,1.1,4.37,4.37,0,0,0,.94.88,5,5,0,0,0,1.15.59A3.64,3.64,0,0,0,23.81,593.87Z"/><path class="cls-5" d="M34.42,589.17a7,7,0,0,1,.45-2.5,6.07,6.07,0,0,1,1.3-2,6.25,6.25,0,0,1,4.61-1.91,6.07,6.07,0,0,1,3.22.83,5.37,5.37,0,0,1,2.06,2.22l-2.07.65A3.49,3.49,0,0,0,42.65,585a3.81,3.81,0,0,0-1.92-.49,3.9,3.9,0,0,0-1.63.34,3.8,3.8,0,0,0-1.32,1,4.74,4.74,0,0,0-.88,1.46,5,5,0,0,0-.32,1.85,5.19,5.19,0,0,0,.33,1.85,5.34,5.34,0,0,0,.9,1.5,4.24,4.24,0,0,0,1.32,1,3.76,3.76,0,0,0,1.62.36,4,4,0,0,0,1.09-.15,4.91,4.91,0,0,0,1-.42,3.94,3.94,0,0,0,.78-.62,2.18,2.18,0,0,0,.48-.75l2.06.62a4.33,4.33,0,0,1-.8,1.27,5,5,0,0,1-1.21,1,6.93,6.93,0,0,1-1.55.65,6.61,6.61,0,0,1-1.79.24,6.27,6.27,0,0,1-4.61-2,6.51,6.51,0,0,1-1.31-2.07A6.86,6.86,0,0,1,34.42,589.17Z"/><path class="cls-5" d="M56,595.7a5.55,5.55,0,0,1-2.4-.53,6,6,0,0,1-1.89-1.42,6.59,6.59,0,0,1-1.24-2.06,7.1,7.1,0,0,1-.44-2.47,7.47,7.47,0,0,1,.42-2.51,6.6,6.6,0,0,1,1.17-2.08,5.62,5.62,0,0,1,1.81-1.4,5,5,0,0,1,2.29-.52,4.85,4.85,0,0,1,2.7.79,6.25,6.25,0,0,1,1.88,1.92v-7.48h2.11v14.92c0,.5.23.76.67.77v1.83l-.54.07-.39,0a1.57,1.57,0,0,1-1.09-.42,1.24,1.24,0,0,1-.47-1V593.1A5.41,5.41,0,0,1,56,595.7Zm.51-1.83a3.69,3.69,0,0,0,1.19-.21,5.25,5.25,0,0,0,1.15-.6,4.42,4.42,0,0,0,.93-.9,2.65,2.65,0,0,0,.52-1.1v-3.6a3.85,3.85,0,0,0-.65-1.14,5.06,5.06,0,0,0-2.12-1.56,3.48,3.48,0,0,0-1.21-.22,3.67,3.67,0,0,0-1.7.39A4.26,4.26,0,0,0,53.34,586a4.72,4.72,0,0,0-.83,1.51,5.47,5.47,0,0,0-.29,1.74,4.75,4.75,0,0,0,.34,1.79,4.56,4.56,0,0,0,.91,1.47,4.36,4.36,0,0,0,1.36,1A3.84,3.84,0,0,0,56.52,593.87Z"/><path class="cls-5" d="M73.9,595.7a6.49,6.49,0,0,1-2.6-.52,6.11,6.11,0,0,1-2-1.4A6.5,6.5,0,0,1,68,591.7a6.83,6.83,0,0,1-.47-2.51A6.68,6.68,0,0,1,68,586.7a6.35,6.35,0,0,1,10.5-2.06,6.47,6.47,0,0,1,1.26,2,6.87,6.87,0,0,1,.44,2.42c0,.17,0,.33,0,.48a2.11,2.11,0,0,1,0,.33H69.74a5.18,5.18,0,0,0,.43,1.71,4.71,4.71,0,0,0,.94,1.32,4.57,4.57,0,0,0,1.31.86,3.87,3.87,0,0,0,1.55.31A4.33,4.33,0,0,0,75.1,594a5.85,5.85,0,0,0,1-.42,3.91,3.91,0,0,0,.85-.65,2.7,2.7,0,0,0,.56-.87l1.83.51a4.63,4.63,0,0,1-.85,1.27,6.1,6.1,0,0,1-1.25,1,6.72,6.72,0,0,1-3.37.9Zm4.29-7.35a4.68,4.68,0,0,0-.44-1.64,4.43,4.43,0,0,0-.94-1.29,4.1,4.1,0,0,0-1.31-.82,4.15,4.15,0,0,0-1.58-.3,4.24,4.24,0,0,0-1.59.3,4,4,0,0,0-1.3.84,4.27,4.27,0,0,0-.92,1.28,4.84,4.84,0,0,0-.42,1.63Z"/><path class="cls-5" d="M85.46,595.46V584.58h-1.7v-1.65h1.7v-.27a5.75,5.75,0,0,1,1-3.64,3.35,3.35,0,0,1,2.8-1.32,5.21,5.21,0,0,1,1.47.2,5,5,0,0,1,1.29.56L91.54,580a3,3,0,0,0-.83-.38,3.36,3.36,0,0,0-1-.14,1.81,1.81,0,0,0-1.6.79,4,4,0,0,0-.56,2.3v.34h3.34v1.65H87.57v10.88Z"/><path class="cls-5" d="M100.2,595.6a5.22,5.22,0,0,1-2.34-.53A5.8,5.8,0,0,1,96,593.66a6.71,6.71,0,0,1-1.19-2,7,7,0,0,1-.42-2.4,7.47,7.47,0,0,1,.42-2.51A6.46,6.46,0,0,1,96,584.63a5.63,5.63,0,0,1,1.84-1.4,5.27,5.27,0,0,1,2.36-.52,4.84,4.84,0,0,1,2.74.77,7,7,0,0,1,1.94,1.94v-2.49h1.87v12.38a5.23,5.23,0,0,1-.5,2.37,5,5,0,0,1-1.37,1.71,5.86,5.86,0,0,1-2,1.06,8.31,8.31,0,0,1-2.48.36,7.29,7.29,0,0,1-3.47-.73,6.43,6.43,0,0,1-2.22-2L95.93,597a4.58,4.58,0,0,0,1.92,1.65,5.86,5.86,0,0,0,2.54.56,5.51,5.51,0,0,0,1.64-.24,3.85,3.85,0,0,0,1.36-.72,3.56,3.56,0,0,0,.92-1.2,3.78,3.78,0,0,0,.35-1.71V593.1a5.08,5.08,0,0,1-.85,1,5.48,5.48,0,0,1-1.07.79,4.8,4.8,0,0,1-1.22.49A5.31,5.31,0,0,1,100.2,595.6Zm.65-1.73a3.56,3.56,0,0,0,1.29-.24,4.75,4.75,0,0,0,1.15-.63,4.21,4.21,0,0,0,.89-.9,2.87,2.87,0,0,0,.48-1v-3.6a4.54,4.54,0,0,0-.68-1.17,5.57,5.57,0,0,0-1-.93,4.47,4.47,0,0,0-1.14-.61,3.8,3.8,0,0,0-1.24-.21,3.54,3.54,0,0,0-1.71.4A4.35,4.35,0,0,0,97.65,586a5.09,5.09,0,0,0-.81,1.53,5.39,5.39,0,0,0-.29,1.71,4.62,4.62,0,0,0,.34,1.78,4.45,4.45,0,0,0,.91,1.46,4.32,4.32,0,0,0,1.35,1A3.88,3.88,0,0,0,100.85,593.87Z"/><path class="cls-5" d="M123.45,595.46h-2.11v-7a5,5,0,0,0-.67-2.89,2.24,2.24,0,0,0-2-.95,3.32,3.32,0,0,0-1.25.25,4.69,4.69,0,0,0-2.12,1.72,4.75,4.75,0,0,0-.64,1.32v7.56h-2.11V577.94h2.11v7.68a5.49,5.49,0,0,1,2-2.14,5.32,5.32,0,0,1,2.78-.77,4,4,0,0,1,1.88.41,3.24,3.24,0,0,1,1.22,1.1,5,5,0,0,1,.66,1.67,9.86,9.86,0,0,1,.2,2.08Z"/><path class="cls-5" d="M129.14,580.58v-2.64h2.11v2.64Zm0,14.88V582.93h2.11v12.53Z"/><path class="cls-5" d="M135.45,599.92a5,5,0,0,1-1.57-.24,3.63,3.63,0,0,1-1.31-.77l1-1.41a1.87,1.87,0,0,0,.78.43,3.31,3.31,0,0,0,.87.12,1.78,1.78,0,0,0,.75-.16,2.26,2.26,0,0,0,.65-.42,1.8,1.8,0,0,0,.45-.65,2,2,0,0,0,.17-.81V582.93h2.11v12.93a4.17,4.17,0,0,1-.32,1.64,4.26,4.26,0,0,1-.87,1.28,4,4,0,0,1-1.23.84A3.68,3.68,0,0,1,135.45,599.92Zm1.78-19.34v-2.64h2.11v2.64Z"/><path class="cls-5" d="M154,595.46l-4.32-6.12-2.4,2.25v3.87h-2.11V577.94h2.11v11.52l6.43-6.51H156l-5,5.19,5.23,7.32Z"/><path class="cls-5" d="M160.53,577.94h2.12v14.28a1.53,1.53,0,0,0,.37,1.09,1.36,1.36,0,0,0,1,.39,2.58,2.58,0,0,0,.63-.08,5.88,5.88,0,0,0,.67-.2l.33,1.7a7.43,7.43,0,0,1-1.24.36,6.31,6.31,0,0,1-1.28.14,2.65,2.65,0,0,1-1.93-.69,2.62,2.62,0,0,1-.71-1.95Z"/><path class="cls-5" d="M188.64,595.46h-2.11v-7a5.32,5.32,0,0,0-.64-2.91,2.12,2.12,0,0,0-1.88-.93,3.38,3.38,0,0,0-2.32.92,5.1,5.1,0,0,0-1.45,2.39v7.54h-2.11v-7a5.27,5.27,0,0,0-.63-2.93,2.1,2.1,0,0,0-1.87-.91,3.39,3.39,0,0,0-2.3.9,4.87,4.87,0,0,0-1.47,2.39v7.56h-2.11V582.93h1.92v2.69a5.68,5.68,0,0,1,2-2.15,5.12,5.12,0,0,1,2.76-.76,3.6,3.6,0,0,1,2.51.85,3.65,3.65,0,0,1,1.14,2.2,5.23,5.23,0,0,1,4.78-3,3.7,3.7,0,0,1,1.81.4,3,3,0,0,1,1.16,1.1,5.09,5.09,0,0,1,.63,1.67,11.35,11.35,0,0,1,.19,2.09Z"/><path class="cls-5" d="M13.08,619.46H11v-7a5.47,5.47,0,0,0-.61-2.93,2.09,2.09,0,0,0-1.86-.91,3.49,3.49,0,0,0-1.3.25,5.42,5.42,0,0,0-1.22.68,4.75,4.75,0,0,0-1,1,4.28,4.28,0,0,0-.65,1.32v7.56H2.21V606.93H4.13v2.69a5.48,5.48,0,0,1,2.15-2.12,6.17,6.17,0,0,1,3.06-.79,3.63,3.63,0,0,1,1.8.4,3,3,0,0,1,1.15,1.1,4.87,4.87,0,0,1,.61,1.67,11.38,11.38,0,0,1,.18,2.09Z"/><path class="cls-5" d="M24.24,619.7a6.23,6.23,0,0,1-2.58-.53,6.12,6.12,0,0,1-2-1.42,6.53,6.53,0,0,1-1.29-2.06,6.89,6.89,0,0,1-.45-2.47,6.7,6.7,0,0,1,1.76-4.56,6.07,6.07,0,0,1,2-1.42,6.17,6.17,0,0,1,2.56-.53,6.25,6.25,0,0,1,2.57.53,6,6,0,0,1,2,1.42,6.55,6.55,0,0,1,1.3,2.06,6.73,6.73,0,0,1,.47,2.5,6.89,6.89,0,0,1-.46,2.47,6.22,6.22,0,0,1-5.88,4Zm-4.15-6.46a5.12,5.12,0,0,0,.32,1.82,4.74,4.74,0,0,0,.89,1.47,4.37,4.37,0,0,0,1.32,1,3.82,3.82,0,0,0,3.24,0,4.28,4.28,0,0,0,1.33-1,4.5,4.5,0,0,0,.9-1.49,5.05,5.05,0,0,0,.33-1.84,5,5,0,0,0-.33-1.81,4.5,4.5,0,0,0-.9-1.49,4.28,4.28,0,0,0-1.33-1,3.69,3.69,0,0,0-1.62-.36,3.57,3.57,0,0,0-1.62.37,4.31,4.31,0,0,0-1.32,1,4.79,4.79,0,0,0-.89,1.48A5.27,5.27,0,0,0,20.09,613.24Z"/><path class="cls-5" d="M42.29,619.7a5,5,0,0,1-2.75-.77A5.74,5.74,0,0,1,37.66,617v7.59H35.54V606.93h1.88v2.35a5.73,5.73,0,0,1,1.93-1.86,5.06,5.06,0,0,1,2.63-.71,5.35,5.35,0,0,1,2.37.53,5.83,5.83,0,0,1,1.87,1.43,6.81,6.81,0,0,1,1.68,4.52,7.75,7.75,0,0,1-.4,2.53,6.42,6.42,0,0,1-1.16,2.07,5.47,5.47,0,0,1-1.77,1.39A5.09,5.09,0,0,1,42.29,619.7Zm-.65-1.83a3.63,3.63,0,0,0,1.69-.39,4.18,4.18,0,0,0,1.3-1.06,5,5,0,0,0,.83-1.5,5.36,5.36,0,0,0,.28-1.73,4.94,4.94,0,0,0-.33-1.79,5,5,0,0,0-.91-1.48,4.35,4.35,0,0,0-1.36-1,3.84,3.84,0,0,0-1.69-.37,3.42,3.42,0,0,0-1.19.22,6,6,0,0,0-1.15.6,4.41,4.41,0,0,0-.94.89,2.78,2.78,0,0,0-.51,1.09v3.58a5.15,5.15,0,0,0,.67,1.16,4.61,4.61,0,0,0,.93.94,4.81,4.81,0,0,0,1.13.62A3.34,3.34,0,0,0,41.64,617.87Z"/><path class="cls-5" d="M57.7,619.7a4.91,4.91,0,0,1-2.28-.53,5.59,5.59,0,0,1-1.78-1.43,6.47,6.47,0,0,1-1.15-2.08,7.49,7.49,0,0,1-.41-2.47,6.68,6.68,0,0,1,.46-2.49,6.39,6.39,0,0,1,1.26-2.07,5.89,5.89,0,0,1,1.88-1.4,5.26,5.26,0,0,1,2.33-.52,5.08,5.08,0,0,1,2.66.72,5.58,5.58,0,0,1,1.9,1.87v-2.37h1.87v15c0,.5.22.75.67.77v1.82a8.68,8.68,0,0,1-1.13.07,1.59,1.59,0,0,1-1.16-.49,1.61,1.61,0,0,1-.49-1.19V617A5.28,5.28,0,0,1,57.7,619.7Zm.72-1.83a3.59,3.59,0,0,0,2.31-.78,6.32,6.32,0,0,0,1.6-1.91v-3.6a3.13,3.13,0,0,0-.51-1.16,3.86,3.86,0,0,0-.92-1,5,5,0,0,0-1.18-.66,3.33,3.33,0,0,0-1.26-.25,3.7,3.7,0,0,0-1.7.39A4.42,4.42,0,0,0,55.43,610a4.83,4.83,0,0,0-.88,1.51,5,5,0,0,0-.31,1.74,5.15,5.15,0,0,0,.31,1.79,4.48,4.48,0,0,0,.87,1.47,4,4,0,0,0,1.32,1A3.76,3.76,0,0,0,58.42,617.87Z"/><path class="cls-5" d="M76.87,608.78a5.37,5.37,0,0,0-2.79.81,4.14,4.14,0,0,0-1.72,2.14v7.73H70.25V606.93h2v2.9a6,6,0,0,1,1.71-2.1,4.3,4.3,0,0,1,2.25-.9h.41a1.23,1.23,0,0,1,.29,0Z"/><path class="cls-5" d="M85.75,619.7a9.82,9.82,0,0,1-3-.47,7.45,7.45,0,0,1-2.52-1.36l.92-1.41a8.73,8.73,0,0,0,2.21,1.26,6.45,6.45,0,0,0,2.32.42,3.89,3.89,0,0,0,2.18-.54,1.75,1.75,0,0,0,.8-1.53,1.35,1.35,0,0,0-.22-.78,1.82,1.82,0,0,0-.65-.56,4.67,4.67,0,0,0-1.1-.43c-.45-.13-1-.27-1.56-.41-.75-.19-1.4-.38-1.94-.55a5.32,5.32,0,0,1-1.35-.63,2.24,2.24,0,0,1-.77-.86,2.9,2.9,0,0,1-.24-1.25,3.63,3.63,0,0,1,.38-1.67,3.34,3.34,0,0,1,1-1.22,4.6,4.6,0,0,1,1.52-.75,7.06,7.06,0,0,1,1.88-.25,7.32,7.32,0,0,1,2.64.46,6.34,6.34,0,0,1,2.07,1.2l-1,1.27a5.41,5.41,0,0,0-1.78-1,5.79,5.79,0,0,0-2-.35,3.68,3.68,0,0,0-2,.49,1.69,1.69,0,0,0-.8,1.57A1.54,1.54,0,0,0,83,611a1.49,1.49,0,0,0,.52.51,4.26,4.26,0,0,0,.92.38c.38.11.83.23,1.36.36.83.19,1.55.39,2.17.59a6,6,0,0,1,1.54.71,2.53,2.53,0,0,1,1.21,2.3,3.32,3.32,0,0,1-1.34,2.78A5.82,5.82,0,0,1,85.75,619.7Z"/><path class="cls-5" d="M102.09,618.83a5.12,5.12,0,0,1-.5.23,8.17,8.17,0,0,1-1.57.48,5.15,5.15,0,0,1-1,.08,3.25,3.25,0,0,1-2-.63,2.34,2.34,0,0,1-.84-2v-8.43h-1.7v-1.65h1.7v-4.18h2.12v4.18h2.8v1.65h-2.8v7.78a1.32,1.32,0,0,0,.45,1,1.51,1.51,0,0,0,1,.31,3.17,3.17,0,0,0,1.14-.2,5.09,5.09,0,0,0,.71-.33Z"/><path class="cls-5" d="M110.33,619.7a3.51,3.51,0,0,1-3-1.32,6.46,6.46,0,0,1-1-3.94v-7.51h2.11V614q0,3.84,2.67,3.84a4,4,0,0,0,2.43-.83,4.88,4.88,0,0,0,1.7-2.26v-7.85h2.11v9.93c0,.5.22.76.67.77v1.83l-.56.06h-.4a1.54,1.54,0,0,1-1-.37,1.3,1.3,0,0,1-.45-.93l0-1.46a5.8,5.8,0,0,1-2.2,2.17A6.19,6.19,0,0,1,110.33,619.7Z"/><path class="cls-5" d="M126.91,619.46,122,606.93h2.18l4,10.68,4-10.68h2l-4.94,12.53Z"/><path class="cls-5" d="M154.29,606.93h2L151,619.46h-1.76l-2.52-6.12-2.49,6.12h-1.75l-5.33-12.53h2l4.32,10.44,2.12-5.21L143.45,607h1.75l1.53,4,1.54-4H150l-2.13,5.21,2.11,5.21Z"/><path class="cls-5" d="M161.52,606.93l3.43,4.61.19.38.22-.38,3.41-4.61H171l-4.68,6.29,4.7,6.24h-2.23l-3.43-4.59-.22-.36-.19.36-3.43,4.59h-2.23l4.7-6.24-4.68-6.29Z"/><path class="cls-5" d="M176,622.86c.21,0,.42.06.62.08l.48,0a1,1,0,0,0,.52-.13,1.52,1.52,0,0,0,.46-.52,8.5,8.5,0,0,0,.51-1.07c.19-.45.43-1,.72-1.78L174,606.93h2.18l4.27,10.63,3.89-10.63h2l-6.1,15.81a3.58,3.58,0,0,1-1.11,1.48,3.34,3.34,0,0,1-2.15.64l-.45,0c-.15,0-.34-.05-.56-.09Z"/><path class="cls-5" d="M189.91,618.09l8-9.63h-7.8v-1.53h10.05v1.37l-8,9.62h8v1.54h-10.3Z"/></g></g></svg>