<svg version="1" xmlns="http://www.w3.org/2000/svg" width="372" height="372" viewBox="0 0 279.000000 279.000000"><path d="M72.9 68.8C71.7 69 1 208.3 1 210.4c0 .3 11.2.6 24.9.6h24.9L86 140.5c19.4-38.8 35-70.8 34.7-71.1-.6-.6-45-1.2-47.8-.6zM153.5 69.2c-7.8 1.1-14.5 4.6-20.1 10.4-6.6 6.7-9.6 14.1-9.6 23.9-.1 37.2 50.4 47.7 66 13.7 3.8-8.4 3.7-19.3-.2-27.9-6.3-13.8-21.5-22.3-36.1-20.1zM229.2 69.1c-1 .4-15.3 27.8-35.2 67.5-18.4 36.8-34.2 68.6-35.2 70.7l-1.7 3.7h25.2l25.2-.1 35.3-70.6c19.3-38.8 35-70.8 34.8-71-.6-.7-46.7-.8-48.4-.2zM116.8 142.1c-11.5 1.3-22.8 9.5-27.7 19.9-2.1 4.6-2.6 7-2.6 14.5 0 7.8.4 9.7 2.7 14.5 1.5 3 4.6 7.4 6.9 9.7 11.7 12 30.8 13.6 45 3.7 4-2.8 9.4-9.6 11.8-14.9 2-4.6 2.6-16.7 1.1-22.2-4.5-16.2-20.7-27.2-37.2-25.2z"/></svg>