<svg xmlns="http://www.w3.org/2000/svg" viewBox="0 0 834.16 720.32"><defs><style>.cls-1{fill:#a0a0a0;}.cls-2{fill:#55d8d3;}.cls-3{fill:#ee6921;}.cls-4{fill:#a4238e;}.cls-5{fill:#95c239;}.cls-6{fill:#ebebeb;}.cls-7{fill:#fff;}</style></defs><g id="Layer_2" data-name="Layer 2"><g id="color"><path class="cls-1" d="M1.64,0H8.89a5.14,5.14,0,0,1,4,1.46,5.54,5.54,0,0,1,1.34,3.87,5.63,5.63,0,0,1-.66,2.76A4.61,4.61,0,0,1,11.65,10a6,6,0,0,1-2.86.66H4.88v4.85H1.64ZM8.12,8a2.84,2.84,0,0,0,2.09-.72,2.68,2.68,0,0,0,.72-2,2.85,2.85,0,0,0-.68-2.05,2.61,2.61,0,0,0-2-.71H4.88V8Z"/><path class="cls-1" d="M18.39,0h7.42a5.07,5.07,0,0,1,3.87,1.37A5.33,5.33,0,0,1,31,5.18a4.49,4.49,0,0,1-.81,2.69A4.46,4.46,0,0,1,27.89,9.5a3.26,3.26,0,0,1,.59.66,6.32,6.32,0,0,1,.49,1l1.88,4.32H27.49L25.66,11.3a1.71,1.71,0,0,0-.54-.75,1.67,1.67,0,0,0-.95-.21H21.63v5.12H18.39ZM25,7.66a3,3,0,0,0,2-.59,2.32,2.32,0,0,0,.7-1.89,2.51,2.51,0,0,0-.63-1.89,2.61,2.61,0,0,0-1.89-.6H21.63v5Z"/><path class="cls-1" d="M35.62,0h3.24V15.46H35.62Z"/><path class="cls-1" d="M44,0h3.26L51.8,9.29,56.33,0h3.24V15.46H56.33V5.4l-3.6,7.39H50.86L47.24,5.4V15.46H44Z"/><path class="cls-1" d="M69.53,0h3.55L79,15.46H75.6l-1.46-3.72H68.45L67,15.46H63.63Zm4.13,9.24L71.28,3,68.93,9.24Z"/><path class="cls-1" d="M83.62,0H91a5.05,5.05,0,0,1,3.87,1.37A5.33,5.33,0,0,1,96.2,5.18a4.49,4.49,0,0,1-.81,2.69A4.42,4.42,0,0,1,93.12,9.5a3.26,3.26,0,0,1,.59.66,7.23,7.23,0,0,1,.5,1l1.87,4.32H92.72L90.89,11.3a1.71,1.71,0,0,0-.54-.75,1.67,1.67,0,0,0-.95-.21H86.86v5.12H83.62ZM90.2,7.66a3,3,0,0,0,2-.59,2.32,2.32,0,0,0,.7-1.89,2.54,2.54,0,0,0-.62-1.89,2.66,2.66,0,0,0-1.9-.6H86.86v5Z"/><path class="cls-1" d="M104.36,9.74,98.81,0h3.39L106,7l3.79-7h3.36L107.6,9.74v5.72h-3.24Z"/><path class="cls-1" d="M371,15.29V12.44a13.4,13.4,0,0,0,2.3.69,11.07,11.07,0,0,0,2.38.27,6.54,6.54,0,0,0,2.53-.34,1.36,1.36,0,0,0,.73-1.39,1.65,1.65,0,0,0-.34-1.1,2.55,2.55,0,0,0-1.1-.71c-.51-.2-1.31-.45-2.4-.76a7.69,7.69,0,0,1-3.41-1.68,3.83,3.83,0,0,1-1-2.78,3.84,3.84,0,0,1,1.56-3.29A7.54,7.54,0,0,1,376.75.2a17.43,17.43,0,0,1,2.56.18,9.32,9.32,0,0,1,2,.47V3.7a11.63,11.63,0,0,0-4.1-.74,6.29,6.29,0,0,0-2.44.36,1.31,1.31,0,0,0-.8,1.32,1.45,1.45,0,0,0,.3,1,2.39,2.39,0,0,0,1,.63,19.22,19.22,0,0,0,2.2.66,7.73,7.73,0,0,1,3.72,1.86,4.19,4.19,0,0,1,1,2.92A3.9,3.9,0,0,1,380.62,15a7.77,7.77,0,0,1-4.68,1.18A12.43,12.43,0,0,1,371,15.29Z"/><path class="cls-1" d="M386.86.44H398V3H390.1v4h7V9.41h-7v4H398v2.49H386.86Z"/><path class="cls-1" d="M402.89,14.06a7.76,7.76,0,0,1-2.09-5.75,8.33,8.33,0,0,1,2-6q2-2.12,6-2.11A13.2,13.2,0,0,1,413.4,1V3.8A11.34,11.34,0,0,0,409,3a4.81,4.81,0,0,0-3.78,1.31,6,6,0,0,0-1.16,4,5.25,5.25,0,0,0,1.24,3.83,5,5,0,0,0,3.75,1.26,11.27,11.27,0,0,0,4.35-.82v2.86a14.94,14.94,0,0,1-4.61.69A8.06,8.06,0,0,1,402.89,14.06Z"/><path class="cls-1" d="M416.52,8.24c0-2.79.62-4.82,1.86-6.11S421.5.2,424,.2s4.42.64,5.66,1.93,1.85,3.32,1.85,6.11q0,7.89-7.51,7.89T416.52,8.24Zm10.71,3.87a6.09,6.09,0,0,0,1-3.87,6.42,6.42,0,0,0-1-4.07,4.88,4.88,0,0,0-6.43,0,6.42,6.42,0,0,0-1,4.07,6,6,0,0,0,1,3.87,4.68,4.68,0,0,0,6.39,0Z"/><path class="cls-1" d="M436.2.44H439l7.32,10.29V.44h3.24V15.89h-2.81L439.44,5.6V15.89H436.2Z"/><path class="cls-1" d="M454.71.44h6.48q3.54,0,5.27,1.83c1.16,1.23,1.73,3.22,1.73,6s-.57,4.55-1.73,5.79-2.91,1.86-5.27,1.86h-6.48Zm6,13a5.51,5.51,0,0,0,2.35-.43,2.91,2.91,0,0,0,1.36-1.56,8.64,8.64,0,0,0,.46-3.17,9.31,9.31,0,0,0-.42-3.17,2.55,2.55,0,0,0-1.3-1.52,5.87,5.87,0,0,0-2.45-.42H458V13.4Z"/><path class="cls-1" d="M477.19.44h3.56l5.87,15.45h-3.36l-1.46-3.72h-5.69l-1.44,3.72h-3.38Zm4.13,9.24L479,3.46l-2.36,6.22Z"/><path class="cls-1" d="M491.28.44h7.42a5,5,0,0,1,3.87,1.37,5.33,5.33,0,0,1,1.29,3.81,4.49,4.49,0,0,1-.81,2.69,4.44,4.44,0,0,1-2.26,1.63,3.52,3.52,0,0,1,.58.66,7,7,0,0,1,.5,1l1.87,4.32h-3.36l-1.83-4.15A1.65,1.65,0,0,0,498,11a1.67,1.67,0,0,0-.95-.21h-2.54v5.11h-3.24Zm6.58,7.65a3,3,0,0,0,2-.58,2.33,2.33,0,0,0,.7-1.89A2.54,2.54,0,0,0,500,3.73a2.66,2.66,0,0,0-1.9-.6h-3.53v5Z"/><path class="cls-1" d="M512,10.18,506.47.44h3.39l3.79,7,3.79-7h3.36l-5.54,9.74v5.71H512Z"/><rect class="cls-2" x="0.27" y="46.46" width="81" height="81" rx="17.98"/><rect class="cls-3" x="120.27" y="46.46" width="81" height="81" rx="17.98"/><rect class="cls-4" x="370.27" y="46.46" width="81" height="81" rx="17.98"/><rect class="cls-5" x="490.27" y="46.46" width="81" height="81" rx="17.98"/></g><g id="type"><path class="cls-6" d="M339,624.65c0-3.36,1.77-5.28,5-5.28s5,1.92,5,5.28v10.92c0,3.36-1.77,5.28-5,5.28s-5-1.92-5-5.28Zm3.3,11.13c0,1.5.66,2.07,1.71,2.07s1.71-.57,1.71-2.07V624.44c0-1.5-.66-2.07-1.71-2.07s-1.71.57-1.71,2.07Z"/><path class="cls-6" d="M356.19,622.25c2.55,0,3.12-1.23,3.63-2.64H362v21h-3.3v-16h-2.55Z"/><path class="cls-6" d="M373.86,622.37c-1.05,0-1.71.57-1.71,2.07v2.25H369v-2c0-3.36,1.68-5.28,4.92-5.28s4.92,1.92,4.92,5.28c0,6.6-6.57,9.06-6.57,12.51a2.27,2.27,0,0,0,0,.45h6.24v3H369V638c0-6.18,6.54-7.2,6.54-13.26C375.57,622.88,374.91,622.37,373.86,622.37Z"/><path class="cls-6" d="M390.27,624.77c0-1.89-.66-2.4-1.71-2.4s-1.71.57-1.71,2.07v1.35h-3.12v-1.14c0-3.36,1.68-5.28,4.92-5.28s4.92,1.92,4.92,5.28v.54c0,2.25-.72,3.66-2.31,4.32,1.65.72,2.31,2.28,2.31,4.41v1.65c0,3.36-1.68,5.28-4.92,5.28s-4.92-1.92-4.92-5.28v-1.74h3.12v1.95c0,1.5.66,2.07,1.71,2.07s1.71-.51,1.71-2.37v-1.65c0-2-.66-2.67-2.16-2.67H387v-3h1.29c1.23,0,2-.54,2-2.22Z"/><path class="cls-6" d="M398,633.8l6-14.19h3.6V633.8h1.56v3h-1.56v3.81h-3.24V636.8H398Zm6.36,0v-7.89L401,633.8Z"/><path class="cls-6" d="M416.64,633.83v1.95c0,1.5.66,2,1.71,2s1.71-.54,1.71-2v-4.62c0-1.5-.66-2.07-1.71-2.07s-1.71.57-1.71,2.07v.63h-3.12l.6-12.18h8.7v3h-5.73l-.27,5a3.15,3.15,0,0,1,2.88-1.53c2.43,0,3.66,1.71,3.66,4.8v4.68c0,3.36-1.68,5.28-4.92,5.28s-4.92-1.92-4.92-5.28v-1.74Z"/><path class="cls-6" d="M428.34,624.83c0-3.54,1.62-5.46,5-5.46,3.24,0,4.92,1.92,4.92,5.28v.54h-3.12v-.75c0-1.5-.66-2.07-1.71-2.07s-1.83.57-1.83,2.58v3.84a3.14,3.14,0,0,1,3.06-1.86c2.43,0,3.66,1.71,3.66,4.8v3.84c0,3.36-1.77,5.28-5,5.28s-5-1.92-5-5.28Zm3.3,7.17v3.78c0,1.5.66,2,1.71,2s1.71-.54,1.71-2V632c0-1.5-.66-2.07-1.71-2.07S431.64,630.5,431.64,632Z"/><path class="cls-6" d="M453.12,619.61v2.88l-4.86,18.12H445l4.83-18h-6.57v-3Z"/><path class="cls-6" d="M463.05,640.85c-3.33,0-5.16-1.92-5.16-5.28v-1.65c0-2,.6-3.57,2-4.38-1.38-.75-2-2.16-2-4.23v-.66c0-3.36,1.83-5.28,5.16-5.28s5.16,1.92,5.16,5.28v.66c0,2.07-.69,3.48-2,4.23,1.44.81,2,2.37,2,4.38v1.65C468.21,638.93,466.38,640.85,463.05,640.85Zm-1.86-14.91c0,1.68.78,2.22,1.86,2.22s1.86-.54,1.86-2.22v-1.17c0-1.89-.81-2.4-1.86-2.4s-1.86.51-1.86,2.4Zm1.86,11.91c1.05,0,1.83-.51,1.86-2.37v-2c0-1.65-.69-2.37-1.86-2.37s-1.86.72-1.86,2.37v2C461.19,637.34,462,637.85,463.05,637.85Z"/><path class="cls-6" d="M482.88,635.39c0,3.54-1.62,5.46-5,5.46-3.24,0-4.92-1.92-4.92-5.28V635H476v.75c0,1.5.66,2.07,1.71,2.07s1.83-.57,1.83-2.58v-3.84a3.14,3.14,0,0,1-3.06,1.86c-2.43,0-3.66-1.71-3.66-4.8v-3.84c0-3.36,1.77-5.28,5-5.28s5,1.92,5,5.28Zm-3.3-7.17v-3.78c0-1.5-.66-2-1.71-2s-1.71.54-1.71,2v3.78c0,1.5.66,2.07,1.71,2.07S479.58,629.72,479.58,628.22Z"/><path class="cls-6" d="M487.8,624.65c0-3.36,1.77-5.28,5-5.28s5,1.92,5,5.28v10.92c0,3.36-1.77,5.28-5,5.28s-5-1.92-5-5.28Zm3.3,11.13c0,1.5.66,2.07,1.71,2.07s1.71-.57,1.71-2.07V624.44c0-1.5-.66-2.07-1.71-2.07s-1.71.57-1.71,2.07Z"/><path class="cls-6" d="M12.31,416.86a18.78,18.78,0,0,1,1.23,3.36q3.29,12,6.32,21.16c0,.2-.81.65-2.45,1.35a11.54,11.54,0,0,1-3,1,51.85,51.85,0,0,1-1.8-5.17,44.42,44.42,0,0,1-5.25-.91q-.36,1.86-.9,5.36A26.76,26.76,0,0,1,.35,441.6c0-.36.52-2.91,1.57-7.67q2.15-9.62,3.38-16.35a9.42,9.42,0,0,1,3.19-.47Zm-3.14,8.72q-.59,4.19-1.08,7a13.28,13.28,0,0,0,2.87.25c-.49-2.34-.83-4-1-4.84A11.72,11.72,0,0,0,9.17,425.58Z"/><path class="cls-6" d="M43.29,417.85q.66,19,1,24.63l-6.49.44c0-1.34,0-3.31,0-5.91a68.25,68.25,0,0,0-.08-6.84s.07,0,.06-.07H37.7a69.57,69.57,0,0,1-4.58,8.5l-4.54-8.11a20,20,0,0,0-.29,3.55q-.24,4.08-.1,8.68a17.78,17.78,0,0,1-6.3,0,101.49,101.49,0,0,1,.38-10.33q.45-5,.54-13.32c2.22-.44,4.55-.89,7-1.33a72.91,72.91,0,0,0,3.09,8.75c.53-2.33,1.28-5.22,2.23-8.64C39.62,417.75,42.35,417.77,43.29,417.85Z"/><path class="cls-6" d="M58.51,416.86a18.78,18.78,0,0,1,1.23,3.36q3.28,12,6.33,21.16,0,.3-2.46,1.35a11.54,11.54,0,0,1-3,1q-.33-.61-1.79-5.17a43.74,43.74,0,0,1-5.25-.91q-.36,1.86-.91,5.36a26.76,26.76,0,0,1-6.07-1.45c0-.36.52-2.91,1.57-7.67q2.15-9.62,3.39-16.35a9.3,9.3,0,0,1,3.19-.47Zm-3.14,8.72q-.59,4.19-1.07,7a13.19,13.19,0,0,0,2.87.25c-.5-2.34-.84-4-1-4.84A12.35,12.35,0,0,0,55.37,425.58Z"/><path class="cls-6" d="M89.15,418a55.08,55.08,0,0,1-.08,6.78c-1.26,1.31-2.72,3-4.4,5-2.66,2.82-4.54,4.75-5.62,5.79a58,58,0,0,0,7-.16c2.42-.3,3.86-.44,4.3-.43,0,.92-.12,1.93-.25,3-.1,1.89-.2,3.37-.31,4.46q-3.75.13-13.91,0-2.73,0-7.63.11.06-2.31-.18-6.12c0-.31.78-1.09,2.2-2.34s3-2.72,4.74-4.45a65.93,65.93,0,0,0,4.34-5.1H75c-.43,0-1.92,0-4.46.11q-.08-1.08.06-6.18v0c3.65.06,6.86,0,9.63-.12Q87.25,417.93,89.15,418Z"/><path class="cls-6" d="M98.44,416.77a3.64,3.64,0,0,1,1.42.62,2.18,2.18,0,0,1,.72,1.77,3.42,3.42,0,0,1-2,3.18,5.66,5.66,0,0,1-4,.37,2.9,2.9,0,0,1-1.46-2.53,3.26,3.26,0,0,1,2.13-3A5.52,5.52,0,0,1,98.44,416.77Zm1.79,7.45q-.44,13.18-.39,18.16-1.17,0-6.62.22.11-7.58.16-18.21C96.28,424.28,98.56,424.23,100.23,424.22Z"/><path class="cls-6" d="M124.53,417.76q-.54,7-1.86,24.54-5.53.12-7.56.24-.39-.15-1.8-5.75T110,425.68q-.29,13.13-.58,17.62c-2.66-.13-4.61-.27-5.83-.41q.74-11.82,1.49-24.37c3.12-.41,5.65-.7,7.59-.85q3.1,10,4.64,12.9.27-6.65.61-13.41C120.7,417.36,122.89,417.56,124.53,417.76Z"/><path class="cls-6" d="M144.66,433.94a10.06,10.06,0,0,1-.95,5.16,8.69,8.69,0,0,1-5.14,4.45q-10.84,1.65-11.33-12.15a21.8,21.8,0,0,1,.69-4.59,21.41,21.41,0,0,1,3.22-6.71q5.46-6.44,11.93-2.76l-1,8.35q-1.19-1.1-5-1-2.47,0-4,4.2a8.31,8.31,0,0,0,.37,6.45,3.73,3.73,0,0,0,4,2.14q2.4-.16,2.91-3.48l-5,.2c-.06-1.32-.11-3.13-.15-5.42a110,110,0,0,0,11-.55c.14,3.15.23,5,.27,5.66C146,433.92,145.37,433.93,144.66,433.94Z"/><path class="cls-6" d="M156.8,418.42q-1.5,12.87-2.54,19.6c1.92-.22,3.86-.42,5.8-.61.11,3.17.17,5.27.17,6.28a113,113,0,0,1-11.76-.23q0-4.14.49-8.56t.68-7.49c.29-3.06.55-6.29.76-9.7Q153.83,418,156.8,418.42Z"/><path class="cls-6" d="M167.5,417.27s.45,1,1.35,3.08a60.53,60.53,0,0,0,3.71,6.87q1.77-2.25,5.85-8.89l5.3,3.7q-.92,1.85-10.38,15.21-.29.28-4.83,7.21a39.56,39.56,0,0,1-5.48-3.22c3.11-4.41,4.67-6.61,4.7-6.61l.76-1.22q-3.25-6.13-6.48-12v-.06Q165.81,418.49,167.5,417.27Z"/><path class="cls-6" d="M210.83,417.25a54.68,54.68,0,0,1,.06,6.23c-1.9,0-4.8.19-8.72.58a22.15,22.15,0,0,0,.34,4.15c1.85-.17,3.6-.37,5.23-.62-.05,1.76-.07,3.71-.06,5.87a44.66,44.66,0,0,0-4.76.26q.38,7.5.63,9.07c-1.1.07-3.4.17-6.89.32q-.87-13.12-1.24-24.54Q203.42,417.87,210.83,417.25Z"/><path class="cls-6" d="M228.46,417.48c.14.09.13.95,0,2.6-.11.93-.22,1.92-.36,3q-2.52,0-8.08.06c-.08,2.63-.12,4.14-.12,4.52a27.27,27.27,0,0,0,5.13-.51,5.17,5.17,0,0,1,0,2.34,24.22,24.22,0,0,0-.17,3.16,39.94,39.94,0,0,0-4.91.15c0,1.91,0,3.51.12,4.82q3.56-.16,9-.83a30.8,30.8,0,0,1-.11,5.79q-10.47.06-15.71-.06a24.66,24.66,0,0,1,.09-4q.19-4,1-20.15c.63.05,2.27,0,4.9-.06q4.4-.13,6.49-.39C227.29,417.68,228.23,417.53,228.46,417.48Z"/><path class="cls-6" d="M234,442.23q-.08-2.33-2.22-23.63l6.52-1.33a65.78,65.78,0,0,0,.84,7.59c.3,2.07.54,4.17.73,6.32q-.06,0-.06.06l.06,0q1.81-4.47,4.62-13.21l4.67,12.68a31.94,31.94,0,0,0,.8-4.31c.54-3.25.94-6.25,1.18-9a30.35,30.35,0,0,1,6.42.83,97.49,97.49,0,0,1-1.64,9.93q-1.11,5.06-2.32,13.17c-2.28.39-4.69.73-7.24,1a50.52,50.52,0,0,0-2.08-9.1q-1.2,3-3.26,9.33C240.61,442.7,238.27,442.56,234,442.23Z"/><path class="cls-6" d="M274.84,417.8a11.64,11.64,0,0,1,6.75,1.25,10.34,10.34,0,0,1,4.86,6.3,17.67,17.67,0,0,1,0,7.49,15.19,15.19,0,0,1-3,5.6,13.76,13.76,0,0,1-6.36,4.05c-1.28.42-3.38.35-6.3-.19-.66-.24-1-.41-1-.52q.36-9.4,1.06-23.42A17.31,17.31,0,0,1,274.84,417.8Zm1.07,12.66-.13,4.07a3.81,3.81,0,0,0,2.13-.3,4.65,4.65,0,0,0,2.45-2.41,6.54,6.54,0,0,0-.32-5.06c-.62-1-1.87-1.52-3.73-1.5Z"/><path class="cls-6" d="M295,416.77a3.69,3.69,0,0,1,1.43.62,2.18,2.18,0,0,1,.72,1.77,3.42,3.42,0,0,1-2,3.18,5.66,5.66,0,0,1-4,.37,2.89,2.89,0,0,1-1.47-2.53,3.26,3.26,0,0,1,2.14-3A5.49,5.49,0,0,1,295,416.77Zm1.8,7.45q-.44,13.18-.39,18.16-1.19,0-6.63.22.1-7.58.17-18.21C292.87,424.28,295.15,424.23,296.82,424.22Z"/><path class="cls-6" d="M305.91,433.73c-3.65-1-5.65-2.88-6-5.59a8.6,8.6,0,0,1,.2-3.55q1.1-4.39,7.18-6.33a11.91,11.91,0,0,1,7.36.51q-.12,3.59-.25,6.58-2.26-1.65-6-.88-2.65,1.11-2.43,2.25c.09.68.86,1.28,2.29,1.79l3.41,1c3.65,1,5.66,2.91,6,5.62a8.28,8.28,0,0,1-.2,3.55q-1.46,5.83-7.17,6.32A10.27,10.27,0,0,1,300,439.21a49,49,0,0,0,2.71-4.35q3.4,5.13,7.09,4.12a2.23,2.23,0,0,0,1.81-2.42c-.1-.68-.86-1.28-2.3-1.8Z"/><path class="cls-6" d="M334.26,417.92q-.42,3.51-1.13,8.43h-.06l-2.31-.31v0q-2.52-.46-4.84,4c-.9,2.79-.87,4.53.08,5.24a5.17,5.17,0,0,0,4.05,1.1q1-.07,4.41-2.19.66.62,2,5a26.62,26.62,0,0,1-3.84,2.54A16.27,16.27,0,0,1,327,443a5.92,5.92,0,0,1-3.95-1.16q-5.1-3.42-3.1-12a17.8,17.8,0,0,1,8-10.34A11.42,11.42,0,0,1,334.26,417.92Z"/><path class="cls-6" d="M353.85,421.25a19.51,19.51,0,0,1,2.53,6.72,20.8,20.8,0,0,1,.21,4.58q-1.93,13.81-12.6,12.16a7.55,7.55,0,0,1-4.68-4.46,16.35,16.35,0,0,1-1.19-5.72,21.75,21.75,0,0,1,2.59-10.83,10.27,10.27,0,0,1,1.42-2.1Q348.75,414.39,353.85,421.25Zm-10.4,13.15c.36,2.45,1.37,3.73,3,3.86,1.46.21,2.66-.47,3.62-2.07a9.19,9.19,0,0,0,1-6.23q-.87-4.05-3-4.07c-1.8.16-3.18,1.63-4.13,4.43A10.16,10.16,0,0,0,343.45,434.4Z"/><path class="cls-6" d="M377.8,415.4q0,1.44-.31,8.66c-2.27.12-4.55.31-6.86.57q.67,11.64,1.24,19.35c-2.5.31-5.22.7-8.15,1.2q.34-5.24,1.53-20h-.06c-1.85.22-4.08.43-6.71.64.15-4.12.25-6.61.28-7.5Q368.18,416.8,377.8,415.4Z"/><path class="cls-6" d="M389.35,429.62c.1-1,.21-2,.32-3,.18-2,.5-5.32.93-9.88a69,69,0,0,0,6.95-.7q-2.62,15.76-3.59,25.7a32.6,32.6,0,0,1-5.93,1.86q.12-2,.84-9.21l-2.36.6q-.18,3.76-.51,8l-3.31.7-3,.48q.87-15.94.56-26.17a63.34,63.34,0,0,0,7-1.12q-.34,5.64-.56,11.89l0,1.66Z"/><path class="cls-6" d="M414.43,417.48c.14.09.13.95,0,2.6q-.16,1.4-.36,3-2.52,0-8.08.06c-.08,2.63-.12,4.14-.13,4.52a27.29,27.29,0,0,0,5.14-.51,5.53,5.53,0,0,1,0,2.34,22.57,22.57,0,0,0-.17,3.16,39.85,39.85,0,0,0-4.91.15c0,1.91,0,3.51.12,4.82q3.56-.16,9-.83a30.8,30.8,0,0,1-.11,5.79q-10.47.06-15.71-.06a24.66,24.66,0,0,1,.09-4q.19-4,1-20.15c.64.05,2.27,0,4.91-.06q4.39-.13,6.49-.39C413.25,417.68,414.19,417.53,414.43,417.48Z"/><path class="cls-6" d="M430.84,442.76a10.63,10.63,0,0,1-7.15,1.08,7.36,7.36,0,0,1-4.68-4.19,14.41,14.41,0,0,1-1.18-5.38,19.74,19.74,0,0,1,.87-6.29,20.91,20.91,0,0,1,1.71-3.92,10.12,10.12,0,0,1,1.42-2q6.62-6.81,11.73-.34a17.63,17.63,0,0,1,2.52,6.33,18.42,18.42,0,0,1,.21,4.31,19.93,19.93,0,0,1-2.05,6.69l2.19,2.55c-1.54,1.26-2.89,2.29-4,3.08Zm.19-7.45a8.55,8.55,0,0,0,.28-4.62c-.64-2.76-1.72-4.14-3.26-4.16q-2.94.24-4.48,4.53a9.76,9.76,0,0,0-.52,4.16c.39,2.5,1.49,3.82,3.29,3.94a3.79,3.79,0,0,0,1.51-.09q-.94-1.15-1.59-1.86c.54-.36,1.83-1.36,3.86-3Z"/><path class="cls-6" d="M458.26,424.6a25.32,25.32,0,0,1,.54,7.47,18.85,18.85,0,0,1-1.67,6.41q-2,4-5.38,5-11.79,1.89-13-13.58a23.61,23.61,0,0,1,.52-5.12,24.61,24.61,0,0,1,2.05-5.6l5.4,2.11a27.38,27.38,0,0,0-1.37,4.65,13.54,13.54,0,0,0,.63,7.76c.86,2,2,2.84,3.52,2.58,1.69-.16,2.78-1.76,3.29-4.81a15.49,15.49,0,0,0-.25-5.08q-1-4.28-2.12-5.74l4.86-2.95A22.84,22.84,0,0,1,458.26,424.6Z"/><path class="cls-6" d="M477.06,417.48c.14.09.13.95,0,2.6q-.15,1.4-.36,3c-1.67,0-4.37,0-8.08.06-.07,2.63-.12,4.14-.12,4.52a27.27,27.27,0,0,0,5.13-.51,5.17,5.17,0,0,1,0,2.34,24.22,24.22,0,0,0-.17,3.16,40,40,0,0,0-4.91.15c0,1.91,0,3.51.12,4.82q3.56-.16,9-.83a29.83,29.83,0,0,1-.11,5.79q-10.47.06-15.71-.06a28.18,28.18,0,0,1,.09-4q.19-4,1-20.15c.63.05,2.27,0,4.9-.06,2.93-.09,5.1-.22,6.49-.39C475.89,417.68,476.83,417.53,477.06,417.48Z"/><path class="cls-6" d="M486.68,433.73c-3.64-1-5.65-2.88-6-5.59a8.45,8.45,0,0,1,.21-3.55q1.08-4.39,7.18-6.33a11.92,11.92,0,0,1,7.36.51q-.12,3.59-.26,6.58-2.25-1.65-6-.88-2.66,1.11-2.43,2.25c.1.68.86,1.28,2.29,1.79l3.42,1c3.65,1,5.65,2.91,6,5.62a8.26,8.26,0,0,1-.19,3.55q-1.45,5.83-7.18,6.32a10.26,10.26,0,0,1-10.3-5.81,47.07,47.07,0,0,0,2.7-4.35q3.4,5.13,7.1,4.12a2.21,2.21,0,0,0,1.8-2.42c-.09-.68-.86-1.28-2.29-1.8Z"/><path class="cls-6" d="M525.36,419.62a9,9,0,0,1,.13,9.43q-3.63,5.16-8.41,4.24c.19,1.79.64,5.09,1.35,9.88-3,.58-5.06.94-6.15,1.05q-1.78-12.5-2.53-19.94c-.35-2.77-.53-4.36-.53-4.78a17.92,17.92,0,0,1,10-2.56A8,8,0,0,1,525.36,419.62Zm-9.23,8.65c3.17.27,4.67-.58,4.5-2.52a1.66,1.66,0,0,0-1.28-1.52,5.2,5.2,0,0,0-3.62.58C515.91,426.3,516,427.45,516.13,428.27Z"/><path class="cls-6" d="M543.44,418.91a4,4,0,0,1,2,2.32,7.76,7.76,0,0,1,.34,2.86,6.65,6.65,0,0,1-1.07,3.68,28.2,28.2,0,0,1-4.13,5.14,37,37,0,0,1,4,4.15,14.72,14.72,0,0,1,1.53,2.18q-2.79,3-4.49,3.6-2-2.86-3.46-4.61a9.64,9.64,0,0,0-3.34-2.71c0,.83,0,3.5,0,8q-5-.15-6-1.12,0-3.42.38-21.81a46.92,46.92,0,0,1,5.45-2,14.92,14.92,0,0,1,3.22-.67A9.94,9.94,0,0,1,543.44,418.91Zm-7.29,4.79a4,4,0,0,0-1.53.77c.08.53.14,2.76.2,6.68q2-1.9,3.3-3.26c1-1.3,1.12-2.46.35-3.49A2.17,2.17,0,0,0,536.15,423.7Z"/><path class="cls-6" d="M564.05,421.25a19.3,19.3,0,0,1,2.52,6.72,20.8,20.8,0,0,1,.21,4.58q-1.93,13.81-12.6,12.16a7.51,7.51,0,0,1-4.67-4.46,16.13,16.13,0,0,1-1.19-5.72,21.63,21.63,0,0,1,2.58-10.83,10.48,10.48,0,0,1,1.43-2.1Q558.94,414.39,564.05,421.25ZM553.64,434.4c.36,2.45,1.37,3.73,3,3.86,1.46.21,2.67-.47,3.62-2.07a9.26,9.26,0,0,0,1-6.23q-.88-4.05-3-4.07c-1.8.16-3.18,1.63-4.13,4.43A10.53,10.53,0,0,0,553.64,434.4Z"/><path class="cls-6" d="M582.91,417.72q1.77,0,7.29.63a14.46,14.46,0,0,1-.81,2.75q-4.75,15.64-6.4,22.55a16.25,16.25,0,0,1-3.63.5l-4.45.36a18.67,18.67,0,0,1-1.24-3.48q-3.17-12.37-5.76-20.33c0-.2,1-.67,2.92-1.39a15.18,15.18,0,0,1,3.6-1.08,62.21,62.21,0,0,1,2,7c1.09,4.25,2,7.48,2.63,9.66Q579.5,432.35,582.91,417.72Z"/><path class="cls-6" d="M598.37,416.77a3.64,3.64,0,0,1,1.42.62,2.18,2.18,0,0,1,.72,1.77,3.42,3.42,0,0,1-2,3.18,5.66,5.66,0,0,1-4,.37,2.86,2.86,0,0,1-1.46-2.53,3.25,3.25,0,0,1,2.13-3A5.51,5.51,0,0,1,598.37,416.77Zm1.79,7.45q-.43,13.18-.39,18.16c-.79,0-3,.07-6.62.22q.09-7.58.16-18.21C596.21,424.28,598.49,424.23,600.16,424.22Z"/><path class="cls-6" d="M608.15,417.8a11.62,11.62,0,0,1,6.75,1.25,10.34,10.34,0,0,1,4.86,6.3,17.51,17.51,0,0,1,0,7.49,15.19,15.19,0,0,1-3,5.6,13.78,13.78,0,0,1-6.35,4.05c-1.29.42-3.39.35-6.31-.19-.65-.24-1-.41-1-.52q.35-9.4,1-23.42A17.31,17.31,0,0,1,608.15,417.8Zm1.07,12.66-.12,4.07a3.79,3.79,0,0,0,2.12-.3,4.65,4.65,0,0,0,2.45-2.41,6.5,6.5,0,0,0-.32-5.06c-.62-1-1.87-1.52-3.73-1.5Z"/><path class="cls-6" d="M638.7,417.48c.15.09.14.95,0,2.6q-.15,1.4-.36,3-2.5,0-8.08.06l-.12,4.52a27.29,27.29,0,0,0,5.14-.51,5.53,5.53,0,0,1,0,2.34,22.35,22.35,0,0,0-.18,3.16,40,40,0,0,0-4.91.15c0,1.91,0,3.51.12,4.82q3.57-.16,9-.83a29.36,29.36,0,0,1-.12,5.79q-10.47.06-15.71-.06a28.18,28.18,0,0,1,.09-4q.21-4,1-20.15c.64.05,2.27,0,4.9-.06q4.41-.13,6.49-.39C637.53,417.68,638.47,417.53,638.7,417.48Z"/><path class="cls-6" d="M667.2,417.19q.31.49,2.79,13.43c.36,3.57.3,5.95-.19,7.12q-1.83,4-4.68,5.1c-4,1-7.16,1.1-9.45.32a4.23,4.23,0,0,1-2.51-1.4,6.83,6.83,0,0,1-1.22-3.4,15.62,15.62,0,0,1,1.38-6,4.08,4.08,0,0,1,1-1.39,33.36,33.36,0,0,1,4.12.77,10.36,10.36,0,0,1-.44,1.95h0a4.49,4.49,0,0,0-.11.78.05.05,0,0,1,.06.06H658a4.3,4.3,0,0,0,.73,2.56,3.73,3.73,0,0,0,1.94,1.18q2.11.36,3.57-2.52a9.38,9.38,0,0,0,.51-4.07c0-1.73-1.1-6.25-3.24-13.53Z"/><path class="cls-6" d="M691.78,424.6a25.67,25.67,0,0,1,.54,7.47,19.08,19.08,0,0,1-1.67,6.41q-2,4-5.38,5-11.79,1.89-13-13.58a23.61,23.61,0,0,1,.52-5.12,24.15,24.15,0,0,1,2.05-5.6l5.4,2.11a27.38,27.38,0,0,0-1.37,4.65,13.54,13.54,0,0,0,.63,7.76c.86,2,2,2.84,3.52,2.58q2.54-.24,3.28-4.81a15.21,15.21,0,0,0-.24-5.08q-1-4.28-2.12-5.74l4.86-2.95A22.84,22.84,0,0,1,691.78,424.6Z"/><path class="cls-6" d="M701.15,416.39q.26,5.66.62,9.85,5.6-5.5,7-8.34a29,29,0,0,1,4.3,4.63,79,79,0,0,1-5.93,6.71q3.12,4.69,6.78,9.57v.06c-2.16,1.58-3.67,2.67-4.5,3.27a81.26,81.26,0,0,1-7-9.61c.14,3.9.34,7.19.58,9.87a28.88,28.88,0,0,1-6.51.24q-.47-8.67-1.16-25.26Z"/><path class="cls-6" d="M731.32,417.48c.14.09.13.95,0,2.6-.11.93-.22,1.92-.36,3q-2.52,0-8.08.06c-.08,2.63-.12,4.14-.12,4.52a27.27,27.27,0,0,0,5.13-.51,5.17,5.17,0,0,1,0,2.34,24.22,24.22,0,0,0-.17,3.16,39.94,39.94,0,0,0-4.91.15c0,1.91,0,3.51.12,4.82q3.55-.16,9-.83a30.8,30.8,0,0,1-.11,5.79q-10.47.06-15.71-.06a24.66,24.66,0,0,1,.09-4q.2-4,1-20.15c.63.05,2.27,0,4.9-.06q4.4-.13,6.49-.39C730.15,417.68,731.09,417.53,731.32,417.48Z"/><path class="cls-6" d="M746,416.91a7.59,7.59,0,0,1,3.15,2.3,4.75,4.75,0,0,1,1.1,2,8.25,8.25,0,0,1,.05,3.16q-.69,2.65-1.92,3.39a17.73,17.73,0,0,1-1.79,1.41,7.12,7.12,0,0,1,2.17,1.4q2.94,2.82,3,5.64h0a7.41,7.41,0,0,1,.08,1.37,4.8,4.8,0,0,1-.76,2.63,10.87,10.87,0,0,1-3.42,3,14.32,14.32,0,0,1-4.21,1.1,10.78,10.78,0,0,1-8.4-2.74c0-2.07,0-4.35-.07-6.85q0-14.37.23-14.87a16.19,16.19,0,0,1,2.65-1.87A9.77,9.77,0,0,1,746,416.91Zm-5.66,6c.08,1,.17,2.33.26,3.93a3.25,3.25,0,0,0,2.69-1.37c.72-.95.72-1.76,0-2.45a2.59,2.59,0,0,0-1.84-.62Q740.58,422.44,740.37,422.89Zm.73,10.53c.11,3.17.2,4.95.27,5.35,1.73,0,2.79-.32,3.18-1.09a2.81,2.81,0,0,0,.44-2.87,2,2,0,0,0-.89-1.23,4.51,4.51,0,0,0-2.12-.36C741.39,433.29,741.1,433.35,741.1,433.42Z"/><path class="cls-6" d="M770.1,421.25a19.3,19.3,0,0,1,2.52,6.72,20.8,20.8,0,0,1,.21,4.58q-1.94,13.81-12.6,12.16a7.51,7.51,0,0,1-4.67-4.46,16.13,16.13,0,0,1-1.19-5.72,22.1,22.1,0,0,1,.87-6.67A23,23,0,0,1,757,423.7a10.48,10.48,0,0,1,1.43-2.1Q765,414.39,770.1,421.25ZM759.69,434.4c.36,2.45,1.37,3.73,3,3.86,1.46.21,2.67-.47,3.62-2.07a9.2,9.2,0,0,0,1-6.23q-.88-4.05-3-4.07c-1.8.16-3.18,1.63-4.13,4.43A10.53,10.53,0,0,0,759.69,434.4Z"/><path class="cls-6" d="M784.06,436.06q-3.21,4.33-5.78,7.94a53.8,53.8,0,0,0-4-5.07q.27-.36,5.51-7.62l.84-1.15c-.37-.63-.75-1.26-1.15-1.91a76,76,0,0,0-4.84-7.16,71.16,71.16,0,0,0,5.79-4.3h.06q1.92,3.69,4.32,7.5,3.12-4.49,4.44-6.78,4,2.5,5.45,3.51s-.45.69-1.34,2q-1.14,1.68-4.8,6.91l.37.53a87.13,87.13,0,0,1,5,8.13c-2.06,1.47-4.11,3-6.17,4.68C786.91,441.39,785.69,439,784.06,436.06Z"/><path class="cls-6" d="M812.64,417.48c.14.09.13.95,0,2.6q-.15,1.4-.36,3c-1.67,0-4.37,0-8.08.06-.08,2.63-.12,4.14-.12,4.52a27.27,27.27,0,0,0,5.13-.51,5.17,5.17,0,0,1,0,2.34,24.22,24.22,0,0,0-.17,3.16,39.94,39.94,0,0,0-4.91.15c0,1.91,0,3.51.12,4.82q3.56-.16,9-.83a30.8,30.8,0,0,1-.11,5.79q-10.47.06-15.71-.06a28.18,28.18,0,0,1,.09-4q.19-4,1-20.15c.63.05,2.27,0,4.9-.06,2.93-.09,5.1-.22,6.49-.39C811.47,417.68,812.41,417.53,812.64,417.48Z"/><path class="cls-6" d="M822.26,433.73c-3.64-1-5.65-2.88-6-5.59a8.45,8.45,0,0,1,.21-3.55q1.08-4.39,7.18-6.33a11.92,11.92,0,0,1,7.36.51q-.12,3.59-.26,6.58-2.25-1.65-6-.88-2.65,1.11-2.43,2.25c.1.68.86,1.28,2.29,1.79l3.41,1c3.65,1,5.66,2.91,6,5.62a8.26,8.26,0,0,1-.19,3.55q-1.46,5.83-7.18,6.32a10.26,10.26,0,0,1-10.3-5.81,47.07,47.07,0,0,0,2.7-4.35q3.4,5.13,7.1,4.12a2.21,2.21,0,0,0,1.8-2.42c-.09-.68-.86-1.28-2.29-1.8Z"/><path class="cls-6" d="M8.07,706.13l-1.2,11.19H2.34L0,696.32H3.21L5,712.88l1.59-16.56H9.75L11.4,713l1.71-16.68H16l-2.34,21H9.27Z"/><path class="cls-6" d="M28.77,717.32H25.44l-.57-3.81H20.82l-.57,3.81h-3l3.36-21h4.83Zm-7.53-6.66h3.18L22.83,700Z"/><path class="cls-6" d="M29.1,696.32H39.3v3H35.85v18h-3.3v-18H29.1Z"/><path class="cls-6" d="M51.21,709.49v2.79c0,3.36-1.68,5.28-4.92,5.28s-4.92-1.92-4.92-5.28V701.36c0-3.36,1.68-5.28,4.92-5.28s4.92,1.92,4.92,5.28v2H48.09v-2.25c0-1.5-.66-2.07-1.71-2.07s-1.71.57-1.71,2.07v11.34c0,1.5.66,2,1.71,2s1.71-.54,1.71-2v-3Z"/><path class="cls-6" d="M57.42,717.32h-3.3v-21h3.3v9h3.75v-9h3.36v21H61.17v-9H57.42Z"/><path class="cls-6" d="M72.48,714.32c.36,0,.78,0,1.14,0,1,0,1.89-.39,1.89-2v-16h3.3V712.1c0,4.2-2.25,5.28-4.74,5.28a13.56,13.56,0,0,1-1.59-.06Z"/><path class="cls-6" d="M85.26,705.17h4.53v3H85.26v6.15H91v3H82v-21h9v3h-5.7Z"/><path class="cls-6" d="M93.63,701.36c0-3.36,1.77-5.28,5-5.28s5,1.92,5,5.28v10.92c0,3.36-1.77,5.28-5,5.28s-5-1.92-5-5.28Zm3.3,11.13c0,1.5.66,2.07,1.71,2.07s1.71-.57,1.71-2.07V701.15c0-1.5-.66-2.07-1.71-2.07s-1.71.57-1.71,2.07Z"/><path class="cls-6" d="M116.46,701.51v2.73c0,3.36-1.62,5.19-4.92,5.19H110v7.89h-3.3v-21h4.86C114.84,696.32,116.46,698.15,116.46,701.51ZM110,699.32v7.11h1.56c1,0,1.62-.48,1.62-2V701.3c0-1.5-.57-2-1.62-2Z"/><path class="cls-6" d="M129.18,717.32h-3.33l-.57-3.81h-4l-.57,3.81h-3l3.36-21h4.83Zm-7.53-6.66h3.18L123.24,700Z"/><path class="cls-6" d="M138.51,717.32a6.46,6.46,0,0,1-.3-2.58v-3.3c0-2-.66-2.67-2.16-2.67h-1.14v8.55h-3.3v-21h5c3.42,0,4.89,1.59,4.89,4.83v1.65c0,2.16-.69,3.57-2.16,4.26,1.65.69,2.19,2.28,2.19,4.47v3.24a6.18,6.18,0,0,0,.36,2.55Zm-3.6-18v6.45h1.29c1.23,0,2-.54,2-2.22v-2.07c0-1.5-.51-2.16-1.68-2.16Z"/><path class="cls-6" d="M144.57,696.32h5.22c3.3,0,4.92,1.83,4.92,5.19v10.62c0,3.36-1.62,5.19-4.92,5.19h-5.22Zm3.3,3v15h1.86c1.05,0,1.68-.54,1.68-2V701.36c0-1.5-.63-2-1.68-2Z"/><path class="cls-6" d="M160.35,710.36l-4.17-14h3.45l2.52,9.57,2.52-9.57h3.15l-4.17,14v7h-3.3Z"/><path class="cls-6" d="M170.46,712.67l-.42-7.59v-8.76h3.3v8.76l-.42,7.59Zm2.82,1.47v3.18H170.1v-3.18Z"/><path class="cls-6" d="M176.64,717.32v-3.18h3.18V717l-1.44,3.33H177l.87-3Z"/><path class="cls-6" d="M199.35,717.32H196l-.57-3.81h-4l-.57,3.81h-3l3.36-21H196Zm-7.53-6.66H195L193.41,700Z"/><path class="cls-6" d="M201.78,696.32h3.3v18h5.43v3h-8.73Z"/><path class="cls-6" d="M216.15,705.17h4.53v3h-4.53v6.15h5.7v3h-9v-21h9v3h-5.7Z"/><path class="cls-6" d="M235.8,696.32l-3.45,10.2,3.69,10.8h-3.48l-2.7-8.31-2.73,8.31H224l3.69-10.8-3.45-10.2h3.42l2.49,7.74,2.55-7.74Z"/><path class="cls-6" d="M243.18,696.32h10.2v3h-3.45v18h-3.3v-18h-3.45Z"/><path class="cls-6" d="M262.62,717.32a6.46,6.46,0,0,1-.3-2.58v-3.3c0-2-.66-2.67-2.16-2.67H259v8.55h-3.3v-21h5c3.42,0,4.88,1.59,4.88,4.83v1.65c0,2.16-.68,3.57-2.15,4.26,1.65.69,2.19,2.28,2.19,4.47v3.24a6.18,6.18,0,0,0,.36,2.55Zm-3.6-18v6.45h1.29c1.23,0,2-.54,2-2.22v-2.07c0-1.5-.51-2.16-1.68-2.16Z"/><path class="cls-6" d="M272,705.17h4.53v3H272v6.15h5.7v3h-9v-21h9v3H272Z"/><path class="cls-6" d="M290.48,701.15v.75c0,2.16-.65,3.54-2.13,4.23,1.77.69,2.46,2.28,2.46,4.5v1.71c0,3.24-1.71,5-5,5h-5.19v-21h5C289,696.32,290.48,697.91,290.48,701.15Zm-6.56-1.83v5.55h1.29c1.23,0,2-.54,2-2.22v-1.17c0-1.5-.51-2.16-1.68-2.16Zm0,8.55v6.45h1.89c1.11,0,1.71-.51,1.71-2.07v-1.83c0-1.95-.63-2.55-2.13-2.55Z"/><path class="cls-6" d="M297,705.17h4.52v3H297v6.15h5.69v3h-9v-21h9v3H297Z"/><path class="cls-6" d="M310,709l-1,1.92v6.45h-3.31v-21h3.31v9.15l4.31-9.15h3.3L312,705.68l4.59,11.64h-3.39Z"/><path class="cls-6" d="M319,699.5v-3.18h3.17v2.85l-1.44,3.33h-1.35l.87-3Z"/><path class="cls-6" d="M329.72,696.08c3.21,0,4.86,1.92,4.86,5.28V702h-3.12v-.87c0-1.5-.6-2.07-1.65-2.07s-1.65.57-1.65,2.07c0,4.32,6.45,5.13,6.45,11.13,0,3.36-1.68,5.28-4.92,5.28s-4.92-1.92-4.92-5.28V711h3.12v1.5c0,1.5.66,2,1.71,2s1.71-.54,1.71-2c0-4.32-6.45-5.13-6.45-11.13C324.86,698,326.51,696.08,329.72,696.08Z"/><path class="cls-6" d="M346.25,705.65h4.26v3h-4.26v8.67H343v-21h8.73v3h-5.43Z"/><path class="cls-6" d="M357.32,696.32v16.2c0,1.5.66,2,1.71,2s1.71-.54,1.71-2v-16.2h3.12v16c0,3.36-1.68,5.28-4.92,5.28s-4.92-1.92-4.92-5.28v-16Z"/><path class="cls-6" d="M370,702.11v15.21h-3v-21h4.14l3.39,12.57V696.32h2.94v21h-3.39Z"/><path class="cls-6" d="M385.31,696.32h10.2v3h-3.45v18h-3.3v-18h-3.45Z"/><path class="cls-6" d="M402.83,713.45l2.52-17.13h3l-3.24,21h-4.92l-3.24-21h3.33Z"/><path class="cls-6" d="M416.09,701.36c0-3.36,1.77-5.28,5-5.28s5,1.92,5,5.28v10.92a6.18,6.18,0,0,1-.63,2.94c.15.39.39.45.93.45h.3v2.94h-.45a2.9,2.9,0,0,1-2.85-1.44,6.77,6.77,0,0,1-2.31.39c-3.24,0-5-1.92-5-5.28Zm3.3,11.13c0,1.5.66,2.07,1.71,2.07s1.71-.57,1.71-2.07V701.15c0-1.5-.66-2.07-1.71-2.07s-1.71.57-1.71,2.07Z"/><path class="cls-6" d="M432.29,696.32v16.2c0,1.5.66,2,1.71,2s1.71-.54,1.71-2v-16.2h3.12v16c0,3.36-1.68,5.28-4.92,5.28s-4.92-1.92-4.92-5.28v-16Z"/><path class="cls-6" d="M442,696.32h3.3v21H442Z"/><path class="cls-6" d="M457.73,696.32v2.94l-6.27,15.06h6.27v3h-9.66v-2.94l6.27-15.06h-6v-3Z"/><path class="cls-6" d="M471.08,705.62h4.62v6.66c0,3.36-1.68,5.28-4.92,5.28s-4.92-1.92-4.92-5.28V701.36c0-3.36,1.68-5.28,4.92-5.28s4.92,1.92,4.92,5.28v2h-3.12v-2.25c0-1.5-.66-2.07-1.71-2.07s-1.71.57-1.71,2.07v11.34c0,1.5.66,2,1.71,2s1.71-.54,1.71-2v-3.87h-1.5Z"/><path class="cls-6" d="M489.38,717.32h-3.33l-.57-3.81h-4.05l-.57,3.81h-3l3.36-21H486Zm-7.53-6.66H485L483.44,700Z"/><path class="cls-6" d="M498.8,711.23l2.25-14.91h4.59v21h-3.12V702.26l-2.28,15.06h-3.12l-2.46-14.85v14.85h-2.88v-21h4.59Z"/><path class="cls-6" d="M512.24,705.17h4.53v3h-4.53v6.15h5.7v3h-9v-21h9v3h-5.7Z"/><path class="cls-6" d="M524.06,714.14v3.18h-3.18v-3.18Z"/><path class="cls-1" d="M1.64,278H4.88v6.48h6.74V278h3.24v15.46H11.62V287H4.88v6.48H1.64Z"/><path class="cls-1" d="M20,278H31.09v2.52H23.24v4h7V287h-7v4h7.85v2.5H20Z"/><path class="cls-1" d="M41.17,278h3.55l5.88,15.46H47.24l-1.47-3.72H40.09l-1.44,3.72H35.26Zm4.12,9.24L42.92,281l-2.35,6.22Z"/><path class="cls-1" d="M55.25,278h6.48q3.56,0,5.28,1.84c1.16,1.22,1.73,3.21,1.73,6s-.57,4.56-1.73,5.8-2.91,1.86-5.28,1.86H55.25Zm6,13a5.39,5.39,0,0,0,2.35-.43A2.91,2.91,0,0,0,65,289a8.6,8.6,0,0,0,.46-3.17,9.31,9.31,0,0,0-.42-3.17,2.62,2.62,0,0,0-1.3-1.52,5.87,5.87,0,0,0-2.45-.42H58.49V291Z"/><path class="cls-1" d="M73.4,278h3.24v15.46H73.4Z"/><path class="cls-1" d="M81.77,278h2.81l7.32,10.3V278h3.24v15.46H92.33L85,283.16v10.3H81.77Z"/><path class="cls-1" d="M101.84,291.67a7.66,7.66,0,0,1-2-5.68,8.44,8.44,0,0,1,2.07-6.06,8,8,0,0,1,6-2.17,15.22,15.22,0,0,1,4.65.65v2.78a13,13,0,0,0-4.41-.67,5,5,0,0,0-3.89,1.33,6.16,6.16,0,0,0-1.18,4.14q0,5,4.68,5a8.91,8.91,0,0,0,3-.48v-3.6h-3.6v-2.06h6.34v7.56a8.28,8.28,0,0,1-2.36.94,13.57,13.57,0,0,1-3.4.38A8,8,0,0,1,101.84,291.67Z"/><path class="cls-1" d="M128.69,285.68H138v2.52h-9.27Z"/><path class="cls-1" d="M153.46,292.86V290a14.68,14.68,0,0,0,2.3.7,11.71,11.71,0,0,0,2.38.26,6.54,6.54,0,0,0,2.53-.34,1.36,1.36,0,0,0,.73-1.39,1.7,1.7,0,0,0-.33-1.1,2.69,2.69,0,0,0-1.11-.71c-.51-.2-1.31-.45-2.4-.76a7.44,7.44,0,0,1-3.4-1.68,3.8,3.8,0,0,1-1-2.78,3.85,3.85,0,0,1,1.56-3.29,7.55,7.55,0,0,1,4.54-1.15,17.3,17.3,0,0,1,2.55.18,10,10,0,0,1,2,.47v2.85a11.63,11.63,0,0,0-4.1-.74,6.29,6.29,0,0,0-2.44.36,1.32,1.32,0,0,0-.8,1.32,1.45,1.45,0,0,0,.3,1,2.55,2.55,0,0,0,1,.64q.71.27,2.19.66a7.63,7.63,0,0,1,3.72,1.86,4.17,4.17,0,0,1,1,2.91,3.87,3.87,0,0,1-1.59,3.28,7.72,7.72,0,0,1-4.68,1.19A12.46,12.46,0,0,1,153.46,292.86Z"/><path class="cls-1" d="M169.37,278h7.25a5.14,5.14,0,0,1,4,1.46,5.49,5.49,0,0,1,1.34,3.87,5.63,5.63,0,0,1-.66,2.76,4.55,4.55,0,0,1-1.88,1.86,6,6,0,0,1-2.86.66h-3.91v4.85h-3.24Zm6.48,8a2.84,2.84,0,0,0,2.09-.72,2.68,2.68,0,0,0,.72-2,2.85,2.85,0,0,0-.67-2.05,2.63,2.63,0,0,0-2-.71h-3.36V286Z"/><path class="cls-1" d="M186.12,278h3.24v13H197v2.5H186.12Z"/><path class="cls-1" d="M206.21,278h3.55l5.88,15.46h-3.36l-1.46-3.72h-5.69l-1.44,3.72h-3.38Zm4.13,9.24L208,281l-2.35,6.22Z"/><path class="cls-1" d="M221.09,280.5h-4.75V278h12.72v2.5h-4.73v13h-3.24Z"/><path class="cls-1" d="M233.52,291.62a7.74,7.74,0,0,1-2.08-5.75,8.33,8.33,0,0,1,2-6q2-2.12,6-2.11a13.37,13.37,0,0,1,4.6.77v2.83a11.33,11.33,0,0,0-4.36-.84,4.82,4.82,0,0,0-3.78,1.31,5.92,5.92,0,0,0-1.17,4A5.25,5.25,0,0,0,236,289.7a5,5,0,0,0,3.75,1.26,11.27,11.27,0,0,0,4.35-.82V293a14.94,14.94,0,0,1-4.61.7A8.08,8.08,0,0,1,233.52,291.62Z"/><path class="cls-1" d="M248.71,278H252v6.48h6.75V278h3.24v15.46H258.7V287H252v6.48h-3.24Z"/><path class="cls-1" d="M1.64,571H9.46a4.9,4.9,0,0,1,3.46,1.08,4,4,0,0,1,1.15,3.1,4.22,4.22,0,0,1-.47,2.05,3.24,3.24,0,0,1-1.31,1.31,3.34,3.34,0,0,1,1.76,1.16,3.68,3.68,0,0,1,.6,2.24,4.33,4.33,0,0,1-1.26,3.38,5.26,5.26,0,0,1-3.64,1.14H1.64Zm7.22,6.41c1.46,0,2.19-.66,2.19-2a2,2,0,0,0-.54-1.55,2.8,2.8,0,0,0-1.89-.49H4.88v4ZM9,584.08a2.59,2.59,0,0,0,1.81-.52,2.28,2.28,0,0,0,.57-1.76,1.93,1.93,0,0,0-.59-1.55,3.13,3.13,0,0,0-2-.49H4.88v4.32Z"/><path class="cls-1" d="M18.22,578.8q0-4.17,1.86-6.11c1.24-1.29,3.13-1.93,5.65-1.93s4.42.64,5.66,1.93,1.86,3.33,1.86,6.11q0,7.89-7.52,7.9T18.22,578.8Zm10.71,3.88a6.12,6.12,0,0,0,1-3.88,6.44,6.44,0,0,0-1-4.07,3.94,3.94,0,0,0-3.22-1.21,3.93,3.93,0,0,0-3.21,1.21,6.44,6.44,0,0,0-1,4.07,6.06,6.06,0,0,0,1,3.88,3.88,3.88,0,0,0,3.19,1.26A3.91,3.91,0,0,0,28.93,582.68Z"/><path class="cls-1" d="M37.9,571h6.48q3.56,0,5.28,1.84t1.73,6c0,2.62-.58,4.56-1.73,5.8s-2.91,1.86-5.28,1.86H37.9Zm6,13a5.39,5.39,0,0,0,2.35-.43A2.85,2.85,0,0,0,47.63,582a8.37,8.37,0,0,0,.47-3.17,9.31,9.31,0,0,0-.42-3.17,2.63,2.63,0,0,0-1.31-1.52,5.82,5.82,0,0,0-2.44-.42H41.14V584Z"/><path class="cls-1" d="M59.31,580.74,53.77,571h3.38l3.79,7,3.79-7h3.36l-5.54,9.74v5.72H59.31Z"/><path class="cls-1" d="M83.31,578.68h9.26v2.52H83.31Z"/><path class="cls-1" d="M108.27,571h7.82a4.9,4.9,0,0,1,3.46,1.08,4,4,0,0,1,1.15,3.1,4.22,4.22,0,0,1-.47,2.05,3.24,3.24,0,0,1-1.31,1.31,3.34,3.34,0,0,1,1.76,1.16,3.68,3.68,0,0,1,.6,2.24,4.33,4.33,0,0,1-1.26,3.38,5.26,5.26,0,0,1-3.64,1.14h-8.11Zm7.22,6.41c1.46,0,2.19-.66,2.19-2a2,2,0,0,0-.54-1.55,2.8,2.8,0,0,0-1.89-.49h-3.74v4Zm.12,6.67a2.59,2.59,0,0,0,1.81-.52,2.28,2.28,0,0,0,.57-1.76,1.93,1.93,0,0,0-.59-1.55,3.13,3.13,0,0,0-2-.49h-3.89v4.32Z"/><path class="cls-1" d="M125.93,571H137v2.52h-7.85v4h7V580h-7v4H137v2.5H125.93Z"/><path class="cls-1" d="M141.68,571h7.82a4.9,4.9,0,0,1,3.46,1.08,4.07,4.07,0,0,1,1.15,3.1,4.22,4.22,0,0,1-.47,2.05,3.24,3.24,0,0,1-1.31,1.31,3.31,3.31,0,0,1,1.75,1.16,3.68,3.68,0,0,1,.6,2.24,4.33,4.33,0,0,1-1.26,3.38,5.23,5.23,0,0,1-3.63,1.14h-8.11Zm7.22,6.41c1.46,0,2.18-.66,2.18-2a2,2,0,0,0-.54-1.55,2.77,2.77,0,0,0-1.88-.49h-3.74v4Zm.12,6.67a2.59,2.59,0,0,0,1.81-.52,2.28,2.28,0,0,0,.57-1.76,1.93,1.93,0,0,0-.59-1.55,3.15,3.15,0,0,0-2-.49h-3.88v4.32Z"/><path class="cls-1" d="M163.2,571h3.56l5.88,15.46h-3.36l-1.47-3.72h-5.69l-1.44,3.72H157.3Zm4.13,9.24L165,574l-2.36,6.22Z"/><path class="cls-1" d="M176,585.86V583a14.68,14.68,0,0,0,2.3.7,11.71,11.71,0,0,0,2.38.26,6.54,6.54,0,0,0,2.53-.34,1.36,1.36,0,0,0,.73-1.39,1.7,1.7,0,0,0-.33-1.1,2.69,2.69,0,0,0-1.11-.71c-.51-.2-1.31-.45-2.4-.76a7.44,7.44,0,0,1-3.4-1.68,3.8,3.8,0,0,1-1-2.78,3.85,3.85,0,0,1,1.56-3.29,7.55,7.55,0,0,1,4.54-1.15,17.3,17.3,0,0,1,2.55.18,10,10,0,0,1,2,.47v2.85a11.63,11.63,0,0,0-4.1-.74,6.29,6.29,0,0,0-2.44.36,1.32,1.32,0,0,0-.8,1.32,1.45,1.45,0,0,0,.3,1,2.55,2.55,0,0,0,1,.64q.71.27,2.19.66a7.63,7.63,0,0,1,3.72,1.86,4.17,4.17,0,0,1,1,2.91,3.87,3.87,0,0,1-1.59,3.28A7.72,7.72,0,0,1,181,586.7,12.46,12.46,0,0,1,176,585.86Z"/><path class="cls-1" d="M203,571h2.81l7.32,10.3V571h3.24v15.46h-2.81l-7.32-10.3v10.3H203Z"/><path class="cls-1" d="M221.48,571h11.08v2.52h-7.85v4h7V580h-7v4h7.85v2.5H221.48Z"/><path class="cls-1" d="M238.93,585.14a5.58,5.58,0,0,1-1.83-4.49V571h3.24v9.41a3.41,3.41,0,0,0,.95,2.64,3.84,3.84,0,0,0,2.72.89,3.8,3.8,0,0,0,2.71-.89,3.45,3.45,0,0,0,.94-2.64V571h3.24v9.65a5.56,5.56,0,0,1-1.83,4.47A7.48,7.48,0,0,1,244,586.7,7.62,7.62,0,0,1,238.93,585.14Z"/><path class="cls-1" d="M255.91,571H267v2.52h-7.85v4h7V580h-7v4H267v2.5H255.91Z"/><path class="cls-6" d="M12.15,635.46H8.82l-.57-3.81h-4l-.57,3.81H.6l3.36-21H8.79ZM4.62,628.8H7.8L6.24,618.18H6.18Z"/><path class="cls-6" d="M26.55,619.29V620c0,2.16-.66,3.51-2.13,4.2v.06c1.77.69,2.46,2.25,2.46,4.47v1.71c0,3.24-1.71,5-5,5H16.68v-21h5C25.08,614.46,26.55,616.05,26.55,619.29ZM20,617.46V623h1.29c1.23,0,2-.54,2-2.22v-1.17c0-1.5-.51-2.16-1.68-2.16ZM20,626v6.45h1.89c1.11,0,1.71-.51,1.71-2.07v-1.83c0-1.95-.63-2.55-2.13-2.55Z"/><path class="cls-6" d="M41.43,627.63v2.79c0,3.36-1.68,5.28-4.92,5.28s-4.92-1.92-4.92-5.28V619.5c0-3.36,1.68-5.28,4.92-5.28s4.92,1.92,4.92,5.28v2H38.31v-2.25c0-1.5-.66-2.07-1.71-2.07s-1.71.57-1.71,2.07v11.34c0,1.5.66,2,1.71,2s1.71-.54,1.71-2v-3Z"/><path class="cls-6" d="M46.44,614.46h5.22c3.3,0,4.92,1.83,4.92,5.19v10.62c0,3.36-1.62,5.19-4.92,5.19H46.44Zm3.3,3v15H51.6c1,0,1.68-.54,1.68-2V619.5c0-1.5-.63-2-1.68-2Z"/><path class="cls-6" d="M65,623.31h4.53v3H65v6.15h5.7v3h-9v-21h9v3H65Z"/><path class="cls-6" d="M79,623.79h4.26v3H79v8.67h-3.3v-21h8.73v3H79Z"/><path class="cls-6" d="M94,623.76h4.62v6.66c0,3.36-1.68,5.28-4.92,5.28s-4.92-1.92-4.92-5.28V619.5c0-3.36,1.68-5.28,4.92-5.28s4.92,1.92,4.92,5.28v2H95.49v-2.25c0-1.5-.66-2.07-1.71-2.07s-1.71.57-1.71,2.07v11.34c0,1.5.66,2,1.71,2s1.71-.54,1.71-2v-3.87H94Z"/><path class="cls-6" d="M107,635.46h-3.3v-21H107v9h3.75v-9h3.36v21h-3.36v-9H107Z"/><path class="cls-6" d="M119.55,614.46h3.3v21h-3.3Z"/><path class="cls-6" d="M127.35,632.46c.36,0,.78,0,1.14,0,1,0,1.89-.39,1.89-2v-16h3.3v15.78c0,4.2-2.25,5.28-4.74,5.28a13.56,13.56,0,0,1-1.59-.06Z"/><path class="cls-6" d="M143.25,627.09l-1,1.92v6.45h-3.3v-21h3.3v9.09h.06l4.26-9.09h3.3l-4.59,9.36,4.59,11.64h-3.39Z"/><path class="cls-6" d="M154.35,614.46h3.3v18h5.43v3h-8.73Z"/><path class="cls-6" d="M174.48,629.37h.06l2.22-14.91h4.59v21h-3.12V620.4h-.06L176,635.46h-3.12l-2.4-14.85h-.06v14.85h-2.88v-21h4.59Z"/><path class="cls-6" d="M4.47,646.25H4.41v15.21h-3v-21H5.58L8.91,653H9V640.46h2.94v21H8.52Z"/><path class="cls-6" d="M17,645.5c0-3.36,1.77-5.28,5-5.28s5,1.92,5,5.28v10.92c0,3.36-1.77,5.28-5,5.28s-5-1.92-5-5.28Zm3.3,11.13c0,1.5.66,2.07,1.71,2.07s1.71-.57,1.71-2.07V645.29c0-1.5-.66-2.07-1.71-2.07s-1.71.57-1.71,2.07Z"/><path class="cls-6" d="M41.94,645.65v2.73c0,3.36-1.62,5.19-4.92,5.19H35.46v7.89h-3.3v-21H37C40.32,640.46,41.94,642.29,41.94,645.65Zm-6.48-2.19v7.11H37c1,0,1.62-.48,1.62-2v-3.15c0-1.5-.57-2-1.62-2Z"/><path class="cls-6" d="M46.2,645.5c0-3.36,1.77-5.28,5-5.28s5,1.92,5,5.28v10.92a6.18,6.18,0,0,1-.63,2.94c.15.39.39.45.93.45h.3v2.94h-.45a2.9,2.9,0,0,1-2.85-1.44,6.77,6.77,0,0,1-2.31.39c-3.24,0-5-1.92-5-5.28Zm3.3,11.13c0,1.5.66,2.07,1.71,2.07s1.71-.57,1.71-2.07V645.29c0-1.5-.66-2.07-1.71-2.07s-1.71.57-1.71,2.07Z"/><path class="cls-6" d="M68.25,661.46a6.46,6.46,0,0,1-.3-2.58v-3.3c0-2-.66-2.67-2.16-2.67H64.65v8.55h-3.3v-21h5c3.42,0,4.89,1.59,4.89,4.83v1.65c0,2.16-.69,3.54-2.16,4.23v.06c1.65.69,2.19,2.25,2.19,4.44v3.24a6.18,6.18,0,0,0,.36,2.55Zm-3.6-18v6.45h1.29c1.23,0,2-.54,2-2.22v-2.07c0-1.5-.51-2.16-1.68-2.16Z"/><path class="cls-6" d="M80.85,640.22c3.21,0,4.86,1.92,4.86,5.28v.66H82.59v-.87c0-1.5-.6-2.07-1.65-2.07s-1.65.57-1.65,2.07.66,2.67,2.82,4.56c2.76,2.43,3.63,4.17,3.63,6.57,0,3.36-1.68,5.28-4.92,5.28s-4.92-1.92-4.92-5.28v-1.29H79v1.5c0,1.5.66,2,1.71,2s1.71-.54,1.71-2-.66-2.67-2.82-4.56C76.86,649.64,76,647.9,76,645.5,76,642.14,77.64,640.22,80.85,640.22Z"/><path class="cls-6" d="M89.67,640.46h10.2v3H96.42v18h-3.3v-18H89.67Z"/><path class="cls-6" d="M107.46,640.46v16.2c0,1.5.66,2,1.71,2s1.71-.54,1.71-2v-16.2H114v16c0,3.36-1.68,5.28-4.92,5.28s-4.92-1.92-4.92-5.28v-16Z"/><path class="cls-6" d="M124.2,657.59h.06l2.49-17.13h3l-3.24,21h-4.92l-3.24-21h3.33Z"/><path class="cls-6" d="M141.66,650.27h-.06l-1.17,11.19H135.9l-2.34-21h3.21L138.51,657h.06l1.56-16.56h3.18l1.62,16.68H145l1.68-16.68h2.88l-2.34,21h-4.38Z"/><path class="cls-6" d="M165.21,640.46l-3.45,10.2,3.69,10.8H162l-2.67-8.31h-.06l-2.7,8.31h-3.09l3.69-10.8-3.45-10.2h3.42l2.46,7.74h.06l2.52-7.74Z"/><path class="cls-6" d="M173.19,654.5l-4.17-14h3.45L175,650H175l2.49-9.57h3.15l-4.17,14v7h-3.3Z"/><path class="cls-6" d="M194.13,640.46v2.94l-6.27,15.06h6.27v3h-9.66v-2.94l6.27-15.06h-6v-3Z"/><path class="cls-7" d="M14.13,315.43a19.52,19.52,0,0,1,1.23,3.36q3.29,12,6.32,21.17c0,.2-.81.65-2.45,1.35a12,12,0,0,1-3,1,53,53,0,0,1-1.8-5.17,46.67,46.67,0,0,1-5.25-.91q-.36,1.85-.9,5.36a27.64,27.64,0,0,1-6.07-1.46c0-.35.52-2.91,1.57-7.67q2.14-9.6,3.38-16.34a9,9,0,0,1,3.19-.48ZM11,324.16c-.39,2.79-.75,5.12-1.08,7a13.44,13.44,0,0,0,2.87.26c-.49-2.35-.83-4-1-4.84A11.35,11.35,0,0,0,11,324.16Z"/><path class="cls-7" d="M35.16,315.48a7.45,7.45,0,0,1,3.14,2.31,4.58,4.58,0,0,1,1.11,2,8.25,8.25,0,0,1,.05,3.16c-.46,1.77-1.1,2.89-1.92,3.38a19.46,19.46,0,0,1-1.79,1.42,6.92,6.92,0,0,1,2.16,1.39q3,2.83,3,5.64h-.05a7.14,7.14,0,0,1,.07,1.37,4.74,4.74,0,0,1-.75,2.64,10.86,10.86,0,0,1-3.42,3,14,14,0,0,1-4.21,1.1,10.74,10.74,0,0,1-5.14-.7,11.07,11.07,0,0,1-3.27-2c0-2.06,0-4.35-.06-6.85q0-14.37.23-14.87A16.28,16.28,0,0,1,27,316.54,9.74,9.74,0,0,1,35.16,315.48Zm-5.66,6c.08,1,.17,2.34.26,3.94A3.29,3.29,0,0,0,32.45,324a1.65,1.65,0,0,0,0-2.45,2.59,2.59,0,0,0-1.84-.61C30,321,29.64,321.17,29.5,321.46ZM30.22,332c.12,3.17.21,5,.28,5.35q2.59.06,3.18-1.08a2.83,2.83,0,0,0,.44-2.88,2.05,2.05,0,0,0-.89-1.23,4.64,4.64,0,0,0-2.12-.36C30.52,331.86,30.22,331.93,30.22,332Z"/><path class="cls-7" d="M58.67,316.5q-.42,3.5-1.14,8.42h-.05l-2.32-.3v.05c-1.67-.32-3.29,1-4.84,4q-1.35,4.17.08,5.24a5.21,5.21,0,0,0,4.05,1.1q1-.09,4.41-2.2.66.62,2,5a27.54,27.54,0,0,1-3.83,2.55,16.55,16.55,0,0,1-5.69,1.16,6,6,0,0,1-4-1.16q-5.1-3.42-3.1-12a17.82,17.82,0,0,1,8-10.33A11.35,11.35,0,0,1,58.67,316.5Z"/><path class="cls-7" d="M68.85,316.37a11.68,11.68,0,0,1,6.74,1.25,10.38,10.38,0,0,1,4.87,6.3,17.56,17.56,0,0,1,0,7.5,15.19,15.19,0,0,1-3,5.59,13.86,13.86,0,0,1-6.36,4.06c-1.28.41-3.38.35-6.3-.2q-1-.36-1-.51.36-9.42,1.06-23.42A17.16,17.16,0,0,1,68.85,316.37ZM69.92,329l-.13,4.07a3.87,3.87,0,0,0,2.12-.31,4.55,4.55,0,0,0,2.45-2.41,6.5,6.5,0,0,0-.31-5.06c-.63-1-1.87-1.51-3.74-1.49Z"/><path class="cls-7" d="M100,316.06c.14.08.13.95,0,2.59q-.15,1.41-.36,3-2.52,0-8.08.06c-.08,2.64-.12,4.14-.12,4.53a28.21,28.21,0,0,0,5.13-.52,5.17,5.17,0,0,1,0,2.34,24.44,24.44,0,0,0-.17,3.16,39.94,39.94,0,0,0-4.91.15c0,1.91,0,3.52.12,4.82,2.37-.11,5.36-.38,9-.83a30.88,30.88,0,0,1-.11,5.8q-10.47,0-15.71-.06a26.45,26.45,0,0,1,.09-4q.2-4,1-20.14c.63.05,2.27,0,4.9-.06,2.93-.09,5.1-.22,6.49-.39Z"/><path class="cls-7" d="M119.39,315.82a54.72,54.72,0,0,1,.06,6.23q-2.83,0-8.72.59a22,22,0,0,0,.34,4.14c1.85-.16,3.6-.37,5.23-.61,0,1.75-.07,3.71-.06,5.86a47.46,47.46,0,0,0-4.76.27c.25,5,.46,8,.63,9.06q-1.65.11-6.89.32-.87-13.11-1.24-24.54Z"/><path class="cls-7" d="M138.79,332.51a10.12,10.12,0,0,1-1,5.16,8.68,8.68,0,0,1-5.13,4.45q-10.84,1.67-11.34-12.15a23,23,0,0,1,.69-4.58,21.58,21.58,0,0,1,3.22-6.72q5.47-6.44,11.94-2.76l-1,8.36c-.78-.73-2.45-1-5-1-1.66,0-3,1.41-4,4.2a8.27,8.27,0,0,0,.37,6.45,3.69,3.69,0,0,0,4,2.13q2.4-.16,2.91-3.47l-5,.19c-.07-1.32-.12-3.12-.16-5.41a109.46,109.46,0,0,0,11-.56l.27,5.66Z"/><path class="cls-7" d="M153.58,328.2c.1-1,.21-2,.32-3.05.18-2,.5-5.31.93-9.87,1.47,0,3.78-.27,7-.71q-2.62,15.76-3.6,25.71a31.72,31.72,0,0,1-5.93,1.85q.12-2,.84-9.21l-2.36.61q-.18,3.75-.51,8l-3.31.69-3,.49q.87-15.94.56-26.17a68.79,68.79,0,0,0,7-1.12q-.33,5.63-.56,11.88l0,1.66Z"/><path class="cls-7" d="M170,315.35a3.63,3.63,0,0,1,1.42.61,2.19,2.19,0,0,1,.72,1.78,3.42,3.42,0,0,1-2,3.18,5.72,5.72,0,0,1-4,.37,2.88,2.88,0,0,1-1.46-2.54,3.22,3.22,0,0,1,2.13-3A5.34,5.34,0,0,1,170,315.35Zm1.79,7.44Q171.3,336,171.35,341c-.79,0-3,.08-6.62.23q.09-7.57.16-18.21Q169.24,322.81,171.74,322.79Z"/><path class="cls-7" d="M190.29,315.77q.32.5,2.79,13.42c.36,3.58.3,5.95-.19,7.13q-1.83,4-4.68,5.09c-4,1-7.16,1.11-9.45.32a4.3,4.3,0,0,1-2.51-1.39,6.87,6.87,0,0,1-1.22-3.41,15.43,15.43,0,0,1,1.39-6,4,4,0,0,1,1-1.39,30.33,30.33,0,0,1,4.12.78,10.77,10.77,0,0,1-.44,1.95h.05a4.11,4.11,0,0,0-.11.78.05.05,0,0,1,.06.06H181a4.29,4.29,0,0,0,.73,2.55,3.72,3.72,0,0,0,1.95,1.18q2.1.36,3.56-2.51a9.4,9.4,0,0,0,.51-4.07q0-2.61-3.23-13.54Z"/><path class="cls-7" d="M201.68,315c.18,3.77.38,7,.62,9.84q5.61-5.51,7-8.33a29.29,29.29,0,0,1,4.3,4.62,79.14,79.14,0,0,1-5.92,6.72q3.1,4.69,6.77,9.56v.07l-4.5,3.27a82.1,82.1,0,0,1-7-9.61c.14,3.89.34,7.18.58,9.86a29.73,29.73,0,0,1-6.51.25q-.45-8.67-1.16-25.27Q197.33,315.73,201.68,315Z"/><path class="cls-7" d="M224.56,317q-1.49,12.87-2.53,19.59c1.92-.21,3.85-.42,5.8-.61q.16,4.77.17,6.28a112.74,112.74,0,0,1-11.76-.22c0-2.76.18-5.62.49-8.56s.51-5.47.68-7.5c.29-3.05.54-6.29.76-9.7Q221.61,316.57,224.56,317Z"/><path class="cls-7" d="M252.79,316.42q.68,19,1,24.63l-6.49.45c0-1.34,0-3.31,0-5.91a66.47,66.47,0,0,0-.09-6.85s.07,0,.07-.06h-.08a69.64,69.64,0,0,1-4.58,8.5l-4.53-8.11c0-.36-.13.82-.29,3.54s-.2,5.62-.1,8.68a18.08,18.08,0,0,1-6.31,0c0-3.19.07-6.63.38-10.34q.45-5,.55-13.32,3.31-.66,7-1.33a70.79,70.79,0,0,0,3.08,8.76q.81-3.51,2.23-8.65C249.12,316.33,251.85,316.34,252.79,316.42Z"/><path class="cls-7" d="M278.19,316.33q-.54,7-1.86,24.54-5.54.12-7.55.25c-.26-.11-.86-2-1.81-5.75s-2-7.43-3.3-11.11q-.29,13.11-.57,17.62-4-.19-5.84-.42.74-11.82,1.49-24.37,4.68-.61,7.6-.85,3.09,10,4.63,12.9.27-6.64.62-13.4C274.36,315.94,276.56,316.13,278.19,316.33Z"/><path class="cls-7" d="M18.1,349.83a19.15,19.15,0,0,1,2.52,6.72,20.78,20.78,0,0,1,.21,4.58q-1.93,13.81-12.6,12.15a7.49,7.49,0,0,1-4.67-4.45,16,16,0,0,1-1.19-5.72,22.16,22.16,0,0,1,.87-6.68A22.58,22.58,0,0,1,5,352.27a10.23,10.23,0,0,1,1.43-2.09Q13,343,18.1,349.83ZM7.69,363q.54,3.67,3,3.86,2.19.33,3.62-2.06a9.29,9.29,0,0,0,1-6.24c-.59-2.7-1.59-4-3-4.07q-2.7.24-4.13,4.43A10.55,10.55,0,0,0,7.69,363Z"/><path class="cls-7" d="M39.71,348.2a9.05,9.05,0,0,1,.13,9.42q-3.63,5.16-8.42,4.25.3,2.69,1.36,9.87-4.52.88-6.16,1.06-1.77-12.51-2.52-19.95c-.35-2.77-.53-4.36-.53-4.77a17.92,17.92,0,0,1,10-2.57A8,8,0,0,1,39.71,348.2Zm-9.23,8.64q4.75.41,4.5-2.52a1.67,1.67,0,0,0-1.28-1.52,5.21,5.21,0,0,0-3.62.59C30.26,354.87,30.39,356,30.48,356.84Z"/><path class="cls-7" d="M56.51,371.33a10.65,10.65,0,0,1-7.14,1.09,7.33,7.33,0,0,1-4.68-4.2,14.38,14.38,0,0,1-1.19-5.38,20.26,20.26,0,0,1,.87-6.28,21.66,21.66,0,0,1,1.71-3.92,10,10,0,0,1,1.43-2q6.62-6.8,11.72-.34a17.5,17.5,0,0,1,2.52,6.34A19,19,0,0,1,62,361a20.09,20.09,0,0,1-2,6.68l2.18,2.55c-1.54,1.27-2.88,2.29-4,3.08C57.53,372.59,57,371.94,56.51,371.33Zm.2-7.44a8.78,8.78,0,0,0,.28-4.63q-1-4.12-3.27-4.16-2.92.24-4.48,4.53a9.9,9.9,0,0,0-.51,4.16q.59,3.76,3.28,3.94a3.5,3.5,0,0,0,1.52-.09q-1-1.14-1.59-1.86.81-.54,3.86-3Z"/><path class="cls-7" d="M79.79,347.48a4,4,0,0,1,2,2.33,8,8,0,0,1,.34,2.86,6.62,6.62,0,0,1-1.07,3.67,28.54,28.54,0,0,1-4.13,5.15,37.09,37.09,0,0,1,4,4.15,14.85,14.85,0,0,1,1.53,2.17q-2.79,3-4.49,3.6c-1.32-1.9-2.48-3.44-3.46-4.61a9.64,9.64,0,0,0-3.34-2.71q0,1.25,0,8c-3.33-.09-5.33-.47-6-1.12q0-3.4.38-21.81a49.14,49.14,0,0,1,5.45-2,15.22,15.22,0,0,1,3.22-.66A10,10,0,0,1,79.79,347.48Zm-7.29,4.79a3.8,3.8,0,0,0-1.53.78c.08.53.14,2.75.2,6.67,1.36-1.27,2.46-2.35,3.3-3.26,1-1.29,1.12-2.46.35-3.48A2.18,2.18,0,0,0,72.5,352.27Z"/><path class="cls-7" d="M91.4,362.31c-3.65-1-5.65-2.89-6-5.6a8.44,8.44,0,0,1,.2-3.55q1.1-4.38,7.18-6.33a12,12,0,0,1,7.36.52c-.08,2.38-.17,4.57-.25,6.57q-2.27-1.65-6-.87c-1.77.73-2.58,1.48-2.43,2.24s.86,1.29,2.28,1.8c2.2.66,3.34,1,3.42,1q5.48,1.56,6,5.62a8.27,8.27,0,0,1-.2,3.55q-1.45,5.85-7.18,6.33a10.29,10.29,0,0,1-10.3-5.82,50,50,0,0,0,2.71-4.34q3.41,5.12,7.09,4.12a2.24,2.24,0,0,0,1.81-2.42c-.1-.68-.86-1.29-2.3-1.81Z"/><path class="cls-7" d="M123.09,344q0,1.45-.31,8.67c-2.27.11-4.55.3-6.86.56q.67,11.64,1.24,19.35c-2.51.31-5.22.71-8.15,1.2q.34-5.24,1.53-19.95h-.06c-1.85.21-4.08.42-6.71.63q.23-6.17.28-7.49Q113.45,345.37,123.09,344Z"/><path class="cls-7" d="M145,353.17a25.37,25.37,0,0,1,.54,7.48,18.91,18.91,0,0,1-1.67,6.41c-1.34,2.65-3.13,4.31-5.38,5q-11.79,1.88-13-13.59a23.52,23.52,0,0,1,.52-5.11,24.44,24.44,0,0,1,2.05-5.6l5.4,2.11a27.22,27.22,0,0,0-1.37,4.64,13.59,13.59,0,0,0,.63,7.77c.86,2,2,2.84,3.52,2.57,1.69-.16,2.78-1.76,3.29-4.81a15.51,15.51,0,0,0-.25-5.08c-.65-2.84-1.36-4.76-2.12-5.74l4.86-2.95A22.84,22.84,0,0,1,145,353.17Z"/><path class="cls-7" d="M163,346.29q1.77,0,7.29.64a14.45,14.45,0,0,1-.81,2.74q-4.75,15.66-6.4,22.55a15.92,15.92,0,0,1-3.64.51c-2.23.19-3.71.31-4.44.35a18,18,0,0,1-1.24-3.47q-3.17-12.37-5.77-20.33c0-.21,1-.67,2.93-1.4a16.15,16.15,0,0,1,3.6-1.08,63.78,63.78,0,0,1,2,7q1.62,6.39,2.63,9.67Q159.58,360.91,163,346.29Z"/><path class="cls-7" d="M175.75,370.81q-.08-2.34-2.21-23.64l6.51-1.33a65.9,65.9,0,0,0,.84,7.6c.3,2.06.54,4.17.73,6.31,0,0-.06,0-.06.07l.06,0q1.81-4.48,4.62-13.22l4.68,12.68a37.41,37.41,0,0,0,.79-4.31c.54-3.25.94-6.25,1.18-9a30.9,30.9,0,0,1,6.42.84,97.34,97.34,0,0,1-1.64,9.92q-1.11,5.06-2.31,13.18c-2.29.38-4.7.73-7.25,1a50.6,50.6,0,0,0-2.08-9.09q-1.2,3-3.26,9.33Q182.17,371.3,175.75,370.81Z"/><path class="cls-7" d="M212.68,364.64q-3.21,4.33-5.77,7.93a53.81,53.81,0,0,0-4-5.06c.19-.24,2-2.78,5.52-7.62l.84-1.16c-.37-.62-.75-1.26-1.15-1.91a78.4,78.4,0,0,0-4.84-7.15,71,71,0,0,0,5.78-4.3h.07q1.9,3.67,4.31,7.49,3.13-4.49,4.44-6.77,4,2.49,5.46,3.5s-.45.69-1.35,2c-.76,1.12-2.36,3.43-4.79,6.91l.36.54a87.54,87.54,0,0,1,5,8.13q-3.09,2.19-6.18,4.67A77.22,77.22,0,0,0,212.68,364.64Z"/><path class="cls-7" d="M232.24,345.84s.45,1,1.35,3.08a61.44,61.44,0,0,0,3.71,6.88q1.77-2.26,5.85-8.89l5.3,3.7q-.9,1.83-10.38,15.21-.28.29-4.83,7.2a38,38,0,0,1-5.47-3.22q4.65-6.62,4.69-6.61l.76-1.22q-3.25-6.12-6.48-12v-.06C229.28,348,231.12,346.65,232.24,345.84Z"/><path class="cls-7" d="M271.07,346.56a57.62,57.62,0,0,1-.08,6.78c-1.26,1.3-2.73,3-4.4,5-2.67,2.82-4.54,4.76-5.62,5.79a55.71,55.71,0,0,0,6.95-.16c2.43-.29,3.86-.44,4.31-.43,0,.92-.12,1.94-.26,3-.1,1.89-.2,3.38-.31,4.47q-3.74.12-13.9,0-2.74,0-7.63.11,0-2.32-.19-6.12c.05-.32.79-1.1,2.21-2.34s3-2.73,4.74-4.45a64.33,64.33,0,0,0,4.33-5.11h-4.33c-.43,0-1.92,0-4.47.11q-.06-1.08.07-6.18v0q5.46.1,9.63-.11C266.81,346.65,269.8,346.52,271.07,346.56Z"/><path class="cls-7" d="M373.09,343.1a11,11,0,0,1-2.46-6.14,19.63,19.63,0,0,1-.22-4.58q2-13.81,13.33-12.15a7.79,7.79,0,0,1,4.95,4.45A15.6,15.6,0,0,1,390,330.4a21.36,21.36,0,0,1-.92,6.68,22.33,22.33,0,0,1-1.82,4.16,9,9,0,0,1-1.81,2.45Q379,349,373.09,343.1Zm2.92-7.43c.38,2.45,1.45,3.73,3.2,3.86a3.74,3.74,0,0,0,3.83-2.07,8.79,8.79,0,0,0,1-6.23q-.94-4.05-3.18-4.07c-1.91.16-3.37,1.63-4.37,4.43A9.88,9.88,0,0,0,376,335.67Z"/><path class="cls-7" d="M407.92,319.8q-.14,6.87.06,23.81c-1.53,0-3.84.05-6.94.13q.68-11.5.67-15.79a53.66,53.66,0,0,1-4.68,3.9q-2.89-2.43-3.49-2.88a106.11,106.11,0,0,0,6.89-9C404.44,319.92,406.94,319.87,407.92,319.8Z"/><path class="cls-7" d="M423.27,319.37a6.93,6.93,0,0,1,4.32,3.28,8,8,0,0,1,.67,3.48,13,13,0,0,1-.83,4.4c-.26.54-.61,1.2-1.06,2a28.52,28.52,0,0,1-5.24,5.3,10.35,10.35,0,0,0,2.67.05,36.16,36.16,0,0,0,3.82-.23,4.84,4.84,0,0,1,1.76-.09c-.05,1-.14,2.11-.27,3.26-.08.88-.13,1.83-.13,2.86q-.54.07-6.33.12c-4.14.06-7.59.06-10.33,0,0-2.66-.05-4.57-.06-5.71a.71.71,0,0,1,.35-.76,27.65,27.65,0,0,0,4.62-3.14c.89-.84,1.74-1.66,2.56-2.46a7.94,7.94,0,0,0,2-3.48h-.05a4.66,4.66,0,0,0-.18-2.81,2,2,0,0,0-1.83-1,2.36,2.36,0,0,0-1.87.93,3.65,3.65,0,0,0-.67,1.49,5,5,0,0,0,.31,2q-3,1.65-4.87,2.64a11.09,11.09,0,0,1-.38-4.88,8.57,8.57,0,0,1,2.24-4.62,10.28,10.28,0,0,1,4.57-2.86A11.15,11.15,0,0,1,423.27,319.37Z"/><path class="cls-7" d="M437.89,321.67a8.66,8.66,0,0,1,5.35-2,4.73,4.73,0,0,1,4.18,2.45,4.82,4.82,0,0,1,.78,3s-.06.51-.17,1.46a5.43,5.43,0,0,1-1.5,2.89,10.32,10.32,0,0,1,3.62,2.4,4.93,4.93,0,0,1,1.16,2.36,9.86,9.86,0,0,1-.61,5,9.43,9.43,0,0,1-3,3.75,8.94,8.94,0,0,1-5.3,1.68,9.36,9.36,0,0,1-4-1.1,11.07,11.07,0,0,1-2.93-1.84,8.82,8.82,0,0,1-1.53-1.46,41.17,41.17,0,0,1,3.23-3.61c1.72.95,2.89,1.39,3.5,1.33a2.9,2.9,0,0,0,2.31-.76,2.67,2.67,0,0,0,.92-2.08,2,2,0,0,0-.55-1.45,2.51,2.51,0,0,0-2.22-.78,8,8,0,0,0-1.51.33,16,16,0,0,1-.17-3.39c2.23-.95,3.35-2.06,3.35-3.35-.18-.88-.65-1.33-1.4-1.33a7,7,0,0,0-2.61,1.17,18.29,18.29,0,0,0-2.29,1.84,22.22,22.22,0,0,0-1.56-3.79A16.34,16.34,0,0,1,437.89,321.67Z"/><path class="cls-7" d="M471.68,319.63q-.4,7.29-.42,12.67l4.15-.27q0,1.19-.56,6.06a23.48,23.48,0,0,0-3.67,0c0,.34,0,2.19.1,5.56-4,.27-6.16.29-6.49.06,0-1.07.24-2.86.55-5.35-2.26.07-5.46.05-9.59,0l.06-6.14q3.63-4.73,6.31-8.63a27.6,27.6,0,0,1,2.88-3.91C467.53,319.68,469.76,319.67,471.68,319.63Zm-10,12.89c1.76,0,3.07,0,3.94,0,.13-2.59.2-4.36.2-5.3A46.34,46.34,0,0,0,461.64,332.52Z"/><path class="cls-7" d="M494.29,319.29c0,2,0,3.74-.11,5.3q-8.49-.33-9.75,0c0,1,0,2.2.07,3.52a8.12,8.12,0,0,1,4.55-.59,6.69,6.69,0,0,1,3.29,1.33,5.31,5.31,0,0,1,2.56,4.35c.11,3.14-.46,5.5-1.73,7.07a12.9,12.9,0,0,1-2.34,2.34,8.53,8.53,0,0,1-4.95,1.17,7.84,7.84,0,0,1-2.79-.72A13.84,13.84,0,0,1,481,341.8c-1.38-1-2.06-1.74-2.06-2.12a21.43,21.43,0,0,1,1.28-2.11,14.68,14.68,0,0,1,1.07-1.56,8.93,8.93,0,0,0,3.34,1.51c.79.13,1.65-.31,2.56-1.35a3.19,3.19,0,0,0,.56-2.28,3.93,3.93,0,0,0-.73-2.06c-.26-.48-1-.67-2.18-.56a5.86,5.86,0,0,0-2.45.5,11.92,11.92,0,0,0-2.12,1.05q-.15-3.21-.15-4.65v-.05c0-2.79.1-5.62.16-8.49l7.32-.11Q493.45,319.43,494.29,319.29Z"/><path class="cls-7" d="M509.53,319.74a15.87,15.87,0,0,1,4.4,1.11l-.14,4.6a17.94,17.94,0,0,0-3.92.14,7.87,7.87,0,0,0-3,1.67,5.61,5.61,0,0,0-1.33,2.95,13.91,13.91,0,0,1,3.07-1.36,5.47,5.47,0,0,1,4.39.64,4.9,4.9,0,0,1,1.67,1.44,10.59,10.59,0,0,1,1.2,3.76,12.41,12.41,0,0,1-.58,3.6,11.51,11.51,0,0,1-1.45,2.51,12.43,12.43,0,0,1-2.29,1.83,10,10,0,0,1-5.35.95l-.95-.12a7.17,7.17,0,0,1-2.39-1,8,8,0,0,1-2.39-2.18,8.27,8.27,0,0,1-1.39-3.61,26.23,26.23,0,0,1-.17-5.52,18.69,18.69,0,0,1,1.05-4.45,15,15,0,0,1,2.72-4.44,9.48,9.48,0,0,1,3.16-2A9.16,9.16,0,0,1,509.53,319.74Zm-3.11,15.09a2.36,2.36,0,0,0-.89,1.73,2,2,0,0,0,.61,1.67,2.37,2.37,0,0,0,1.61.83,1.77,1.77,0,0,0,1.65-.72,3.58,3.58,0,0,0,.47-1.5,3.34,3.34,0,0,0-.33-1.33,2.71,2.71,0,0,0-1.11-1A2.12,2.12,0,0,0,506.42,334.83Z"/><path class="cls-7" d="M536.25,320q0,2.09-.12,6.46-6,9.43-7.59,16.73c-3.63,0-5.9,0-6.78.16a46.86,46.86,0,0,1,2.2-6.78,82.38,82.38,0,0,1,5.1-10,68.4,68.4,0,0,1-8.71-.17,36.12,36.12,0,0,0-.15-5.9h2.25c1.46,0,3.65-.07,6.59-.19C533,320.15,535.4,320.05,536.25,320Z"/><path class="cls-7" d="M550,318.59a8.18,8.18,0,0,1,4.44,1.12,5.5,5.5,0,0,1,1.87,1.7,7.52,7.52,0,0,1,1.17,3.32,6.71,6.71,0,0,1-.56,3.5,6.79,6.79,0,0,1-1.34,1.78,8.07,8.07,0,0,1,3.34,3.63,7.14,7.14,0,0,1-1.43,7.8,8.31,8.31,0,0,1-3.38,2.7,12.67,12.67,0,0,1-6.39.64,7,7,0,0,1-2.25-1,9.33,9.33,0,0,1-2.26-2.06,6.31,6.31,0,0,1-1.34-3.28,9.84,9.84,0,0,1,.78-4.9,12,12,0,0,1,2.13-3.12,5.75,5.75,0,0,1-1.35-2.56q-.66-5.28,1.73-7.35A8.09,8.09,0,0,1,550,318.59Zm-2.06,15.88a3.76,3.76,0,0,0-.66,2.06,3.16,3.16,0,0,0,1.11,2.45,3.66,3.66,0,0,0,1.26.72,4.18,4.18,0,0,0,1.7-.22,3.36,3.36,0,0,0,1.84-1.94,2.82,2.82,0,0,0,.23-2.21,4.2,4.2,0,0,0-.9-1.59,2.41,2.41,0,0,0-1.85-.78A3.14,3.14,0,0,0,547.94,334.47Zm.67-10.53a2.15,2.15,0,0,0-.55,2.08,2.22,2.22,0,0,0,2.12,1.77,2,2,0,0,0,1.56-.62,2.24,2.24,0,0,0,.78-1.9,2.19,2.19,0,0,0-1.85-1.95A2.68,2.68,0,0,0,548.61,323.94Z"/><path class="cls-7" d="M569.74,319.37a10.35,10.35,0,0,1,3.91-.39,6.74,6.74,0,0,1,4.73,2.67,10.23,10.23,0,0,1,1.45,3,17.64,17.64,0,0,1-.11,6.41,35,35,0,0,1-1.72,5,23.2,23.2,0,0,1-1.9,2.84q-3.37,4.17-10.92,6.29c-.13-.05-.2-.55-.23-1.48s0-1.73,0-2.36a21.82,21.82,0,0,0,6.52-4.95,8.88,8.88,0,0,0,1.56-3.16,8.31,8.31,0,0,1-2.11.25,10.44,10.44,0,0,1-4-.44,5.1,5.1,0,0,1-2.51-2.06,7.63,7.63,0,0,1-.55-4.57,12.46,12.46,0,0,1,1.23-3.17,10.28,10.28,0,0,1,1.61-2.12A7,7,0,0,1,569.74,319.37Zm.35,6.6a1.88,1.88,0,0,0-.46,1.51,2.2,2.2,0,0,0,2,2.11,2.53,2.53,0,0,0,2.63-1.56,3,3,0,0,0,0-1.83,2.21,2.21,0,0,0-2.12-1.4A3,3,0,0,0,570.09,326Z"/></g></g></svg>