<svg id="Layer_1" data-name="Layer 1" xmlns="http://www.w3.org/2000/svg" xmlns:xlink="http://www.w3.org/1999/xlink" viewBox="0 0 1920.36 896.75"><defs><style>.cls-1{fill:none;}.cls-2{clip-path:url(#clip-path);}.cls-3{fill:#15bcc5;}.cls-4{fill:#5ac5cb;}.cls-5{fill:#fff;}.cls-6{fill:#eb6920;}</style><clipPath id="clip-path" transform="translate(0.36 -4)"><rect class="cls-1" y="4" width="1920" height="896" rx="40.27"/></clipPath></defs><g class="cls-2"><rect class="cls-3" x="0.21" y="0.19" width="1126.11" height="896.31"/><rect class="cls-3" x="1125.21" y="0.19" width="795.14" height="896.31"/><line class="cls-4" x1="1076.7" y1="0.1" x2="1076.7" y2="896.11"/><rect class="cls-4" x="1047.46" y="0.1" width="58.49" height="896.01"/><line class="cls-4" x1="960.36" y1="0.1" x2="960.36" y2="896.11"/><rect class="cls-4" x="931.11" y="0.1" width="58.49" height="896.01"/><line class="cls-4" x1="844.01" y1="0.1" x2="844.01" y2="896.11"/><rect class="cls-4" x="814.77" y="0.1" width="58.49" height="896.01"/><line class="cls-4" x1="727.67" y1="0.1" x2="727.67" y2="896.11"/><rect class="cls-4" x="698.42" y="0.1" width="58.49" height="896.01"/><line class="cls-4" x1="611.32" y1="0.1" x2="611.32" y2="896.11"/><rect class="cls-4" x="582.08" y="0.1" width="58.49" height="896.01"/><line class="cls-4" x1="494.98" y1="0.1" x2="494.98" y2="896.11"/><rect class="cls-4" x="465.73" y="0.1" width="58.49" height="896.01"/><line class="cls-4" x1="378.64" y1="0.1" x2="378.64" y2="896.11"/><rect class="cls-4" x="349.39" y="0.1" width="58.49" height="896.01"/><line class="cls-4" x1="262.29" y1="0.1" x2="262.29" y2="896.11"/><rect class="cls-4" x="233.05" y="0.1" width="58.49" height="896.01"/><line class="cls-4" x1="145.95" y1="0.1" x2="145.95" y2="896.11"/><rect class="cls-4" x="116.7" y="0.1" width="58.49" height="896.01"/><line class="cls-4" x1="29.6" y1="0.1" x2="29.6" y2="896.11"/><rect class="cls-4" x="0.36" y="0.1" width="58.49" height="896.01"/><line class="cls-4" x1="1891.11" y1="0.1" x2="1891.11" y2="896.11"/><rect class="cls-4" x="1861.87" y="0.1" width="58.49" height="896.01"/><line class="cls-4" x1="1774.77" y1="0.1" x2="1774.77" y2="896.11"/><rect class="cls-4" x="1745.52" y="0.1" width="58.49" height="896.01"/><line class="cls-4" x1="1658.42" y1="0.1" x2="1658.42" y2="896.11"/><rect class="cls-4" x="1629.18" y="0.1" width="58.49" height="896.01"/><line class="cls-4" x1="1542.08" y1="0.1" x2="1542.08" y2="896.11"/><rect class="cls-4" x="1512.83" y="0.1" width="58.49" height="896.01"/><line class="cls-4" x1="1425.73" y1="0.1" x2="1425.73" y2="896.11"/><rect class="cls-4" x="1396.49" y="0.1" width="58.49" height="896.01"/><line class="cls-4" x1="1309.39" y1="0.1" x2="1309.39" y2="896.11"/><rect class="cls-4" x="1280.14" y="0.1" width="58.49" height="896.01"/><line class="cls-4" x1="1193.05" y1="0.1" x2="1193.05" y2="896.11"/><rect class="cls-4" x="1163.8" y="0.1" width="58.49" height="896.01"/><polygon class="cls-5" points="581.02 359.54 963.17 131 1315.46 380.51 1292.69 448.55 973.7 177.43 608.8 432.26 581.02 359.54"/><path class="cls-5" d="M1079.37,491.27c-9-27.71-28.33-53.46-56.46-68.92a114.27,114.27,0,0,0-54.73-14.07,111.28,111.28,0,0,0-57.44,15.49c-38.2,22.68-60,66.66-59.51,107.39.19,14.4,3.4,28.51,5.26,42.75q2.53,19.33,5.06,38.68c2,15.51,4.12,27.81,6.09,46.53s198.6,15.87,200.72,0,5.33-39.86,8-59.8C1081.21,563,1091.15,527.42,1079.37,491.27Zm-101.59-14c5.9-13.92,18.43-21,28-15.87s12.5,20.63,6.6,34.55-18.43,21-28,15.87S971.88,491.15,977.78,477.23Zm-47.11-15.87c9.55-5.16,22.07,1.95,28,15.87s2.94,29.39-6.6,34.55-22.08-1.95-28-15.87S921.12,466.52,930.67,461.36Zm-35.12,73.92c-8-10.14-8.92-23.76-2.15-30.42s18.73-3.87,26.69,6.27,8.92,23.75,2.14,30.42S903.51,545.41,895.55,535.28ZM997.79,634c-19.12,5.93-19.12-12.16-33.46-11.16-8.65.61-7.52,10.38-22.58,10.38-15.68,0-30.53-21.91-30.53-37,0-25.36,25.14-54,59.39-54,27.25,0,53.52,27.05,53.52,52.41C1024.13,608.93,1015.13,628.61,997.79,634Zm43.09-98.71c-8,10.13-19.91,12.94-26.69,6.27s-5.81-20.29,2.15-30.42,19.91-12.94,26.68-6.27S1048.84,525.14,1040.88,535.28Z" transform="translate(0.36 -4)"/><path class="cls-5" d="M1225.51,471.46l-58,156.63L1243,641.33l-19.44,50.12-105.43-27,39.16-227.73Z" transform="translate(0.36 -4)"/><path class="cls-5" d="M855.71,314.54l53.54-10-.24,30.4-25,5.73,2.52,10.3L908.07,346l-.75,16.28-16.73,4.14,3,18-19.11,3.15Z" transform="translate(0.36 -4)"/><path class="cls-5" d="M967.78,374.41c-20.5,2.48-36.71-19.6-36-40.12.61-17.43,14.57-33.73,36.56-32.9,21.68.82,34.13,16.56,33.39,33.24C1000.93,352.91,985.09,372.31,967.78,374.41Zm0-12.09c18.29.39,21.16-34.49-.68-30.66C950.38,334.58,946.3,361.84,967.76,362.32Z" transform="translate(0.36 -4)"/><path class="cls-5" d="M1085.08,336.78c-1.92,21.55-20.1,23.15-20.1,23.15l15.94,19.4-18.62,6.85-10.74-23.95h-10.69l-3.86,22.3s-17.48-3.82-17.76-3.91,12.19-77.8,12.09-77.93a134.55,134.55,0,0,1,26.21,5.4C1071.89,312.77,1086.45,321.33,1085.08,336.78Zm-39.35-2.44L1043,351.28c15.64,3.09,26.32-9.16,14.07-14.54A30.51,30.51,0,0,0,1045.73,334.34Z" transform="translate(0.36 -4)"/><path class="cls-5" d="M815.86,476.35c10.85,23,13.15,49.42-.14,71.88-9,15.21-22.94,27.15-37.2,37.4-3,2.16-40,24.69-40,24.51l24.23,64.67s-52,16.25-52.91,16.41-87.92-223.69-88.38-223.89C627,465,660.58,450,698.93,442.09,744,432.85,795.63,433.51,815.86,476.35Zm-107.6,52.83,19,48.79c46.05-15.41,55.32-63.82,14.67-59.58A93,93,0,0,0,708.26,529.18Z" transform="translate(0.36 -4)"/><rect class="cls-6" x="0.38" y="716.21" width="1919.98" height="180.54"/><path class="cls-5" d="M735.93,769.22a122.89,122.89,0,0,1,.15,15.14q-7,0-21.42,1.42c-.2,1,.08,4.32.83,10.06q6.84-.6,12.86-1.49-.21,6.39-.15,14.24a114.68,114.68,0,0,0-11.7.65q.91,18.19,1.54,22-4.06.24-16.94.77-2.11-31.85-3.05-59.58Q717.71,770.74,735.93,769.22Z" transform="translate(0.36 -4)"/><path class="cls-5" d="M781.32,779a46.35,46.35,0,0,1,6.2,16.31,50.91,50.91,0,0,1,.53,11.13q-4.77,33.54-31,29.5-7.46-2.13-11.49-10.8a38.88,38.88,0,0,1-2.93-13.9A53.85,53.85,0,0,1,744.8,795,55.13,55.13,0,0,1,749,784.88a25.22,25.22,0,0,1,3.5-5.07Q768.77,762.28,781.32,779Zm-25.59,31.92c.9,5.94,3.37,9.06,7.44,9.36q5.37.79,8.9-5a22.22,22.22,0,0,0,2.39-15.14q-2.16-9.84-7.38-9.89-6.66.59-10.16,10.76A25.07,25.07,0,0,0,755.73,810.88Z" transform="translate(0.36 -4)"/><path class="cls-5" d="M836.36,773.26a9.81,9.81,0,0,1,4.94,5.65,19.22,19.22,0,0,1,.83,7,16,16,0,0,1-2.62,8.91q-2.68,4.72-10.16,12.5a91.76,91.76,0,0,1,9.83,10.07,33.59,33.59,0,0,1,3.75,5.29q-6.85,7.39-11,8.74-4.86-6.95-8.49-11.2a23.5,23.5,0,0,0-8.22-6.58q-.09,3-.1,19.5-12.24-.35-14.74-2.71,0-8.29.93-53,11.44-4.62,13.41-4.93a37.36,37.36,0,0,1,7.91-1.62Q831,770.3,836.36,773.26Zm-17.92,11.62a9.91,9.91,0,0,0-3.76,1.9q.27,1.92.48,16.21,5-4.63,8.11-7.92,3.71-4.74.86-8.47C822.87,785,821,784.4,818.44,784.88Z" transform="translate(0.36 -4)"/><path class="cls-5" d="M892.83,775q6.66,10.86.33,22.88-9,12.52-20.7,10.31.74,6.52,3.33,24-11.09,2.15-15.12,2.56-4.36-30.35-6.2-48.43-1.32-10.08-1.31-11.6,10.61-6.47,24.52-6.22Q887.31,768.71,892.83,775Zm-22.68,21q11.69,1,11.06-6.13a4.08,4.08,0,0,0-3.15-3.68,12.91,12.91,0,0,0-8.9,1.42Q869.82,793,870.15,796Z" transform="translate(0.36 -4)"/><path class="cls-5" d="M930.93,768.28c.49.64,1.5,3.37,3,8.16q8.1,29.14,15.56,51.4c0,.48-2,1.57-6,3.27s-6.52,2.54-7.47,2.53q-.84-1.5-4.42-12.55a113.87,113.87,0,0,1-12.9-2.22q-.88,4.51-2.22,13-3.09.08-14.92-3.53,0-1.29,3.86-18.63,5.26-23.33,8.31-39.68c.53-.49,3.14-.87,7.84-1.16S929.38,768.39,930.93,768.28Zm-7.71,21.19q-1.44,10.15-2.65,17a32,32,0,0,0,7.06.62q-1.82-8.54-2.51-11.75A29.78,29.78,0,0,0,923.22,789.47Z" transform="translate(0.36 -4)"/><path class="cls-5" d="M977.12,772.09q-3.66,31.24-6.23,47.58c4.73-.53,9.47-1,14.25-1.49q.42,11.57.42,15.26a285.15,285.15,0,0,1-28.91-.55q.09-10.07,1.21-20.79t1.67-18.2q1.08-11.13,1.86-23.56Q969.84,771,977.12,772.09Z" transform="translate(0.36 -4)"/><path class="cls-5" d="M1010,816.48a8.16,8.16,0,0,1,3.27,1.55,5.48,5.48,0,0,1,1.64,4.38,7.41,7.41,0,0,1-1.16,3.66,13.94,13.94,0,0,1-4.58,3.93c-3.41,1.65-6,2-7.89,1.2q-3.07-1.77-3.38-6.28a8,8,0,0,1,4.91-7.44A11.67,11.67,0,0,1,1010,816.48Z" transform="translate(0.36 -4)"/><path class="cls-5" d="M1065.22,770.87q-1,8.5-2.8,20.46h-.13l-5.69-.74,0,.12q-6.16-1.14-11.89,9.79-3.32,10.13.2,12.72a12.75,12.75,0,0,0,10,2.66q2.55-.2,10.84-5.32,1.62,1.49,5,12.15a67.15,67.15,0,0,1-9.43,6.17c-3,1.45-7.69,2.38-14,2.82a14.84,14.84,0,0,1-9.73-2.82q-12.52-8.31-7.61-29.08,4.52-15.59,19.79-25.1A28.31,28.31,0,0,1,1065.22,770.87Z" transform="translate(0.36 -4)"/><path class="cls-5" d="M1118.94,779a46.17,46.17,0,0,1,6.21,16.31,50.9,50.9,0,0,1,.52,11.13q-4.76,33.54-31,29.5-7.47-2.13-11.5-10.8a39.09,39.09,0,0,1-2.92-13.9,54.16,54.16,0,0,1,2.14-16.21,55.84,55.84,0,0,1,4.21-10.11,25.9,25.9,0,0,1,3.51-5.07Q1106.39,762.28,1118.94,779Zm-25.58,31.92q1.34,8.91,7.44,9.36,5.37.79,8.89-5a22.22,22.22,0,0,0,2.4-15.14q-2.17-9.84-7.39-9.89-6.65.59-10.15,10.76A24.89,24.89,0,0,0,1093.36,810.88Z" transform="translate(0.36 -4)"/><path class="cls-5" d="M1191,770.69q1.63,46.14,2.42,59.81l-16,1.07q-.09-4.87,0-14.34.15-15.5-.2-16.63.18,0,.15-.15l-.18,0q-3.19,7.55-11.26,20.64l-11.14-19.69q-.14-1.32-.72,8.6t-.24,21.08a44.59,44.59,0,0,1-15.5-.08,246.21,246.21,0,0,1,.93-25.09q1.11-12.21,1.34-32.35,8.16-1.62,17.19-3.24a168.4,168.4,0,0,0,7.58,21.27q2-8.52,5.47-21Q1187.53,770.39,1191,770.69Z" transform="translate(0.36 -4)"/></g></svg>