<svg xmlns="http://www.w3.org/2000/svg" viewBox="0 0 900 900"><defs><style>.cls-1{fill:#fffef3;}.cls-2{fill:#333;}</style></defs><g id="Layer_2" data-name="Layer 2"><g id="Layer_2-2" data-name="Layer 2"><rect class="cls-1" width="900" height="900" rx="40.4"/></g><g id="Layer_1-2" data-name="Layer 1"><polygon class="cls-2" points="138 407.26 462.69 210.71 762 425.31 742.66 483.82 471.63 250.64 161.6 469.81 138 407.26"/><path class="cls-2" d="M561.72,517.12c-7.67-23.83-24.08-46-48-59.28a96.2,96.2,0,0,0-46.5-12.1,93.66,93.66,0,0,0-48.8,13.32c-32.46,19.51-51,57.34-50.57,92.37.16,12.38,2.89,24.52,4.47,36.77q2.14,16.63,4.3,33.27c1.72,13.34,3.5,23.91,5.17,40s168.74,13.64,170.54,0,4.53-34.29,6.79-51.44C563.28,578.82,571.73,548.21,561.72,517.12ZM475.4,505c5-12,15.66-18.08,23.77-13.64s10.63,17.74,5.61,29.71S489.12,539.2,481,534.76,470.39,517,475.4,505Zm-40-13.64c8.12-4.44,18.76,1.67,23.77,13.64s2.51,25.28-5.6,29.72-18.76-1.67-23.77-13.65S427.26,495.83,435.37,491.4ZM405.53,555c-6.76-8.71-7.58-20.43-1.82-26.16s15.91-3.32,22.67,5.39,7.59,20.43,1.83,26.16S412.3,563.69,405.53,555Zm86.87,84.9c-16.24,5.1-16.24-10.46-28.42-9.6-7.35.52-6.4,8.93-19.19,8.93-13.33,0-25.94-18.85-25.94-31.79,0-21.81,21.36-46.41,50.46-46.41,23.15,0,45.47,23.26,45.47,45.07C514.78,618.32,507.13,635.25,492.4,639.87ZM529,555c-6.76,8.72-16.91,11.13-22.67,5.39s-4.94-17.45,1.82-26.16,16.92-11.13,22.68-5.39S535.78,546.26,529,555Z"/><path class="cls-2" d="M685.88,500.08,636.59,634.8l64.14,11.38-16.52,43.11-89.57-23.18,33.27-195.86Z"/><path class="cls-2" d="M371.69,365.12l45.49-8.61L417,382.65l-21.24,4.93,2.14,8.86,18.31-4.22-.64,14-14.22,3.55,2.53,15.45-16.24,2.71Z"/><path class="cls-2" d="M466.91,416.61c-17.42,2.14-31.2-16.85-30.59-34.5.52-15,12.38-29,31.06-28.3,18.42.71,29,14.24,28.37,28.59C495.07,398.12,481.61,414.81,466.91,416.61Zm0-10.39c15.55.33,18-29.67-.57-26.38C452.12,382.36,448.66,405.81,466.88,406.22Z"/><path class="cls-2" d="M566.56,384.25c-1.62,18.54-17.07,19.91-17.07,19.91L563,420.84l-15.83,5.9-9.13-20.6H529l-3.28,19.18S510.88,422,510.64,422s10.35-66.91,10.27-67a113.25,113.25,0,0,1,22.27,4.64C555.36,363.6,567.73,371,566.56,384.25Zm-33.42-2.1-2.29,14.57c13.29,2.66,22.36-7.87,11.95-12.51A25.68,25.68,0,0,0,533.14,382.15Z"/><path class="cls-2" d="M337.83,504.29c9.21,19.76,11.17,42.51-.12,61.82-7.64,13.08-19.5,23.35-31.61,32.17-2.55,1.86-34,21.23-34,21.08L292.67,675s-44.2,14-45,14.12S173,496.7,172.62,496.53c4.71-2,33.27-14.94,65.86-21.71C276.78,466.87,320.64,467.45,337.83,504.29Zm-91.42,45.44,16.18,42c39.13-13.25,47-54.89,12.47-51.24A78.1,78.1,0,0,0,246.41,549.73Z"/></g></g></svg>