<svg xmlns="http://www.w3.org/2000/svg" viewBox="0 0 840.4 723.08"><defs><style>.cls-1{fill:#a0a0a0;}.cls-2{fill:#7ae0d6;}.cls-3{fill:#f7b2b5;}.cls-4{fill:#83b8e0;}.cls-5{fill:#fff;}.cls-6{fill:#6d7c7c;}.cls-7{fill:#ebebeb;}</style></defs><g id="Layer_2" data-name="Layer 2"><g id="color"><path class="cls-1" d="M1.77,0H9a5.14,5.14,0,0,1,4,1.46,5.49,5.49,0,0,1,1.34,3.87,5.63,5.63,0,0,1-.66,2.76A4.55,4.55,0,0,1,11.78,10a6,6,0,0,1-2.86.66H5v4.85H1.77ZM8.25,8a2.84,2.84,0,0,0,2.09-.72,2.68,2.68,0,0,0,.72-2,2.89,2.89,0,0,0-.67-2.05,2.63,2.63,0,0,0-2-.71H5V8Z"/><path class="cls-1" d="M18.52,0h7.42a5.09,5.09,0,0,1,3.88,1.37A5.37,5.37,0,0,1,31.1,5.18a4.55,4.55,0,0,1-.8,2.69A4.51,4.51,0,0,1,28,9.5a3.59,3.59,0,0,1,.59.66,7.36,7.36,0,0,1,.49,1L31,15.46H27.62L25.8,11.3a1.71,1.71,0,0,0-.54-.75,1.69,1.69,0,0,0-1-.21H21.76v5.12H18.52ZM25.1,7.66a3.08,3.08,0,0,0,2-.59,2.35,2.35,0,0,0,.69-1.89,2.54,2.54,0,0,0-.62-1.89,2.66,2.66,0,0,0-1.9-.6H21.76v5Z"/><path class="cls-1" d="M35.76,0H39V15.46H35.76Z"/><path class="cls-1" d="M44.13,0h3.26l4.54,9.29L56.47,0h3.24V15.46H56.47V5.4l-3.6,7.39H51L47.37,5.4V15.46H44.13Z"/><path class="cls-1" d="M69.67,0h3.55L79.1,15.46H75.74l-1.47-3.72H68.59l-1.44,3.72H63.76Zm4.12,9.24L71.42,3,69.07,9.24Z"/><path class="cls-1" d="M83.75,0h7.42a5.09,5.09,0,0,1,3.88,1.37,5.37,5.37,0,0,1,1.28,3.81,4.55,4.55,0,0,1-.8,2.69A4.51,4.51,0,0,1,93.26,9.5a3.59,3.59,0,0,1,.59.66,7.36,7.36,0,0,1,.49,1l1.87,4.32H92.85L91,11.3a1.71,1.71,0,0,0-.54-.75,1.69,1.69,0,0,0-.95-.21H87v5.12H83.75Zm6.58,7.66a3.08,3.08,0,0,0,2-.59A2.35,2.35,0,0,0,93,5.18a2.54,2.54,0,0,0-.62-1.89,2.66,2.66,0,0,0-1.9-.6H87v5Z"/><path class="cls-1" d="M104.49,9.74,99,0h3.38l3.79,7,3.79-7h3.36l-5.54,9.74v5.72h-3.24Z"/><path class="cls-1" d="M683.08,15.29V12.44a13.67,13.67,0,0,0,2.3.69,11.07,11.07,0,0,0,2.38.27,6.54,6.54,0,0,0,2.53-.34,1.36,1.36,0,0,0,.73-1.39,1.7,1.7,0,0,0-.33-1.1,2.66,2.66,0,0,0-1.11-.71c-.51-.2-1.31-.45-2.4-.76a7.65,7.65,0,0,1-3.4-1.68,3.8,3.8,0,0,1-1-2.78,3.84,3.84,0,0,1,1.56-3.29A7.55,7.55,0,0,1,688.89.2a17.3,17.3,0,0,1,2.55.18,9.32,9.32,0,0,1,2,.47V3.7a11.63,11.63,0,0,0-4.1-.74,6.29,6.29,0,0,0-2.44.36,1.32,1.32,0,0,0-.8,1.32,1.45,1.45,0,0,0,.3,1,2.44,2.44,0,0,0,1,.63,18.31,18.31,0,0,0,2.19.66,7.63,7.63,0,0,1,3.72,1.86,4.19,4.19,0,0,1,1,2.92A3.87,3.87,0,0,1,692.75,15a7.73,7.73,0,0,1-4.68,1.18A12.46,12.46,0,0,1,683.08,15.29Z"/><path class="cls-1" d="M699,.44h11.09V3h-7.85v4h7V9.41h-7v4h7.85v2.49H699Z"/><path class="cls-1" d="M715,14.06a7.76,7.76,0,0,1-2.08-5.75,8.33,8.33,0,0,1,2-6,7.9,7.9,0,0,1,6-2.11,13.24,13.24,0,0,1,4.61.77V3.8A11.41,11.41,0,0,0,721.17,3a4.79,4.79,0,0,0-3.78,1.31,5.92,5.92,0,0,0-1.17,4,5.3,5.3,0,0,0,1.24,3.83,5.05,5.05,0,0,0,3.76,1.26,11.26,11.26,0,0,0,4.34-.82v2.86a14.89,14.89,0,0,1-4.61.69A8.08,8.08,0,0,1,715,14.06Z"/><path class="cls-1" d="M728.66,8.24c0-2.79.61-4.82,1.85-6.11S733.64.2,736.17.2s4.41.64,5.65,1.93,1.86,3.32,1.86,6.11q0,7.89-7.51,7.89T728.66,8.24Zm10.7,3.87a6,6,0,0,0,1-3.87,6.35,6.35,0,0,0-1-4.07,4.88,4.88,0,0,0-6.43,0,6.42,6.42,0,0,0-1,4.07,6,6,0,0,0,1,3.87,4.67,4.67,0,0,0,6.38,0Z"/><path class="cls-1" d="M748.33.44h2.81l7.32,10.29V.44h3.24V15.89h-2.8L751.58,5.6V15.89h-3.25Z"/><path class="cls-1" d="M766.84.44h6.48q3.55,0,5.28,1.83t1.73,6q0,3.93-1.73,5.79t-5.28,1.86h-6.48Zm6,13a5.51,5.51,0,0,0,2.35-.43,2.83,2.83,0,0,0,1.36-1.56A8.61,8.61,0,0,0,777,8.24a9.31,9.31,0,0,0-.42-3.17,2.6,2.6,0,0,0-1.31-1.52,5.84,5.84,0,0,0-2.45-.42h-2.78V13.4Z"/><path class="cls-1" d="M789.33.44h3.55l5.88,15.45H795.4l-1.47-3.72h-5.68l-1.44,3.72h-3.39Zm4.12,9.24-2.37-6.22-2.35,6.22Z"/><path class="cls-1" d="M803.42.44h7.41a5.06,5.06,0,0,1,3.88,1.37A5.37,5.37,0,0,1,816,5.62a4.55,4.55,0,0,1-.8,2.69,4.51,4.51,0,0,1-2.27,1.63,3.59,3.59,0,0,1,.59.66,7.14,7.14,0,0,1,.49,1l1.87,4.32h-3.36l-1.82-4.15a1.65,1.65,0,0,0-.54-.75,1.69,1.69,0,0,0-.95-.21h-2.55v5.11h-3.23ZM810,8.09a3.08,3.08,0,0,0,2-.58,2.36,2.36,0,0,0,.69-1.89,2.54,2.54,0,0,0-.62-1.89,2.66,2.66,0,0,0-1.9-.6h-3.53v5Z"/><path class="cls-1" d="M824.15,10.18,818.61.44H822l3.79,7,3.8-7h3.35l-5.54,9.74v5.71h-3.24Z"/><rect class="cls-2" x="0.4" y="46.46" width="81" height="81" rx="17.98"/><rect class="cls-3" x="120.4" y="46.46" width="81" height="81" rx="17.98"/><rect class="cls-4" x="239.4" y="45.46" width="81" height="81" rx="17.98"/><rect class="cls-5" x="640.4" y="46.46" width="81" height="81" rx="17.98"/><rect class="cls-6" x="759.4" y="45.46" width="81" height="81" rx="17.98"/></g><g id="type"><path class="cls-7" d="M314.08,332.7l-.92-3.48h-6l-.94,3.48h-5.51l6.06-18.64h6.69l6.13,18.64Zm-2-7.6-.8-3c-.19-.68-.41-1.56-.68-2.63s-.44-1.85-.53-2.31q-.11.64-.45,2.13t-1.49,5.85Z"/><path class="cls-7" d="M324.17,314.13h6.47a11,11,0,0,1,5.62,1.13,3.81,3.81,0,0,1,1.83,3.5,4.35,4.35,0,0,1-.8,2.66,3.52,3.52,0,0,1-2.1,1.42V323a4.36,4.36,0,0,1,2.5,1.52,4.68,4.68,0,0,1,.77,2.77,4.72,4.72,0,0,1-1.9,4,8.29,8.29,0,0,1-5.17,1.46h-7.22Zm5,7.13h1.51a2.7,2.7,0,0,0,1.67-.45,1.54,1.54,0,0,0,.59-1.32c0-1-.79-1.56-2.36-1.56h-1.41Zm0,3.67v3.89h1.76c1.57,0,2.35-.66,2.35-2a1.72,1.72,0,0,0-.62-1.42,2.91,2.91,0,0,0-1.83-.49Z"/><path class="cls-7" d="M352.55,318a3.2,3.2,0,0,0-2.79,1.47,7.06,7.06,0,0,0-1,4q0,5.36,4.08,5.36a8.68,8.68,0,0,0,2.39-.34c.77-.23,1.54-.51,2.32-.83v4.24a12.79,12.79,0,0,1-5.26,1,8.29,8.29,0,0,1-6.44-2.44q-2.23-2.43-2.24-7a11.16,11.16,0,0,1,1.09-5.07,7.75,7.75,0,0,1,3.12-3.36,9.45,9.45,0,0,1,4.79-1.17,13.08,13.08,0,0,1,5.75,1.31l-1.53,3.94a18.28,18.28,0,0,0-2.06-.81A7.2,7.2,0,0,0,352.55,318Z"/><path class="cls-7" d="M379.51,323q0,4.65-2.56,7.16t-7.19,2.52h-6V314.13h6.42a9.71,9.71,0,0,1,6.9,2.29Q379.51,318.7,379.51,323Zm-5.2.18a5.91,5.91,0,0,0-1-3.78,3.73,3.73,0,0,0-3.07-1.24h-1.46v10.4h1.12a4.05,4.05,0,0,0,3.35-1.32A6.44,6.44,0,0,0,374.31,323.2Z"/><path class="cls-7" d="M396.46,332.7h-11V314.13h11v4h-6v2.92H396v4h-5.56v3.51h6Z"/><path class="cls-7" d="M407.25,332.7h-4.94V314.13h11v4h-6v3.54h5.56v4h-5.56Z"/><path class="cls-7" d="M426.38,321.83h8v10a21.93,21.93,0,0,1-7.18,1.12,8.66,8.66,0,0,1-6.63-2.49c-1.56-1.66-2.34-4-2.34-7.1a9.32,9.32,0,0,1,2.56-7,9.86,9.86,0,0,1,7.19-2.5,15.78,15.78,0,0,1,3.3.33A13.89,13.89,0,0,1,434,315L432.42,319a9.84,9.84,0,0,0-4.41-1,4.19,4.19,0,0,0-3.39,1.43,6.17,6.17,0,0,0-1.2,4.08,6.28,6.28,0,0,0,1.08,4,3.77,3.77,0,0,0,3.13,1.36,9.45,9.45,0,0,0,2.06-.21V325.7h-3.31Z"/><path class="cls-7" d="M456.68,332.7h-5v-7.57h-5.83v7.57h-5V314.13h5V321h5.83v-6.89h5Z"/><path class="cls-7" d="M463.29,332.7V314.13h5V332.7Z"/><path class="cls-7" d="M473.48,338.52a12.81,12.81,0,0,1-2.6-.26v-3.9l.86.17a5.21,5.21,0,0,0,1,.09,2,2,0,0,0,1.78-.74,4.67,4.67,0,0,0,.53-2.57V314.13h5v16.75a8.61,8.61,0,0,1-1.65,5.71A6.14,6.14,0,0,1,473.48,338.52Z"/><path class="cls-7" d="M502.55,332.7h-5.66l-3.67-7.1-1.49.89v6.21h-5V314.13h5v8.07a23.86,23.86,0,0,1,1.54-2.38l3.9-5.69h5.48l-5.85,8.32Z"/><path class="cls-7" d="M507.16,332.7V314.13h5v14.52h7.15v4.05Z"/><path class="cls-7" d="M533,332.7l-3.8-13.37h-.11c.17,2.27.26,4,.26,5.3v8.07h-4.44V314.13h6.68l3.87,13.18h.1l3.8-13.18H546V332.7h-4.61v-8.14c0-.43,0-.89,0-1.41s.07-1.78.17-3.8h-.12l-3.74,13.35Z"/><path class="cls-7" d="M320.36,362.7h-6.58L307,349.62h-.11q.24,3.09.24,4.71v8.37h-4.44V344.13h6.55L316,357h.08q-.18-2.8-.18-4.5v-8.4h4.47Z"/><path class="cls-7" d="M344.34,353.39c0,3.12-.77,5.5-2.3,7.12s-3.77,2.44-6.73,2.44a8.8,8.8,0,0,1-6.69-2.45c-1.56-1.63-2.33-4-2.33-7.14s.77-5.44,2.31-7.07,3.79-2.45,6.74-2.45,5.19.81,6.71,2.43S344.34,350.26,344.34,353.39Zm-12.77,0q0,5.39,3.74,5.38a3.22,3.22,0,0,0,2.83-1.31,9.46,9.46,0,0,0,0-8.18,3.18,3.18,0,0,0-2.78-1.32C332.82,348,331.57,349.77,331.57,353.39Z"/><path class="cls-7" d="M363.76,350a6.22,6.22,0,0,1-1.83,4.8,7.42,7.42,0,0,1-5.22,1.7H355.3v6.16h-5V344.13h6.42a7.9,7.9,0,0,1,5.29,1.54A5.51,5.51,0,0,1,363.76,350Zm-8.46,2.41h.92a2.53,2.53,0,0,0,1.8-.63,2.34,2.34,0,0,0,.66-1.76c0-1.25-.69-1.88-2.08-1.88h-1.3Z"/><path class="cls-7" d="M386.68,353.39q0,6.32-4,8.51l4.54,5.21H381L377.68,363v0h0a8.82,8.82,0,0,1-6.7-2.45q-2.32-2.44-2.33-7.14t2.32-7.07c1.54-1.63,3.79-2.45,6.73-2.45s5.2.81,6.72,2.43S386.68,350.26,386.68,353.39Zm-12.77,0q0,5.39,3.75,5.38a3.19,3.19,0,0,0,2.82-1.31,7.1,7.1,0,0,0,.92-4.07,7.26,7.26,0,0,0-.93-4.11,3.19,3.19,0,0,0-2.79-1.32Q373.92,348,373.91,353.39Z"/><path class="cls-7" d="M397.65,355.94v6.76h-5V344.13h6.08q7.56,0,7.56,5.49a5.49,5.49,0,0,1-3.14,5l5.4,8.09h-5.68l-3.94-6.76Zm0-3.77h.94c1.75,0,2.63-.77,2.63-2.32q0-1.92-2.58-1.92h-1Z"/><path class="cls-7" d="M425,357.06a5.41,5.41,0,0,1-.88,3.06,5.7,5.7,0,0,1-2.52,2.09,9.46,9.46,0,0,1-3.88.74,16,16,0,0,1-3.11-.26,11.47,11.47,0,0,1-2.61-.91v-4.47a14.8,14.8,0,0,0,3,1.15,10.88,10.88,0,0,0,2.85.41,2.72,2.72,0,0,0,1.63-.38,1.19,1.19,0,0,0,.52-1,1.11,1.11,0,0,0-.21-.67,2.33,2.33,0,0,0-.67-.57,25.34,25.34,0,0,0-2.47-1.2,11.57,11.57,0,0,1-2.72-1.6,5,5,0,0,1-1.35-1.77,6,6,0,0,1-.43-2.38,4.77,4.77,0,0,1,1.86-4,8.29,8.29,0,0,1,5.13-1.43A14.39,14.39,0,0,1,425,345.2l-1.54,3.87a11.18,11.18,0,0,0-4.49-1.19,2.32,2.32,0,0,0-1.42.34,1,1,0,0,0-.45.85,1.22,1.22,0,0,0,.57,1,21.1,21.1,0,0,0,3.06,1.57,8.64,8.64,0,0,1,3.34,2.32A5.07,5.07,0,0,1,425,357.06Z"/><path class="cls-7" d="M438.63,362.7h-5V348.24h-4.53v-4.11h14.07v4.11h-4.52Z"/><path class="cls-7" d="M464.18,344.13v11.18a7.5,7.5,0,0,1-2.06,5.64,8.23,8.23,0,0,1-5.95,2,8.13,8.13,0,0,1-5.83-1.94,7.36,7.36,0,0,1-2-5.59V344.13h5V355a4.45,4.45,0,0,0,.73,2.85,3.18,3.18,0,0,0,4.4,0,4.73,4.73,0,0,0,.7-2.89V344.13Z"/><path class="cls-7" d="M481.1,344.13h5.61l-6.08,18.57h-5.9l-6.06-18.57h5.64l2.52,9.41a28.24,28.24,0,0,1,.87,4.37c.06-.59.18-1.33.35-2.22s.34-1.59.47-2.1Z"/><path class="cls-7" d="M511.36,362.7h-5.93l-1.77-8.09c-.09-.34-.22-1-.4-2s-.32-1.85-.4-2.53c-.07.55-.18,1.24-.33,2.05s-.31,1.57-.45,2.26l-1.85,8.33H494.3l-4.59-18.57h4.83l2,9.31c.46,2.06.77,3.69.94,4.91.11-.86.31-2,.59-3.51s.55-2.71.79-3.68l1.64-7h4.65l1.58,7c.28,1.12.55,2.42.83,3.89s.46,2.58.56,3.3c.11-.94.41-2.56.9-4.88l2.06-9.34h4.83Z"/><path class="cls-7" d="M537.65,362.7h-5.8l-3.62-5.81-3.58,5.81H519l6.15-9.5-5.78-9.07h5.56l3.35,5.74,3.22-5.74h5.73l-5.88,9.46Z"/><path class="cls-7" d="M549,351l3.2-6.89h5.43l-6.1,11.32v7.25h-5v-7.1l-6.11-11.47h5.46Z"/><path class="cls-7" d="M575.43,362.7H561v-3.1l8-11.42h-7.84v-4.05h14.07v3.09l-8,11.43h8.24Z"/><path class="cls-7" d="M660.74,323.44q0,4.92-1.65,7.22a6.59,6.59,0,0,1-10.07-.1q-1.68-2.4-1.68-7.12,0-4.95,1.65-7.26a6.55,6.55,0,0,1,10.06.09Q660.74,318.69,660.74,323.44Zm-8.41,0a16,16,0,0,0,.39,4.33c.26.79.7,1.18,1.32,1.18s1.07-.41,1.33-1.22a16.55,16.55,0,0,0,.38-4.29,16.26,16.26,0,0,0-.39-4.32c-.26-.83-.7-1.24-1.32-1.24s-1.06.4-1.32,1.19A16.3,16.3,0,0,0,652.33,323.44Z"/><path class="cls-7" d="M676.21,332.7h-5.09v-9.83c0-1.19,0-2.29.08-3.28a10.78,10.78,0,0,1-1.17,1.2l-2.11,1.74-2.6-3.2,6.38-5.2h4.51Z"/><path class="cls-7" d="M696.33,332.7H682.87v-3.31l4.53-4.58c1.29-1.35,2.14-2.28,2.54-2.77a6.57,6.57,0,0,0,.83-1.28,2.84,2.84,0,0,0,.23-1.12,1.43,1.43,0,0,0-.47-1.14,1.9,1.9,0,0,0-1.32-.42,3.66,3.66,0,0,0-1.77.5,12.87,12.87,0,0,0-2,1.48l-2.76-3.22a15,15,0,0,1,2.41-1.84,8.84,8.84,0,0,1,2.13-.84,10.77,10.77,0,0,1,2.58-.29,7.81,7.81,0,0,1,3.22.63,5.08,5.08,0,0,1,2.2,1.81A4.65,4.65,0,0,1,696,319a7.13,7.13,0,0,1-.27,2,7.54,7.54,0,0,1-.85,1.83,12.29,12.29,0,0,1-1.52,1.88q-.95,1-4,3.76v.13h7Z"/><path class="cls-7" d="M713.55,318.16a4.37,4.37,0,0,1-1.06,3,6,6,0,0,1-3,1.8V323q4.63.58,4.64,4.39a4.74,4.74,0,0,1-2.05,4.07,9.53,9.53,0,0,1-5.69,1.49,16.07,16.07,0,0,1-2.78-.22,14.21,14.21,0,0,1-2.76-.78v-4.17a11,11,0,0,0,2.48.92,10.2,10.2,0,0,0,2.33.3,4.77,4.77,0,0,0,2.41-.46,1.6,1.6,0,0,0,.76-1.46,1.64,1.64,0,0,0-.4-1.17,2.47,2.47,0,0,0-1.27-.62,10,10,0,0,0-2.28-.21H703.7v-3.77h1.16c2.55,0,3.82-.65,3.82-2a1.19,1.19,0,0,0-.56-1.09,2.81,2.81,0,0,0-1.52-.35,6.91,6.91,0,0,0-3.68,1.19l-2.08-3.35a10.15,10.15,0,0,1,3-1.45,13.1,13.1,0,0,1,3.54-.43,7.81,7.81,0,0,1,4.52,1.14A3.64,3.64,0,0,1,713.55,318.16Z"/><path class="cls-7" d="M732.6,329.1h-2v3.6h-5v-3.6h-7.4v-3.68l7.72-11.29h4.64v11.23h2Zm-7-3.74V323.2c0-.41,0-.95,0-1.65a9.72,9.72,0,0,1,.07-1.08h-.14a13.28,13.28,0,0,1-1,1.83l-2.06,3.06Z"/><path class="cls-7" d="M744,320.53a5.64,5.64,0,0,1,2.89.75,5.09,5.09,0,0,1,2,2.1,6.57,6.57,0,0,1,.71,3.13,6,6,0,0,1-1.87,4.78c-1.25,1.1-3.14,1.66-5.67,1.66a12.1,12.1,0,0,1-5.3-1v-4.12a13,13,0,0,0,2.49.84,10.66,10.66,0,0,0,2.39.33,3.42,3.42,0,0,0,2.15-.59,2.07,2.07,0,0,0,.75-1.74,2,2,0,0,0-.76-1.67,3.71,3.71,0,0,0-2.31-.59,8.14,8.14,0,0,0-2.55.44l-1.85-.91.7-9.81h10.59v4.18h-6.32l-.23,2.45a10.35,10.35,0,0,1,1.41-.21Z"/><path class="cls-7" d="M754.32,324.85a15.12,15.12,0,0,1,1.11-6.29A7.36,7.36,0,0,1,758.7,315a11.4,11.4,0,0,1,5.34-1.14,19.56,19.56,0,0,1,2.64.21V318a14.74,14.74,0,0,0-2.75-.24,5.46,5.46,0,0,0-3.75,1.1,4.94,4.94,0,0,0-1.34,3.61H759a3.85,3.85,0,0,1,3.67-2.16,4.79,4.79,0,0,1,3.84,1.59,7.77,7.77,0,0,1-.36,9.27,7.36,7.36,0,0,1-10-.36A8.8,8.8,0,0,1,754.32,324.85ZM761.2,329a1.64,1.64,0,0,0,1.3-.61,3,3,0,0,0,.5-1.92c0-1.51-.58-2.26-1.75-2.26a1.8,1.8,0,0,0-1.4.58,2,2,0,0,0-.54,1.43,3.54,3.54,0,0,0,.52,2A1.59,1.59,0,0,0,761.2,329Z"/><path class="cls-7" d="M773.92,332.7l6.37-14.39h-8v-4.15h13.4v3l-6.54,15.58Z"/><path class="cls-7" d="M796.76,313.87a7.67,7.67,0,0,1,4.57,1.18A3.88,3.88,0,0,1,803,318.4a4.44,4.44,0,0,1-.77,2.58,6.22,6.22,0,0,1-2.43,1.94,9,9,0,0,1,2.9,2.33,4.2,4.2,0,0,1,.85,2.51,4.53,4.53,0,0,1-1.79,3.83,10,10,0,0,1-10,0,4.49,4.49,0,0,1-1.74-3.81,4.81,4.81,0,0,1,.77-2.75,6.72,6.72,0,0,1,2.61-2.06,7,7,0,0,1-2.16-2.13,4.79,4.79,0,0,1-.67-2.49,3.86,3.86,0,0,1,1.66-3.33A7.8,7.8,0,0,1,796.76,313.87Zm-2.2,13.73a1.59,1.59,0,0,0,.55,1.27,2.32,2.32,0,0,0,1.55.47c1.49,0,2.24-.54,2.24-1.63a2,2,0,0,0-.49-1.23,6.88,6.88,0,0,0-1.75-1.35,5.38,5.38,0,0,0-1.62,1.2A2,2,0,0,0,794.56,327.6Zm2.18-10.11a1.62,1.62,0,0,0-1.09.37,1.2,1.2,0,0,0-.45,1c0,.73.5,1.37,1.49,1.93a4.11,4.11,0,0,0,1.23-.95,1.57,1.57,0,0,0,.33-1,1.24,1.24,0,0,0-.44-1A1.67,1.67,0,0,0,796.74,317.49Z"/><path class="cls-7" d="M821.31,322.63q0,5.44-2.34,7.88c-1.57,1.63-4.07,2.44-7.52,2.44a18.73,18.73,0,0,1-2.59-.13v-4a12.45,12.45,0,0,0,2.18.2,6.77,6.77,0,0,0,4.16-1.11,4.43,4.43,0,0,0,1.58-3.51h-.15a4.59,4.59,0,0,1-1,1.32,3.23,3.23,0,0,1-1.18.62,5.71,5.71,0,0,1-1.74.22A4.68,4.68,0,0,1,809,325a6.74,6.74,0,0,1-1.36-4.45,6.79,6.79,0,0,1,11.85-4.33A9.87,9.87,0,0,1,821.31,322.63Zm-7-4.67a1.7,1.7,0,0,0-1.34.59,2.94,2.94,0,0,0-.51,1.92,2.77,2.77,0,0,0,.44,1.66,1.57,1.57,0,0,0,1.36.61,2,2,0,0,0,1.43-.59,1.94,1.94,0,0,0,.61-1.44,3.36,3.36,0,0,0-.56-1.94A1.69,1.69,0,0,0,814.32,318Z"/><path class="cls-7" d="M839.09,323.44q0,4.92-1.65,7.22a5.83,5.83,0,0,1-5.06,2.29,5.74,5.74,0,0,1-5-2.39q-1.7-2.4-1.69-7.12,0-4.95,1.65-7.26a6.55,6.55,0,0,1,10.06.09Q839.09,318.69,839.09,323.44Zm-8.42,0a16,16,0,0,0,.39,4.33c.26.79.7,1.18,1.32,1.18s1.07-.41,1.33-1.22a23.66,23.66,0,0,0,0-8.61c-.26-.83-.7-1.24-1.32-1.24s-1.06.4-1.32,1.19A16.3,16.3,0,0,0,830.67,323.44Z"/><path class="cls-7" d="M313.48,640.51l-2.13-5.45h-6.87l-2.11,5.45h-2l6.77-17.21h1.68l6.73,17.21Zm-2.75-7.25-2-5.3c-.26-.68-.53-1.5-.8-2.48a22.09,22.09,0,0,1-.74,2.48l-2,5.3Z"/><path class="cls-7" d="M320.3,623.37h4.84a9.11,9.11,0,0,1,4.93,1,3.61,3.61,0,0,1,1.53,3.23,3.76,3.76,0,0,1-.85,2.51,4.09,4.09,0,0,1-2.48,1.28v.12c2.6.45,3.9,1.81,3.9,4.1a4.43,4.43,0,0,1-1.55,3.59,6.61,6.61,0,0,1-4.34,1.29h-6Zm2,7.34h3.28a5.37,5.37,0,0,0,3-.66,2.55,2.55,0,0,0,.92-2.23,2.24,2.24,0,0,0-1-2.08,6.37,6.37,0,0,0-3.28-.64h-2.93Zm0,1.69v6.41h3.58A5.05,5.05,0,0,0,329,638a3,3,0,0,0,1.05-2.51,2.67,2.67,0,0,0-1.07-2.34,5.77,5.77,0,0,0-3.27-.75Z"/><path class="cls-7" d="M345.59,624.91a5.61,5.61,0,0,0-4.46,1.88,7.58,7.58,0,0,0-1.64,5.15,7.75,7.75,0,0,0,1.58,5.2,5.61,5.61,0,0,0,4.49,1.83,15.28,15.28,0,0,0,4.09-.64v1.74a12.44,12.44,0,0,1-4.39.67,7.41,7.41,0,0,1-5.84-2.3,9.44,9.44,0,0,1-2.06-6.52,10.26,10.26,0,0,1,1-4.64,7,7,0,0,1,2.86-3.07,8.64,8.64,0,0,1,4.4-1.08,10.68,10.68,0,0,1,4.71,1l-.84,1.71A9.1,9.1,0,0,0,345.59,624.91Z"/><path class="cls-7" d="M369.47,631.78a8.66,8.66,0,0,1-2.3,6.48q-2.31,2.25-6.63,2.25h-4.75V623.37H361a7.71,7.71,0,0,1,8.43,8.41Zm-2.11.07a6.89,6.89,0,0,0-1.68-5.05,6.72,6.72,0,0,0-5-1.7h-2.9v13.68h2.43a7.39,7.39,0,0,0,5.36-1.75A6.94,6.94,0,0,0,367.36,631.85Z"/><path class="cls-7" d="M385.24,640.51h-9.55V623.37h9.55v1.77h-7.56v5.52h7.1v1.76h-7.1v6.31h7.56Z"/><path class="cls-7" d="M393.43,640.51h-2V623.37H401v1.77h-7.56v6.27h7.1v1.77h-7.1Z"/><path class="cls-7" d="M413.76,631.53h5.82v8.33a18.78,18.78,0,0,1-2.76.66,21,21,0,0,1-3.26.22,7.89,7.89,0,0,1-6.06-2.31,9.12,9.12,0,0,1-2.17-6.49,9.85,9.85,0,0,1,1.07-4.68,7.32,7.32,0,0,1,3.09-3.07,10,10,0,0,1,4.72-1.06,12.74,12.74,0,0,1,5.11,1l-.77,1.75a11.51,11.51,0,0,0-4.46-1,6.4,6.4,0,0,0-4.89,1.86,7.25,7.25,0,0,0-1.76,5.17,7.42,7.42,0,0,0,1.69,5.26,6.52,6.52,0,0,0,5,1.8,14.41,14.41,0,0,0,3.48-.42v-5.27h-3.83Z"/><path class="cls-7" d="M439.1,640.51h-2v-8.07h-9v8.07h-2V623.37h2v7.29h9v-7.29h2Z"/><path class="cls-7" d="M446.2,640.51V623.37h2v17.14Z"/><path class="cls-7" d="M452.8,645a4,4,0,0,1-1.74-.32V643a6.3,6.3,0,0,0,1.74.24,2.19,2.19,0,0,0,1.76-.71,3,3,0,0,0,.61-2V623.37h2v17a4.89,4.89,0,0,1-1.13,3.45A4.16,4.16,0,0,1,452.8,645Z"/><path class="cls-7" d="M476.48,640.51h-2.35l-6.24-8.31-1.79,1.59v6.72h-2V623.37h2v8.5l7.77-8.5h2.35l-6.89,7.45Z"/><path class="cls-7" d="M481.23,640.51V623.37h2V638.7h7.56v1.81Z"/><path class="cls-7" d="M503.67,640.51l-5.81-15.19h-.09c.11,1.2.16,2.63.16,4.29v10.9h-1.84V623.37h3l5.43,14.14h.09l5.47-14.14h3v17.14h-2v-11c0-1.27.05-2.64.16-4.13h-.09l-5.86,15.17Z"/><path class="cls-7" d="M316.1,666.51h-2.28l-9.36-14.38h-.09c.12,1.69.18,3.23.18,4.64v9.74h-1.84V649.37H305l9.34,14.32h.1c0-.21,0-.88-.11-2s-.07-2-.06-2.45v-9.84h1.87Z"/><path class="cls-7" d="M338.08,657.92a9.47,9.47,0,0,1-2.08,6.47,7.33,7.33,0,0,1-5.79,2.35,7.41,7.41,0,0,1-5.84-2.31,9.53,9.53,0,0,1-2.05-6.54,9.34,9.34,0,0,1,2.06-6.48,7.44,7.44,0,0,1,5.86-2.31,7.3,7.3,0,0,1,5.76,2.35A9.39,9.39,0,0,1,338.08,657.92Zm-13.65,0a8.13,8.13,0,0,0,1.48,5.28,6,6,0,0,0,8.61,0,8.27,8.27,0,0,0,1.45-5.28,8.15,8.15,0,0,0-1.45-5.25,5.17,5.17,0,0,0-4.28-1.78,5.31,5.31,0,0,0-4.33,1.79A8.06,8.06,0,0,0,324.43,657.92Z"/><path class="cls-7" d="M355.16,654.37a4.81,4.81,0,0,1-1.77,4,8.08,8.08,0,0,1-5.08,1.4h-2v6.74h-2V649.37h4.44Q355.16,649.37,355.16,654.37Zm-8.87,3.69h1.79a6.68,6.68,0,0,0,3.84-.86,3.17,3.17,0,0,0,1.18-2.74,3,3,0,0,0-1.11-2.53,5.8,5.8,0,0,0-3.47-.83h-2.23Z"/><path class="cls-7" d="M376,657.92a10.31,10.31,0,0,1-1.33,5.47,6.56,6.56,0,0,1-3.73,3l4.07,4.24h-2.89l-3.34-3.86-.64,0a7.42,7.42,0,0,1-5.85-2.31,9.53,9.53,0,0,1-2.05-6.54,9.34,9.34,0,0,1,2.06-6.48,7.44,7.44,0,0,1,5.86-2.31,7.3,7.3,0,0,1,5.76,2.35A9.39,9.39,0,0,1,376,657.92Zm-13.65,0a8.13,8.13,0,0,0,1.48,5.28,6,6,0,0,0,8.61,0,8.27,8.27,0,0,0,1.45-5.28,8.15,8.15,0,0,0-1.45-5.25,5.17,5.17,0,0,0-4.28-1.78,5.31,5.31,0,0,0-4.33,1.79A8.06,8.06,0,0,0,362.37,657.92Z"/><path class="cls-7" d="M384.23,659.38v7.13h-2V649.37h4.7a7.44,7.44,0,0,1,4.66,1.21,4.39,4.39,0,0,1,1.5,3.63,4.56,4.56,0,0,1-3.44,4.6l4.65,7.7H392l-4.14-7.13Zm0-1.71H387a4.73,4.73,0,0,0,3.1-.84,3.13,3.13,0,0,0,1-2.51,2.86,2.86,0,0,0-1-2.45,5.44,5.44,0,0,0-3.22-.75h-2.59Z"/><path class="cls-7" d="M409.14,662a4.2,4.2,0,0,1-1.64,3.53,7.13,7.13,0,0,1-4.45,1.26,11.26,11.26,0,0,1-4.69-.78V664a11.9,11.9,0,0,0,2.3.71,12.25,12.25,0,0,0,2.46.26,5,5,0,0,0,3-.76,2.49,2.49,0,0,0,1-2.1,2.68,2.68,0,0,0-.36-1.46,3.33,3.33,0,0,0-1.2-1,15.64,15.64,0,0,0-2.54-1.09,8.1,8.1,0,0,1-3.42-2,4.49,4.49,0,0,1-1-3.06,3.81,3.81,0,0,1,1.49-3.15,6.2,6.2,0,0,1,3.94-1.17,11.54,11.54,0,0,1,4.7.94l-.62,1.73a10.72,10.72,0,0,0-4.13-.89,4,4,0,0,0-2.47.68,2.24,2.24,0,0,0-.89,1.89,2.83,2.83,0,0,0,.33,1.45A3.14,3.14,0,0,0,402,656a14.42,14.42,0,0,0,2.38,1,9.38,9.38,0,0,1,3.71,2.06A4.08,4.08,0,0,1,409.14,662Z"/><path class="cls-7" d="M420.32,666.51h-2V651.14H412.9v-1.77h12.85v1.77h-5.43Z"/><path class="cls-7" d="M443.66,649.37v11.09a6.06,6.06,0,0,1-1.77,4.61,6.81,6.81,0,0,1-4.86,1.67,6.48,6.48,0,0,1-4.79-1.69,6.24,6.24,0,0,1-1.69-4.64v-11h2v11.18a4.43,4.43,0,0,0,1.17,3.3,4.76,4.76,0,0,0,3.45,1.15,4.57,4.57,0,0,0,3.34-1.16,4.44,4.44,0,0,0,1.17-3.31V649.37Z"/><path class="cls-7" d="M460.38,649.37h2.15l-6.18,17.14h-2l-6.14-17.14h2.11l3.94,11.09a32.48,32.48,0,0,1,1.08,3.71,29.92,29.92,0,0,1,1.1-3.78Z"/><path class="cls-7" d="M482.24,666.51h-2L476.81,655c-.16-.5-.35-1.14-.55-1.92a13,13,0,0,1-.32-1.39,25.28,25.28,0,0,1-.82,3.38l-3.35,11.41h-2l-4.56-17.14h2.11L470.06,660a39.57,39.57,0,0,1,.82,4,28.36,28.36,0,0,1,.94-4.2l3.07-10.42H477l3.22,10.52a32.86,32.86,0,0,1,.95,4.1,36.57,36.57,0,0,1,.84-4.06l2.7-10.56h2.11Z"/><path class="cls-7" d="M503.3,666.51H501l-4.6-7.54-4.69,7.54h-2.11l5.69-9-5.3-8.18h2.2l4.25,6.79,4.29-6.79h2.12l-5.31,8.11Z"/><path class="cls-7" d="M512.51,657.94l4.57-8.57h2.16l-5.72,10.49v6.65h-2V660l-5.7-10.59H508Z"/><path class="cls-7" d="M534.38,666.51H522.6V665l9.09-13.78h-8.81v-1.8h11.24v1.56L525,664.7h9.36Z"/><path class="cls-7" d="M674.73,627q0,4.44-1.4,6.64a4.74,4.74,0,0,1-4.29,2.19,4.68,4.68,0,0,1-4.2-2.25A12.26,12.26,0,0,1,663.4,627c0-3,.46-5.2,1.39-6.64a5.18,5.18,0,0,1,8.49.09A12.16,12.16,0,0,1,674.73,627Zm-9.36,0a12.71,12.71,0,0,0,.87,5.45,3.16,3.16,0,0,0,5.62,0,17.1,17.1,0,0,0,0-10.83,3.17,3.17,0,0,0-5.62,0A12.58,12.58,0,0,0,665.37,627Z"/><path class="cls-7" d="M686.7,635.61h-1.9V623.4c0-1,0-2,.1-2.88l-.55.51c-.21.18-1.14,1-2.79,2.29l-1-1.34,4.53-3.5h1.64Z"/><path class="cls-7" d="M706.88,635.61H695.62v-1.67l4.51-4.54a33.42,33.42,0,0,0,2.72-3,7.47,7.47,0,0,0,1-1.73,5,5,0,0,0,.33-1.82,2.9,2.9,0,0,0-.83-2.17,3.23,3.23,0,0,0-2.31-.8,5.69,5.69,0,0,0-2,.35,7.83,7.83,0,0,0-2.13,1.28l-1-1.33a7.92,7.92,0,0,1,5.16-2,5.45,5.45,0,0,1,3.78,1.24,4.22,4.22,0,0,1,1.37,3.32,6.38,6.38,0,0,1-.91,3.22,20.45,20.45,0,0,1-3.42,4l-3.75,3.66v.1h8.81Z"/><path class="cls-7" d="M722.36,622.51a3.91,3.91,0,0,1-.92,2.68,4.6,4.6,0,0,1-2.61,1.4v.09a4.84,4.84,0,0,1,3.06,1.32,3.86,3.86,0,0,1,1,2.76,4.5,4.5,0,0,1-1.7,3.77,7.75,7.75,0,0,1-4.83,1.32,13.61,13.61,0,0,1-2.49-.21,8.72,8.72,0,0,1-2.2-.72v-1.85a10.42,10.42,0,0,0,2.37.84,10.85,10.85,0,0,0,2.39.28q4.44,0,4.44-3.48,0-3.11-4.9-3.11h-1.69v-1.68H716a5.14,5.14,0,0,0,3.17-.88,2.91,2.91,0,0,0,1.17-2.46,2.42,2.42,0,0,0-.86-2,3.57,3.57,0,0,0-2.34-.71,7.34,7.34,0,0,0-2.12.3,9.71,9.71,0,0,0-2.27,1.13l-1-1.32a8.26,8.26,0,0,1,2.44-1.3,8.69,8.69,0,0,1,2.9-.48,5.91,5.91,0,0,1,3.88,1.15A3.84,3.84,0,0,1,722.36,622.51Z"/><path class="cls-7" d="M739.93,631.67h-2.54v3.94h-1.86v-3.94H727.2V630l8.13-11.59h2.06v11.52h2.54Zm-4.4-1.76v-5.7c0-1.12,0-2.38.11-3.79h-.09a18.19,18.19,0,0,1-1,1.87l-5.36,7.62Z"/><path class="cls-7" d="M749.34,625.15a6.25,6.25,0,0,1,4.26,1.34,4.58,4.58,0,0,1,1.55,3.67,5.28,5.28,0,0,1-1.69,4.17,6.75,6.75,0,0,1-4.67,1.52,8.58,8.58,0,0,1-4.42-.93v-1.87a6.84,6.84,0,0,0,2,.82,10,10,0,0,0,2.4.3,4.79,4.79,0,0,0,3.21-1,3.5,3.5,0,0,0,1.14-2.81q0-3.58-4.39-3.59a17.19,17.19,0,0,0-3,.34l-1-.64.65-8H754v1.79h-6.86l-.43,5.15A13.61,13.61,0,0,1,749.34,625.15Z"/><path class="cls-7" d="M760.31,628.29q0-5.06,2-7.55a6.93,6.93,0,0,1,5.81-2.51,7.56,7.56,0,0,1,2.08.23v1.67a6.83,6.83,0,0,0-2.06-.29,5.19,5.19,0,0,0-4.21,1.72q-1.46,1.71-1.59,5.39h.14a4.49,4.49,0,0,1,4.08-2,4.79,4.79,0,0,1,3.64,1.39,5.29,5.29,0,0,1,1.33,3.79,5.85,5.85,0,0,1-1.46,4.2,5.2,5.2,0,0,1-3.95,1.53,5.06,5.06,0,0,1-4.21-2A8.84,8.84,0,0,1,760.31,628.29Zm5.75,5.9a3.3,3.3,0,0,0,2.59-1,4.48,4.48,0,0,0,.92-3,3.92,3.92,0,0,0-.86-2.68,3.24,3.24,0,0,0-2.55-1,4.32,4.32,0,0,0-1.94.44,3.53,3.53,0,0,0-1.4,1.19,2.76,2.76,0,0,0-.52,1.58,5.43,5.43,0,0,0,.47,2.25,3.83,3.83,0,0,0,1.33,1.65A3.28,3.28,0,0,0,766.06,634.19Z"/><path class="cls-7" d="M778.4,635.61l7.1-15.34h-9.34v-1.79h11.4V620l-7,15.57Z"/><path class="cls-7" d="M798,618.23a5.83,5.83,0,0,1,3.71,1.09,3.62,3.62,0,0,1,1.37,3,3.75,3.75,0,0,1-.78,2.31,6.94,6.94,0,0,1-2.51,1.9,8.44,8.44,0,0,1,3,2.09,3.92,3.92,0,0,1,.88,2.54,4.25,4.25,0,0,1-1.49,3.41,6.1,6.1,0,0,1-4.07,1.27,6.53,6.53,0,0,1-4.22-1.2,4.15,4.15,0,0,1-1.48-3.41q0-2.94,3.59-4.58a6.6,6.6,0,0,1-2.32-2,4.16,4.16,0,0,1-.71-2.37,3.62,3.62,0,0,1,1.38-3A5.72,5.72,0,0,1,798,618.23Zm-3.71,13.06a2.65,2.65,0,0,0,1,2.19,4.31,4.31,0,0,0,2.75.78,4.09,4.09,0,0,0,2.72-.82,2.89,2.89,0,0,0,.06-4.27,9.23,9.23,0,0,0-3.19-1.71,7,7,0,0,0-2.53,1.65A3.2,3.2,0,0,0,794.32,631.29ZM798,619.82a3.43,3.43,0,0,0-2.29.7,2.32,2.32,0,0,0-.84,1.87,2.68,2.68,0,0,0,.7,1.86,7.21,7.21,0,0,0,2.55,1.54,6.32,6.32,0,0,0,2.37-1.51,2.78,2.78,0,0,0,.7-1.89,2.3,2.3,0,0,0-.85-1.88A3.61,3.61,0,0,0,798,619.82Z"/><path class="cls-7" d="M819.74,625.79q0,10.07-7.78,10.06a7.75,7.75,0,0,1-2.16-.24v-1.67a7,7,0,0,0,2.13.3,5.19,5.19,0,0,0,4.25-1.74,8.81,8.81,0,0,0,1.57-5.34h-.14a4.15,4.15,0,0,1-1.72,1.49,5.49,5.49,0,0,1-2.4.51,4.86,4.86,0,0,1-3.61-1.36,5.21,5.21,0,0,1-1.33-3.8,5.8,5.8,0,0,1,1.49-4.22,5.71,5.71,0,0,1,7-.65,5.71,5.71,0,0,1,2,2.61A10.86,10.86,0,0,1,819.74,625.79ZM814,619.9a3.22,3.22,0,0,0-2.59,1.08,4.46,4.46,0,0,0-.91,3,3.9,3.9,0,0,0,.84,2.65,3.26,3.26,0,0,0,2.57,1,4.44,4.44,0,0,0,2-.44,3.5,3.5,0,0,0,1.41-1.18,2.68,2.68,0,0,0,.52-1.57,5.34,5.34,0,0,0-.48-2.27A3.91,3.91,0,0,0,816,620.5,3.4,3.4,0,0,0,814,619.9Z"/><path class="cls-7" d="M836,627q0,4.44-1.41,6.64a5.17,5.17,0,0,1-8.49-.06,12.26,12.26,0,0,1-1.44-6.58c0-3,.47-5.2,1.4-6.64a5.18,5.18,0,0,1,8.49.09A12.25,12.25,0,0,1,836,627Zm-9.37,0a12.53,12.53,0,0,0,.88,5.45,3.16,3.16,0,0,0,5.62,0,17.29,17.29,0,0,0,0-10.83,3.17,3.17,0,0,0-5.62,0A12.4,12.4,0,0,0,826.59,627Z"/><path class="cls-7" d="M17.1,419.71l-1.16-4.41H8.29L7.1,419.71h-7l7.68-23.65h8.49l7.79,23.65Zm-2.48-9.63-1-3.87c-.24-.86-.53-2-.86-3.34s-.56-2.34-.67-2.93c-.1.55-.29,1.45-.57,2.71s-.92,3.73-1.9,7.43Z"/><path class="cls-7" d="M49,419.71v-9.92a5.92,5.92,0,0,0-.5-2.78,1.71,1.71,0,0,0-1.61-.93,2.25,2.25,0,0,0-2.12,1.24,8.47,8.47,0,0,0-.68,3.88v8.51H37.75v-9.92a6.22,6.22,0,0,0-.48-2.78,1.63,1.63,0,0,0-1.56-.93,2.26,2.26,0,0,0-2.16,1.32,10.1,10.1,0,0,0-.68,4.32v8h-6.3V401.46h4.75l.79,2.25h.37a4.74,4.74,0,0,1,2.11-1.92,7.16,7.16,0,0,1,3.13-.66q3.95,0,5.54,2.4h.5a5.18,5.18,0,0,1,2.16-1.76,7.18,7.18,0,0,1,3-.64,6.28,6.28,0,0,1,4.79,1.66,7.2,7.2,0,0,1,1.55,5v11.87Z"/><path class="cls-7" d="M71.81,419.71l-1.21-2.42h-.13a7,7,0,0,1-2.59,2.16,8.52,8.52,0,0,1-3.42.58,5.36,5.36,0,0,1-4.06-1.54,6,6,0,0,1-1.48-4.35,5,5,0,0,1,2-4.35,11.1,11.1,0,0,1,5.88-1.6l3-.1v-.25a2,2,0,0,0-2.23-2.26,13.3,13.3,0,0,0-5.07,1.35l-1.82-4.15a17.42,17.42,0,0,1,8.05-1.65,7.83,7.83,0,0,1,5.44,1.74,6.25,6.25,0,0,1,1.93,4.87v12Zm-4.67-4.12a2.84,2.84,0,0,0,2-.73,2.38,2.38,0,0,0,.82-1.88v-1.42l-1.45.06c-2.08.08-3.11.84-3.11,2.29C65.35,415,65.94,415.59,67.14,415.59Z"/><path class="cls-7" d="M94.52,419.71H79.41v-3.59L87,406.27H79.84v-4.81H94.17v3.89l-7.24,9.54h7.59Z"/><path class="cls-7" d="M97.72,396.91a2.65,2.65,0,0,1,.79-2.11,5,5,0,0,1,5.11,0,2.65,2.65,0,0,1,.8,2.09q0,2.77-3.37,2.77T97.72,396.91Zm6.46,22.8h-6.3V401.46h6.3Z"/><path class="cls-7" d="M120.43,419.71v-10a5.78,5.78,0,0,0-.52-2.74,1.79,1.79,0,0,0-1.69-.93,2.43,2.43,0,0,0-2.3,1.27,9.71,9.71,0,0,0-.71,4.37v8h-6.3V401.46h4.75l.79,2.25h.37a5,5,0,0,1,2.23-1.93,7.9,7.9,0,0,1,3.28-.65,6.25,6.25,0,0,1,4.72,1.76,6.87,6.87,0,0,1,1.68,4.95v11.87Z"/><path class="cls-7" d="M148.57,401.46v3l-2.5.92a4.36,4.36,0,0,1,.52,2.17,5.48,5.48,0,0,1-2.07,4.58q-2.07,1.63-6.18,1.63a7.65,7.65,0,0,1-1.61-.13,1.68,1.68,0,0,0-.23.79c0,.31.25.55.76.72a6.68,6.68,0,0,0,2,.25h3q6.14,0,6.14,5.17a5.88,5.88,0,0,1-2.84,5.19q-2.85,1.84-8,1.85a11.37,11.37,0,0,1-6-1.3,4.12,4.12,0,0,1-2.11-3.73c0-2.18,1.36-3.59,4.06-4.22a3.75,3.75,0,0,1-1.45-1.14,2.46,2.46,0,0,1-.16-3.07,6.74,6.74,0,0,1,1.95-1.56,4.88,4.88,0,0,1-2.23-2,6.21,6.21,0,0,1-.81-3.26,5.58,5.58,0,0,1,2-4.62,9,9,0,0,1,5.8-1.65c.33,0,.91,0,1.72.12s1.42.14,1.81.21ZM134.81,422a1.4,1.4,0,0,0,.84,1.25,4.49,4.49,0,0,0,2.24.48,9.72,9.72,0,0,0,3.66-.57c.92-.39,1.38-.88,1.38-1.48a1.06,1.06,0,0,0-.84-1,7.42,7.42,0,0,0-2.4-.3h-2.46a3,3,0,0,0-1.72.48A1.36,1.36,0,0,0,134.81,422Zm2-14.55c0,1.87.65,2.81,2,2.81a1.61,1.61,0,0,0,1.4-.7,3.63,3.63,0,0,0,.49-2.07c0-1.89-.63-2.84-1.89-2.84S136.79,405.56,136.79,407.43Z"/><path class="cls-7" d="M158,419.71h-6.3V394.64H158Z"/><path class="cls-7" d="M160.46,401.46h6.64l3.09,10.47a9.36,9.36,0,0,1,.31,2h.13a10.65,10.65,0,0,1,.39-2l3.17-10.5h6.43l-7.22,19.41a11.38,11.38,0,0,1-3.41,5.24,8.48,8.48,0,0,1-5.27,1.53,12.86,12.86,0,0,1-2.58-.27v-4.95a8.83,8.83,0,0,0,2,.19,3.18,3.18,0,0,0,1.46-.32,3.29,3.29,0,0,0,1.1-.91,8.09,8.09,0,0,0,1-1.93Z"/><path class="cls-7" d="M203.18,406.18h-3.89v13.53H193V406.18h-2.41v-3.1l2.54-1.54v-.31q0-3.62,1.48-5.19t4.73-1.58a13.77,13.77,0,0,1,2.37.2,18,18,0,0,1,2.61.67L203,399.41a8.24,8.24,0,0,0-2.27-.32,1.23,1.23,0,0,0-1.06.44,2.47,2.47,0,0,0-.33,1.44v.49h3.89Z"/><path class="cls-7" d="M214.8,420c-3,0-5.4-.8-7.08-2.42a9.15,9.15,0,0,1-2.52-6.91q0-4.62,2.34-7.09a8.72,8.72,0,0,1,6.67-2.48,8.86,8.86,0,0,1,6.37,2.15,8.18,8.18,0,0,1,2.25,6.2v2.8H211.56a3.16,3.16,0,0,0,1.12,2.4,4.42,4.42,0,0,0,2.88.87,13.82,13.82,0,0,0,3.05-.31,15.62,15.62,0,0,0,3-1.07v4.53a11.14,11.14,0,0,1-3.07,1A20.56,20.56,0,0,1,214.8,420Zm-.37-14.61a2.61,2.61,0,0,0-1.86.7,3.31,3.31,0,0,0-.88,2.2h5.42a3.13,3.13,0,0,0-.75-2.11A2.47,2.47,0,0,0,214.43,405.42Z"/><path class="cls-7" d="M242.43,419.71l-2.06-8.7-.49-2.63-.32-2.11h-.1c-.52,3-.88,4.91-1.06,5.69l-1.85,7.75h-6.62l-5-18.25h6.2l1.48,7a42.41,42.41,0,0,1,.82,6h.1a41.63,41.63,0,0,1,.89-5.64l1.69-7.36h7l1.55,7.46q.74,3.56.93,5.54h.1c.06-.82.17-1.84.32-3a27.26,27.26,0,0,1,.5-3l1.61-7h6.08l-5,18.25Z"/><path class="cls-7" d="M271.66,420a5.47,5.47,0,0,1-3.41-1.11,7.12,7.12,0,0,1-2.26-3.27,14.57,14.57,0,0,1-.79-5,11.75,11.75,0,0,1,1.79-7,5.7,5.7,0,0,1,4.91-2.52,5.61,5.61,0,0,1,2.68.62,5.87,5.87,0,0,1,2.11,2.06h.12a30.94,30.94,0,0,1-.3-4.29v-4.88h6.35v25.07H278.1l-1.35-2.3h-.24A5.34,5.34,0,0,1,271.66,420Zm2.58-5a2.33,2.33,0,0,0,2.13-1,5.72,5.72,0,0,0,.67-2.93v-.5a6.4,6.4,0,0,0-.69-3.44,2.45,2.45,0,0,0-2.18-1,2.11,2.11,0,0,0-1.92,1.17,6.6,6.6,0,0,0-.69,3.32,6.2,6.2,0,0,0,.69,3.24A2.24,2.24,0,0,0,274.24,415.06Z"/><path class="cls-7" d="M287.41,396.91a2.65,2.65,0,0,1,.79-2.11,5,5,0,0,1,5.11,0,2.65,2.65,0,0,1,.8,2.09q0,2.77-3.37,2.77T287.41,396.91Zm6.46,22.8h-6.3V401.46h6.3Z"/><path class="cls-7" d="M312.7,414.1a5.21,5.21,0,0,1-2,4.44A9.49,9.49,0,0,1,305,420a25.86,25.86,0,0,1-3.53-.21,15.39,15.39,0,0,1-3.06-.8v-5a19,19,0,0,0,3.22,1.06,13.45,13.45,0,0,0,3.12.42c1.36,0,2-.31,2-.94a1.05,1.05,0,0,0-.57-.86,26.47,26.47,0,0,0-3.33-1.47,8.33,8.33,0,0,1-3.51-2.35,5.3,5.3,0,0,1-1-3.33,4.62,4.62,0,0,1,2-4,9.42,9.42,0,0,1,5.56-1.42,13.7,13.7,0,0,1,3.39.4,20.24,20.24,0,0,1,3.29,1.15l-1.71,4.06a19.28,19.28,0,0,0-2.65-1,9,9,0,0,0-2.29-.39c-1,0-1.55.25-1.55.75a.94.94,0,0,0,.54.8,29.45,29.45,0,0,0,3.12,1.35,11.94,11.94,0,0,1,2.86,1.54,4.56,4.56,0,0,1,1.38,1.79A6.14,6.14,0,0,1,312.7,414.1Z"/><path class="cls-7" d="M324.84,420q-4.48,0-6.79-2.41c-1.54-1.61-2.32-3.93-2.32-6.95a9.55,9.55,0,0,1,2.5-7c1.67-1.66,4-2.5,7.11-2.5a13.4,13.4,0,0,1,6,1.39l-1.86,4.66a18.44,18.44,0,0,0-2.11-.8,6.7,6.7,0,0,0-2-.3,2.74,2.74,0,0,0-2.37,1.19,5.81,5.81,0,0,0-.84,3.37q0,4.38,3.24,4.38a9.76,9.76,0,0,0,5.32-1.61v5A10.3,10.3,0,0,1,324.84,420Z"/><path class="cls-7" d="M352.08,410.54a9.7,9.7,0,0,1-2.41,7,8.91,8.91,0,0,1-6.74,2.5,8.73,8.73,0,0,1-6.62-2.56,11.08,11.08,0,0,1-.05-13.86,9,9,0,0,1,6.76-2.48,9.58,9.58,0,0,1,4.76,1.15,7.8,7.8,0,0,1,3.18,3.28A10.63,10.63,0,0,1,352.08,410.54Zm-11.83,0a8.1,8.1,0,0,0,.63,3.59,2.18,2.18,0,0,0,2.11,1.23,2.12,2.12,0,0,0,2.07-1.23,8.44,8.44,0,0,0,.61-3.59,8,8,0,0,0-.62-3.53,2.42,2.42,0,0,0-4.17,0A7.76,7.76,0,0,0,340.25,410.54Z"/><path class="cls-7" d="M364.94,415.06a9.36,9.36,0,0,0,3.05-.63V419a13.09,13.09,0,0,1-2.43.78,13.29,13.29,0,0,1-2.69.23c-2.12,0-3.65-.51-4.58-1.55a7,7,0,0,1-1.4-4.78v-7.52h-2.21v-2.57l2.8-2,1.63-3.83h4.13v3.66h4.48v4.72h-4.48v7.1C363.24,414.46,363.81,415.06,364.94,415.06Z"/><path class="cls-7" d="M383,419.71v-10c0-2.45-.73-3.67-2.18-3.67a2.44,2.44,0,0,0-2.28,1.3,9.26,9.26,0,0,0-.73,4.31v8h-6.3V394.64h6.3v3.56c0,1.61-.09,3.45-.26,5.51h.29a5.23,5.23,0,0,1,2.15-2,6.79,6.79,0,0,1,2.88-.58,6.28,6.28,0,0,1,4.76,1.77,6.83,6.83,0,0,1,1.7,4.94v11.87Z"/><path class="cls-7" d="M402.76,420c-3,0-5.4-.8-7.08-2.42a9.15,9.15,0,0,1-2.52-6.91q0-4.62,2.33-7.09a8.76,8.76,0,0,1,6.68-2.48,8.86,8.86,0,0,1,6.37,2.15,8.18,8.18,0,0,1,2.25,6.2v2.8H399.52a3.16,3.16,0,0,0,1.12,2.4,4.42,4.42,0,0,0,2.88.87,13.82,13.82,0,0,0,3.05-.31,15.32,15.32,0,0,0,3-1.07v4.53a11.08,11.08,0,0,1-3.06,1A20.56,20.56,0,0,1,402.76,420Zm-.37-14.61a2.61,2.61,0,0,0-1.86.7,3.31,3.31,0,0,0-.88,2.2h5.42a3.23,3.23,0,0,0-.75-2.11A2.47,2.47,0,0,0,402.39,405.42Z"/><path class="cls-7" d="M420.43,420a5.51,5.51,0,0,1-4.8-2.51,12,12,0,0,1-1.74-6.91,11.83,11.83,0,0,1,1.78-7,5.62,5.62,0,0,1,4.86-2.52,5.56,5.56,0,0,1,5,2.58h.12l.47-2.25h5.45v26.18h-6.3v-7.56c0-.36.06-1.25.19-2.67h-.19A5.2,5.2,0,0,1,420.43,420Zm2.56-4.88a2.43,2.43,0,0,0,2.09-.88,5.27,5.27,0,0,0,.65-3v-.76a6.78,6.78,0,0,0-.66-3.46,2.38,2.38,0,0,0-2.17-1q-2.62,0-2.62,4.68a6.52,6.52,0,0,0,.67,3.42A2.25,2.25,0,0,0,423,415.15Z"/><path class="cls-7" d="M449.23,419.71l-.79-2.27h-.37a5.17,5.17,0,0,1-2.2,1.93,7.73,7.73,0,0,1-3.31.66,6.21,6.21,0,0,1-4.69-1.74,6.86,6.86,0,0,1-1.67-4.94V401.46h6.3v10a5.89,5.89,0,0,0,.5,2.71,1.77,1.77,0,0,0,1.67.92,2.42,2.42,0,0,0,2.32-1.29,9.74,9.74,0,0,0,.69-4.32v-8H454v18.25Z"/><path class="cls-7" d="M467.48,420c-3,0-5.4-.8-7.08-2.42a9.15,9.15,0,0,1-2.52-6.91c0-3.08.77-5.44,2.33-7.09a8.74,8.74,0,0,1,6.67-2.48,8.89,8.89,0,0,1,6.38,2.15,8.22,8.22,0,0,1,2.24,6.2v2.8H464.24a3.13,3.13,0,0,0,1.12,2.4,4.38,4.38,0,0,0,2.88.87,13.88,13.88,0,0,0,3.05-.31,15.32,15.32,0,0,0,3-1.07v4.53a11.19,11.19,0,0,1-3.06,1A20.56,20.56,0,0,1,467.48,420Zm-.37-14.61a2.61,2.61,0,0,0-1.86.7,3.31,3.31,0,0,0-.88,2.2h5.41a3.13,3.13,0,0,0-.75-2.11A2.45,2.45,0,0,0,467.11,405.42Z"/><path class="cls-7" d="M493.49,414.1a5.2,5.2,0,0,1-2,4.44,9.53,9.53,0,0,1-5.74,1.49,25.86,25.86,0,0,1-3.53-.21,15,15,0,0,1-3.06-.8v-5a19.18,19.18,0,0,0,3.21,1.06,13.58,13.58,0,0,0,3.12.42c1.37,0,2.05-.31,2.05-.94a1.05,1.05,0,0,0-.57-.86,27.23,27.23,0,0,0-3.33-1.47,8.2,8.2,0,0,1-3.51-2.35,5.3,5.3,0,0,1-1-3.33,4.61,4.61,0,0,1,2-4,9.44,9.44,0,0,1,5.56-1.42,13.58,13.58,0,0,1,3.39.4,20.34,20.34,0,0,1,3.3,1.15l-1.71,4.06a19.42,19.42,0,0,0-2.66-1,8.86,8.86,0,0,0-2.29-.39c-1,0-1.54.25-1.54.75a.94.94,0,0,0,.54.8,29.45,29.45,0,0,0,3.12,1.35,12.15,12.15,0,0,1,2.86,1.54,4.65,4.65,0,0,1,1.38,1.79A6.15,6.15,0,0,1,493.49,414.1Z"/><path class="cls-7" d="M517.18,420a6.49,6.49,0,0,1-2.48-.45,6.36,6.36,0,0,1-2.18-1.66h-.29a21.43,21.43,0,0,1,.29,2.39v7.33h-6.3V401.46h5.13l.88,2.32h.29a5.76,5.76,0,0,1,9.61-.13,12,12,0,0,1,1.72,6.89,11.86,11.86,0,0,1-1.8,7A5.65,5.65,0,0,1,517.18,420Zm-2.11-13.95a2,2,0,0,0-1.94,1,6.59,6.59,0,0,0-.61,2.94v.5a6.89,6.89,0,0,0,.63,3.4,2.14,2.14,0,0,0,2,1,1.86,1.86,0,0,0,1.76-1,7.94,7.94,0,0,0,.55-3.44,7.72,7.72,0,0,0-.55-3.38A1.91,1.91,0,0,0,515.07,406.08Z"/><path class="cls-7" d="M538.8,401.13a9.85,9.85,0,0,1,1.56.13l.35.07-.56,5.94a9.25,9.25,0,0,0-2.14-.19,4.07,4.07,0,0,0-3,.94,3.73,3.73,0,0,0-.94,2.72v9h-6.3V401.46h4.69l1,2.91h.3A6.33,6.33,0,0,1,536,402,5.25,5.25,0,0,1,538.8,401.13Z"/><path class="cls-7" d="M561,410.54a9.69,9.69,0,0,1-2.4,7,8.93,8.93,0,0,1-6.75,2.5,8.72,8.72,0,0,1-6.61-2.56,11.08,11.08,0,0,1,0-13.86,9,9,0,0,1,6.76-2.48,9.55,9.55,0,0,1,4.75,1.15,7.69,7.69,0,0,1,3.18,3.28A10.51,10.51,0,0,1,561,410.54Zm-11.82,0a8.1,8.1,0,0,0,.63,3.59,2.17,2.17,0,0,0,2.11,1.23,2.14,2.14,0,0,0,2.07-1.23,8.46,8.46,0,0,0,.6-3.59A8,8,0,0,0,554,407a2.42,2.42,0,0,0-4.17,0A7.76,7.76,0,0,0,549.2,410.54Z"/><path class="cls-7" d="M569.73,419.71l-7-18.25h6.58l3.09,10.79c0,.06,0,.15.06.28a3.42,3.42,0,0,1,.1.45l.09.57a3.65,3.65,0,0,1,0,.55h.11a6.66,6.66,0,0,1,.29-1.82l3.24-10.82h6.56l-7,18.25Z"/><path class="cls-7" d="M585.31,396.91a2.65,2.65,0,0,1,.79-2.11,5,5,0,0,1,5.1,0,2.63,2.63,0,0,1,.81,2.09q0,2.77-3.37,2.77T585.31,396.91Zm6.46,22.8h-6.3V401.46h6.3Z"/><path class="cls-7" d="M602.17,420a5.47,5.47,0,0,1-3.41-1.11,7.12,7.12,0,0,1-2.26-3.27,14.57,14.57,0,0,1-.79-5,11.83,11.83,0,0,1,1.78-7,5.73,5.73,0,0,1,4.92-2.52,5.61,5.61,0,0,1,2.68.62,5.87,5.87,0,0,1,2.11,2.06h.12a30.94,30.94,0,0,1-.3-4.29v-4.88h6.35v25.07h-4.76l-1.35-2.3H607A5.34,5.34,0,0,1,602.17,420Zm2.58-5a2.34,2.34,0,0,0,2.13-1,5.72,5.72,0,0,0,.67-2.93v-.5a6.4,6.4,0,0,0-.69-3.44,2.46,2.46,0,0,0-2.18-1,2.11,2.11,0,0,0-1.92,1.17,6.6,6.6,0,0,0-.69,3.32,6.2,6.2,0,0,0,.69,3.24A2.24,2.24,0,0,0,604.75,415.06Z"/><path class="cls-7" d="M626.86,420c-3,0-5.4-.8-7.08-2.42a9.15,9.15,0,0,1-2.52-6.91q0-4.62,2.33-7.09a8.75,8.75,0,0,1,6.67-2.48,8.89,8.89,0,0,1,6.38,2.15,8.18,8.18,0,0,1,2.25,6.2v2.8H623.62a3.16,3.16,0,0,0,1.12,2.4,4.4,4.4,0,0,0,2.88.87,13.88,13.88,0,0,0,3-.31,15.32,15.32,0,0,0,3-1.07v4.53a11.08,11.08,0,0,1-3.06,1A20.56,20.56,0,0,1,626.86,420Zm-.37-14.61a2.61,2.61,0,0,0-1.86.7,3.31,3.31,0,0,0-.88,2.2h5.42a3.23,3.23,0,0,0-.75-2.11A2.47,2.47,0,0,0,626.49,405.42Z"/><path class="cls-7" d="M647.21,427.64a15.3,15.3,0,0,1-1.78-.12,13.09,13.09,0,0,1-1.6-.28v-4.92a6.91,6.91,0,0,0,1.93.29c1.28,0,1.92-.91,1.92-2.74V401.46H654v19.73a6.27,6.27,0,0,1-1.77,4.73A6.84,6.84,0,0,1,647.21,427.64Zm.31-30.73a2.65,2.65,0,0,1,.79-2.11,5,5,0,0,1,5.11,0,2.65,2.65,0,0,1,.8,2.09q0,2.77-3.37,2.77T647.52,396.91Z"/><path class="cls-7" d="M671.71,419.71l-.79-2.27h-.37a5.11,5.11,0,0,1-2.2,1.93A7.73,7.73,0,0,1,665,420a6.21,6.21,0,0,1-4.69-1.74,6.86,6.86,0,0,1-1.67-4.94V401.46H665v10a5.89,5.89,0,0,0,.5,2.71,1.77,1.77,0,0,0,1.67.92,2.42,2.42,0,0,0,2.32-1.29,9.71,9.71,0,0,0,.7-4.32v-8h6.29v18.25Z"/><path class="cls-7" d="M687.25,409.45c.77-1.22,1.42-2.16,2-2.84l4.09-5.15h7L694,409.22l6.73,10.49h-7.2l-4-6.54-2,1.56v5h-6.33V394.64h6.33v9.86a33.53,33.53,0,0,1-.36,4.95Z"/><path class="cls-7" d="M712,420c-3,0-5.4-.8-7.08-2.42a9.15,9.15,0,0,1-2.52-6.91q0-4.62,2.34-7.09a8.72,8.72,0,0,1,6.67-2.48,8.86,8.86,0,0,1,6.37,2.15,8.18,8.18,0,0,1,2.25,6.2v2.8H708.8a3.16,3.16,0,0,0,1.12,2.4,4.4,4.4,0,0,0,2.88.87,13.82,13.82,0,0,0,3.05-.31,15.32,15.32,0,0,0,3-1.07v4.53a11,11,0,0,1-3.06,1A20.56,20.56,0,0,1,712,420Zm-.37-14.61a2.61,2.61,0,0,0-1.86.7,3.31,3.31,0,0,0-.88,2.2h5.42a3.18,3.18,0,0,0-.75-2.11A2.47,2.47,0,0,0,711.67,405.42Z"/><path class="cls-7" d="M735.11,401.13a5.51,5.51,0,0,1,4.73,2.5,14.64,14.64,0,0,1,0,13.88,5.66,5.66,0,0,1-4.9,2.52,7.09,7.09,0,0,1-1.81-.21,5.32,5.32,0,0,1-1.41-.61,7.35,7.35,0,0,1-1.44-1.29h-.39l-1,1.79H724V394.64h6.3v5.67c0,.68-.08,1.84-.23,3.5h.23a5.37,5.37,0,0,1,4.85-2.68Zm-2.31,4.95a2.16,2.16,0,0,0-1.93.92,5.27,5.27,0,0,0-.61,2.88v.89a6.28,6.28,0,0,0,.61,3.21,2.18,2.18,0,0,0,2,1,1.87,1.87,0,0,0,1.71-1.14,7.48,7.48,0,0,0,.59-3.34Q735.17,406.09,732.8,406.08Z"/><path class="cls-7" d="M762.94,410.54a9.69,9.69,0,0,1-2.4,7,8.93,8.93,0,0,1-6.75,2.5,8.72,8.72,0,0,1-6.61-2.56,11.08,11.08,0,0,1,0-13.86,9,9,0,0,1,6.76-2.48,9.55,9.55,0,0,1,4.75,1.15,7.69,7.69,0,0,1,3.18,3.28A10.51,10.51,0,0,1,762.94,410.54Zm-11.82,0a8.1,8.1,0,0,0,.63,3.59,2.17,2.17,0,0,0,2.11,1.23,2.14,2.14,0,0,0,2.07-1.23,8.46,8.46,0,0,0,.6-3.59,8,8,0,0,0-.61-3.53,2.42,2.42,0,0,0-4.17,0A7.76,7.76,0,0,0,751.12,410.54Z"/><path class="cls-7" d="M770.73,410.4l-5.57-8.94h7.15l2.77,5.12,2.84-5.12h7.17l-5.72,8.94,6,9.31h-7.16l-3.08-5.54L772,419.71h-7.17Z"/><path class="cls-7" d="M796.8,420a9.82,9.82,0,0,1-7.09-2.42,9.15,9.15,0,0,1-2.52-6.91q0-4.62,2.34-7.09a8.74,8.74,0,0,1,6.67-2.48,8.85,8.85,0,0,1,6.37,2.15,8.18,8.18,0,0,1,2.25,6.2v2.8H793.56a3.09,3.09,0,0,0,1.12,2.4,4.37,4.37,0,0,0,2.87.87,13.91,13.91,0,0,0,3.06-.31,15.55,15.55,0,0,0,3-1.07v4.53a11.19,11.19,0,0,1-3.06,1A20.64,20.64,0,0,1,796.8,420Zm-.37-14.61a2.57,2.57,0,0,0-1.86.7,3.27,3.27,0,0,0-.88,2.2h5.41a3.13,3.13,0,0,0-.75-2.11A2.46,2.46,0,0,0,796.43,405.42Z"/><path class="cls-7" d="M822.81,414.1a5.18,5.18,0,0,1-2,4.44,9.47,9.47,0,0,1-5.73,1.49,25.76,25.76,0,0,1-3.53-.21,15,15,0,0,1-3.06-.8v-5A18.88,18.88,0,0,0,811.7,415a13.58,13.58,0,0,0,3.12.42c1.36,0,2-.31,2-.94a1.07,1.07,0,0,0-.58-.86,26.77,26.77,0,0,0-3.32-1.47,8.31,8.31,0,0,1-3.52-2.35,5.36,5.36,0,0,1-1-3.33,4.61,4.61,0,0,1,2-4,9.42,9.42,0,0,1,5.56-1.42,13.7,13.7,0,0,1,3.39.4,20.34,20.34,0,0,1,3.3,1.15L821,406.74a19.91,19.91,0,0,0-2.66-1,8.93,8.93,0,0,0-2.29-.39c-1,0-1.55.25-1.55.75a.94.94,0,0,0,.54.8,29.45,29.45,0,0,0,3.12,1.35,11.94,11.94,0,0,1,2.86,1.54,4.68,4.68,0,0,1,1.39,1.79A6.32,6.32,0,0,1,822.81,414.1Z"/><path class="cls-7" d="M17,717.32H15l-3.45-11.47c-.17-.51-.35-1.15-.55-1.93a10.38,10.38,0,0,1-.32-1.39,27.47,27.47,0,0,1-.82,3.39l-3.35,11.4h-2L0,700.19H2.11l2.71,10.58c.37,1.48.64,2.83.82,4a29.66,29.66,0,0,1,.93-4.2l3.07-10.41h2.11L15,710.7a33.28,33.28,0,0,1,.95,4.1,34.41,34.41,0,0,1,.84-4.06l2.69-10.55h2.11Z"/><path class="cls-7" d="M32.1,717.32l-.38-1.83h-.1a5.42,5.42,0,0,1-1.91,1.63,5.77,5.77,0,0,1-2.39.43,4.31,4.31,0,0,1-3-1,3.61,3.61,0,0,1-1.09-2.8q0-3.9,6.23-4.08l2.18-.07v-.8a3.26,3.26,0,0,0-.65-2.23,2.69,2.69,0,0,0-2.08-.72,8.58,8.58,0,0,0-3.64,1l-.59-1.48a8.5,8.5,0,0,1,2.08-.81,8.78,8.78,0,0,1,2.26-.3,4.91,4.91,0,0,1,3.41,1,4.25,4.25,0,0,1,1.1,3.27v8.77ZM27.71,716a3.92,3.92,0,0,0,2.85-1,3.68,3.68,0,0,0,1-2.79V711l-2,.08a7.2,7.2,0,0,0-3.34.72,2.17,2.17,0,0,0-1,2,2,2,0,0,0,.64,1.61A2.7,2.7,0,0,0,27.71,716Z"/><path class="cls-7" d="M41.94,716a6.53,6.53,0,0,0,1-.08,5.43,5.43,0,0,0,.76-.16v1.49a3.36,3.36,0,0,1-.93.25,6.61,6.61,0,0,1-1.11.1c-2.48,0-3.73-1.31-3.73-3.92V706H36.09v-.94l1.84-.81.82-2.74h1.13v3H43.6V706H39.88v7.55a2.61,2.61,0,0,0,.55,1.79A1.93,1.93,0,0,0,41.94,716Z"/><path class="cls-7" d="M51.64,717.55a5.5,5.5,0,0,1-4.32-1.71A7.08,7.08,0,0,1,45.79,711a7.3,7.3,0,0,1,1.55-5,5.61,5.61,0,0,1,4.43-1.76,9,9,0,0,1,1.85.2,5.86,5.86,0,0,1,1.45.47l-.6,1.65a10,10,0,0,0-1.4-.43,6.54,6.54,0,0,0-1.35-.17q-3.91,0-3.91,5a5.94,5.94,0,0,0,.95,3.63,3.33,3.33,0,0,0,2.83,1.26,8.64,8.64,0,0,0,3.29-.69v1.72A7,7,0,0,1,51.64,717.55Z"/><path class="cls-7" d="M67,717.32V709a3.36,3.36,0,0,0-.71-2.34,2.92,2.92,0,0,0-2.24-.78,3.68,3.68,0,0,0-3,1.1,5.6,5.6,0,0,0-.93,3.61v6.72H58.17V699.08h1.95v5.52a12.39,12.39,0,0,1-.1,1.66h.12a3.93,3.93,0,0,1,1.63-1.46,5.29,5.29,0,0,1,2.42-.54,5,5,0,0,1,3.54,1.12,4.74,4.74,0,0,1,1.18,3.56v8.38Z"/><path class="cls-7" d="M77.41,721.83a3.92,3.92,0,0,1-1.73-.32v-1.7a6.18,6.18,0,0,0,1.73.24,2.24,2.24,0,0,0,1.77-.7,3.05,3.05,0,0,0,.6-2V700.19h2v17a4.93,4.93,0,0,1-1.12,3.46A4.2,4.2,0,0,1,77.41,721.83Z"/><path class="cls-7" d="M91.69,717.55a5.91,5.91,0,0,1-4.49-1.73A6.71,6.71,0,0,1,85.55,711a7.44,7.44,0,0,1,1.53-4.93,5.08,5.08,0,0,1,4.11-1.83A4.84,4.84,0,0,1,95,705.83a6.06,6.06,0,0,1,1.4,4.19v1.23H87.57a5.09,5.09,0,0,0,1.14,3.43,4,4,0,0,0,3.05,1.17,10.44,10.44,0,0,0,4.1-.86v1.73a9.84,9.84,0,0,1-2,.64A10.86,10.86,0,0,1,91.69,717.55Zm-.53-11.68a3.17,3.17,0,0,0-2.46,1,4.6,4.6,0,0,0-1.09,2.79h6.72a4.25,4.25,0,0,0-.82-2.82A2.91,2.91,0,0,0,91.16,705.87Z"/><path class="cls-7" d="M111.06,710.88a7.07,7.07,0,0,1-1.59,4.91,5.58,5.58,0,0,1-4.37,1.76,5.83,5.83,0,0,1-3.06-.81,5.31,5.31,0,0,1-2.06-2.32,8.1,8.1,0,0,1-.72-3.54,7.06,7.06,0,0,1,1.57-4.89,5.54,5.54,0,0,1,4.36-1.75,5.45,5.45,0,0,1,4.28,1.79A7.07,7.07,0,0,1,111.06,710.88Zm-9.79,0a6,6,0,0,0,1,3.75,3.9,3.9,0,0,0,5.79,0,6.07,6.07,0,0,0,1-3.76,6,6,0,0,0-1-3.72,3.49,3.49,0,0,0-2.92-1.27,3.42,3.42,0,0,0-2.89,1.26A6.06,6.06,0,0,0,101.27,710.88Z"/><path class="cls-7" d="M120.68,717.55a5.54,5.54,0,0,1-2.29-.46,4.33,4.33,0,0,1-1.74-1.42h-.14a16.07,16.07,0,0,1,.14,2.13v5.28h-1.94V704.47h1.58l.27,1.76h.09a4.48,4.48,0,0,1,1.75-1.52,5.31,5.31,0,0,1,2.28-.47,4.74,4.74,0,0,1,3.95,1.75,9.26,9.26,0,0,1,0,9.81A4.74,4.74,0,0,1,120.68,717.55Zm-.28-11.66a3.48,3.48,0,0,0-2.85,1.09,5.7,5.7,0,0,0-.9,3.47v.43a6.46,6.46,0,0,0,.9,3.88,3.44,3.44,0,0,0,2.9,1.16,3,3,0,0,0,2.61-1.34,6.4,6.4,0,0,0,.94-3.72,6.12,6.12,0,0,0-.94-3.68A3.11,3.11,0,0,0,120.4,705.89Z"/><path class="cls-7" d="M137.55,717.32l-.38-1.83h-.1a5.42,5.42,0,0,1-1.91,1.63,5.81,5.81,0,0,1-2.39.43,4.31,4.31,0,0,1-3-1,3.57,3.57,0,0,1-1.09-2.8q0-3.9,6.23-4.08l2.18-.07v-.8a3.21,3.21,0,0,0-.66-2.23,2.66,2.66,0,0,0-2.08-.72,8.54,8.54,0,0,0-3.63,1l-.6-1.48a9.44,9.44,0,0,1,4.35-1.11,4.91,4.91,0,0,1,3.41,1,4.29,4.29,0,0,1,1.1,3.27v8.77ZM133.16,716a3.92,3.92,0,0,0,2.85-1,3.68,3.68,0,0,0,1-2.79V711l-2,.08a7.2,7.2,0,0,0-3.34.72,2.17,2.17,0,0,0-1,2,2,2,0,0,0,.64,1.61A2.7,2.7,0,0,0,133.16,716Z"/><path class="cls-7" d="M149.1,704.24a8,8,0,0,1,1.54.14l-.27,1.81A6.47,6.47,0,0,0,149,706a3.42,3.42,0,0,0-2.67,1.27,4.63,4.63,0,0,0-1.1,3.15v6.89h-1.95V704.47h1.61l.22,2.38h.09a5.63,5.63,0,0,1,1.73-1.93A3.89,3.89,0,0,1,149.1,704.24Z"/><path class="cls-7" d="M162,715.6h-.1a4.59,4.59,0,0,1-4,1.95,4.77,4.77,0,0,1-3.92-1.72,9.3,9.3,0,0,1,0-9.83,4.74,4.74,0,0,1,3.91-1.76,4.66,4.66,0,0,1,4,1.9H162l-.08-.93,0-.9v-5.23h1.94v18.24h-1.58Zm-3.89.32a3.55,3.55,0,0,0,2.89-1.08,5.46,5.46,0,0,0,.9-3.5v-.41A6.45,6.45,0,0,0,161,707a3.46,3.46,0,0,0-2.9-1.17,3,3,0,0,0-2.62,1.33,6.59,6.59,0,0,0-.91,3.76,6.35,6.35,0,0,0,.9,3.71A3,3,0,0,0,158.13,715.92Z"/><path class="cls-7" d="M166.19,704.47h2.08l2.81,7.33a27.75,27.75,0,0,1,1.15,3.62h.1c.1-.4.31-1.08.64-2s1.38-3.94,3.18-8.91h2.08l-5.52,14.63a7.31,7.31,0,0,1-1.91,3.08,4.1,4.1,0,0,1-2.69.9,7.42,7.42,0,0,1-1.76-.2v-1.55a7,7,0,0,0,1.44.14,3,3,0,0,0,2.86-2.25l.72-1.83Z"/><path class="cls-7" d="M180.28,716.08c0-1.07.47-1.6,1.4-1.6a1.33,1.33,0,0,1,1,.41,1.71,1.71,0,0,1,.37,1.19,1.67,1.67,0,0,1-.37,1.16,1.33,1.33,0,0,1-1,.42,1.39,1.39,0,0,1-1-.37A1.58,1.58,0,0,1,180.28,716.08Zm2-3.48h-1.23l-.6-12.41h2.42Z"/><path class="cls-7" d="M189.25,714.53l.17.27a28.38,28.38,0,0,1-.87,2.72c-.39,1-.79,2-1.2,2.89h-1.46c.21-.81.44-1.81.69-3s.43-2.15.54-2.87Z"/><path class="cls-7" d="M210.87,717.32l-2.13-5.45h-6.87l-2.11,5.45h-2l6.78-17.2h1.67l6.74,17.2Zm-2.75-7.24-2-5.31c-.25-.67-.52-1.5-.79-2.48a24.41,24.41,0,0,1-.74,2.48l-2,5.31Z"/><path class="cls-7" d="M217.18,717.32h-2V699.08h2Z"/><path class="cls-7" d="M227,717.55a5.9,5.9,0,0,1-4.49-1.73,6.71,6.71,0,0,1-1.65-4.82,7.44,7.44,0,0,1,1.53-4.93,5.08,5.08,0,0,1,4.11-1.83,4.84,4.84,0,0,1,3.82,1.59,6.11,6.11,0,0,1,1.4,4.19v1.23h-8.84a5,5,0,0,0,1.14,3.43,4,4,0,0,0,3,1.17,10.48,10.48,0,0,0,4.1-.86v1.73a10.28,10.28,0,0,1-1.95.64A10.86,10.86,0,0,1,227,717.55Zm-.53-11.68a3.17,3.17,0,0,0-2.46,1,4.6,4.6,0,0,0-1.09,2.79h6.72a4.31,4.31,0,0,0-.82-2.82A2.91,2.91,0,0,0,226.44,705.87Z"/><path class="cls-7" d="M238.34,710.74l-4.46-6.27h2.21l3.39,4.93,3.37-4.93h2.2l-4.47,6.27,4.7,6.58h-2.2l-3.6-5.2-3.63,5.2h-2.21Z"/><path class="cls-7" d="M260.1,717.32h-2V702h-5.42v-1.77h12.84V702H260.1Z"/><path class="cls-7" d="M273.91,704.24a7.93,7.93,0,0,1,1.54.14l-.27,1.81a6.47,6.47,0,0,0-1.41-.18,3.4,3.4,0,0,0-2.66,1.27,4.59,4.59,0,0,0-1.11,3.15v6.89h-1.94V704.47h1.6l.22,2.38h.1a5.6,5.6,0,0,1,1.72-1.93A3.89,3.89,0,0,1,273.91,704.24Z"/><path class="cls-7" d="M283.52,717.55a5.94,5.94,0,0,1-4.5-1.73,6.75,6.75,0,0,1-1.64-4.82,7.44,7.44,0,0,1,1.53-4.93,5.06,5.06,0,0,1,4.1-1.83,4.83,4.83,0,0,1,3.82,1.59,6.07,6.07,0,0,1,1.41,4.19v1.23h-8.85a5,5,0,0,0,1.15,3.43,4,4,0,0,0,3,1.17,10.48,10.48,0,0,0,4.1-.86v1.73a10.28,10.28,0,0,1-1.95.64A11,11,0,0,1,283.52,717.55ZM283,705.87a3.2,3.2,0,0,0-2.47,1,4.66,4.66,0,0,0-1.08,2.79h6.71a4.25,4.25,0,0,0-.82-2.82A2.87,2.87,0,0,0,283,705.87Z"/><path class="cls-7" d="M297.77,704.26a4.8,4.8,0,0,1,3.94,1.73,9.24,9.24,0,0,1,0,9.81,4.74,4.74,0,0,1-3.92,1.75,5.54,5.54,0,0,1-2.29-.46,4.33,4.33,0,0,1-1.74-1.42h-.14l-.41,1.65H291.8V699.08h1.94v4.43c0,1,0,1.89-.09,2.68h.09A4.61,4.61,0,0,1,297.77,704.26Zm-.28,1.63a3.38,3.38,0,0,0-2.87,1.15,8.82,8.82,0,0,0,0,7.72,3.44,3.44,0,0,0,2.9,1.16,3,3,0,0,0,2.67-1.3,6.7,6.7,0,0,0,.88-3.76,6.43,6.43,0,0,0-.88-3.74A3.12,3.12,0,0,0,297.49,705.89Z"/><path class="cls-7" d="M312.17,717.55a5.9,5.9,0,0,1-4.49-1.73A6.71,6.71,0,0,1,306,711a7.44,7.44,0,0,1,1.53-4.93,5.08,5.08,0,0,1,4.11-1.83,4.84,4.84,0,0,1,3.82,1.59,6.11,6.11,0,0,1,1.4,4.19v1.23H308a5,5,0,0,0,1.15,3.43,4,4,0,0,0,3.05,1.17,10.48,10.48,0,0,0,4.1-.86v1.73a10.28,10.28,0,0,1-1.95.64A10.86,10.86,0,0,1,312.17,717.55Zm-.53-11.68a3.17,3.17,0,0,0-2.46,1,4.6,4.6,0,0,0-1.09,2.79h6.72a4.31,4.31,0,0,0-.82-2.82A2.91,2.91,0,0,0,311.64,705.87Z"/><path class="cls-7" d="M322.37,710.74a24.15,24.15,0,0,1,1.54-1.87l4.14-4.4h2.31l-5.2,5.48,5.57,7.37h-2.36l-4.53-6.07-1.47,1.26v4.81h-1.92V699.08h1.92v9.67c0,.43,0,1.1-.09,2Z"/><path class="cls-7" d="M334.85,700.19l.17.25c-.2.78-.5,1.69-.88,2.73s-.78,2-1.19,2.89h-1.43q.81-3.34,1.19-5.87Z"/><path class="cls-7" d="M345.89,713.81a3.23,3.23,0,0,1-1.34,2.77,6.27,6.27,0,0,1-3.75,1,8.12,8.12,0,0,1-4-.81v-1.8a9.83,9.83,0,0,0,2,.74,8.18,8.18,0,0,0,2,.27,4.53,4.53,0,0,0,2.34-.49A1.6,1.6,0,0,0,344,714a1.58,1.58,0,0,0-.65-1.28,9.92,9.92,0,0,0-2.53-1.26,13.9,13.9,0,0,1-2.55-1.17,3.48,3.48,0,0,1-1.13-1.13,3,3,0,0,1-.37-1.51,2.88,2.88,0,0,1,1.28-2.48,5.92,5.92,0,0,1,3.51-.91,10.28,10.28,0,0,1,4.05.84l-.69,1.59a9.17,9.17,0,0,0-3.51-.8,4,4,0,0,0-2.08.43,1.34,1.34,0,0,0-.7,1.2,1.45,1.45,0,0,0,.26.88,2.7,2.7,0,0,0,.85.69A19.7,19.7,0,0,0,342,710a8.47,8.47,0,0,1,3.09,1.67A3,3,0,0,1,345.89,713.81Z"/><path class="cls-7" d="M361.56,706h-3.27v11.33h-2V706h-2.29v-.88l2.29-.71v-.71c0-3.16,1.38-4.73,4.14-4.73a8.25,8.25,0,0,1,2.39.41l-.5,1.55a6.49,6.49,0,0,0-1.93-.36,1.88,1.88,0,0,0-1.63.73,4.11,4.11,0,0,0-.52,2.35v.83h3.27Z"/><path class="cls-7" d="M366,704.47v8.34a3.39,3.39,0,0,0,.71,2.34,2.91,2.91,0,0,0,2.24.77,3.63,3.63,0,0,0,2.95-1.1,5.55,5.55,0,0,0,.93-3.6v-6.75h1.95v12.85h-1.61l-.28-1.72h-.11a3.89,3.89,0,0,1-1.65,1.45,5.69,5.69,0,0,1-2.42.5,4.9,4.9,0,0,1-3.51-1.11,4.72,4.72,0,0,1-1.17-3.56v-8.41Z"/><path class="cls-7" d="M387.9,717.32V709a3.36,3.36,0,0,0-.71-2.34,2.92,2.92,0,0,0-2.24-.78,3.73,3.73,0,0,0-3,1.09,5.55,5.55,0,0,0-.93,3.6v6.74h-1.95V704.47h1.58l.32,1.76h.09a4,4,0,0,1,1.68-1.47,5.41,5.41,0,0,1,2.4-.52,4.85,4.85,0,0,1,3.49,1.12,4.74,4.74,0,0,1,1.18,3.58v8.38Z"/><path class="cls-7" d="M406.12,717.32h-2V702H398.7v-1.77h12.85V702h-5.43Z"/><path class="cls-7" d="M424.15,700.19h2.15l-6.18,17.13h-2L412,700.19h2.11l3.94,11.08a32,32,0,0,1,1.08,3.72,29.59,29.59,0,0,1,1.1-3.79Z"/><path class="cls-7" d="M439.63,717.55a4.7,4.7,0,0,1-3.88-1.74,7.64,7.64,0,0,1-1.39-4.88,7.76,7.76,0,0,1,1.4-4.92,4.74,4.74,0,0,1,3.92-1.77,4.65,4.65,0,0,1,4.05,2h.11l.28-1.76h1.54v18.61h-2v-5.49a12.49,12.49,0,0,1,.13-2h-.15A4.61,4.61,0,0,1,439.63,717.55Zm.29-1.63a3.52,3.52,0,0,0,2.84-1,5.67,5.67,0,0,0,.95-3.51v-.44a6.42,6.42,0,0,0-.91-3.88,3.44,3.44,0,0,0-2.9-1.18,3,3,0,0,0-2.62,1.33,6.67,6.67,0,0,0-.91,3.76,6.36,6.36,0,0,0,.9,3.69A3,3,0,0,0,439.92,715.92Z"/><path class="cls-7" d="M451.85,704.47v8.34a3.39,3.39,0,0,0,.71,2.34,2.91,2.91,0,0,0,2.24.77,3.63,3.63,0,0,0,2.95-1.1,5.55,5.55,0,0,0,.93-3.6v-6.75h1.95v12.85H459l-.28-1.72h-.11a3.89,3.89,0,0,1-1.65,1.45,5.69,5.69,0,0,1-2.42.5,4.9,4.9,0,0,1-3.51-1.11,4.72,4.72,0,0,1-1.17-3.56v-8.41Z"/><path class="cls-7" d="M464.83,701a1.3,1.3,0,0,1,.32-1,1.15,1.15,0,0,1,.82-.31,1.12,1.12,0,0,1,.81.31,1.57,1.57,0,0,1,0,2,1.09,1.09,0,0,1-.81.32,1.12,1.12,0,0,1-.82-.32A1.34,1.34,0,0,1,464.83,701Zm2.11,16.33H465V704.47h1.95Z"/><path class="cls-7" d="M479.52,717.32H470.2V716l7-10h-6.58v-1.52h8.71V706l-6.91,9.82h7.09Z"/><path class="cls-7" d="M499.75,704.47v1.24l-2.37.28a4.24,4.24,0,0,1,.58,1.07,4.12,4.12,0,0,1,.26,1.49,3.79,3.79,0,0,1-1.29,3,5.21,5.21,0,0,1-3.54,1.13,6.21,6.21,0,0,1-1.08-.09,1.89,1.89,0,0,0-1.24,1.65.84.84,0,0,0,.43.78,3.17,3.17,0,0,0,1.49.25h2.28a5.06,5.06,0,0,1,3.2.88,3,3,0,0,1,1.12,2.55,3.64,3.64,0,0,1-1.71,3.25,9.13,9.13,0,0,1-5,1.12,6.88,6.88,0,0,1-3.89-.93,3,3,0,0,1-1.36-2.65,3,3,0,0,1,.75-2,3.79,3.79,0,0,1,2.11-1.16,2,2,0,0,1-.83-.69,1.85,1.85,0,0,1-.33-1.09,2.06,2.06,0,0,1,.37-1.23,4.09,4.09,0,0,1,1.18-1,3.46,3.46,0,0,1-1.62-1.4,4.05,4.05,0,0,1-.63-2.25,4.17,4.17,0,0,1,1.27-3.25,5.17,5.17,0,0,1,3.59-1.14,6.73,6.73,0,0,1,1.81.23Zm-10.24,15a1.74,1.74,0,0,0,.88,1.59,4.86,4.86,0,0,0,2.52.54,7,7,0,0,0,3.63-.74,2.23,2.23,0,0,0,1.17-2,1.57,1.57,0,0,0-.64-1.45,5,5,0,0,0-2.43-.4h-2.33a3.07,3.07,0,0,0-2.06.63A2.27,2.27,0,0,0,489.51,719.47Zm1.06-10.88a2.61,2.61,0,0,0,.76,2,3,3,0,0,0,2.12.69c1.9,0,2.85-.92,2.85-2.77a2.55,2.55,0,0,0-2.89-2.89,2.84,2.84,0,0,0-2.11.74A3,3,0,0,0,490.57,708.59Z"/><path class="cls-7" d="M510.53,717.32l-.39-1.83h-.09a5.36,5.36,0,0,1-1.92,1.63,5.72,5.72,0,0,1-2.38.43,4.33,4.33,0,0,1-3-1,3.6,3.6,0,0,1-1.08-2.8q0-3.9,6.22-4.08l2.18-.07v-.8a3.26,3.26,0,0,0-.65-2.23,2.68,2.68,0,0,0-2.08-.72,8.54,8.54,0,0,0-3.63,1l-.6-1.48a8.65,8.65,0,0,1,2.08-.81,8.79,8.79,0,0,1,2.27-.3,4.88,4.88,0,0,1,3.4,1,4.25,4.25,0,0,1,1.11,3.27v8.77Zm-4.4-1.37a3.94,3.94,0,0,0,2.86-1,3.68,3.68,0,0,0,1-2.79V711l-1.94.08a7.25,7.25,0,0,0-3.35.72,2.19,2.19,0,0,0-1,2,2,2,0,0,0,.64,1.61A2.67,2.67,0,0,0,506.13,716Z"/><path class="cls-7" d="M532.59,717.32V709a3.45,3.45,0,0,0-.66-2.3,2.53,2.53,0,0,0-2-.77,3.28,3.28,0,0,0-2.68,1.05,4.92,4.92,0,0,0-.87,3.21v7.17H524.4V709a3.45,3.45,0,0,0-.66-2.3,2.56,2.56,0,0,0-2-.77A3.19,3.19,0,0,0,519,707a6,6,0,0,0-.85,3.59v6.74h-1.94V704.47h1.58l.32,1.76h.09a3.83,3.83,0,0,1,1.55-1.46,4.79,4.79,0,0,1,2.25-.53c2,0,3.32.73,3.93,2.18h.1a4.11,4.11,0,0,1,1.66-1.59,5.2,5.2,0,0,1,2.49-.59,4.33,4.33,0,0,1,3.26,1.12,5,5,0,0,1,1.08,3.58v8.38Z"/><path class="cls-7" d="M544.21,717.55a5.94,5.94,0,0,1-4.5-1.73,6.75,6.75,0,0,1-1.64-4.82,7.44,7.44,0,0,1,1.53-4.93,5.08,5.08,0,0,1,4.1-1.83,4.83,4.83,0,0,1,3.82,1.59,6.07,6.07,0,0,1,1.41,4.19v1.23h-8.85a5,5,0,0,0,1.15,3.43,4,4,0,0,0,3,1.17,10.48,10.48,0,0,0,4.1-.86v1.73a10.28,10.28,0,0,1-2,.64A10.86,10.86,0,0,1,544.21,717.55Zm-.53-11.68a3.2,3.2,0,0,0-2.47,1,4.66,4.66,0,0,0-1.08,2.79h6.71a4.25,4.25,0,0,0-.82-2.82A2.87,2.87,0,0,0,543.68,705.87Z"/><path class="cls-7" d="M552.21,716.08a1.78,1.78,0,0,1,.35-1.19,1.3,1.3,0,0,1,1-.41,1.39,1.39,0,0,1,1.06.41,1.68,1.68,0,0,1,.38,1.19,1.65,1.65,0,0,1-.39,1.17,1.53,1.53,0,0,1-2,0A1.61,1.61,0,0,1,552.21,716.08Z"/><path class="cls-1" d="M1.77,258H5v6.48h6.75V258H15v15.46H11.76V267H5v6.48H1.77Z"/><path class="cls-1" d="M20.13,258H31.22v2.52H23.37v4h7V267h-7v4h7.85v2.5H20.13Z"/><path class="cls-1" d="M41.3,258h3.55l5.88,15.46H47.37l-1.46-3.72H40.22l-1.44,3.72H35.4Zm4.13,9.24L43.05,261l-2.35,6.22Z"/><path class="cls-1" d="M55.39,258h6.48c2.36,0,4.13.61,5.28,1.84s1.73,3.21,1.73,6-.58,4.56-1.73,5.8-2.92,1.86-5.28,1.86H55.39Zm6,13a5.36,5.36,0,0,0,2.35-.43A2.87,2.87,0,0,0,65.12,269a8.57,8.57,0,0,0,.47-3.17,9.31,9.31,0,0,0-.42-3.17,2.63,2.63,0,0,0-1.31-1.52,5.84,5.84,0,0,0-2.45-.42H58.63V271Z"/><path class="cls-1" d="M73.53,258h3.24v15.46H73.53Z"/><path class="cls-1" d="M81.91,258h2.8L92,268.3V258h3.24v15.46h-2.8l-7.32-10.3v10.3H81.91Z"/><path class="cls-1" d="M102,271.67a7.66,7.66,0,0,1-2-5.68,8.4,8.4,0,0,1,2.08-6.06,7.93,7.93,0,0,1,6-2.17,15.34,15.34,0,0,1,4.66.65v2.78a13,13,0,0,0-4.42-.67,5,5,0,0,0-3.89,1.33,6.16,6.16,0,0,0-1.17,4.14q0,5,4.68,5a8.89,8.89,0,0,0,3-.48v-3.6h-3.6v-2.06h6.34v7.56a8.21,8.21,0,0,1-2.35.94,13.65,13.65,0,0,1-3.41.38A8,8,0,0,1,102,271.67Z"/><path class="cls-1" d="M128.83,265.68h9.26v2.52h-9.26Z"/><path class="cls-1" d="M153.31,265.8q0-4.17,1.86-6.11t5.65-1.93q3.8,0,5.65,1.93t1.86,6.11q0,7.89-7.51,7.9T153.31,265.8Zm10.7,3.88a6.06,6.06,0,0,0,1-3.88,6.37,6.37,0,0,0-1-4.07,4.88,4.88,0,0,0-6.43,0,6.44,6.44,0,0,0-1,4.07,6.05,6.05,0,0,0,1,3.88,4.67,4.67,0,0,0,6.38,0Z"/><path class="cls-1" d="M173,258h7.24a5.11,5.11,0,0,1,4,1.46,5.5,5.5,0,0,1,1.35,3.87,5.63,5.63,0,0,1-.66,2.76A4.58,4.58,0,0,1,183,268a5.88,5.88,0,0,1-2.85.66h-3.91v4.85H173Zm6.48,8a2.81,2.81,0,0,0,2.08-.72,2.68,2.68,0,0,0,.72-2,2.85,2.85,0,0,0-.67-2.05,2.63,2.63,0,0,0-2-.71h-3.35V266Z"/><path class="cls-1" d="M189.74,258h11.09v2.52H193v4h7V267h-7v4h7.85v2.5H189.74Z"/><path class="cls-1" d="M205.48,258h2.81l7.32,10.3V258h3.24v15.46H216l-7.32-10.3v10.3h-3.24Z"/><path class="cls-1" d="M234.83,272.86V270a14.48,14.48,0,0,0,2.31.7,11.54,11.54,0,0,0,2.37.26,6.5,6.5,0,0,0,2.53-.34,1.36,1.36,0,0,0,.74-1.39,1.7,1.7,0,0,0-.34-1.1,2.65,2.65,0,0,0-1.1-.71c-.52-.2-1.32-.45-2.4-.76a7.44,7.44,0,0,1-3.41-1.68,3.8,3.8,0,0,1-1-2.78,3.85,3.85,0,0,1,1.56-3.29,7.57,7.57,0,0,1,4.54-1.15,17.43,17.43,0,0,1,2.56.18,10.33,10.33,0,0,1,2,.47v2.85a11.68,11.68,0,0,0-4.11-.74,6.2,6.2,0,0,0-2.43.36,1.32,1.32,0,0,0-.81,1.32,1.45,1.45,0,0,0,.3,1,2.55,2.55,0,0,0,1,.64,22.56,22.56,0,0,0,2.2.66,7.73,7.73,0,0,1,3.72,1.86,4.21,4.21,0,0,1,1,2.91,3.87,3.87,0,0,1-1.59,3.28,7.72,7.72,0,0,1-4.68,1.19A12.49,12.49,0,0,1,234.83,272.86Z"/><path class="cls-1" d="M255.09,258h3.55l5.88,15.46h-3.36l-1.46-3.72H254l-1.44,3.72h-3.39Zm4.13,9.24L256.84,261l-2.35,6.22Z"/><path class="cls-1" d="M269.18,258H272l7.32,10.3V258h3.24v15.46h-2.8l-7.32-10.3v10.3h-3.24Z"/><path class="cls-1" d="M287.49,272.86V270a14.68,14.68,0,0,0,2.3.7,11.71,11.71,0,0,0,2.38.26,6.54,6.54,0,0,0,2.53-.34,1.36,1.36,0,0,0,.73-1.39,1.7,1.7,0,0,0-.33-1.1,2.76,2.76,0,0,0-1.11-.71c-.51-.2-1.31-.45-2.4-.76a7.54,7.54,0,0,1-3.41-1.68,4.33,4.33,0,0,1,.58-6.07,7.55,7.55,0,0,1,4.54-1.15,17.4,17.4,0,0,1,2.55.18,10,10,0,0,1,2,.47v2.85a11.63,11.63,0,0,0-4.1-.74,6.29,6.29,0,0,0-2.44.36,1.32,1.32,0,0,0-.8,1.32,1.45,1.45,0,0,0,.3,1,2.48,2.48,0,0,0,1,.64q.7.27,2.19.66a7.73,7.73,0,0,1,3.72,1.86,4.16,4.16,0,0,1,1,2.91,3.86,3.86,0,0,1-1.58,3.28,7.76,7.76,0,0,1-4.68,1.19A12.46,12.46,0,0,1,287.49,272.86Z"/><path class="cls-1" d="M314.44,258h11.09v2.52h-7.85v4h7V267h-7v4h7.85v2.5H314.44Z"/><path class="cls-1" d="M334.7,265.7l-5.45-7.7h3.81l3.58,5.16,3.58-5.16H344l-5.45,7.7,5.6,7.76h-3.87l-3.67-5.16L333,273.46H329.1Z"/><path class="cls-1" d="M352.62,260.5h-4.75V258h12.72v2.5h-4.73v13h-3.24Z"/><path class="cls-1" d="M364.77,258h7.41a5.09,5.09,0,0,1,3.88,1.37,5.32,5.32,0,0,1,1.28,3.81,4.33,4.33,0,0,1-3.07,4.32,3.26,3.26,0,0,1,.59.66,6.32,6.32,0,0,1,.49,1l1.87,4.32h-3.36L372,269.3a1.33,1.33,0,0,0-1.49-1H368v5.12h-3.24Zm6.57,7.66a3.06,3.06,0,0,0,2-.59,2.35,2.35,0,0,0,.7-1.89,2.51,2.51,0,0,0-.63-1.89,2.63,2.63,0,0,0-1.89-.6H368v5Z"/><path class="cls-1" d="M386.34,258h3.56l5.88,15.46h-3.36L391,269.74h-5.69l-1.44,3.72h-3.38Zm4.13,9.24L388.1,261l-2.36,6.22Z"/><path class="cls-1" d="M400.43,258h7.83a4.89,4.89,0,0,1,3.45,1.08,4,4,0,0,1,1.15,3.1,4.22,4.22,0,0,1-.46,2.05,3.3,3.3,0,0,1-1.31,1.31,3.31,3.31,0,0,1,1.75,1.16,3.68,3.68,0,0,1,.6,2.24,4.33,4.33,0,0,1-1.26,3.38,5.24,5.24,0,0,1-3.64,1.14h-8.11Zm7.23,6.41c1.45,0,2.18-.66,2.18-2a2,2,0,0,0-.54-1.55,2.79,2.79,0,0,0-1.88-.49h-3.75v4Zm.12,6.67a2.61,2.61,0,0,0,1.81-.52,2.32,2.32,0,0,0,.56-1.76,1.89,1.89,0,0,0-.59-1.55,3.13,3.13,0,0,0-2-.49h-3.89v4.32Z"/><path class="cls-1" d="M417,265.8q0-4.17,1.86-6.11t5.65-1.93q3.8,0,5.65,1.93T432,265.8q0,7.89-7.51,7.9T417,265.8Zm10.7,3.88a6.06,6.06,0,0,0,1-3.88,6.37,6.37,0,0,0-1-4.07,4.88,4.88,0,0,0-6.43,0,6.44,6.44,0,0,0-1,4.07,6.05,6.05,0,0,0,1,3.88,4.67,4.67,0,0,0,6.38,0Z"/><path class="cls-1" d="M436.7,258h3.24v13h7.6v2.5H436.7Z"/><path class="cls-1" d="M451.72,258h6.48q3.56,0,5.28,1.84t1.73,6c0,2.62-.58,4.56-1.73,5.8s-2.91,1.86-5.28,1.86h-6.48Zm6,13a5.36,5.36,0,0,0,2.35-.43,2.83,2.83,0,0,0,1.36-1.56,8.57,8.57,0,0,0,.47-3.17,9.31,9.31,0,0,0-.42-3.17,2.63,2.63,0,0,0-1.31-1.52,5.84,5.84,0,0,0-2.45-.42H455V271Z"/><path class="cls-7" d="M11.5,327.46l-.95-1.91h-.1a5.57,5.57,0,0,1-2,1.7,6.64,6.64,0,0,1-2.69.46,4.24,4.24,0,0,1-3.2-1.22,4.74,4.74,0,0,1-1.17-3.43,3.92,3.92,0,0,1,1.6-3.42,8.72,8.72,0,0,1,4.64-1.26l2.4-.08v-.2a1.57,1.57,0,0,0-1.76-1.78,10.53,10.53,0,0,0-4,1.07l-1.43-3.28a13.85,13.85,0,0,1,6.35-1.29,6.18,6.18,0,0,1,4.28,1.37A4.9,4.9,0,0,1,14.94,318v9.44Zm-3.68-3.25a2.2,2.2,0,0,0,1.54-.58,1.87,1.87,0,0,0,.64-1.48V321l-1.14.05c-1.63.06-2.45.66-2.45,1.81Q6.41,324.21,7.82,324.21Z"/><path class="cls-7" d="M29.7,312.82a4.31,4.31,0,0,1,3.73,2,9.33,9.33,0,0,1,1.38,5.44,9.48,9.48,0,0,1-1.39,5.49,4.46,4.46,0,0,1-3.87,2,5.53,5.53,0,0,1-1.42-.17,4,4,0,0,1-1.11-.48,5.63,5.63,0,0,1-1.14-1h-.3l-.79,1.41H20.92V307.7h5v4.47q0,.79-.18,2.76h.18a4.51,4.51,0,0,1,1.67-1.62A4.57,4.57,0,0,1,29.7,312.82Zm-1.81,3.9a1.71,1.71,0,0,0-1.53.72,4.19,4.19,0,0,0-.48,2.27v.7a5,5,0,0,0,.48,2.53,1.71,1.71,0,0,0,1.58.77,1.46,1.46,0,0,0,1.34-.89,5.77,5.77,0,0,0,.47-2.64C29.75,317.87,29.13,316.72,27.89,316.72Z"/><path class="cls-7" d="M46.79,327.71a7,7,0,0,1-5.35-1.9,7.61,7.61,0,0,1-1.83-5.48,6.86,6.86,0,0,1,7.57-7.51,10.44,10.44,0,0,1,4.71,1.09l-1.46,3.67a17,17,0,0,0-1.66-.63,5.27,5.27,0,0,0-1.59-.23,2.15,2.15,0,0,0-1.87.94,4.55,4.55,0,0,0-.66,2.65q0,3.45,2.56,3.45a7.71,7.71,0,0,0,4.19-1.27v3.95A8.15,8.15,0,0,1,46.79,327.71Z"/><path class="cls-7" d="M61.32,327.71a4.25,4.25,0,0,1-2.68-.88,5.52,5.52,0,0,1-1.78-2.57,11.46,11.46,0,0,1-.63-4,9.32,9.32,0,0,1,1.41-5.48,4.5,4.5,0,0,1,3.87-2,4.44,4.44,0,0,1,2.11.48,4.58,4.58,0,0,1,1.66,1.63h.1a24.12,24.12,0,0,1-.24-3.38V307.7h5v19.76H66.4l-1.07-1.82h-.19A4.2,4.2,0,0,1,61.32,327.71Zm2-3.92A1.84,1.84,0,0,0,65,323a4.42,4.42,0,0,0,.53-2.31v-.4a5,5,0,0,0-.55-2.71,1.92,1.92,0,0,0-1.71-.8,1.67,1.67,0,0,0-1.52.92,5.22,5.22,0,0,0-.54,2.62,4.88,4.88,0,0,0,.55,2.55A1.72,1.72,0,0,0,63.35,323.79Z"/><path class="cls-7" d="M83.12,327.71a7.72,7.72,0,0,1-5.58-1.91,7.17,7.17,0,0,1-2-5.44,7.82,7.82,0,0,1,1.84-5.59,6.89,6.89,0,0,1,5.26-1.95,7,7,0,0,1,5,1.69,6.45,6.45,0,0,1,1.77,4.88v2.21H80.56a2.48,2.48,0,0,0,.89,1.9,3.48,3.48,0,0,0,2.26.68,10.68,10.68,0,0,0,2.41-.25,11.59,11.59,0,0,0,2.38-.84v3.57a8.92,8.92,0,0,1-2.41.82A16.91,16.91,0,0,1,83.12,327.71Zm-.3-11.51a2,2,0,0,0-1.46.55,2.52,2.52,0,0,0-.69,1.73h4.26a2.46,2.46,0,0,0-.59-1.66A1.93,1.93,0,0,0,82.82,316.2Z"/><path class="cls-7" d="M103.63,316.79h-3.06v10.67h-5V316.79H93.7v-2.44l2-1.21v-.25a5.85,5.85,0,0,1,1.16-4.08,4.88,4.88,0,0,1,3.72-1.25,11.28,11.28,0,0,1,1.88.15,15.42,15.42,0,0,1,2,.54l-1.07,3.21a6.6,6.6,0,0,0-1.79-.25.94.94,0,0,0-.83.35,1.94,1.94,0,0,0-.26,1.13v.38h3.06Z"/><path class="cls-7" d="M121.76,313.07v2.4l-2,.73a3.48,3.48,0,0,1,.4,1.71,4.3,4.3,0,0,1-1.63,3.6,7.74,7.74,0,0,1-4.87,1.29,7,7,0,0,1-1.27-.1,1.38,1.38,0,0,0-.17.62c0,.24.2.43.59.56a5.14,5.14,0,0,0,1.56.2h2.39q4.84,0,4.84,4.07a4.61,4.61,0,0,1-2.24,4.09,11.44,11.44,0,0,1-6.29,1.46,9.07,9.07,0,0,1-4.72-1,3.27,3.27,0,0,1-1.66-2.94c0-1.72,1.07-2.82,3.2-3.32a2.93,2.93,0,0,1-1.15-.91,2,2,0,0,1-.48-1.23,2,2,0,0,1,.36-1.19,5.51,5.51,0,0,1,1.54-1.22,3.89,3.89,0,0,1-1.76-1.55,4.82,4.82,0,0,1-.64-2.56,4.43,4.43,0,0,1,1.6-3.65,7.13,7.13,0,0,1,4.57-1.29c.26,0,.72,0,1.36.09s1.12.11,1.42.16Zm-10.85,16.18a1.12,1.12,0,0,0,.66,1,3.58,3.58,0,0,0,1.77.37,7.71,7.71,0,0,0,2.89-.45c.72-.3,1.08-.68,1.08-1.16a.83.83,0,0,0-.66-.8,5.78,5.78,0,0,0-1.89-.24h-1.94a2.31,2.31,0,0,0-1.35.38A1.09,1.09,0,0,0,110.91,329.25Zm1.57-11.47c0,1.47.51,2.21,1.53,2.21a1.27,1.27,0,0,0,1.1-.54,2.84,2.84,0,0,0,.39-1.64c0-1.49-.5-2.24-1.49-2.24S112.48,316.31,112.48,317.78Z"/><path class="cls-7" d="M135.59,327.46v-7.85c0-1.93-.57-2.89-1.71-2.89a1.93,1.93,0,0,0-1.8,1,7.35,7.35,0,0,0-.58,3.39v6.33h-5V307.7h5v2.81c0,1.27-.06,2.71-.2,4.34h.23a3.94,3.94,0,0,1,1.69-1.57,5.23,5.23,0,0,1,2.27-.46,4.94,4.94,0,0,1,3.75,1.39,5.39,5.39,0,0,1,1.34,3.89v9.36Z"/><path class="cls-7" d="M146.46,309.49a2.07,2.07,0,0,1,.62-1.66,3.92,3.92,0,0,1,4,0,2.09,2.09,0,0,1,.64,1.65c0,1.46-.89,2.19-2.66,2.19S146.46,311,146.46,309.49Zm5.09,18h-5V313.07h5Z"/><path class="cls-7" d="M157.24,333.7a12.67,12.67,0,0,1-1.4-.09,9.11,9.11,0,0,1-1.26-.23v-3.87a5.35,5.35,0,0,0,1.52.23c1,0,1.51-.72,1.51-2.16V313.07h5v15.55a5,5,0,0,1-1.39,3.73A5.45,5.45,0,0,1,157.24,333.7Zm.24-24.21a2.08,2.08,0,0,1,.63-1.66,3.92,3.92,0,0,1,4,0,2.09,2.09,0,0,1,.64,1.65c0,1.46-.89,2.19-2.66,2.19S157.48,311,157.48,309.49Z"/><path class="cls-7" d="M173.45,319.37a27.08,27.08,0,0,1,1.54-2.24l3.22-4.06h5.54l-5,6.12,5.31,8.27h-5.68l-3.15-5.16-1.61,1.23v3.93h-5V307.7h5v7.77a26.33,26.33,0,0,1-.28,3.9Z"/><path class="cls-7" d="M193.34,327.46h-5V307.7h5Z"/><path class="cls-7" d="M217,327.46v-7.82a4.61,4.61,0,0,0-.4-2.19,1.32,1.32,0,0,0-1.26-.73,1.76,1.76,0,0,0-1.67,1,6.58,6.58,0,0,0-.54,3.06v6.71h-5v-7.82a4.76,4.76,0,0,0-.39-2.19,1.28,1.28,0,0,0-1.23-.73,1.77,1.77,0,0,0-1.7,1,8,8,0,0,0-.53,3.4v6.3h-5V313.07h3.75l.62,1.78H204a3.75,3.75,0,0,1,1.66-1.51,5.6,5.6,0,0,1,2.47-.52q3.11,0,4.37,1.89h.39a4.05,4.05,0,0,1,1.7-1.39,5.68,5.68,0,0,1,2.39-.5,4.89,4.89,0,0,1,3.77,1.31,5.65,5.65,0,0,1,1.22,4v9.36Z"/><path class="cls-7" d="M11.19,357.46v-7.85a4.4,4.4,0,0,0-.41-2.16,1.4,1.4,0,0,0-1.32-.73,1.92,1.92,0,0,0-1.82,1,7.62,7.62,0,0,0-.56,3.44v6.3h-5V343.07H5.86l.62,1.78h.3a3.93,3.93,0,0,1,1.75-1.52,6.24,6.24,0,0,1,2.59-.51,4.9,4.9,0,0,1,3.71,1.38,5.38,5.38,0,0,1,1.33,3.9v9.36Z"/><path class="cls-7" d="M35.87,350.23a7.62,7.62,0,0,1-1.9,5.51,7,7,0,0,1-5.31,2,6.87,6.87,0,0,1-5.21-2,8.72,8.72,0,0,1,0-10.92,7.1,7.1,0,0,1,5.33-1.95,7.58,7.58,0,0,1,3.74.9A6.13,6.13,0,0,1,35,346.3,8.31,8.31,0,0,1,35.87,350.23Zm-9.32,0a6.4,6.4,0,0,0,.5,2.83,1.73,1.73,0,0,0,1.66,1,1.67,1.67,0,0,0,1.63-1,6.59,6.59,0,0,0,.48-2.83,6.31,6.31,0,0,0-.48-2.78,1.73,1.73,0,0,0-1.65-.94,1.7,1.7,0,0,0-1.64.94A6.1,6.1,0,0,0,26.55,350.23Z"/><path class="cls-7" d="M49.94,357.71a5.07,5.07,0,0,1-2-.36,4.92,4.92,0,0,1-1.71-1.3H46a18.81,18.81,0,0,1,.23,1.88v5.77h-5V343.07h4l.7,1.83h.23a4.33,4.33,0,0,1,3.82-2.08,4.29,4.29,0,0,1,3.74,2,11.44,11.44,0,0,1,0,10.91A4.49,4.49,0,0,1,49.94,357.71Zm-1.67-11a1.6,1.6,0,0,0-1.53.78,5.06,5.06,0,0,0-.47,2.31v.4a5.49,5.49,0,0,0,.49,2.68,1.68,1.68,0,0,0,1.56.82,1.45,1.45,0,0,0,1.39-.82,6.31,6.31,0,0,0,.43-2.71,6.14,6.14,0,0,0-.43-2.66A1.5,1.5,0,0,0,48.27,346.72Z"/><path class="cls-7" d="M65.15,357.71a4.37,4.37,0,0,1-3.78-2A9.49,9.49,0,0,1,60,350.28a9.39,9.39,0,0,1,1.4-5.48,4.45,4.45,0,0,1,3.83-2,4.37,4.37,0,0,1,3.92,2h.1l.37-1.78h4.29V363.7H69v-5.95c0-.29,0-1,.15-2.11H69A4.1,4.1,0,0,1,65.15,357.71Zm2-3.85a1.93,1.93,0,0,0,1.65-.69,4.16,4.16,0,0,0,.51-2.37v-.59a5.31,5.31,0,0,0-.52-2.73,1.88,1.88,0,0,0-1.71-.81c-1.37,0-2.06,1.23-2.06,3.69a5.17,5.17,0,0,0,.52,2.69A1.78,1.78,0,0,0,67.17,353.86Z"/><path class="cls-7" d="M88.63,342.82a7,7,0,0,1,1.23.1l.28.05-.45,4.69A6.78,6.78,0,0,0,88,347.5a3.2,3.2,0,0,0-2.36.75,2.88,2.88,0,0,0-.73,2.13v7.08h-5V343.07h3.7l.77,2.3h.24a5,5,0,0,1,1.73-1.85A4.17,4.17,0,0,1,88.63,342.82Z"/><path class="cls-7" d="M105.85,353a4.09,4.09,0,0,1-1.57,3.49,7.42,7.42,0,0,1-4.52,1.18,20.19,20.19,0,0,1-2.78-.17,12.72,12.72,0,0,1-2.42-.63v-4a15.76,15.76,0,0,0,2.54.83,10.11,10.11,0,0,0,2.45.33c1.08,0,1.62-.24,1.62-.73a.83.83,0,0,0-.45-.68,19.81,19.81,0,0,0-2.63-1.16,6.46,6.46,0,0,1-2.76-1.85,4.17,4.17,0,0,1-.79-2.62,3.62,3.62,0,0,1,1.55-3.12,7.35,7.35,0,0,1,4.38-1.12,10.86,10.86,0,0,1,2.67.31,16.2,16.2,0,0,1,2.6.91l-1.35,3.2a15.21,15.21,0,0,0-2.09-.76,6.89,6.89,0,0,0-1.81-.31c-.81,0-1.22.2-1.22.6a.77.77,0,0,0,.43.63,24.56,24.56,0,0,0,2.46,1.06,9.79,9.79,0,0,1,2.25,1.21,3.69,3.69,0,0,1,1.09,1.41A4.94,4.94,0,0,1,105.85,353Z"/><path class="cls-7" d="M118.25,353.79a7.4,7.4,0,0,0,2.4-.5v3.62a10.07,10.07,0,0,1-1.91.62,11,11,0,0,1-2.13.18,4.66,4.66,0,0,1-3.6-1.22,5.49,5.49,0,0,1-1.11-3.77v-5.93h-1.74v-2l2.21-1.56,1.29-3h3.25v2.88h3.53v3.72h-3.53v5.6C116.91,353.32,117.35,353.79,118.25,353.79Z"/><path class="cls-7" d="M136,357.46l-.62-1.79h-.29a4.07,4.07,0,0,1-1.74,1.51,6,6,0,0,1-2.61.53,4.86,4.86,0,0,1-3.69-1.38,5.39,5.39,0,0,1-1.32-3.89v-9.37h5v7.86a4.58,4.58,0,0,0,.4,2.13,1.39,1.39,0,0,0,1.32.73,1.93,1.93,0,0,0,1.83-1,7.78,7.78,0,0,0,.54-3.41v-6.3h5v14.39Z"/><path class="cls-7" d="M149.55,357.46l-5.48-14.39h5.18l2.44,8.51a1,1,0,0,0,.05.21c0,.11,0,.23.07.37s.05.28.07.44a3.49,3.49,0,0,1,0,.44H152a5.24,5.24,0,0,1,.23-1.44l2.55-8.53H160l-5.48,14.39Z"/><path class="cls-7" d="M176.64,357.46,175,350.6l-.38-2.07-.26-1.66h-.07c-.42,2.37-.7,3.86-.84,4.48L172,357.46h-5.22l-3.92-14.39h4.89l1.16,5.52a32.91,32.91,0,0,1,.65,4.73h.08a32.55,32.55,0,0,1,.7-4.45l1.33-5.8h5.48l1.22,5.88a43.51,43.51,0,0,1,.74,4.37h.07c.05-.65.14-1.45.26-2.41a22.47,22.47,0,0,1,.39-2.32l1.27-5.52h4.79l-4,14.39Z"/><path class="cls-7" d="M193.58,350.12l-4.4-7.05h5.64l2.18,4,2.24-4h5.65l-4.51,7.05,4.68,7.34h-5.63L197,353.09l-2.41,4.37h-5.65Z"/><path class="cls-7" d="M207.77,343.07H213l2.43,8.25a8.76,8.76,0,0,1,.25,1.57h.1a8.41,8.41,0,0,1,.3-1.54l2.5-8.28h5.07L218,358.37a9.05,9.05,0,0,1-2.68,4.13,6.75,6.75,0,0,1-4.16,1.2,10.22,10.22,0,0,1-2-.21v-3.9a7.08,7.08,0,0,0,1.53.15,2.51,2.51,0,0,0,1.16-.25,2.57,2.57,0,0,0,.86-.72,6.07,6.07,0,0,0,.79-1.52Z"/><path class="cls-7" d="M238.78,357.46H226.87v-2.84l5.95-7.75h-5.61v-3.8H238.5v3.07l-5.7,7.52h6Z"/><path class="cls-1" d="M1.77,581H9.6a4.89,4.89,0,0,1,3.45,1.08,4,4,0,0,1,1.15,3.1,4.22,4.22,0,0,1-.46,2.05,3.3,3.3,0,0,1-1.31,1.31,3.31,3.31,0,0,1,1.75,1.16,3.68,3.68,0,0,1,.6,2.24,4.33,4.33,0,0,1-1.26,3.38,5.24,5.24,0,0,1-3.64,1.14H1.77ZM9,587.41c1.45,0,2.18-.66,2.18-2a2,2,0,0,0-.54-1.55,2.79,2.79,0,0,0-1.88-.49H5v4Zm.12,6.67a2.61,2.61,0,0,0,1.81-.52,2.32,2.32,0,0,0,.56-1.76,1.89,1.89,0,0,0-.59-1.55,3.13,3.13,0,0,0-2-.49H5v4.32Z"/><path class="cls-1" d="M18.36,588.8q0-4.17,1.86-6.11t5.65-1.93q3.79,0,5.65,1.93t1.86,6.11q0,7.89-7.51,7.9T18.36,588.8Zm10.7,3.88a6.06,6.06,0,0,0,1-3.88,6.37,6.37,0,0,0-1-4.07,3.93,3.93,0,0,0-3.21-1.21,4,4,0,0,0-3.22,1.21,6.44,6.44,0,0,0-1,4.07,6.05,6.05,0,0,0,1,3.88,3.87,3.87,0,0,0,3.19,1.26A3.88,3.88,0,0,0,29.06,592.68Z"/><path class="cls-1" d="M38,581h6.48q3.54,0,5.27,1.84c1.16,1.22,1.73,3.21,1.73,6s-.57,4.56-1.73,5.8-2.91,1.86-5.27,1.86H38Zm6,13a5.39,5.39,0,0,0,2.35-.43A2.87,2.87,0,0,0,47.77,592a8.6,8.6,0,0,0,.46-3.17,9.31,9.31,0,0,0-.42-3.17,2.62,2.62,0,0,0-1.3-1.52,5.84,5.84,0,0,0-2.45-.42H41.27V594Z"/><path class="cls-1" d="M59.44,590.74,53.9,581h3.38l3.79,7,3.8-7h3.36l-5.55,9.74v5.72H59.44Z"/><path class="cls-1" d="M83.44,588.68h9.27v2.52H83.44Z"/><path class="cls-1" d="M107.92,588.8q0-4.17,1.86-6.11c1.24-1.29,3.13-1.93,5.65-1.93s4.42.64,5.66,1.93S123,586,123,588.8q0,7.89-7.52,7.9T107.92,588.8Zm10.71,3.88a6.12,6.12,0,0,0,1-3.88,6.44,6.44,0,0,0-1-4.07,4.88,4.88,0,0,0-6.43,0,6.44,6.44,0,0,0-1,4.07,6.06,6.06,0,0,0,1,3.88,4.68,4.68,0,0,0,6.39,0Z"/><path class="cls-1" d="M127.6,581h7.25a5.14,5.14,0,0,1,4,1.46,5.49,5.49,0,0,1,1.34,3.87,5.63,5.63,0,0,1-.66,2.76,4.55,4.55,0,0,1-1.88,1.86,6,6,0,0,1-2.86.66h-3.91v4.85H127.6Zm6.48,8a2.84,2.84,0,0,0,2.09-.72,2.68,2.68,0,0,0,.72-2,2.85,2.85,0,0,0-.67-2.05,2.63,2.63,0,0,0-2-.71h-3.36V589Z"/><path class="cls-1" d="M144.35,581h11.09v2.52h-7.85v4h7V590h-7v4h7.85v2.5H144.35Z"/><path class="cls-1" d="M160.1,581h2.81l7.32,10.3V581h3.24v15.46h-2.81l-7.32-10.3v10.3H160.1Z"/><path class="cls-1" d="M189.45,595.86V593a14.68,14.68,0,0,0,2.3.7,11.71,11.71,0,0,0,2.38.26,6.54,6.54,0,0,0,2.53-.34,1.36,1.36,0,0,0,.73-1.39,1.7,1.7,0,0,0-.33-1.1,2.76,2.76,0,0,0-1.11-.71c-.51-.2-1.31-.45-2.4-.76a7.44,7.44,0,0,1-3.4-1.68,3.8,3.8,0,0,1-1-2.78,3.85,3.85,0,0,1,1.56-3.29,7.55,7.55,0,0,1,4.54-1.15,17.4,17.4,0,0,1,2.55.18,10,10,0,0,1,2,.47v2.85a11.63,11.63,0,0,0-4.1-.74,6.29,6.29,0,0,0-2.44.36,1.32,1.32,0,0,0-.8,1.32,1.45,1.45,0,0,0,.3,1,2.48,2.48,0,0,0,1,.64q.7.27,2.19.66a7.73,7.73,0,0,1,3.72,1.86,4.17,4.17,0,0,1,1,2.91,3.87,3.87,0,0,1-1.59,3.28,7.76,7.76,0,0,1-4.68,1.19A12.46,12.46,0,0,1,189.45,595.86Z"/><path class="cls-1" d="M209.7,581h3.56l5.88,15.46h-3.36l-1.47-3.72h-5.69l-1.44,3.72H203.8Zm4.13,9.24L211.46,584l-2.36,6.22Z"/><path class="cls-1" d="M223.79,581h2.81l7.32,10.3V581h3.24v15.46h-2.81L227,586.16v10.3h-3.24Z"/><path class="cls-1" d="M242.1,595.86V593a14.48,14.48,0,0,0,2.31.7,11.61,11.61,0,0,0,2.37.26,6.6,6.6,0,0,0,2.54-.34,1.37,1.37,0,0,0,.73-1.39,1.65,1.65,0,0,0-.34-1.1,2.65,2.65,0,0,0-1.1-.71c-.51-.2-1.31-.45-2.4-.76A7.49,7.49,0,0,1,242.8,588a3.79,3.79,0,0,1-1-2.78,3.85,3.85,0,0,1,1.56-3.29,7.54,7.54,0,0,1,4.53-1.15,17.43,17.43,0,0,1,2.56.18,10,10,0,0,1,2,.47v2.85a11.64,11.64,0,0,0-4.11-.74,6.24,6.24,0,0,0-2.43.36,1.32,1.32,0,0,0-.81,1.32,1.45,1.45,0,0,0,.3,1,2.55,2.55,0,0,0,1,.64c.47.18,1.21.4,2.2.66a7.73,7.73,0,0,1,3.72,1.86,4.16,4.16,0,0,1,1,2.91,3.89,3.89,0,0,1-1.58,3.28,7.76,7.76,0,0,1-4.68,1.19A12.51,12.51,0,0,1,242.1,595.86Z"/><path class="cls-1" d="M269.06,581h7.41a5.09,5.09,0,0,1,3.88,1.37,5.37,5.37,0,0,1,1.28,3.81,4.55,4.55,0,0,1-.8,2.69,4.46,4.46,0,0,1-2.27,1.63,3.26,3.26,0,0,1,.59.66,7.36,7.36,0,0,1,.49,1l1.87,4.32h-3.36l-1.82-4.16a1.33,1.33,0,0,0-1.49-1H272.3v5.12h-3.24Zm6.57,7.66a3.08,3.08,0,0,0,2-.59,2.35,2.35,0,0,0,.69-1.89,2.5,2.5,0,0,0-.62-1.89,2.66,2.66,0,0,0-1.9-.6H272.3v5Z"/><path class="cls-1" d="M286.29,581h11.09v2.52h-7.85v4h7V590h-7v4h7.85v2.5H286.29Z"/><path class="cls-1" d="M303.59,594.67a7.66,7.66,0,0,1-2-5.68,8.4,8.4,0,0,1,2.08-6.06,7.93,7.93,0,0,1,6-2.17,15.29,15.29,0,0,1,4.66.65v2.78a13,13,0,0,0-4.42-.67,4.94,4.94,0,0,0-3.88,1.33,6.11,6.11,0,0,0-1.18,4.14q0,5,4.68,5a9,9,0,0,0,3-.48v-3.6h-3.6v-2.06h6.33v7.56a8.21,8.21,0,0,1-2.35.94,13.65,13.65,0,0,1-3.41.38A8,8,0,0,1,303.59,594.67Z"/><path class="cls-1" d="M321.6,595.14a5.58,5.58,0,0,1-1.83-4.49V581H323v9.41a3.41,3.41,0,0,0,.95,2.64,3.84,3.84,0,0,0,2.72.89,3.8,3.8,0,0,0,2.71-.89,3.45,3.45,0,0,0,.94-2.64V581h3.24v9.65a5.56,5.56,0,0,1-1.83,4.47,7.48,7.48,0,0,1-5.06,1.58A7.62,7.62,0,0,1,321.6,595.14Z"/><path class="cls-1" d="M338.58,581h3.24v13h7.61v2.5H338.58Z"/><path class="cls-1" d="M358.67,581h3.55l5.88,15.46h-3.36l-1.46-3.72h-5.69l-1.44,3.72h-3.38Zm4.13,9.24L360.42,584l-2.35,6.22Z"/><path class="cls-1" d="M372.76,581h7.42a5.08,5.08,0,0,1,3.87,1.37,5.32,5.32,0,0,1,1.28,3.81,4.33,4.33,0,0,1-3.07,4.32,3.26,3.26,0,0,1,.59.66,6.32,6.32,0,0,1,.49,1l1.88,4.32h-3.37L380,592.3a1.71,1.71,0,0,0-.54-.75,1.67,1.67,0,0,0-.95-.21H376v5.12h-3.24Zm6.57,7.66a3.06,3.06,0,0,0,2-.59,2.35,2.35,0,0,0,.7-1.89,2.51,2.51,0,0,0-.63-1.89,2.61,2.61,0,0,0-1.89-.6H376v5Z"/><path class="cls-7" d="M10.36,635.46,10,633.63h-.1A5.42,5.42,0,0,1,8,635.26a5.77,5.77,0,0,1-2.39.43,4.31,4.31,0,0,1-3-1,3.61,3.61,0,0,1-1.09-2.8q0-3.9,6.23-4.08l2.18-.07V627a3.26,3.26,0,0,0-.65-2.23A2.69,2.69,0,0,0,7.18,624a8.47,8.47,0,0,0-3.64,1L3,623.5A9.38,9.38,0,0,1,5,622.69a9.22,9.22,0,0,1,2.26-.29,4.89,4.89,0,0,1,3.41,1,4.25,4.25,0,0,1,1.11,3.27v8.77ZM6,634.08a4,4,0,0,0,2.85-1,3.7,3.7,0,0,0,1-2.79v-1.16l-1.94.08a7.21,7.21,0,0,0-3.35.72,2.19,2.19,0,0,0-1,2,2,2,0,0,0,.64,1.6A2.64,2.64,0,0,0,6,634.08Z"/><path class="cls-7" d="M24.19,622.4a4.77,4.77,0,0,1,3.93,1.73,7.54,7.54,0,0,1,1.4,4.89,7.67,7.67,0,0,1-1.41,4.92,4.75,4.75,0,0,1-3.92,1.75,5.51,5.51,0,0,1-2.29-.46,4.36,4.36,0,0,1-1.74-1.43H20l-.41,1.66h-1.4V617.22h1.95v4.43c0,1,0,1.88-.1,2.67h.1A4.61,4.61,0,0,1,24.19,622.4ZM23.91,624A3.39,3.39,0,0,0,21,625.17a8.84,8.84,0,0,0,0,7.73,3.46,3.46,0,0,0,2.9,1.16,3,3,0,0,0,2.67-1.31,6.75,6.75,0,0,0,.88-3.75,6.51,6.51,0,0,0-.88-3.74A3.12,3.12,0,0,0,23.91,624Z"/><path class="cls-7" d="M40.45,635.69A5.47,5.47,0,0,1,36.13,634a7.08,7.08,0,0,1-1.52-4.85,7.25,7.25,0,0,1,1.55-5,5.56,5.56,0,0,1,4.42-1.76,8.25,8.25,0,0,1,1.85.2,6,6,0,0,1,1.46.47l-.6,1.65a9,9,0,0,0-1.41-.43,6.37,6.37,0,0,0-1.34-.17q-3.91,0-3.92,5a6,6,0,0,0,1,3.64A3.32,3.32,0,0,0,40.41,634a8.67,8.67,0,0,0,3.29-.69V635A7,7,0,0,1,40.45,635.69Z"/><path class="cls-7" d="M57.89,633.73h-.11a4.56,4.56,0,0,1-4,2A4.77,4.77,0,0,1,49.83,634a9.3,9.3,0,0,1,0-9.83,5.2,5.2,0,0,1,7.92.14h.15l-.08-.93,0-.9v-5.23h1.95v18.24H58.15Zm-3.89.33A3.55,3.55,0,0,0,56.89,633a5.55,5.55,0,0,0,.89-3.5v-.41a6.51,6.51,0,0,0-.9-3.9A3.49,3.49,0,0,0,54,624a3,3,0,0,0-2.61,1.33,6.56,6.56,0,0,0-.91,3.75,6.38,6.38,0,0,0,.9,3.72A3.06,3.06,0,0,0,54,634.06Z"/><path class="cls-7" d="M71.68,635.69A5.9,5.9,0,0,1,67.19,634a6.73,6.73,0,0,1-1.65-4.82,7.42,7.42,0,0,1,1.53-4.93,5.08,5.08,0,0,1,4.11-1.83A4.86,4.86,0,0,1,75,624a6.1,6.1,0,0,1,1.4,4.19v1.23H67.55a5.06,5.06,0,0,0,1.15,3.43,4,4,0,0,0,3,1.17,10.31,10.31,0,0,0,4.1-.87v1.74a10.28,10.28,0,0,1-1.95.64A10.86,10.86,0,0,1,71.68,635.69ZM71.15,624a3.16,3.16,0,0,0-2.46,1,4.65,4.65,0,0,0-1.09,2.79h6.72A4.3,4.3,0,0,0,73.5,625,2.88,2.88,0,0,0,71.15,624Z"/><path class="cls-7" d="M87.91,624.12H84.64v11.34h-2V624.12H80.4v-.87l2.29-.71v-.71q0-4.74,4.14-4.74a8.61,8.61,0,0,1,2.39.41l-.5,1.56a6.49,6.49,0,0,0-1.93-.36,1.85,1.85,0,0,0-1.62.73,4,4,0,0,0-.53,2.35v.83h3.27Z"/><path class="cls-7" d="M103.16,622.61v1.23l-2.38.28a4,4,0,0,1,.59,1.08,4.12,4.12,0,0,1,.26,1.49,3.79,3.79,0,0,1-1.29,3,5.21,5.21,0,0,1-3.54,1.13,5.35,5.35,0,0,1-1.08-.1,1.91,1.91,0,0,0-1.24,1.66.84.84,0,0,0,.43.78,3.3,3.3,0,0,0,1.49.25h2.27a5.09,5.09,0,0,1,3.21.88,3,3,0,0,1,1.12,2.55,3.64,3.64,0,0,1-1.71,3.25,9.13,9.13,0,0,1-5,1.12,6.8,6.8,0,0,1-3.89-.94,3,3,0,0,1-1.36-2.64,3,3,0,0,1,.75-2,3.8,3.8,0,0,1,2.1-1.16,2.08,2.08,0,0,1-.82-.69,1.88,1.88,0,0,1-.34-1.09,2.06,2.06,0,0,1,.38-1.23,3.82,3.82,0,0,1,1.18-1,3.52,3.52,0,0,1-1.62-1.4,4.05,4.05,0,0,1-.63-2.25,4.17,4.17,0,0,1,1.27-3.25,5.16,5.16,0,0,1,3.58-1.14,6.76,6.76,0,0,1,1.82.23Zm-10.24,15a1.73,1.73,0,0,0,.88,1.58,4.86,4.86,0,0,0,2.52.54A7,7,0,0,0,100,639a2.25,2.25,0,0,0,1.17-2,1.56,1.56,0,0,0-.64-1.44,5,5,0,0,0-2.43-.41H95.72a3,3,0,0,0-2.06.64A2.25,2.25,0,0,0,92.92,637.61ZM94,626.73a2.6,2.6,0,0,0,.76,2,3,3,0,0,0,2.12.7c1.9,0,2.85-.93,2.85-2.77a2.56,2.56,0,0,0-2.89-2.89,2.88,2.88,0,0,0-2.11.73A3,3,0,0,0,94,626.73Z"/><path class="cls-7" d="M117,635.46v-8.31a3.36,3.36,0,0,0-.72-2.35A2.91,2.91,0,0,0,114,624a3.67,3.67,0,0,0-3,1.1,5.6,5.6,0,0,0-.94,3.61v6.72H108.2V617.22h1.94v5.52a12.34,12.34,0,0,1-.09,1.65h.12a4.07,4.07,0,0,1,1.63-1.46,5.41,5.41,0,0,1,2.42-.53,5,5,0,0,1,3.54,1.12,4.74,4.74,0,0,1,1.17,3.56v8.38Z"/><path class="cls-7" d="M125.17,619.13a1.34,1.34,0,0,1,.32-1,1.19,1.19,0,0,1,.82-.31,1.13,1.13,0,0,1,.81.32,1.24,1.24,0,0,1,.34,1,1.27,1.27,0,0,1-.34,1,1.09,1.09,0,0,1-.81.32,1.12,1.12,0,0,1-.82-.32A1.34,1.34,0,0,1,125.17,619.13Zm2.11,16.33h-2V622.61h2Z"/><path class="cls-7" d="M132.24,641.22a4.77,4.77,0,0,1-1.8-.29v-1.58a5.93,5.93,0,0,0,1.59.23,1.64,1.64,0,0,0,1.34-.5,2.23,2.23,0,0,0,.43-1.51v-15h1.95v14.81C135.75,640,134.58,641.22,132.24,641.22Zm1.4-22.09a1.34,1.34,0,0,1,.32-1,1.19,1.19,0,0,1,.82-.31,1.13,1.13,0,0,1,.81.32,1.24,1.24,0,0,1,.34,1,1.27,1.27,0,0,1-.34,1,1.09,1.09,0,0,1-.81.32,1.12,1.12,0,0,1-.82-.32A1.34,1.34,0,0,1,133.64,619.13Z"/><path class="cls-7" d="M144.19,628.88a24.15,24.15,0,0,1,1.54-1.87l4.15-4.4h2.3l-5.2,5.47,5.57,7.38h-2.36l-4.53-6.07-1.47,1.26v4.81h-1.92V617.22h1.92v9.67c0,.43,0,1.09-.09,2Z"/><path class="cls-7" d="M159.21,635.46h-1.94V617.22h1.94Z"/><path class="cls-7" d="M182.11,635.46V627.1a3.45,3.45,0,0,0-.66-2.3,2.53,2.53,0,0,0-2-.77,3.3,3.3,0,0,0-2.68,1,5,5,0,0,0-.87,3.21v7.18h-1.94V627.1a3.45,3.45,0,0,0-.66-2.3,2.56,2.56,0,0,0-2-.77,3.19,3.19,0,0,0-2.68,1.1,6,6,0,0,0-.85,3.59v6.74h-1.94V622.61h1.58l.32,1.76h.09a3.9,3.9,0,0,1,1.55-1.46,4.67,4.67,0,0,1,2.25-.53c2,0,3.32.72,3.93,2.18h.1a4.13,4.13,0,0,1,1.66-1.6,5.2,5.2,0,0,1,2.49-.58A4.33,4.33,0,0,1,183,623.5a5,5,0,0,1,1.08,3.58v8.38Z"/><path class="cls-7" d="M11.25,661.46v-8.31a3.35,3.35,0,0,0-.71-2.35A2.94,2.94,0,0,0,8.3,650a3.67,3.67,0,0,0-3,1.09,5.49,5.49,0,0,0-.94,3.6v6.74H2.47V648.61H4.05l.31,1.76h.1a4.05,4.05,0,0,1,1.67-1.47,5.43,5.43,0,0,1,2.41-.52A4.86,4.86,0,0,1,12,649.5a4.76,4.76,0,0,1,1.17,3.58v8.38Z"/><path class="cls-7" d="M30.68,655a7.12,7.12,0,0,1-1.58,4.91,5.58,5.58,0,0,1-4.37,1.76,5.78,5.78,0,0,1-3.06-.81,5.3,5.3,0,0,1-2.06-2.32,8,8,0,0,1-.73-3.54,7.06,7.06,0,0,1,1.57-4.89,5.55,5.55,0,0,1,4.36-1.75,5.43,5.43,0,0,1,4.28,1.79A7.05,7.05,0,0,1,30.68,655Zm-9.78,0a6.14,6.14,0,0,0,1,3.75,3.42,3.42,0,0,0,2.9,1.29,3.46,3.46,0,0,0,2.9-1.28,6.09,6.09,0,0,0,1-3.76,6,6,0,0,0-1-3.72A3.48,3.48,0,0,0,24.75,650a3.44,3.44,0,0,0-2.88,1.25A6.05,6.05,0,0,0,20.9,655Z"/><path class="cls-7" d="M42.47,661.69a5.51,5.51,0,0,1-2.29-.46,4.36,4.36,0,0,1-1.74-1.43H38.3a18,18,0,0,1,.14,2.14v5.28H36.49V648.61h1.58l.27,1.76h.1a4.53,4.53,0,0,1,1.74-1.52,5.24,5.24,0,0,1,2.29-.47,4.74,4.74,0,0,1,3.94,1.74,9.31,9.31,0,0,1,0,9.82A4.75,4.75,0,0,1,42.47,661.69ZM42.19,650a3.45,3.45,0,0,0-2.85,1.09,5.55,5.55,0,0,0-.9,3.47V655a6.46,6.46,0,0,0,.9,3.88,3.45,3.45,0,0,0,2.89,1.16,3,3,0,0,0,2.61-1.35,6.34,6.34,0,0,0,.95-3.71,6.17,6.17,0,0,0-.95-3.69A3.11,3.11,0,0,0,42.19,650Z"/><path class="cls-7" d="M58.16,661.69a4.67,4.67,0,0,1-3.88-1.75,7.59,7.59,0,0,1-1.4-4.87,7.7,7.7,0,0,1,1.41-4.92,5.17,5.17,0,0,1,8,.22h.11l.28-1.76h1.53v18.61H62.24v-5.49a12.63,12.63,0,0,1,.13-2h-.16A4.58,4.58,0,0,1,58.16,661.69Zm.29-1.63a3.56,3.56,0,0,0,2.84-1,5.7,5.7,0,0,0,1-3.52v-.43a6.41,6.41,0,0,0-.92-3.88A3.41,3.41,0,0,0,58.43,650a3,3,0,0,0-2.62,1.33,6.56,6.56,0,0,0-.91,3.75,6.38,6.38,0,0,0,.9,3.7A3,3,0,0,0,58.45,660.06Z"/><path class="cls-7" d="M76.57,648.38a7.12,7.12,0,0,1,1.53.14l-.27,1.8a7.07,7.07,0,0,0-1.4-.17,3.44,3.44,0,0,0-2.67,1.26,4.64,4.64,0,0,0-1.11,3.16v6.89H70.71V648.61h1.6l.22,2.38h.1a5.6,5.6,0,0,1,1.72-1.93A3.83,3.83,0,0,1,76.57,648.38Z"/><path class="cls-7" d="M91.19,658a3.23,3.23,0,0,1-1.34,2.77,6.27,6.27,0,0,1-3.75,1,8.12,8.12,0,0,1-4-.81v-1.8a10,10,0,0,0,2,.74,8.29,8.29,0,0,0,2.05.26,4.64,4.64,0,0,0,2.34-.48,1.68,1.68,0,0,0,.17-2.77,10.64,10.64,0,0,0-2.53-1.26,13.37,13.37,0,0,1-2.55-1.16,3.48,3.48,0,0,1-1.13-1.13,3.05,3.05,0,0,1-.37-1.52,2.87,2.87,0,0,1,1.28-2.47,5.91,5.91,0,0,1,3.5-.91,10.29,10.29,0,0,1,4.06.84l-.69,1.58a9.33,9.33,0,0,0-3.51-.79,4,4,0,0,0-2.08.43,1.35,1.35,0,0,0-.71,1.2,1.41,1.41,0,0,0,.27.87,2.48,2.48,0,0,0,.85.7,21.78,21.78,0,0,0,2.25.95,8.47,8.47,0,0,1,3.09,1.67A3,3,0,0,1,91.19,658Z"/><path class="cls-7" d="M100.9,660.08a6.54,6.54,0,0,0,1-.07,5.43,5.43,0,0,0,.76-.16v1.49a3.76,3.76,0,0,1-.93.25,6.61,6.61,0,0,1-1.11.1c-2.48,0-3.73-1.31-3.73-3.93v-7.64H95.05v-.93l1.84-.81.82-2.74h1.13v3h3.72v1.51H98.84v7.56a2.56,2.56,0,0,0,.55,1.78A1.9,1.9,0,0,0,100.9,660.08Z"/><path class="cls-7" d="M109.45,648.61v8.33a3.36,3.36,0,0,0,.72,2.35,2.92,2.92,0,0,0,2.24.77,3.65,3.65,0,0,0,2.94-1.1,5.55,5.55,0,0,0,.94-3.6v-6.75h1.94v12.85h-1.61l-.28-1.73h-.1a3.87,3.87,0,0,1-1.66,1.46,5.66,5.66,0,0,1-2.42.5,4.93,4.93,0,0,1-3.51-1.11,4.75,4.75,0,0,1-1.17-3.57v-8.4Z"/><path class="cls-7" d="M127.57,661.46l-4.88-12.85h2.09l2.76,7.62a35.71,35.71,0,0,1,1.11,3.47h.09c.09-.42.36-1.27.81-2.57s1.49-4.14,3.08-8.52h2.09l-4.88,12.85Z"/><path class="cls-7" d="M149.67,661.46l-2.36-7.54c-.15-.46-.42-1.51-.83-3.14h-.09c-.32,1.37-.59,2.42-.82,3.16l-2.43,7.52h-2.25l-3.5-12.85h2q1.23,4.85,1.89,7.37a30.18,30.18,0,0,1,.74,3.41h.1c.08-.44.22-1,.41-1.72s.36-1.27.5-1.69l2.36-7.37h2.1l2.3,7.37a24,24,0,0,1,.89,3.39h.1a11.42,11.42,0,0,1,.25-1.3c.13-.59,1-3.74,2.44-9.46h2L152,661.46Z"/><path class="cls-7" d="M163.34,654.88l-4.46-6.27h2.21l3.39,4.92,3.37-4.92H170l-4.46,6.27,4.7,6.58h-2.2l-3.6-5.21-3.64,5.21h-2.2Z"/><path class="cls-7" d="M173.18,648.61h2.09l2.81,7.33a27.75,27.75,0,0,1,1.15,3.62h.09c.1-.4.32-1.08.64-2s1.39-3.93,3.18-8.9h2.09l-5.52,14.63a7.3,7.3,0,0,1-1.92,3.07,4,4,0,0,1-2.69.91,7.34,7.34,0,0,1-1.75-.2v-1.56a6.4,6.4,0,0,0,1.44.14,3,3,0,0,0,2.86-2.25l.71-1.82Z"/><path class="cls-7" d="M197.93,661.46h-9.32v-1.33l7-10h-6.57v-1.51h8.7v1.51l-6.91,9.82h7.09Z"/></g></g></svg>