<svg xmlns="http://www.w3.org/2000/svg" xmlns:xlink="http://www.w3.org/1999/xlink" viewBox="0 0 205.52 26.84"><defs><style>.cls-1{fill:#fff;}.cls-2{fill:url(#linear-gradient);}.cls-3{fill:url(#linear-gradient-2);}</style><linearGradient id="linear-gradient" x1="15.98" y1="20.1" x2="28.88" y2="20.1" gradientUnits="userSpaceOnUse"><stop offset="0" stop-color="#f2f2f2"/><stop offset="0.68" stop-color="#f4f4f4"/><stop offset="0.92" stop-color="#fbfbfb"/><stop offset="1" stop-color="#fff"/></linearGradient><linearGradient id="linear-gradient-2" x1="0" y1="13.27" x2="22.62" y2="13.27" xlink:href="#linear-gradient"/></defs><title>Asset 3</title><g id="Layer_2" data-name="Layer 2"><g id="regular_print" data-name="regular print"><path class="cls-1" d="M58.74,25.84v.74a6.47,6.47,0,0,1-1.88.26A3,3,0,0,1,54.52,26a3.35,3.35,0,0,1-.79-2.36A4,4,0,0,1,54.49,21a2.91,2.91,0,0,1,2.36-.92,5.63,5.63,0,0,1,1.89.3v.73a5.24,5.24,0,0,0-1.82-.32,2.17,2.17,0,0,0-1.82.71,3.41,3.41,0,0,0-.54,2.09c0,1.67.79,2.51,2.38,2.51A5.23,5.23,0,0,0,58.74,25.84Z"/><path class="cls-1" d="M73.61,26a3.6,3.6,0,0,1-4.55,0,3.73,3.73,0,0,1-.74-2.56,3.72,3.72,0,0,1,.74-2.55,3.6,3.6,0,0,1,4.55,0,3.72,3.72,0,0,1,.73,2.55A3.73,3.73,0,0,1,73.61,26Zm-.33-4.11a1.57,1.57,0,0,0-.71-.84,2.51,2.51,0,0,0-1.24-.26,2.53,2.53,0,0,0-1.24.26,1.56,1.56,0,0,0-.7.84,4.17,4.17,0,0,0-.24,1.55A4.19,4.19,0,0,0,69.39,25a1.56,1.56,0,0,0,.7.84,2.65,2.65,0,0,0,1.24.26,2.62,2.62,0,0,0,1.24-.26,1.57,1.57,0,0,0,.71-.84,4.43,4.43,0,0,0,.23-1.56A4.41,4.41,0,0,0,73.28,21.92Z"/><path class="cls-1" d="M89.22,26a2.58,2.58,0,0,1-2.09.77H84.58V20.21h2.55a2.58,2.58,0,0,1,2.09.78,3.93,3.93,0,0,1,.65,2.52A3.75,3.75,0,0,1,89.22,26Zm-.38-4.06a1.42,1.42,0,0,0-.65-.81A2.66,2.66,0,0,0,87,20.87H85.41v5.22H87a2.72,2.72,0,0,0,1.17-.21,1.39,1.39,0,0,0,.67-.77,4.48,4.48,0,0,0,.22-1.6A5.16,5.16,0,0,0,88.84,21.91Z"/><path class="cls-1" d="M100.11,20.21h4.41v.66h-3.58v2.28h3.22v.65h-3.22v2.29h3.58v.65h-4.41Z"/><path class="cls-1" d="M116.59,25.33h-.68v-1.5h-1.57v-.65h1.57V21.61h.68v1.57h1.58v.65h-1.58Z"/><path class="cls-1" d="M133,26a2.57,2.57,0,0,1-2.08.77H128.4V20.21H131A2.57,2.57,0,0,1,133,21a3.87,3.87,0,0,1,.65,2.52A3.75,3.75,0,0,1,133,26Zm-.38-4.06a1.44,1.44,0,0,0-.64-.81,2.73,2.73,0,0,0-1.22-.23h-1.57v5.22h1.57a2.8,2.8,0,0,0,1.18-.21,1.42,1.42,0,0,0,.66-.77,4.48,4.48,0,0,0,.22-1.6A4.87,4.87,0,0,0,132.66,21.91Z"/><path class="cls-1" d="M143.93,20.21h4.41v.66h-3.58v2.28H148v.65h-3.22v2.29h3.58v.65h-4.41Z"/><path class="cls-1" d="M162.36,26.37a3.12,3.12,0,0,1-1.87.47,5.35,5.35,0,0,1-2-.3V25.8a5.37,5.37,0,0,0,1.89.33,2.78,2.78,0,0,0,1.33-.24.9.9,0,0,0,.42-.85,1,1,0,0,0-.18-.61,1.28,1.28,0,0,0-.56-.38,6.4,6.4,0,0,0-1.11-.33,3.44,3.44,0,0,1-1.51-.68,1.51,1.51,0,0,1-.43-1.14,1.57,1.57,0,0,1,.61-1.32,3,3,0,0,1,1.81-.47,5.7,5.7,0,0,1,1,.08,5.29,5.29,0,0,1,.78.17v.73a5,5,0,0,0-1.67-.27,2.58,2.58,0,0,0-1.29.25.89.89,0,0,0-.43.83.87.87,0,0,0,.15.54,1.14,1.14,0,0,0,.51.35,8.7,8.7,0,0,0,1.07.32,3.41,3.41,0,0,1,1.6.73A1.62,1.62,0,0,1,163,25,1.53,1.53,0,0,1,162.36,26.37Z"/><path class="cls-1" d="M173.24,20.21h.83v6.53h-.83Z"/><path class="cls-1" d="M189.05,25.87V23.79h-1.74v-.57h2.46v3.1a4.3,4.3,0,0,1-2.33.52A3,3,0,0,1,185.1,26a3.35,3.35,0,0,1-.79-2.36,4,4,0,0,1,.76-2.59,2.91,2.91,0,0,1,2.36-.92,5.63,5.63,0,0,1,1.89.3v.73a5.24,5.24,0,0,0-1.82-.32,2.17,2.17,0,0,0-1.82.71,3.41,3.41,0,0,0-.54,2.09,2.77,2.77,0,0,0,.56,1.87,2.27,2.27,0,0,0,1.79.64A4.4,4.4,0,0,0,189.05,25.87Z"/><path class="cls-1" d="M200.84,26.74H200V20.21h.75l3.72,5.25V20.21h.83v6.53h-.76l-3.71-5.24Z"/></g><g id="spot_uv" data-name="spot uv"><rect x="22.99" width="12.9" height="12.9" rx="6.45"/><polygon points="51.87 0 38.6 26.54 29.25 26.54 42.52 0 51.87 0"/><path d="M140.81,8.4,136.14.2H139l3.19,5.88L145.37.2h2.83l-4.67,8.2v4.81h-2.72Z"/><path d="M149.19,6.77q0-3.52,1.56-5.14a7.75,7.75,0,0,1,9.51,0c1,1.08,1.57,2.79,1.57,5.14q0,6.63-6.32,6.64T149.19,6.77Zm9,3.26a5.1,5.1,0,0,0,.87-3.26,5.37,5.37,0,0,0-.85-3.43,4.1,4.1,0,0,0-5.41,0A5.37,5.37,0,0,0,152,6.77a5.1,5.1,0,0,0,.87,3.26,3.93,3.93,0,0,0,5.37,0Z"/><path d="M166.38,12.1a4.7,4.7,0,0,1-1.55-3.78V.2h2.73V8.12a2.91,2.91,0,0,0,.8,2.22,3.86,3.86,0,0,0,4.57,0,2.91,2.91,0,0,0,.79-2.22V.2h2.72V8.32a4.73,4.73,0,0,1-1.53,3.77,6.31,6.31,0,0,1-4.26,1.32A6.41,6.41,0,0,1,166.38,12.1Z"/><path d="M179.86.2h2.36l6.16,8.67V.2h2.72v13h-2.36l-6.16-8.67v8.67h-2.72Z"/><path d="M195.73,11.7A6.41,6.41,0,0,1,194,6.93a7.06,7.06,0,0,1,1.75-5.1A6.67,6.67,0,0,1,200.83,0a12.58,12.58,0,0,1,3.92.55V2.89A10.92,10.92,0,0,0,201,2.32a4.18,4.18,0,0,0-3.27,1.12,5.18,5.18,0,0,0-1,3.49c0,2.78,1.31,4.18,3.93,4.18a7.51,7.51,0,0,0,2.51-.41v-3h-3V5.94h5.33V12.3a7.08,7.08,0,0,1-2,.8,12,12,0,0,1-2.87.31A6.69,6.69,0,0,1,195.73,11.7Z"/></g><g id="foil"><rect class="cls-2" x="15.98" y="13.65" width="12.9" height="12.9" rx="6.45"/><polygon class="cls-3" points="0 26.54 13.27 0 22.62 0 9.35 26.54 0 26.54"/><path class="cls-1" d="M58.65.21h3l5,13.23H63.85L62.6,10.26H57.73l-1.24,3.18h-2.9Zm3.54,7.91-2-5.32-2,5.32Z"/><path class="cls-1" d="M69.82,12.31a4.75,4.75,0,0,1-1.57-3.84V.21H71v8a2.91,2.91,0,0,0,.82,2.26,3.27,3.27,0,0,0,2.33.76,3.23,3.23,0,0,0,2.32-.76,2.94,2.94,0,0,0,.8-2.26v-8h2.78V8.47a4.77,4.77,0,0,1-1.56,3.83,6.44,6.44,0,0,1-4.34,1.35A6.52,6.52,0,0,1,69.82,12.31Z"/><path class="cls-1" d="M83.24.2h6.63a4.15,4.15,0,0,1,2.93.92,3.42,3.42,0,0,1,1,2.62,3.5,3.5,0,0,1-.4,1.74,2.59,2.59,0,0,1-1.11,1.11,2.93,2.93,0,0,1,1.49,1,3.11,3.11,0,0,1,.51,1.9,3.67,3.67,0,0,1-1.07,2.86,4.46,4.46,0,0,1-3.08,1H83.24Zm6.12,5.44c1.24,0,1.85-.56,1.85-1.67a1.69,1.69,0,0,0-.45-1.31,2.38,2.38,0,0,0-1.6-.42H86v3.4Zm.1,5.65A2.2,2.2,0,0,0,91,10.85a1.93,1.93,0,0,0,.48-1.49A1.62,1.62,0,0,0,91,8.05a2.66,2.66,0,0,0-1.7-.42H86v3.66Z"/><path class="cls-1" d="M97.4.2h6.29A4.3,4.3,0,0,1,107,1.36a4.55,4.55,0,0,1,1.09,3.24,3.87,3.87,0,0,1-.68,2.28,3.86,3.86,0,0,1-1.92,1.38,2.53,2.53,0,0,1,.49.56,5.53,5.53,0,0,1,.42.82L108,13.31h-2.85l-1.55-3.52a1.33,1.33,0,0,0-.45-.64A1.43,1.43,0,0,0,102.3,9h-2.15v4.34H97.4ZM103,6.69a2.58,2.58,0,0,0,1.71-.49,2,2,0,0,0,.59-1.6A2.13,2.13,0,0,0,104.74,3a2.21,2.21,0,0,0-1.6-.51h-3V6.69Z"/><path class="cls-1" d="M110.76.2h9.33V2.32h-6.6V5.65h5.85v2.1h-5.85v3.36h6.6v2.1h-9.33Z"/><path class="cls-1" d="M126.75,8.4,122.09.2h2.84l3.19,5.88L131.31.2h2.83l-4.66,8.2v4.81h-2.73Z"/></g></g></svg>