<svg xmlns="http://www.w3.org/2000/svg" viewBox="0 0 177.9 28"><defs><style>.cls-1{fill:#b3b3b3;}</style></defs><title>logo-horizontal_1</title><g id="Layer_2" data-name="Layer 2"><g id="logo"><rect x="24.26" width="13.61" height="13.61" rx="6.8"/><polygon points="54.72 0 40.72 28 30.86 28 44.86 0 54.72 0"/><rect class="cls-1" x="16.86" y="14.4" width="13.61" height="13.61" rx="6.8"/><polygon class="cls-1" points="0 28 14 0 23.86 0 9.86 28 0 28"/><path class="cls-1" d="M60.73,4.42h2.38l4,10.37H64.8l-1-2.5H60l-1,2.5H56.77Zm2.77,6.2L61.91,6.45l-1.58,4.17Z"/><path class="cls-1" d="M69.48,13.9a3.74,3.74,0,0,1-1.23-3V4.42h2.17v6.31a2.3,2.3,0,0,0,.64,1.77,2.55,2.55,0,0,0,1.83.6,2.5,2.5,0,0,0,1.81-.6,2.33,2.33,0,0,0,.63-1.77V4.42h2.18v6.47a3.73,3.73,0,0,1-1.23,3A5,5,0,0,1,72.89,15,5.09,5.09,0,0,1,69.48,13.9Z"/><path class="cls-1" d="M80.23,4.42h5.25a3.26,3.26,0,0,1,2.31.72,2.71,2.71,0,0,1,.78,2.08,2.82,2.82,0,0,1-.32,1.38,2.11,2.11,0,0,1-.88.87,2.24,2.24,0,0,1,1.18.78,2.49,2.49,0,0,1,.4,1.51A2.9,2.9,0,0,1,88.11,14a3.53,3.53,0,0,1-2.44.77H80.23Zm4.84,4.3q1.47,0,1.47-1.32a1.34,1.34,0,0,0-.36-1A1.92,1.92,0,0,0,84.91,6H82.4V8.72Zm.08,4.47a1.78,1.78,0,0,0,1.22-.34,1.57,1.57,0,0,0,.38-1.19,1.27,1.27,0,0,0-.4-1A2.1,2.1,0,0,0,85,10.29H82.4v2.9Z"/><path class="cls-1" d="M91.43,4.42h5a3.38,3.38,0,0,1,2.6.92,3.6,3.6,0,0,1,.86,2.56,2.9,2.9,0,0,1-2.06,2.89,2,2,0,0,1,.39.45,4.26,4.26,0,0,1,.33.65l1.26,2.9H97.53L96.31,12a1.26,1.26,0,0,0-.36-.51,1.2,1.2,0,0,0-.64-.13h-1.7v3.43H91.43Zm4.41,5.13a2.1,2.1,0,0,0,1.36-.39,1.56,1.56,0,0,0,.46-1.26,1.72,1.72,0,0,0-.42-1.28A1.81,1.81,0,0,0,96,6.22H93.61V9.55Z"/><path class="cls-1" d="M102.35,4.42h7.44V6.11h-5.27V8.77h4.67v1.67h-4.67v2.67h5.27v1.68h-7.44Z"/><path class="cls-1" d="M115.1,11l-3.72-6.53h2.27l2.54,4.68,2.55-4.68H121L117.27,11v3.84H115.1Z"/><path d="M126.3,11l-3.72-6.53h2.27L127.4,9.1l2.54-4.68h2.26L128.48,11v3.84H126.3Z"/><path d="M133,9.65a5.76,5.76,0,0,1,1.25-4.1,6.21,6.21,0,0,1,7.58,0,5.72,5.72,0,0,1,1.25,4.1q0,5.3-5,5.3T133,9.65Zm7.18,2.6a4,4,0,0,0,.7-2.6,4.29,4.29,0,0,0-.68-2.73,3.27,3.27,0,0,0-4.31,0,4.29,4.29,0,0,0-.68,2.73,4.06,4.06,0,0,0,.69,2.6,3.12,3.12,0,0,0,4.28,0Z"/><path d="M146.69,13.9a3.74,3.74,0,0,1-1.23-3V4.42h2.17v6.31a2.34,2.34,0,0,0,.64,1.77,3.08,3.08,0,0,0,3.65,0,2.33,2.33,0,0,0,.62-1.77V4.42h2.18v6.47a3.73,3.73,0,0,1-1.23,3A5,5,0,0,1,150.1,15,5.09,5.09,0,0,1,146.69,13.9Z"/><path d="M157.44,4.42h1.88l4.91,6.91V4.42h2.18V14.79h-1.89l-4.91-6.91v6.91h-2.17Z"/><path d="M170.09,13.59a5.15,5.15,0,0,1-1.37-3.81,5.67,5.67,0,0,1,1.4-4.07,5.31,5.31,0,0,1,4-1.45,10.21,10.21,0,0,1,3.13.43V6.56a8.82,8.82,0,0,0-3-.45,3.33,3.33,0,0,0-2.61.89,4.1,4.1,0,0,0-.79,2.78q0,3.33,3.14,3.33a5.81,5.81,0,0,0,2-.32V10.38h-2.41V9h4.25v5.07a5.58,5.58,0,0,1-1.58.64A9.45,9.45,0,0,1,174,15,5.39,5.39,0,0,1,170.09,13.59Z"/><path class="cls-1" d="M60.87,24.86v.59a5,5,0,0,1-1.5.21A2.39,2.39,0,0,1,57.51,25a2.65,2.65,0,0,1-.64-1.88A3.16,3.16,0,0,1,57.48,21a2.32,2.32,0,0,1,1.88-.74,4.47,4.47,0,0,1,1.51.24v.58a4.13,4.13,0,0,0-1.45-.25,1.7,1.7,0,0,0-1.45.56,2.71,2.71,0,0,0-.43,1.67c0,1.33.63,2,1.89,2A4.18,4.18,0,0,0,60.87,24.86Z"/><path class="cls-1" d="M72.72,25a2.85,2.85,0,0,1-3.62,0,2.93,2.93,0,0,1-.59-2,2.91,2.91,0,0,1,.59-2,2.85,2.85,0,0,1,3.62,0,3,3,0,0,1,.59,2A3,3,0,0,1,72.72,25Zm-.26-3.28a1.25,1.25,0,0,0-.56-.67,2.55,2.55,0,0,0-2,0,1.25,1.25,0,0,0-.56.67A3.3,3.3,0,0,0,69.17,23a3.26,3.26,0,0,0,.19,1.24,1.22,1.22,0,0,0,.56.67,2.44,2.44,0,0,0,2,0,1.22,1.22,0,0,0,.56-.67A3.26,3.26,0,0,0,72.65,23,3.3,3.3,0,0,0,72.46,21.73Z"/><path class="cls-1" d="M85.18,25a2.07,2.07,0,0,1-1.67.62h-2V20.37h2a2.06,2.06,0,0,1,1.66.62,3.1,3.1,0,0,1,.52,2A3,3,0,0,1,85.18,25Zm-.31-3.24a1.15,1.15,0,0,0-.51-.64,2.18,2.18,0,0,0-1-.18H82.14v4.16h1.25a2.18,2.18,0,0,0,.93-.17,1.07,1.07,0,0,0,.53-.62A3.43,3.43,0,0,0,85,23,4,4,0,0,0,84.87,21.72Z"/><path class="cls-1" d="M93.86,20.37h3.51v.53H94.52v1.81h2.56v.52H94.52v1.83h2.85v.52H93.86Z"/><path class="cls-1" d="M107,24.46h-.54v-1.2H105.2v-.53h1.26V21.49H107v1.24h1.25v.53H107Z"/><path class="cls-1" d="M120.11,25a2,2,0,0,1-1.66.62h-2V20.37h2a2.06,2.06,0,0,1,1.66.62,3.1,3.1,0,0,1,.52,2A3,3,0,0,1,120.11,25Zm-.3-3.24a1.13,1.13,0,0,0-.52-.64,2.1,2.1,0,0,0-1-.18h-1.25v4.16h1.25a2.18,2.18,0,0,0,.93-.17,1.07,1.07,0,0,0,.53-.62A3.43,3.43,0,0,0,120,23,4,4,0,0,0,119.81,21.72Z"/><path class="cls-1" d="M128.8,20.37h3.51v.53h-2.85v1.81H132v.52h-2.56v1.83h2.85v.52H128.8Z"/><path class="cls-1" d="M143.49,25.29a2.53,2.53,0,0,1-1.49.37,4.06,4.06,0,0,1-1.57-.25v-.59a4.25,4.25,0,0,0,1.51.27A2.2,2.2,0,0,0,143,24.9a.88.88,0,0,0,.19-1.16,1,1,0,0,0-.44-.31,6.42,6.42,0,0,0-.89-.26,2.69,2.69,0,0,1-1.2-.54,1.36,1.36,0,0,1,.14-2,2.35,2.35,0,0,1,1.44-.38,5.55,5.55,0,0,1,.82.06,3.91,3.91,0,0,1,.62.14v.58a4.08,4.08,0,0,0-1.33-.21,2,2,0,0,0-1,.2.7.7,0,0,0-.35.66.71.71,0,0,0,.13.43.91.91,0,0,0,.4.28,6,6,0,0,0,.86.25,2.68,2.68,0,0,1,1.27.59,1.39,1.39,0,0,1-.14,2Z"/><path class="cls-1" d="M152.16,20.37h.66v5.21h-.66Z"/><path class="cls-1" d="M164.77,24.88V23.22h-1.39v-.45h2v2.47a3.42,3.42,0,0,1-1.86.42,2.39,2.39,0,0,1-1.86-.69,2.69,2.69,0,0,1-.63-1.88A3.11,3.11,0,0,1,161.6,21a2.29,2.29,0,0,1,1.88-.74,4.55,4.55,0,0,1,1.51.24v.58a4.19,4.19,0,0,0-1.46-.25,1.69,1.69,0,0,0-1.44.56,2.64,2.64,0,0,0-.44,1.67,2.19,2.19,0,0,0,.45,1.49,1.81,1.81,0,0,0,1.42.51A3.45,3.45,0,0,0,164.77,24.88Z"/><path class="cls-1" d="M174.17,25.58h-.67V20.37h.6l3,4.19V20.37h.66v5.21h-.6l-3-4.18Z"/></g></g></svg>